<?xml version="1.0" encoding="UTF-8" standalone="no"?>
<!DOCTYPE svg PUBLIC "-//W3C//DTD SVG 1.0//EN"
 "http://www.w3.org/TR/2001/REC-SVG-20010904/DTD/svg10.dtd" [
 <!ATTLIST svg xmlns:xlink CDATA #FIXED "http://www.w3.org/1999/xlink">
]>
<!-- Generated by Graphviz version 2.18 (Fri May &#160;2 20:53:13 UTC 2008)
     For user: (lispserver) ,,, -->
<!-- Title: g Pages: 1 -->
<svg width="11086pt" height="5595pt"
 viewBox="0.00 0.00 11086.00 5595.00" xmlns="http://www.w3.org/2000/svg" xmlns:xlink="http://www.w3.org/1999/xlink">
<g id="graph0" class="graph" transform="scale(1 1) rotate(0) translate(4 5591)">
<title>g</title>
<polygon style="fill:white;stroke:white;" points="-4,4 -4,-5591 11082,-5591 11082,4 -4,4"/>
<!-- ID=Harvard_University -->
<g id="node2" class="node"><title>ID=Harvard_University</title>
<ellipse style="fill:none;stroke:black;" cx="5740" cy="-2659" rx="425.886" ry="55.8614"/>
<text text-anchor="middle" x="5740" y="-2640.5" style="font-family:Times New Roman;font-size:60.00;">Harvard University</text>
</g>
<!-- ID=Rage_Against_the_Machine -->
<g id="node4" class="node"><title>ID=Rage_Against_the_Machine</title>
<ellipse style="fill:none;stroke:black;" cx="6293" cy="-3294" rx="345.068" ry="34.6482"/>
<text text-anchor="middle" x="6293" y="-3283" style="font-family:Times New Roman;font-size:35.00;">Rage Against the Machine</text>
</g>
<!-- ID=Harvard_University&#45;&gt;ID=Rage_Against_the_Machine -->
<g id="edge4" class="edge"><title>ID=Harvard_University&#45;&gt;ID=Rage_Against_the_Machine</title>
<path style="fill:none;stroke:black;" d="M5789,-2715C5898,-2840 6159,-3140 6256,-3252"/>
<polygon style="fill:black;stroke:black;" points="6253.78,-3254.78 6263,-3260 6259.05,-3250.17 6253.78,-3254.78"/>
</g>
<!-- ID=Boston_Aztec -->
<g id="node28" class="node"><title>ID=Boston_Aztec</title>
<ellipse style="fill:none;stroke:black;" cx="5853" cy="-3112" rx="176.07" ry="34.6482"/>
<text text-anchor="middle" x="5853" y="-3101" style="font-family:Times New Roman;font-size:35.00;">Boston Aztec</text>
</g>
<!-- ID=Harvard_University&#45;&gt;ID=Boston_Aztec -->
<g id="edge28" class="edge"><title>ID=Harvard_University&#45;&gt;ID=Boston_Aztec</title>
<path style="fill:none;stroke:black;" d="M5754,-2715C5776,-2806 5821,-2985 5842,-3067"/>
<polygon style="fill:black;stroke:black;" points="5838.61,-3067.88 5844,-3077 5845.47,-3066.51 5838.61,-3067.88"/>
</g>
<!-- ID=Newenglandsports -->
<g id="node55" class="node"><title>ID=Newenglandsports</title>
<ellipse style="fill:none;stroke:black;" cx="5433" cy="-3016" rx="248.194" ry="34.6482"/>
<text text-anchor="middle" x="5433" y="-3005" style="font-family:Times New Roman;font-size:35.00;">Newenglandsports</text>
</g>
<!-- ID=Harvard_University&#45;&gt;ID=Newenglandsports -->
<g id="edge55" class="edge"><title>ID=Harvard_University&#45;&gt;ID=Newenglandsports</title>
<path style="fill:none;stroke:black;" d="M5692,-2715C5631,-2786 5525,-2909 5470,-2974"/>
<polygon style="fill:black;stroke:black;" points="5466.95,-2972.17 5463,-2982 5472.22,-2976.78 5466.95,-2972.17"/>
</g>
<!-- ID=New_York_Public_Library -->
<g id="node58" class="node"><title>ID=New_York_Public_Library</title>
<ellipse style="fill:none;stroke:black;" cx="4668" cy="-3495" rx="319.82" ry="34.6482"/>
<text text-anchor="middle" x="4668" y="-3484" style="font-family:Times New Roman;font-size:35.00;">New York Public Library</text>
</g>
<!-- ID=Harvard_University&#45;&gt;ID=New_York_Public_Library -->
<g id="edge58" class="edge"><title>ID=Harvard_University&#45;&gt;ID=New_York_Public_Library</title>
<path style="fill:none;stroke:black;" d="M5669,-2714C5467,-2872 4895,-3318 4720,-3455"/>
<polygon style="fill:black;stroke:black;" points="4717.9,-3452.2 4712,-3461 4722.1,-3457.8 4717.9,-3452.2"/>
</g>
<!-- ID=Lowell_Devils -->
<g id="node85" class="node"><title>ID=Lowell_Devils</title>
<ellipse style="fill:none;stroke:black;" cx="4528" cy="-2819" rx="179.813" ry="34.6482"/>
<text text-anchor="middle" x="4528" y="-2808" style="font-family:Times New Roman;font-size:35.00;">Lowell Devils</text>
</g>
<!-- ID=Harvard_University&#45;&gt;ID=Lowell_Devils -->
<g id="edge85" class="edge"><title>ID=Harvard_University&#45;&gt;ID=Lowell_Devils</title>
<path style="fill:none;stroke:black;" d="M5439,-2699C5200,-2730 4877,-2772 4686,-2798"/>
<polygon style="fill:black;stroke:black;" points="4685.6,-2794.52 4676,-2799 4686.3,-2801.49 4685.6,-2794.52"/>
</g>
<!-- ID=November_8 -->
<g id="node110" class="node"><title>ID=November_8</title>
<ellipse style="fill:none;stroke:black;" cx="5012" cy="-2986" rx="167.084" ry="34.6482"/>
<text text-anchor="middle" x="5012" y="-2975" style="font-family:Times New Roman;font-size:35.00;">November 8</text>
</g>
<!-- ID=Harvard_University&#45;&gt;ID=November_8 -->
<g id="edge111" class="edge"><title>ID=Harvard_University&#45;&gt;ID=November_8</title>
<path style="fill:none;stroke:black;" d="M5620,-2713C5471,-2780 5220,-2893 5091,-2950"/>
<polygon style="fill:black;stroke:black;" points="5089.72,-2946.74 5082,-2954 5092.56,-2953.14 5089.72,-2946.74"/>
</g>
<!-- ID=Financial_endowment -->
<g id="node137" class="node"><title>ID=Financial_endowment</title>
<ellipse style="fill:none;stroke:black;" cx="5367" cy="-2532" rx="283.05" ry="34.6482"/>
<text text-anchor="middle" x="5367" y="-2521" style="font-family:Times New Roman;font-size:35.00;">Financial endowment</text>
</g>
<!-- ID=Harvard_University&#45;&gt;ID=Financial_endowment -->
<g id="edge138" class="edge"><title>ID=Harvard_University&#45;&gt;ID=Financial_endowment</title>
<path style="fill:none;stroke:black;" d="M5605,-2606C5567,-2593 5526,-2579 5489,-2567"/>
<polygon style="fill:black;stroke:black;" points="5489.58,-2563.52 5479,-2564 5487.57,-2570.23 5489.58,-2563.52"/>
</g>
<!-- ID=Alan_Jay_Lerner -->
<g id="node161" class="node"><title>ID=Alan_Jay_Lerner</title>
<ellipse style="fill:none;stroke:black;" cx="6126" cy="-2417" rx="208.096" ry="34.6482"/>
<text text-anchor="middle" x="6126" y="-2406" style="font-family:Times New Roman;font-size:35.00;">Alan Jay Lerner</text>
</g>
<!-- ID=Harvard_University&#45;&gt;ID=Alan_Jay_Lerner -->
<g id="edge164" class="edge"><title>ID=Harvard_University&#45;&gt;ID=Alan_Jay_Lerner</title>
<path style="fill:none;stroke:black;" d="M5828,-2604C5900,-2559 6000,-2496 6064,-2456"/>
<polygon style="fill:black;stroke:black;" points="6065.96,-2458.92 6073,-2451 6062.56,-2452.8 6065.96,-2458.92"/>
</g>
<!-- ID=Cambridge_College -->
<g id="node188" class="node"><title>ID=Cambridge_College</title>
<ellipse style="fill:none;stroke:black;" cx="6250" cy="-2834" rx="254.058" ry="34.6482"/>
<text text-anchor="middle" x="6250" y="-2823" style="font-family:Times New Roman;font-size:35.00;">Cambridge College</text>
</g>
<!-- ID=Harvard_University&#45;&gt;ID=Cambridge_College -->
<g id="edge191" class="edge"><title>ID=Harvard_University&#45;&gt;ID=Cambridge_College</title>
<path style="fill:none;stroke:black;" d="M5893,-2711C5975,-2740 6074,-2773 6146,-2799"/>
<polygon style="fill:black;stroke:black;" points="6145.42,-2802.48 6156,-2802 6147.43,-2795.77 6145.42,-2802.48"/>
</g>
<!-- ID=2007 -->
<g id="node7" class="node"><title>ID=2007</title>
<ellipse style="fill:none;stroke:black;" cx="6874" cy="-3183" rx="43.1335" ry="20.5061"/>
<text text-anchor="middle" x="6874" y="-3178.2" style="font-family:Times New Roman;font-size:17.00;">2007</text>
</g>
<!-- ID=Rage_Against_the_Machine&#45;&gt;ID=2007 -->
<g id="edge7" class="edge"><title>ID=Rage_Against_the_Machine&#45;&gt;ID=2007</title>
<path style="fill:none;stroke:black;" d="M6453,-3263C6578,-3240 6743,-3209 6824,-3193"/>
<polygon style="fill:black;stroke:black;" points="6824.88,-3196.39 6834,-3191 6823.51,-3189.53 6824.88,-3196.39"/>
</g>
<!-- ID=Alpine_Valley_Music_Theater -->
<g id="node13" class="node"><title>ID=Alpine_Valley_Music_Theater</title>
<ellipse style="fill:none;stroke:black;" cx="8789" cy="-3929" rx="185.969" ry="20.5061"/>
<text text-anchor="middle" x="8789" y="-3924.2" style="font-family:Times New Roman;font-size:17.00;">Alpine Valley Music Theater</text>
</g>
<!-- ID=Rage_Against_the_Machine&#45;&gt;ID=Alpine_Valley_Music_Theater -->
<g id="edge13" class="edge"><title>ID=Rage_Against_the_Machine&#45;&gt;ID=Alpine_Valley_Music_Theater</title>
<path style="fill:none;stroke:black;" d="M6419,-3326C6862,-3439 8337,-3814 8705,-3908"/>
<polygon style="fill:black;stroke:black;" points="8704.51,-3911.47 8715,-3910 8705.88,-3904.61 8704.51,-3911.47"/>
</g>
<!-- ID=Zmag -->
<g id="node16" class="node"><title>ID=Zmag</title>
<ellipse style="fill:none;stroke:black;" cx="7491" cy="-4094" rx="46.1672" ry="20.5061"/>
<text text-anchor="middle" x="7491" y="-4089.2" style="font-family:Times New Roman;font-size:17.00;">Zmag</text>
</g>
<!-- ID=Rage_Against_the_Machine&#45;&gt;ID=Zmag -->
<g id="edge16" class="edge"><title>ID=Rage_Against_the_Machine&#45;&gt;ID=Zmag</title>
<path style="fill:none;stroke:black;" d="M6344,-3328C6547,-3465 7288,-3959 7457,-4071"/>
<polygon style="fill:black;stroke:black;" points="7454.9,-4073.8 7465,-4077 7459.1,-4068.2 7454.9,-4073.8"/>
</g>
<!-- ID=NYSE_Group -->
<g id="node22" class="node"><title>ID=NYSE_Group</title>
<ellipse style="fill:none;stroke:black;" cx="6705" cy="-3774" rx="89.8026" ry="20.5061"/>
<text text-anchor="middle" x="6705" y="-3769.2" style="font-family:Times New Roman;font-size:17.00;">NYSE Group</text>
</g>
<!-- ID=Rage_Against_the_Machine&#45;&gt;ID=NYSE_Group -->
<g id="edge22" class="edge"><title>ID=Rage_Against_the_Machine&#45;&gt;ID=NYSE_Group</title>
<path style="fill:none;stroke:black;" d="M6323,-3329C6400,-3420 6610,-3664 6681,-3746"/>
<polygon style="fill:black;stroke:black;" points="6678.78,-3748.78 6688,-3754 6684.05,-3744.17 6678.78,-3748.78"/>
</g>
<!-- ID=Cabinet_Office_Briefing_Rooms -->
<g id="node10" class="node"><title>ID=Cabinet_Office_Briefing_Rooms</title>
<ellipse style="fill:none;stroke:black;" cx="10953" cy="-3543" rx="123.809" ry="18"/>
<text text-anchor="middle" x="10953" y="-3540.1" style="font-family:Times New Roman;font-size:11.00;">Cabinet Office Briefing Rooms</text>
</g>
<!-- ID=2007&#45;&gt;ID=Cabinet_Office_Briefing_Rooms -->
<g id="edge10" class="edge"><title>ID=2007&#45;&gt;ID=Cabinet_Office_Briefing_Rooms</title>
<path style="fill:none;stroke:black;" d="M6916,-3187C7303,-3221 10214,-3478 10837,-3533"/>
<polygon style="fill:black;stroke:black;" points="10836.7,-3536.49 10847,-3534 10837.4,-3529.52 10836.7,-3536.49"/>
</g>
<!-- ID=Denmark -->
<g id="node19" class="node"><title>ID=Denmark</title>
<ellipse style="fill:none;stroke:black;" cx="10833" cy="-5237" rx="43.0847" ry="18"/>
<text text-anchor="middle" x="10833" y="-5234.1" style="font-family:Times New Roman;font-size:11.00;">Denmark</text>
</g>
<!-- ID=Zmag&#45;&gt;ID=Denmark -->
<g id="edge19" class="edge"><title>ID=Zmag&#45;&gt;ID=Denmark</title>
<path style="fill:none;stroke:black;" d="M7528,-4107C7865,-4222 10426,-5098 10790,-5223"/>
<polygon style="fill:black;stroke:black;" points="10789.4,-5226.48 10800,-5226 10791.4,-5219.77 10789.4,-5226.48"/>
</g>
<!-- ID=US$ -->
<g id="node25" class="node"><title>ID=US$</title>
<ellipse style="fill:none;stroke:black;" cx="8600" cy="-5370" rx="27" ry="18"/>
<text text-anchor="middle" x="8600" y="-5367.1" style="font-family:Times New Roman;font-size:11.00;">US$</text>
</g>
<!-- ID=NYSE_Group&#45;&gt;ID=US$ -->
<g id="edge25" class="edge"><title>ID=NYSE_Group&#45;&gt;ID=US$</title>
<path style="fill:none;stroke:black;" d="M6729,-3794C6931,-3964 8368,-5174 8575,-5349"/>
<polygon style="fill:black;stroke:black;" points="8573.17,-5352.05 8583,-5356 8577.78,-5346.78 8573.17,-5352.05"/>
</g>
<!-- ID=Queen_City_FC -->
<g id="node31" class="node"><title>ID=Queen_City_FC</title>
<ellipse style="fill:none;stroke:black;" cx="6024" cy="-3737" rx="102.03" ry="20.5061"/>
<text text-anchor="middle" x="6024" y="-3732.2" style="font-family:Times New Roman;font-size:17.00;">Queen City FC</text>
</g>
<!-- ID=Boston_Aztec&#45;&gt;ID=Queen_City_FC -->
<g id="edge31" class="edge"><title>ID=Boston_Aztec&#45;&gt;ID=Queen_City_FC</title>
<path style="fill:none;stroke:black;" d="M5862,-3146C5892,-3257 5986,-3602 6015,-3706"/>
<polygon style="fill:black;stroke:black;" points="6011.77,-3707.43 6018,-3716 6018.48,-3705.42 6011.77,-3707.43"/>
</g>
<!-- ID=Vermont_Lake_Monsters -->
<g id="node37" class="node"><title>ID=Vermont_Lake_Monsters</title>
<ellipse style="fill:none;stroke:black;" cx="6468" cy="-4426" rx="161.22" ry="20.5061"/>
<text text-anchor="middle" x="6468" y="-4421.2" style="font-family:Times New Roman;font-size:17.00;">Vermont Lake Monsters</text>
</g>
<!-- ID=Boston_Aztec&#45;&gt;ID=Vermont_Lake_Monsters -->
<g id="edge37" class="edge"><title>ID=Boston_Aztec&#45;&gt;ID=Vermont_Lake_Monsters</title>
<path style="fill:none;stroke:black;" d="M5869,-3146C5956,-3333 6372,-4222 6454,-4396"/>
<polygon style="fill:black;stroke:black;" points="6450.74,-4397.28 6458,-4405 6457.14,-4394.44 6450.74,-4397.28"/>
</g>
<!-- ID=University_of_Vermont -->
<g id="node43" class="node"><title>ID=University_of_Vermont</title>
<ellipse style="fill:none;stroke:black;" cx="5777" cy="-4341" rx="147.785" ry="20.5061"/>
<text text-anchor="middle" x="5777" y="-4336.2" style="font-family:Times New Roman;font-size:17.00;">University of Vermont</text>
</g>
<!-- ID=Boston_Aztec&#45;&gt;ID=University_of_Vermont -->
<g id="edge43" class="edge"><title>ID=Boston_Aztec&#45;&gt;ID=University_of_Vermont</title>
<path style="fill:none;stroke:black;" d="M5851,-3147C5839,-3326 5789,-4141 5779,-4310"/>
<polygon style="fill:black;stroke:black;" points="5775.51,-4309.7 5778,-4320 5782.48,-4310.4 5775.51,-4309.7"/>
</g>
<!-- ID=Super&#45;20_League -->
<g id="node49" class="node"><title>ID=Super&#45;20_League</title>
<ellipse style="fill:none;stroke:black;" cx="5605" cy="-3471" rx="118.794" ry="20.5061"/>
<text text-anchor="middle" x="5605" y="-3466.2" style="font-family:Times New Roman;font-size:17.00;">Super&#45;20 League</text>
</g>
<!-- ID=Boston_Aztec&#45;&gt;ID=Super&#45;20_League -->
<g id="edge49" class="edge"><title>ID=Boston_Aztec&#45;&gt;ID=Super&#45;20_League</title>
<path style="fill:none;stroke:black;" d="M5829,-3146C5780,-3217 5670,-3376 5625,-3441"/>
<polygon style="fill:black;stroke:black;" points="5621.63,-3439.74 5619,-3450 5627.46,-3443.62 5621.63,-3439.74"/>
</g>
<!-- ID=United_States_U&#45;20_men&#39;s_national_soccer_team -->
<g id="node89" class="node"><title>ID=United_States_U&#45;20_men&#39;s_national_soccer_team</title>
<ellipse style="fill:none;stroke:black;" cx="5348" cy="-3893" rx="185.845" ry="18"/>
<text text-anchor="middle" x="5348" y="-3890.1" style="font-family:Times New Roman;font-size:11.00;">United States U&#45;20 men&#39;s national soccer team</text>
</g>
<!-- ID=Boston_Aztec&#45;&gt;ID=United_States_U&#45;20_men&#39;s_national_soccer_team -->
<g id="edge90" class="edge"><title>ID=Boston_Aztec&#45;&gt;ID=United_States_U&#45;20_men&#39;s_national_soccer_team</title>
<path style="fill:none;stroke:black;" d="M5831,-3146C5745,-3278 5441,-3749 5365,-3867"/>
<polygon style="fill:black;stroke:black;" points="5362.33,-3864.66 5360,-3875 5368.27,-3868.38 5362.33,-3864.66"/>
</g>
<!-- ID=United_States_Soccer_Federation -->
<g id="node34" class="node"><title>ID=United_States_Soccer_Federation</title>
<ellipse style="fill:none;stroke:black;" cx="7351" cy="-5336" rx="130.757" ry="18"/>
<text text-anchor="middle" x="7351" y="-5333.1" style="font-family:Times New Roman;font-size:11.00;">United States Soccer Federation</text>
</g>
<!-- ID=Queen_City_FC&#45;&gt;ID=United_States_Soccer_Federation -->
<g id="edge34" class="edge"><title>ID=Queen_City_FC&#45;&gt;ID=United_States_Soccer_Federation</title>
<path style="fill:none;stroke:black;" d="M6041,-3758C6184,-3929 7171,-5119 7330,-5310"/>
<polygon style="fill:black;stroke:black;" points="7327.2,-5312.1 7336,-5318 7332.8,-5307.9 7327.2,-5312.1"/>
</g>
<!-- ID=American_football -->
<g id="node40" class="node"><title>ID=American_football</title>
<ellipse style="fill:none;stroke:black;" cx="6498" cy="-5533" rx="77.1949" ry="18"/>
<text text-anchor="middle" x="6498" y="-5530.1" style="font-family:Times New Roman;font-size:11.00;">American football</text>
</g>
<!-- ID=Vermont_Lake_Monsters&#45;&gt;ID=American_football -->
<g id="edge40" class="edge"><title>ID=Vermont_Lake_Monsters&#45;&gt;ID=American_football</title>
<path style="fill:none;stroke:black;" d="M6469,-4447C6473,-4582 6493,-5346 6498,-5505"/>
<polygon style="fill:black;stroke:black;" points="6494.5,-5505 6498,-5515 6501.5,-5505 6494.5,-5505"/>
</g>
<!-- ID=Herb_Brown -->
<g id="node46" class="node"><title>ID=Herb_Brown</title>
<ellipse style="fill:none;stroke:black;" cx="5641" cy="-5568" rx="53.8258" ry="18"/>
<text text-anchor="middle" x="5641" y="-5565.1" style="font-family:Times New Roman;font-size:11.00;">Herb Brown</text>
</g>
<!-- ID=University_of_Vermont&#45;&gt;ID=Herb_Brown -->
<g id="edge46" class="edge"><title>ID=University_of_Vermont&#45;&gt;ID=Herb_Brown</title>
<path style="fill:none;stroke:black;" d="M5775,-4362C5758,-4507 5663,-5372 5644,-5540"/>
<polygon style="fill:black;stroke:black;" points="5640.51,-5539.7 5643,-5550 5647.48,-5540.4 5640.51,-5539.7"/>
</g>
<!-- ID=USL_First_Division -->
<g id="node52" class="node"><title>ID=USL_First_Division</title>
<ellipse style="fill:none;stroke:black;" cx="5226" cy="-4709" rx="77.0645" ry="18"/>
<text text-anchor="middle" x="5226" y="-4706.1" style="font-family:Times New Roman;font-size:11.00;">USL First Division</text>
</g>
<!-- ID=Super&#45;20_League&#45;&gt;ID=USL_First_Division -->
<g id="edge52" class="edge"><title>ID=Super&#45;20_League&#45;&gt;ID=USL_First_Division</title>
<path style="fill:none;stroke:black;" d="M5599,-3492C5554,-3638 5286,-4513 5235,-4681"/>
<polygon style="fill:black;stroke:black;" points="5231.52,-4680.42 5232,-4691 5238.23,-4682.43 5231.52,-4680.42"/>
</g>
<!-- ID=List_of_areas_in_the_United_States_National_Park_System -->
<g id="node61" class="node"><title>ID=List_of_areas_in_the_United_States_National_Park_System</title>
<ellipse style="fill:none;stroke:black;" cx="5146" cy="-3443" rx="353.761" ry="20.5061"/>
<text text-anchor="middle" x="5146" y="-3438.2" style="font-family:Times New Roman;font-size:17.00;">List of areas in the United States National Park System</text>
</g>
<!-- ID=New_York_Public_Library&#45;&gt;ID=List_of_areas_in_the_United_States_National_Park_System -->
<g id="edge61" class="edge"><title>ID=New_York_Public_Library&#45;&gt;ID=List_of_areas_in_the_United_States_National_Park_System</title>
<path style="fill:none;stroke:black;" d="M4893,-3470C4918,-3467 4943,-3465 4968,-3462"/>
<polygon style="fill:black;stroke:black;" points="4968.4,-3465.48 4978,-3461 4967.7,-3458.51 4968.4,-3465.48"/>
</g>
<!-- ID=1901 -->
<g id="node67" class="node"><title>ID=1901</title>
<ellipse style="fill:none;stroke:black;" cx="4861" cy="-4198" rx="43.1335" ry="20.5061"/>
<text text-anchor="middle" x="4861" y="-4193.2" style="font-family:Times New Roman;font-size:17.00;">1901</text>
</g>
<!-- ID=New_York_Public_Library&#45;&gt;ID=1901 -->
<g id="edge67" class="edge"><title>ID=New_York_Public_Library&#45;&gt;ID=1901</title>
<path style="fill:none;stroke:black;" d="M4678,-3530C4711,-3651 4821,-4054 4852,-4167"/>
<polygon style="fill:black;stroke:black;" points="4848.77,-4168.43 4855,-4177 4855.48,-4166.42 4848.77,-4168.43"/>
</g>
<!-- ID=2004 -->
<g id="node73" class="node"><title>ID=2004</title>
<ellipse style="fill:none;stroke:black;" cx="4251" cy="-4219" rx="43.1335" ry="20.5061"/>
<text text-anchor="middle" x="4251" y="-4214.2" style="font-family:Times New Roman;font-size:17.00;">2004</text>
</g>
<!-- ID=New_York_Public_Library&#45;&gt;ID=2004 -->
<g id="edge73" class="edge"><title>ID=New_York_Public_Library&#45;&gt;ID=2004</title>
<path style="fill:none;stroke:black;" d="M4648,-3530C4576,-3655 4334,-4076 4267,-4190"/>
<polygon style="fill:black;stroke:black;" points="4263.8,-4188.56 4262,-4199 4269.92,-4191.96 4263.8,-4188.56"/>
</g>
<!-- ID=Firestarter -->
<g id="node79" class="node"><title>ID=Firestarter</title>
<ellipse style="fill:none;stroke:black;" cx="4070" cy="-3290" rx="79.196" ry="20.5061"/>
<text text-anchor="middle" x="4070" y="-3285.2" style="font-family:Times New Roman;font-size:17.00;">Firestarter</text>
</g>
<!-- ID=New_York_Public_Library&#45;&gt;ID=Firestarter -->
<g id="edge79" class="edge"><title>ID=New_York_Public_Library&#45;&gt;ID=Firestarter</title>
<path style="fill:none;stroke:black;" d="M4572,-3462C4446,-3418 4230,-3345 4128,-3309"/>
<polygon style="fill:black;stroke:black;" points="4128.58,-3305.52 4118,-3306 4126.57,-3312.23 4128.58,-3305.52"/>
</g>
<!-- ID=American_exceptionalism -->
<g id="node64" class="node"><title>ID=American_exceptionalism</title>
<ellipse style="fill:none;stroke:black;" cx="4666" cy="-5532" rx="104.858" ry="18"/>
<text text-anchor="middle" x="4666" y="-5529.1" style="font-family:Times New Roman;font-size:11.00;">American exceptionalism</text>
</g>
<!-- ID=List_of_areas_in_the_United_States_National_Park_System&#45;&gt;ID=American_exceptionalism -->
<g id="edge64" class="edge"><title>ID=List_of_areas_in_the_United_States_National_Park_System&#45;&gt;ID=American_exceptionalism</title>
<path style="fill:none;stroke:black;" d="M5141,-3464C5095,-3665 4726,-5271 4672,-5504"/>
<polygon style="fill:black;stroke:black;" points="4668.53,-5503.51 4670,-5514 4675.39,-5504.88 4668.53,-5503.51"/>
</g>
<!-- ID=1901_in_radio -->
<g id="node70" class="node"><title>ID=1901_in_radio</title>
<ellipse style="fill:none;stroke:black;" cx="3701" cy="-5385" rx="60.1397" ry="18"/>
<text text-anchor="middle" x="3701" y="-5382.1" style="font-family:Times New Roman;font-size:11.00;">1901 in radio</text>
</g>
<!-- ID=1901&#45;&gt;ID=1901_in_radio -->
<g id="edge70" class="edge"><title>ID=1901&#45;&gt;ID=1901_in_radio</title>
<path style="fill:none;stroke:black;" d="M4843,-4217C4708,-4354 3877,-5204 3725,-5361"/>
<polygon style="fill:black;stroke:black;" points="3722.6,-5358.45 3718,-5368 3727.55,-5363.4 3722.6,-5358.45"/>
</g>
<!-- ID=2012 -->
<g id="node76" class="node"><title>ID=2012</title>
<ellipse style="fill:none;stroke:black;" cx="2418" cy="-5279" rx="29.0571" ry="18"/>
<text text-anchor="middle" x="2418" y="-5276.1" style="font-family:Times New Roman;font-size:11.00;">2012</text>
</g>
<!-- ID=2004&#45;&gt;ID=2012 -->
<g id="edge76" class="edge"><title>ID=2004&#45;&gt;ID=2012</title>
<path style="fill:none;stroke:black;" d="M4223,-4235C4013,-4357 2668,-5135 2448,-5262"/>
<polygon style="fill:black;stroke:black;" points="2446.04,-5259.08 2439,-5267 2449.44,-5265.2 2446.04,-5259.08"/>
</g>
<!-- ID=The_Gunslinger -->
<g id="node82" class="node"><title>ID=The_Gunslinger</title>
<ellipse style="fill:none;stroke:black;" cx="231" cy="-5232" rx="65.8273" ry="18"/>
<text text-anchor="middle" x="231" y="-5229.1" style="font-family:Times New Roman;font-size:11.00;">The Gunslinger</text>
</g>
<!-- ID=Firestarter&#45;&gt;ID=The_Gunslinger -->
<g id="edge82" class="edge"><title>ID=Firestarter&#45;&gt;ID=The_Gunslinger</title>
<path style="fill:none;stroke:black;" d="M4034,-3308C3669,-3493 657,-5016 271,-5211"/>
<polygon style="fill:black;stroke:black;" points="269.042,-5208.08 262,-5216 272.441,-5214.2 269.042,-5208.08"/>
</g>
<!-- ID=Lowell_Devils&#45;&gt;ID=Boston_Aztec -->
<g id="edge87" class="edge"><title>ID=Lowell_Devils&#45;&gt;ID=Boston_Aztec</title>
<path style="fill:none;stroke:black;" d="M4646,-2845C4895,-2900 5470,-3028 5726,-3084"/>
<polygon style="fill:black;stroke:black;" points="5725.51,-3087.47 5736,-3086 5726.88,-3080.61 5725.51,-3087.47"/>
</g>
<!-- ID=Rugby_union -->
<g id="node92" class="node"><title>ID=Rugby_union</title>
<ellipse style="fill:none;stroke:black;" cx="3410" cy="-4005" rx="89.8026" ry="20.5061"/>
<text text-anchor="middle" x="3410" y="-4000.2" style="font-family:Times New Roman;font-size:17.00;">Rugby union</text>
</g>
<!-- ID=Lowell_Devils&#45;&gt;ID=Rugby_union -->
<g id="edge93" class="edge"><title>ID=Lowell_Devils&#45;&gt;ID=Rugby_union</title>
<path style="fill:none;stroke:black;" d="M4496,-2853C4331,-3028 3585,-3819 3436,-3978"/>
<polygon style="fill:black;stroke:black;" points="3433.6,-3975.45 3429,-3985 3438.55,-3980.4 3433.6,-3975.45"/>
</g>
<!-- ID=Boston_College_Eagles -->
<g id="node98" class="node"><title>ID=Boston_College_Eagles</title>
<ellipse style="fill:none;stroke:black;" cx="3302" cy="-2896" rx="150.113" ry="20.5061"/>
<text text-anchor="middle" x="3302" y="-2891.2" style="font-family:Times New Roman;font-size:17.00;">Boston College Eagles</text>
</g>
<!-- ID=Lowell_Devils&#45;&gt;ID=Boston_College_Eagles -->
<g id="edge99" class="edge"><title>ID=Lowell_Devils&#45;&gt;ID=Boston_College_Eagles</title>
<path style="fill:none;stroke:black;" d="M4357,-2830C4115,-2845 3677,-2872 3449,-2886"/>
<polygon style="fill:black;stroke:black;" points="3448.6,-2882.52 3439,-2887 3449.3,-2889.49 3448.6,-2882.52"/>
</g>
<!-- ID=Stephen_Gionta -->
<g id="node104" class="node"><title>ID=Stephen_Gionta</title>
<ellipse style="fill:none;stroke:black;" cx="4000" cy="-2401" rx="108.187" ry="20.5061"/>
<text text-anchor="middle" x="4000" y="-2396.2" style="font-family:Times New Roman;font-size:17.00;">Stephen Gionta</text>
</g>
<!-- ID=Lowell_Devils&#45;&gt;ID=Stephen_Gionta -->
<g id="edge105" class="edge"><title>ID=Lowell_Devils&#45;&gt;ID=Stephen_Gionta</title>
<path style="fill:none;stroke:black;" d="M4485,-2785C4383,-2704 4125,-2500 4033,-2427"/>
<polygon style="fill:black;stroke:black;" points="4035.1,-2424.2 4025,-2421 4030.9,-2429.8 4035.1,-2424.2"/>
</g>
<!-- ID=All_Blacks -->
<g id="node95" class="node"><title>ID=All_Blacks</title>
<ellipse style="fill:none;stroke:black;" cx="47" cy="-3509" rx="46.2414" ry="18"/>
<text text-anchor="middle" x="47" y="-3506.1" style="font-family:Times New Roman;font-size:11.00;">All Blacks</text>
</g>
<!-- ID=Rugby_union&#45;&gt;ID=All_Blacks -->
<g id="edge96" class="edge"><title>ID=Rugby_union&#45;&gt;ID=All_Blacks</title>
<path style="fill:none;stroke:black;" d="M3334,-3994C2877,-3926 489,-3574 100,-3517"/>
<polygon style="fill:black;stroke:black;" points="100.492,-3513.53 90,-3515 99.1194,-3520.39 100.492,-3513.53"/>
</g>
<!-- ID=USL_Second_Division -->
<g id="node101" class="node"><title>ID=USL_Second_Division</title>
<ellipse style="fill:none;stroke:black;" cx="2182" cy="-3643" rx="87.1713" ry="18"/>
<text text-anchor="middle" x="2182" y="-3640.1" style="font-family:Times New Roman;font-size:11.00;">USL Second Division</text>
</g>
<!-- ID=Boston_College_Eagles&#45;&gt;ID=USL_Second_Division -->
<g id="edge102" class="edge"><title>ID=Boston_College_Eagles&#45;&gt;ID=USL_Second_Division</title>
<path style="fill:none;stroke:black;" d="M3272,-2916C3114,-3021 2384,-3508 2216,-3620"/>
<polygon style="fill:black;stroke:black;" points="2213.9,-3617.2 2208,-3626 2218.1,-3622.8 2213.9,-3617.2"/>
</g>
<!-- ID=Shot_(ice_hockey) -->
<g id="node107" class="node"><title>ID=Shot_(ice_hockey)</title>
<ellipse style="fill:none;stroke:black;" cx="2211" cy="-2199" rx="73.9061" ry="18"/>
<text text-anchor="middle" x="2211" y="-2196.1" style="font-family:Times New Roman;font-size:11.00;">Shot (ice hockey)</text>
</g>
<!-- ID=Stephen_Gionta&#45;&gt;ID=Shot_(ice_hockey) -->
<g id="edge108" class="edge"><title>ID=Stephen_Gionta&#45;&gt;ID=Shot_(ice_hockey)</title>
<path style="fill:none;stroke:black;" d="M3907,-2390C3594,-2355 2577,-2241 2288,-2208"/>
<polygon style="fill:black;stroke:black;" points="2288.3,-2204.51 2278,-2207 2287.6,-2211.48 2288.3,-2204.51"/>
</g>
<!-- ID=April_3 -->
<g id="node113" class="node"><title>ID=April_3</title>
<ellipse style="fill:none;stroke:black;" cx="3323" cy="-1704" rx="53.033" ry="20.5061"/>
<text text-anchor="middle" x="3323" y="-1699.2" style="font-family:Times New Roman;font-size:17.00;">April 3</text>
</g>
<!-- ID=November_8&#45;&gt;ID=April_3 -->
<g id="edge114" class="edge"><title>ID=November_8&#45;&gt;ID=April_3</title>
<path style="fill:none;stroke:black;" d="M4968,-2953C4727,-2770 3564,-1887 3355,-1728"/>
<polygon style="fill:black;stroke:black;" points="3357.1,-1725.2 3347,-1722 3352.9,-1730.8 3357.1,-1725.2"/>
</g>
<!-- ID=1921 -->
<g id="node119" class="node"><title>ID=1921</title>
<ellipse style="fill:none;stroke:black;" cx="4575" cy="-2106" rx="43.1335" ry="20.5061"/>
<text text-anchor="middle" x="4575" y="-2101.2" style="font-family:Times New Roman;font-size:17.00;">1921</text>
</g>
<!-- ID=November_8&#45;&gt;ID=1921 -->
<g id="edge120" class="edge"><title>ID=November_8&#45;&gt;ID=1921</title>
<path style="fill:none;stroke:black;" d="M4995,-2952C4924,-2810 4656,-2268 4590,-2135"/>
<polygon style="fill:black;stroke:black;" points="4592.92,-2133.04 4585,-2126 4586.8,-2136.44 4592.92,-2133.04"/>
</g>
<!-- ID=1905 -->
<g id="node125" class="node"><title>ID=1905</title>
<ellipse style="fill:none;stroke:black;" cx="4135" cy="-1398" rx="43.1335" ry="20.5061"/>
<text text-anchor="middle" x="4135" y="-1393.2" style="font-family:Times New Roman;font-size:17.00;">1905</text>
</g>
<!-- ID=November_8&#45;&gt;ID=1905 -->
<g id="edge126" class="edge"><title>ID=November_8&#45;&gt;ID=1905</title>
<path style="fill:none;stroke:black;" d="M4993,-2951C4876,-2739 4258,-1621 4151,-1427"/>
<polygon style="fill:black;stroke:black;" points="4153.92,-1425.04 4146,-1418 4147.8,-1428.44 4153.92,-1425.04"/>
</g>
<!-- ID=1246 -->
<g id="node131" class="node"><title>ID=1246</title>
<ellipse style="fill:none;stroke:black;" cx="4947" cy="-2510" rx="43.1335" ry="20.5061"/>
<text text-anchor="middle" x="4947" y="-2505.2" style="font-family:Times New Roman;font-size:17.00;">1246</text>
</g>
<!-- ID=November_8&#45;&gt;ID=1246 -->
<g id="edge132" class="edge"><title>ID=November_8&#45;&gt;ID=1246</title>
<path style="fill:none;stroke:black;" d="M5007,-2951C4995,-2862 4963,-2625 4951,-2541"/>
<polygon style="fill:black;stroke:black;" points="4954.48,-2540.6 4950,-2531 4947.51,-2541.3 4954.48,-2540.6"/>
</g>
<!-- ID=April_9 -->
<g id="node116" class="node"><title>ID=April_9</title>
<ellipse style="fill:none;stroke:black;" cx="186" cy="-2048" rx="34.8756" ry="18"/>
<text text-anchor="middle" x="186" y="-2045.1" style="font-family:Times New Roman;font-size:11.00;">April 9</text>
</g>
<!-- ID=April_3&#45;&gt;ID=April_9 -->
<g id="edge117" class="edge"><title>ID=April_3&#45;&gt;ID=April_9</title>
<path style="fill:none;stroke:black;" d="M3272,-1710C2897,-1751 581,-2005 230,-2043"/>
<polygon style="fill:black;stroke:black;" points="229.602,-2039.52 220,-2044 230.299,-2046.49 229.602,-2039.52"/>
</g>
<!-- ID=Alexandria -->
<g id="node122" class="node"><title>ID=Alexandria</title>
<ellipse style="fill:none;stroke:black;" cx="167" cy="-384" rx="50.0338" ry="18"/>
<text text-anchor="middle" x="167" y="-381.1" style="font-family:Times New Roman;font-size:11.00;">Alexandria</text>
</g>
<!-- ID=1921&#45;&gt;ID=Alexandria -->
<g id="edge123" class="edge"><title>ID=1921&#45;&gt;ID=Alexandria</title>
<path style="fill:none;stroke:black;" d="M4541,-2093C4160,-1944 643,-570 210,-401"/>
<polygon style="fill:black;stroke:black;" points="211.56,-397.863 201,-397 208.717,-404.26 211.56,-397.863"/>
</g>
<!-- ID=Druidry -->
<g id="node128" class="node"><title>ID=Druidry</title>
<ellipse style="fill:none;stroke:black;" cx="2285" cy="-458" rx="37.9006" ry="18"/>
<text text-anchor="middle" x="2285" y="-455.1" style="font-family:Times New Roman;font-size:11.00;">Druidry</text>
</g>
<!-- ID=1905&#45;&gt;ID=Druidry -->
<g id="edge129" class="edge"><title>ID=1905&#45;&gt;ID=Druidry</title>
<path style="fill:none;stroke:black;" d="M4106,-1383C3890,-1274 2554,-595 2320,-476"/>
<polygon style="fill:black;stroke:black;" points="2321.44,-472.797 2311,-471 2318.04,-478.916 2321.44,-472.797"/>
</g>
<!-- ID=Dafydd_ap_Llywelyn -->
<g id="node134" class="node"><title>ID=Dafydd_ap_Llywelyn</title>
<ellipse style="fill:none;stroke:black;" cx="3501" cy="-215" rx="82.1179" ry="18"/>
<text text-anchor="middle" x="3501" y="-212.1" style="font-family:Times New Roman;font-size:11.00;">Dafydd ap Llywelyn</text>
</g>
<!-- ID=1246&#45;&gt;ID=Dafydd_ap_Llywelyn -->
<g id="edge135" class="edge"><title>ID=1246&#45;&gt;ID=Dafydd_ap_Llywelyn</title>
<path style="fill:none;stroke:black;" d="M4934,-2490C4803,-2281 3669,-483 3517,-242"/>
<polygon style="fill:black;stroke:black;" points="3519.92,-240.042 3512,-233 3513.8,-243.441 3519.92,-240.042"/>
</g>
<!-- ID=Financial_endowment&#45;&gt;ID=Harvard_University -->
<g id="edge143" class="edge"><title>ID=Financial_endowment&#45;&gt;ID=Harvard_University</title>
<path style="fill:none;stroke:black;" d="M5447,-2565C5480,-2577 5520,-2591 5559,-2605"/>
<polygon style="fill:black;stroke:black;" points="5558.42,-2608.48 5569,-2608 5560.43,-2601.77 5558.42,-2608.48"/>
</g>
<!-- ID=Financial_endowment&#45;&gt;ID=Financial_endowment -->
<g id="edge140" class="edge"><title>ID=Financial_endowment&#45;&gt;ID=Financial_endowment</title>
<path style="fill:none;stroke:black;" d="M5648,-2536C5661,-2535 5668,-2534 5668,-2532 5668,-2531 5665,-2530 5658,-2529"/>
<polygon style="fill:black;stroke:black;" points="5658.3,-2525.51 5648,-2528 5657.6,-2532.48 5658.3,-2525.51"/>
</g>
<!-- ID=Transfer -->
<g id="node143" class="node"><title>ID=Transfer</title>
<ellipse style="fill:none;stroke:black;" cx="4793" cy="-1387" rx="65.0538" ry="20.5061"/>
<text text-anchor="middle" x="4793" y="-1382.2" style="font-family:Times New Roman;font-size:17.00;">Transfer</text>
</g>
<!-- ID=Financial_endowment&#45;&gt;ID=Transfer -->
<g id="edge146" class="edge"><title>ID=Financial_endowment&#45;&gt;ID=Transfer</title>
<path style="fill:none;stroke:black;" d="M5350,-2497C5265,-2327 4888,-1577 4808,-1417"/>
<polygon style="fill:black;stroke:black;" points="4810.92,-1415.04 4803,-1408 4804.8,-1418.44 4810.92,-1415.04"/>
</g>
<!-- ID=Lady_Margaret_Beaufort -->
<g id="node149" class="node"><title>ID=Lady_Margaret_Beaufort</title>
<ellipse style="fill:none;stroke:black;" cx="5148" cy="-2012" rx="162.842" ry="20.5061"/>
<text text-anchor="middle" x="5148" y="-2007.2" style="font-family:Times New Roman;font-size:17.00;">Lady Margaret Beaufort</text>
</g>
<!-- ID=Financial_endowment&#45;&gt;ID=Lady_Margaret_Beaufort -->
<g id="edge152" class="edge"><title>ID=Financial_endowment&#45;&gt;ID=Lady_Margaret_Beaufort</title>
<path style="fill:none;stroke:black;" d="M5352,-2497C5312,-2402 5199,-2132 5161,-2042"/>
<polygon style="fill:black;stroke:black;" points="5164.26,-2040.72 5157,-2033 5157.86,-2043.56 5164.26,-2040.72"/>
</g>
<!-- ID=Bill_&amp;_Melinda_Gates_Foundation -->
<g id="node155" class="node"><title>ID=Bill_&amp;_Melinda_Gates_Foundation</title>
<ellipse style="fill:none;stroke:black;" cx="5365" cy="-1376" rx="213.754" ry="20.5061"/>
<text text-anchor="middle" x="5365" y="-1371.2" style="font-family:Times New Roman;font-size:17.00;">Bill &amp; Melinda Gates Foundation</text>
</g>
<!-- ID=Financial_endowment&#45;&gt;ID=Bill_&amp;_Melinda_Gates_Foundation -->
<g id="edge158" class="edge"><title>ID=Financial_endowment&#45;&gt;ID=Bill_&amp;_Melinda_Gates_Foundation</title>
<path style="fill:none;stroke:black;" d="M5367,-2497C5367,-2326 5365,-1570 5365,-1407"/>
<polygon style="fill:black;stroke:black;" points="5368.5,-1407 5365,-1397 5361.5,-1407 5368.5,-1407"/>
</g>
<!-- ID=Decal -->
<g id="node146" class="node"><title>ID=Decal</title>
<ellipse style="fill:none;stroke:black;" cx="4465" cy="-70" rx="31.0825" ry="18"/>
<text text-anchor="middle" x="4465" y="-67.1" style="font-family:Times New Roman;font-size:11.00;">Decal</text>
</g>
<!-- ID=Transfer&#45;&gt;ID=Decal -->
<g id="edge149" class="edge"><title>ID=Transfer&#45;&gt;ID=Decal</title>
<path style="fill:none;stroke:black;" d="M4788,-1366C4750,-1215 4516,-273 4472,-98"/>
<polygon style="fill:black;stroke:black;" points="4475.39,-97.1194 4470,-88 4468.53,-98.4922 4475.39,-97.1194"/>
</g>
<!-- ID=Jasper_Tudor -->
<g id="node152" class="node"><title>ID=Jasper_Tudor</title>
<ellipse style="fill:none;stroke:black;" cx="5068" cy="-646" rx="58.1142" ry="18"/>
<text text-anchor="middle" x="5068" y="-643.1" style="font-family:Times New Roman;font-size:11.00;">Jasper Tudor</text>
</g>
<!-- ID=Lady_Margaret_Beaufort&#45;&gt;ID=Jasper_Tudor -->
<g id="edge155" class="edge"><title>ID=Lady_Margaret_Beaufort&#45;&gt;ID=Jasper_Tudor</title>
<path style="fill:none;stroke:black;" d="M5147,-1991C5138,-1836 5080,-853 5070,-674"/>
<polygon style="fill:black;stroke:black;" points="5073.48,-673.602 5069,-664 5066.51,-674.299 5073.48,-673.602"/>
</g>
<!-- ID=Melinda_Gates -->
<g id="node158" class="node"><title>ID=Melinda_Gates</title>
<ellipse style="fill:none;stroke:black;" cx="5552" cy="-19" rx="63.9315" ry="18"/>
<text text-anchor="middle" x="5552" y="-16.1" style="font-family:Times New Roman;font-size:11.00;">Melinda Gates</text>
</g>
<!-- ID=Bill_&amp;_Melinda_Gates_Foundation&#45;&gt;ID=Melinda_Gates -->
<g id="edge161" class="edge"><title>ID=Bill_&amp;_Melinda_Gates_Foundation&#45;&gt;ID=Melinda_Gates</title>
<path style="fill:none;stroke:black;" d="M5368,-1355C5389,-1202 5523,-227 5548,-47"/>
<polygon style="fill:black;stroke:black;" points="5551.49,-47.2987 5549,-37 5544.52,-46.6021 5551.49,-47.2987"/>
</g>
<!-- ID=Burton_Lane -->
<g id="node164" class="node"><title>ID=Burton_Lane</title>
<ellipse style="fill:none;stroke:black;" cx="5638" cy="-2066" rx="89.0955" ry="20.5061"/>
<text text-anchor="middle" x="5638" y="-2061.2" style="font-family:Times New Roman;font-size:17.00;">Burton Lane</text>
</g>
<!-- ID=Alan_Jay_Lerner&#45;&gt;ID=Burton_Lane -->
<g id="edge167" class="edge"><title>ID=Alan_Jay_Lerner&#45;&gt;ID=Burton_Lane</title>
<path style="fill:none;stroke:black;" d="M6079,-2383C5982,-2313 5760,-2154 5673,-2092"/>
<polygon style="fill:black;stroke:black;" points="5675.1,-2089.2 5665,-2086 5670.9,-2094.8 5675.1,-2089.2"/>
</g>
<!-- ID=Milton_Ager -->
<g id="node170" class="node"><title>ID=Milton_Ager</title>
<ellipse style="fill:none;stroke:black;" cx="5880" cy="-1282" rx="85.0596" ry="20.5061"/>
<text text-anchor="middle" x="5880" y="-1277.2" style="font-family:Times New Roman;font-size:17.00;">Milton Ager</text>
</g>
<!-- ID=Alan_Jay_Lerner&#45;&gt;ID=Milton_Ager -->
<g id="edge173" class="edge"><title>ID=Alan_Jay_Lerner&#45;&gt;ID=Milton_Ager</title>
<path style="fill:none;stroke:black;" d="M6119,-2382C6082,-2213 5921,-1474 5887,-1313"/>
<polygon style="fill:black;stroke:black;" points="5890.39,-1312.12 5885,-1303 5883.53,-1313.49 5890.39,-1312.12"/>
</g>
<!-- ID=New_York -->
<g id="node176" class="node"><title>ID=New_York</title>
<ellipse style="fill:none;stroke:black;" cx="6138" cy="-1940" rx="70.9184" ry="20.5061"/>
<text text-anchor="middle" x="6138" y="-1935.2" style="font-family:Times New Roman;font-size:17.00;">New York</text>
</g>
<!-- ID=Alan_Jay_Lerner&#45;&gt;ID=New_York -->
<g id="edge179" class="edge"><title>ID=Alan_Jay_Lerner&#45;&gt;ID=New_York</title>
<path style="fill:none;stroke:black;" d="M6127,-2382C6130,-2293 6136,-2056 6138,-1971"/>
<polygon style="fill:black;stroke:black;" points="6141.5,-1971 6138,-1961 6134.5,-1971 6141.5,-1971"/>
</g>
<!-- ID=Gigi -->
<g id="node182" class="node"><title>ID=Gigi</title>
<ellipse style="fill:none;stroke:black;" cx="6761" cy="-2015" rx="36.0624" ry="20.5061"/>
<text text-anchor="middle" x="6761" y="-2010.2" style="font-family:Times New Roman;font-size:17.00;">Gigi</text>
</g>
<!-- ID=Alan_Jay_Lerner&#45;&gt;ID=Gigi -->
<g id="edge185" class="edge"><title>ID=Alan_Jay_Lerner&#45;&gt;ID=Gigi</title>
<path style="fill:none;stroke:black;" d="M6179,-2384C6305,-2303 6625,-2101 6729,-2035"/>
<polygon style="fill:black;stroke:black;" points="6730.38,-2038.27 6737,-2030 6726.66,-2032.33 6730.38,-2038.27"/>
</g>
<!-- ID=1966 -->
<g id="node167" class="node"><title>ID=1966</title>
<ellipse style="fill:none;stroke:black;" cx="6323" cy="-158" rx="29.0571" ry="18"/>
<text text-anchor="middle" x="6323" y="-155.1" style="font-family:Times New Roman;font-size:11.00;">1966</text>
</g>
<!-- ID=Burton_Lane&#45;&gt;ID=1966 -->
<g id="edge170" class="edge"><title>ID=Burton_Lane&#45;&gt;ID=1966</title>
<path style="fill:none;stroke:black;" d="M5645,-2046C5714,-1855 6235,-404 6313,-186"/>
<polygon style="fill:black;stroke:black;" points="6316.54,-186.585 6317,-176 6310.04,-183.985 6316.54,-186.585"/>
</g>
<!-- ID=Harry_Connick,_Jr. -->
<g id="node173" class="node"><title>ID=Harry_Connick,_Jr.</title>
<ellipse style="fill:none;stroke:black;" cx="6557" cy="-1267" rx="75.8011" ry="18"/>
<text text-anchor="middle" x="6557" y="-1264.1" style="font-family:Times New Roman;font-size:11.00;">Harry Connick, Jr.</text>
</g>
<!-- ID=Milton_Ager&#45;&gt;ID=Harry_Connick,_Jr. -->
<g id="edge176" class="edge"><title>ID=Milton_Ager&#45;&gt;ID=Harry_Connick,_Jr.</title>
<path style="fill:none;stroke:black;" d="M5965,-1280C6094,-1277 6341,-1271 6471,-1269"/>
<polygon style="fill:black;stroke:black;" points="6471,-1272.5 6481,-1269 6471,-1265.5 6471,-1272.5"/>
</g>
<!-- ID=City_University_of_New_York -->
<g id="node179" class="node"><title>ID=City_University_of_New_York</title>
<ellipse style="fill:none;stroke:black;" cx="7223" cy="-162" rx="109.912" ry="18"/>
<text text-anchor="middle" x="7223" y="-159.1" style="font-family:Times New Roman;font-size:11.00;">City University of New York</text>
</g>
<!-- ID=New_York&#45;&gt;ID=City_University_of_New_York -->
<g id="edge182" class="edge"><title>ID=New_York&#45;&gt;ID=City_University_of_New_York</title>
<path style="fill:none;stroke:black;" d="M6150,-1920C6260,-1739 7080,-397 7207,-189"/>
<polygon style="fill:black;stroke:black;" points="7210.2,-190.441 7212,-180 7204.08,-187.042 7210.2,-190.441"/>
</g>
<!-- ID=Gigi_(disambiguation) -->
<g id="node185" class="node"><title>ID=Gigi_(disambiguation)</title>
<ellipse style="fill:none;stroke:black;" cx="7469" cy="-1404" rx="92.2247" ry="18"/>
<text text-anchor="middle" x="7469" y="-1401.1" style="font-family:Times New Roman;font-size:11.00;">Gigi (disambiguation)</text>
</g>
<!-- ID=Gigi&#45;&gt;ID=Gigi_(disambiguation) -->
<g id="edge188" class="edge"><title>ID=Gigi&#45;&gt;ID=Gigi_(disambiguation)</title>
<path style="fill:none;stroke:black;" d="M6781,-1998C6881,-1911 7324,-1529 7440,-1429"/>
<polygon style="fill:black;stroke:black;" points="7442.78,-1431.22 7448,-1422 7438.17,-1425.95 7442.78,-1431.22"/>
</g>
<!-- ID=Education -->
<g id="node191" class="node"><title>ID=Education</title>
<ellipse style="fill:none;stroke:black;" cx="6785" cy="-2607" rx="74.2462" ry="20.5061"/>
<text text-anchor="middle" x="6785" y="-2602.2" style="font-family:Times New Roman;font-size:17.00;">Education</text>
</g>
<!-- ID=Cambridge_College&#45;&gt;ID=Education -->
<g id="edge194" class="edge"><title>ID=Cambridge_College&#45;&gt;ID=Education</title>
<path style="fill:none;stroke:black;" d="M6328,-2801C6439,-2754 6641,-2668 6735,-2628"/>
<polygon style="fill:black;stroke:black;" points="6736.28,-2631.26 6744,-2624 6733.44,-2624.86 6736.28,-2631.26"/>
</g>
<!-- ID=Counseling -->
<g id="node197" class="node"><title>ID=Counseling</title>
<ellipse style="fill:none;stroke:black;" cx="7597" cy="-2318" rx="80.8184" ry="20.5061"/>
<text text-anchor="middle" x="7597" y="-2313.2" style="font-family:Times New Roman;font-size:17.00;">Counseling</text>
</g>
<!-- ID=Cambridge_College&#45;&gt;ID=Counseling -->
<g id="edge200" class="edge"><title>ID=Cambridge_College&#45;&gt;ID=Counseling</title>
<path style="fill:none;stroke:black;" d="M6335,-2801C6589,-2705 7334,-2418 7542,-2339"/>
<polygon style="fill:black;stroke:black;" points="7544.02,-2341.96 7552,-2335 7541.42,-2335.46 7544.02,-2341.96"/>
</g>
<!-- ID=United_States -->
<g id="node203" class="node"><title>ID=United_States</title>
<ellipse style="fill:none;stroke:black;" cx="8781" cy="-1640" rx="96.1665" ry="20.5061"/>
<text text-anchor="middle" x="8781" y="-1635.2" style="font-family:Times New Roman;font-size:17.00;">United States</text>
</g>
<!-- ID=Cambridge_College&#45;&gt;ID=United_States -->
<g id="edge206" class="edge"><title>ID=Cambridge_College&#45;&gt;ID=United_States</title>
<path style="fill:none;stroke:black;" d="M6320,-2801C6691,-2626 8418,-1811 8732,-1663"/>
<polygon style="fill:black;stroke:black;" points="8733.28,-1666.26 8741,-1659 8730.44,-1659.86 8733.28,-1666.26"/>
</g>
<!-- ID=Stub -->
<g id="node209" class="node"><title>ID=Stub</title>
<ellipse style="fill:none;stroke:black;" cx="7645" cy="-3160" rx="39.8075" ry="20.5061"/>
<text text-anchor="middle" x="7645" y="-3155.2" style="font-family:Times New Roman;font-size:17.00;">Stub</text>
</g>
<!-- ID=Cambridge_College&#45;&gt;ID=Stub -->
<g id="edge212" class="edge"><title>ID=Cambridge_College&#45;&gt;ID=Stub</title>
<path style="fill:none;stroke:black;" d="M6378,-2864C6676,-2934 7408,-3105 7599,-3149"/>
<polygon style="fill:black;stroke:black;" points="7598.51,-3152.47 7609,-3151 7599.88,-3145.61 7598.51,-3152.47"/>
</g>
<!-- ID=Moral -->
<g id="node194" class="node"><title>ID=Moral</title>
<ellipse style="fill:none;stroke:black;" cx="8553" cy="-229" rx="32.2155" ry="18"/>
<text text-anchor="middle" x="8553" y="-226.1" style="font-family:Times New Roman;font-size:11.00;">Moral</text>
</g>
<!-- ID=Education&#45;&gt;ID=Moral -->
<g id="edge197" class="edge"><title>ID=Education&#45;&gt;ID=Moral</title>
<path style="fill:none;stroke:black;" d="M6800,-2587C6960,-2371 8357,-493 8534,-254"/>
<polygon style="fill:black;stroke:black;" points="8536.8,-256.1 8540,-246 8531.2,-251.9 8536.8,-256.1"/>
</g>
<!-- ID=Psychotherapy_and_Counselling_Federation_of_Australia -->
<g id="node200" class="node"><title>ID=Psychotherapy_and_Counselling_Federation_of_Australia</title>
<ellipse style="fill:none;stroke:black;" cx="10815" cy="-363" rx="216.797" ry="18"/>
<text text-anchor="middle" x="10815" y="-360.1" style="font-family:Times New Roman;font-size:11.00;">Psychotherapy and Counselling Federation of Australia</text>
</g>
<!-- ID=Counseling&#45;&gt;ID=Psychotherapy_and_Counselling_Federation_of_Australia -->
<g id="edge203" class="edge"><title>ID=Counseling&#45;&gt;ID=Psychotherapy_and_Counselling_Federation_of_Australia</title>
<path style="fill:none;stroke:black;" d="M7628,-2299C7937,-2111 10435,-594 10776,-386"/>
<polygon style="fill:black;stroke:black;" points="10778,-388.916 10785,-381 10774.6,-382.797 10778,-388.916"/>
</g>
<!-- ID=Economy_of_Sweden -->
<g id="node206" class="node"><title>ID=Economy_of_Sweden</title>
<ellipse style="fill:none;stroke:black;" cx="10964" cy="-2050" rx="84.7776" ry="18"/>
<text text-anchor="middle" x="10964" y="-2047.1" style="font-family:Times New Roman;font-size:11.00;">Economy of Sweden</text>
</g>
<!-- ID=United_States&#45;&gt;ID=Economy_of_Sweden -->
<g id="edge209" class="edge"><title>ID=United_States&#45;&gt;ID=Economy_of_Sweden</title>
<path style="fill:none;stroke:black;" d="M8853,-1654C9185,-1716 10555,-1974 10890,-2036"/>
<polygon style="fill:black;stroke:black;" points="10889.5,-2039.47 10900,-2038 10890.9,-2032.61 10889.5,-2039.47"/>
</g>
<!-- ID=Disambiguation -->
<g id="node212" class="node"><title>ID=Disambiguation</title>
<ellipse style="fill:none;stroke:black;" cx="8852" cy="-2777" rx="70.1161" ry="18"/>
<text text-anchor="middle" x="8852" y="-2774.1" style="font-family:Times New Roman;font-size:11.00;">Disambiguation</text>
</g>
<!-- ID=Stub&#45;&gt;ID=Disambiguation -->
<g id="edge215" class="edge"><title>ID=Stub&#45;&gt;ID=Disambiguation</title>
<path style="fill:none;stroke:black;" d="M7679,-3149C7848,-3096 8591,-2860 8798,-2794"/>
<polygon style="fill:black;stroke:black;" points="8799.43,-2797.23 8808,-2791 8797.42,-2790.52 8799.43,-2797.23"/>
</g>
</g>
</svg>
