<?xml version="1.0" encoding="UTF-8" standalone="no"?>
<!DOCTYPE svg PUBLIC "-//W3C//DTD SVG 1.0//EN"
 "http://www.w3.org/TR/2001/REC-SVG-20010904/DTD/svg10.dtd" [
 <!ATTLIST svg xmlns:xlink CDATA #FIXED "http://www.w3.org/1999/xlink">
]>
<!-- Generated by Graphviz version 2.18 (Fri May &#160;2 20:53:13 UTC 2008)
     For user: (lispserver) ,,, -->
<!-- Title: g Pages: 1 -->
<svg width="31135pt" height="9212pt"
 viewBox="0.00 0.00 31135.00 9212.00" xmlns="http://www.w3.org/2000/svg" xmlns:xlink="http://www.w3.org/1999/xlink">
<g id="graph0" class="graph" transform="scale(1 1) rotate(0) translate(4 9208)">
<title>g</title>
<polygon style="fill:white;stroke:white;" points="-4,4 -4,-9208 31131,-9208 31131,4 -4,4"/>
<!-- ID=Harvard_University -->
<g id="node2" class="node"><title>ID=Harvard_University</title>
<ellipse style="fill:none;stroke:black;" cx="16158" cy="-4562" rx="425.886" ry="55.8614"/>
<text text-anchor="middle" x="16158" y="-4543.5" style="font-family:Times New Roman;font-size:60.00;">Harvard University</text>
</g>
<!-- ID=Massachusetts_College_of_Pharmacy_and_Health_Sciences -->
<g id="node4" class="node"><title>ID=Massachusetts_College_of_Pharmacy_and_Health_Sciences</title>
<ellipse style="fill:none;stroke:black;" cx="16997" cy="-4661" rx="733.977" ry="34.6482"/>
<text text-anchor="middle" x="16997" y="-4650" style="font-family:Times New Roman;font-size:35.00;">Massachusetts College of Pharmacy and Health Sciences</text>
</g>
<!-- ID=Harvard_University&#45;&gt;ID=Massachusetts_College_of_Pharmacy_and_Health_Sciences -->
<g id="edge4" class="edge"><title>ID=Harvard_University&#45;&gt;ID=Massachusetts_College_of_Pharmacy_and_Health_Sciences</title>
<path style="fill:none;stroke:black;" d="M16475,-4599C16555,-4609 16640,-4618 16718,-4628"/>
<polygon style="fill:black;stroke:black;" points="16717.7,-4631.49 16728,-4629 16718.4,-4624.52 16717.7,-4631.49"/>
</g>
<!-- ID=August_13 -->
<g id="node31" class="node"><title>ID=August_13</title>
<ellipse style="fill:none;stroke:black;" cx="15979" cy="-5442" rx="140.007" ry="34.6482"/>
<text text-anchor="middle" x="15979" y="-5431" style="font-family:Times New Roman;font-size:35.00;">August 13</text>
</g>
<!-- ID=Harvard_University&#45;&gt;ID=August_13 -->
<g id="edge31" class="edge"><title>ID=Harvard_University&#45;&gt;ID=August_13</title>
<path style="fill:none;stroke:black;" d="M16147,-4618C16114,-4781 16018,-5249 15988,-5397"/>
<polygon style="fill:black;stroke:black;" points="15984.5,-5396.51 15986,-5407 15991.4,-5397.88 15984.5,-5396.51"/>
</g>
<!-- ID=List_of_U.S._colleges_and_universities_by_endowment -->
<g id="node58" class="node"><title>ID=List_of_U.S._colleges_and_universities_by_endowment</title>
<ellipse style="fill:none;stroke:black;" cx="15458" cy="-4920" rx="661.852" ry="34.6482"/>
<text text-anchor="middle" x="15458" y="-4909" style="font-family:Times New Roman;font-size:35.00;">List of U.S. colleges and universities by endowment</text>
</g>
<!-- ID=Harvard_University&#45;&gt;ID=List_of_U.S._colleges_and_universities_by_endowment -->
<g id="edge58" class="edge"><title>ID=Harvard_University&#45;&gt;ID=List_of_U.S._colleges_and_universities_by_endowment</title>
<path style="fill:none;stroke:black;" d="M16052,-4616C15910,-4689 15661,-4817 15535,-4880"/>
<polygon style="fill:black;stroke:black;" points="15533,-4877.08 15526,-4885 15536.4,-4883.2 15533,-4877.08"/>
</g>
<!-- ID=Suffolk_University -->
<g id="node82" class="node"><title>ID=Suffolk_University</title>
<ellipse style="fill:none;stroke:black;" cx="14978" cy="-5450" rx="237.795" ry="34.6482"/>
<text text-anchor="middle" x="14978" y="-5439" style="font-family:Times New Roman;font-size:35.00;">Suffolk University</text>
</g>
<!-- ID=Harvard_University&#45;&gt;ID=Suffolk_University -->
<g id="edge82" class="edge"><title>ID=Harvard_University&#45;&gt;ID=Suffolk_University</title>
<path style="fill:none;stroke:black;" d="M16085,-4617C15866,-4782 15221,-5267 15031,-5410"/>
<polygon style="fill:black;stroke:black;" points="15028.9,-5407.2 15023,-5416 15033.1,-5412.8 15028.9,-5407.2"/>
</g>
<!-- ID=International_League -->
<g id="node106" class="node"><title>ID=International_League</title>
<ellipse style="fill:none;stroke:black;" cx="14002" cy="-4629" rx="277.186" ry="34.6482"/>
<text text-anchor="middle" x="14002" y="-4618" style="font-family:Times New Roman;font-size:35.00;">International League</text>
</g>
<!-- ID=Harvard_University&#45;&gt;ID=International_League -->
<g id="edge106" class="edge"><title>ID=Harvard_University&#45;&gt;ID=International_League</title>
<path style="fill:none;stroke:black;" d="M15743,-4575C15313,-4588 14652,-4609 14281,-4621"/>
<polygon style="fill:black;stroke:black;" points="14281,-4617.5 14271,-4621 14281,-4624.5 14281,-4617.5"/>
</g>
<!-- ID=Peabody_Museum_of_Archaeology_and_Ethnology -->
<g id="node133" class="node"><title>ID=Peabody_Museum_of_Archaeology_and_Ethnology</title>
<ellipse style="fill:none;stroke:black;" cx="14779" cy="-4573" rx="621.047" ry="34.6482"/>
<text text-anchor="middle" x="14779" y="-4562" style="font-family:Times New Roman;font-size:35.00;">Peabody Museum of Archaeology and Ethnology</text>
</g>
<!-- ID=Harvard_University&#45;&gt;ID=Peabody_Museum_of_Archaeology_and_Ethnology -->
<g id="edge133" class="edge"><title>ID=Harvard_University&#45;&gt;ID=Peabody_Museum_of_Archaeology_and_Ethnology</title>
<path style="fill:none;stroke:black;" d="M15733,-4565C15629,-4566 15515,-4567 15404,-4568"/>
<polygon style="fill:black;stroke:black;" points="15404,-4564.5 15394,-4568 15404,-4571.5 15404,-4564.5"/>
</g>
<!-- ID=Boston_Celtics -->
<g id="node159" class="node"><title>ID=Boston_Celtics</title>
<ellipse style="fill:none;stroke:black;" cx="15477" cy="-4235" rx="193.04" ry="34.6482"/>
<text text-anchor="middle" x="15477" y="-4224" style="font-family:Times New Roman;font-size:35.00;">Boston Celtics</text>
</g>
<!-- ID=Harvard_University&#45;&gt;ID=Boston_Celtics -->
<g id="edge160" class="edge"><title>ID=Harvard_University&#45;&gt;ID=Boston_Celtics</title>
<path style="fill:none;stroke:black;" d="M16045,-4508C15907,-4441 15673,-4330 15554,-4271"/>
<polygon style="fill:black;stroke:black;" points="15555.6,-4267.86 15545,-4267 15552.7,-4274.26 15555.6,-4267.86"/>
</g>
<!-- ID=Jared_Sparks -->
<g id="node186" class="node"><title>ID=Jared_Sparks</title>
<ellipse style="fill:none;stroke:black;" cx="16752" cy="-3788" rx="173.948" ry="34.6482"/>
<text text-anchor="middle" x="16752" y="-3777" style="font-family:Times New Roman;font-size:35.00;">Jared Sparks</text>
</g>
<!-- ID=Harvard_University&#45;&gt;ID=Jared_Sparks -->
<g id="edge187" class="edge"><title>ID=Harvard_University&#45;&gt;ID=Jared_Sparks</title>
<path style="fill:none;stroke:black;" d="M16201,-4506C16314,-4358 16619,-3962 16720,-3830"/>
<polygon style="fill:black;stroke:black;" points="16722.8,-3832.1 16726,-3822 16717.2,-3827.9 16722.8,-3832.1"/>
</g>
<!-- ID=Harvard_Stem_Cell_Institute -->
<g id="node210" class="node"><title>ID=Harvard_Stem_Cell_Institute</title>
<ellipse style="fill:none;stroke:black;" cx="18032" cy="-3890" rx="362.953" ry="34.6482"/>
<text text-anchor="middle" x="18032" y="-3879" style="font-family:Times New Roman;font-size:35.00;">Harvard Stem Cell Institute</text>
</g>
<!-- ID=Harvard_University&#45;&gt;ID=Harvard_Stem_Cell_Institute -->
<g id="edge211" class="edge"><title>ID=Harvard_University&#45;&gt;ID=Harvard_Stem_Cell_Institute</title>
<path style="fill:none;stroke:black;" d="M16305,-4509C16670,-4378 17616,-4039 17929,-3926"/>
<polygon style="fill:black;stroke:black;" points="17930.4,-3929.23 17939,-3923 17928.4,-3922.52 17930.4,-3929.23"/>
</g>
<!-- ID=Wheelock_College -->
<g id="node7" class="node"><title>ID=Wheelock_College</title>
<ellipse style="fill:none;stroke:black;" cx="25715" cy="-4612" rx="123.037" ry="20.5061"/>
<text text-anchor="middle" x="25715" y="-4607.2" style="font-family:Times New Roman;font-size:17.00;">Wheelock College</text>
</g>
<!-- ID=Massachusetts_College_of_Pharmacy_and_Health_Sciences&#45;&gt;ID=Wheelock_College -->
<g id="edge7" class="edge"><title>ID=Massachusetts_College_of_Pharmacy_and_Health_Sciences&#45;&gt;ID=Wheelock_College</title>
<path style="fill:none;stroke:black;" d="M17726,-4657C19636,-4646 24696,-4617 25582,-4613"/>
<polygon style="fill:black;stroke:black;" points="25582,-4616.5 25592,-4613 25582,-4609.5 25582,-4616.5"/>
</g>
<!-- ID=University_president -->
<g id="node13" class="node"><title>ID=University_president</title>
<ellipse style="fill:none;stroke:black;" cx="21937" cy="-5912" rx="137.886" ry="20.5061"/>
<text text-anchor="middle" x="21937" y="-5907.2" style="font-family:Times New Roman;font-size:17.00;">University president</text>
</g>
<!-- ID=Massachusetts_College_of_Pharmacy_and_Health_Sciences&#45;&gt;ID=University_president -->
<g id="edge13" class="edge"><title>ID=Massachusetts_College_of_Pharmacy_and_Health_Sciences&#45;&gt;ID=University_president</title>
<path style="fill:none;stroke:black;" d="M17131,-4695C17855,-4878 21288,-5748 21857,-5892"/>
<polygon style="fill:black;stroke:black;" points="21856.5,-5895.47 21867,-5894 21857.9,-5888.61 21856.5,-5895.47"/>
</g>
<!-- ID=The_Boston_Globe -->
<g id="node19" class="node"><title>ID=The_Boston_Globe</title>
<ellipse style="fill:none;stroke:black;" cx="19432" cy="-6554" rx="120.915" ry="20.5061"/>
<text text-anchor="middle" x="19432" y="-6549.2" style="font-family:Times New Roman;font-size:17.00;">The Boston Globe</text>
</g>
<!-- ID=Massachusetts_College_of_Pharmacy_and_Health_Sciences&#45;&gt;ID=The_Boston_Globe -->
<g id="edge19" class="edge"><title>ID=Massachusetts_College_of_Pharmacy_and_Health_Sciences&#45;&gt;ID=The_Boston_Globe</title>
<path style="fill:none;stroke:black;" d="M17041,-4695C17346,-4932 19129,-6319 19398,-6528"/>
<polygon style="fill:black;stroke:black;" points="19395.9,-6530.8 19406,-6534 19400.1,-6525.2 19395.9,-6530.8"/>
</g>
<!-- ID=Worcester,_Massachusetts -->
<g id="node25" class="node"><title>ID=Worcester,_Massachusetts</title>
<ellipse style="fill:none;stroke:black;" cx="18009" cy="-5354" rx="173.948" ry="20.5061"/>
<text text-anchor="middle" x="18009" y="-5349.2" style="font-family:Times New Roman;font-size:17.00;">Worcester, Massachusetts</text>
</g>
<!-- ID=Massachusetts_College_of_Pharmacy_and_Health_Sciences&#45;&gt;ID=Worcester,_Massachusetts -->
<g id="edge25" class="edge"><title>ID=Massachusetts_College_of_Pharmacy_and_Health_Sciences&#45;&gt;ID=Worcester,_Massachusetts</title>
<path style="fill:none;stroke:black;" d="M17048,-4696C17225,-4817 17816,-5222 17971,-5328"/>
<polygon style="fill:black;stroke:black;" points="17968.9,-5330.8 17979,-5334 17973.1,-5325.2 17968.9,-5330.8"/>
</g>
<!-- ID=Simmons_College_(Massachusetts) -->
<g id="node10" class="node"><title>ID=Simmons_College_(Massachusetts)</title>
<ellipse style="fill:none;stroke:black;" cx="30987" cy="-1846" rx="138.969" ry="18"/>
<text text-anchor="middle" x="30987" y="-1843.1" style="font-family:Times New Roman;font-size:11.00;">Simmons College (Massachusetts)</text>
</g>
<!-- ID=Wheelock_College&#45;&gt;ID=Simmons_College_(Massachusetts) -->
<g id="edge10" class="edge"><title>ID=Wheelock_College&#45;&gt;ID=Simmons_College_(Massachusetts)</title>
<path style="fill:none;stroke:black;" d="M25753,-4592C26199,-4359 30473,-2116 30945,-1868"/>
<polygon style="fill:black;stroke:black;" points="30947,-1870.92 30954,-1863 30943.6,-1864.8 30947,-1870.92"/>
</g>
<!-- ID=Provost_(education) -->
<g id="node16" class="node"><title>ID=Provost_(education)</title>
<ellipse style="fill:none;stroke:black;" cx="30988" cy="-7347" rx="82.882" ry="18"/>
<text text-anchor="middle" x="30988" y="-7344.1" style="font-family:Times New Roman;font-size:11.00;">Provost (education)</text>
</g>
<!-- ID=University_president&#45;&gt;ID=Provost_(education) -->
<g id="edge16" class="edge"><title>ID=University_president&#45;&gt;ID=Provost_(education)</title>
<path style="fill:none;stroke:black;" d="M22031,-5927C22938,-6071 30088,-7205 30911,-7334"/>
<polygon style="fill:black;stroke:black;" points="30910.5,-7337.47 30921,-7336 30911.9,-7330.61 30910.5,-7337.47"/>
</g>
<!-- ID=Charlie_Pierce -->
<g id="node22" class="node"><title>ID=Charlie_Pierce</title>
<ellipse style="fill:none;stroke:black;" cx="25245" cy="-8263" rx="63.1676" ry="18"/>
<text text-anchor="middle" x="25245" y="-8260.1" style="font-family:Times New Roman;font-size:11.00;">Charlie Pierce</text>
</g>
<!-- ID=The_Boston_Globe&#45;&gt;ID=Charlie_Pierce -->
<g id="edge22" class="edge"><title>ID=The_Boston_Globe&#45;&gt;ID=Charlie_Pierce</title>
<path style="fill:none;stroke:black;" d="M19493,-6572C20074,-6743 24643,-8086 25191,-8247"/>
<polygon style="fill:black;stroke:black;" points="25190.4,-8250.48 25201,-8250 25192.4,-8243.77 25190.4,-8250.48"/>
</g>
<!-- ID=Agawam,_Massachusetts -->
<g id="node28" class="node"><title>ID=Agawam,_Massachusetts</title>
<ellipse style="fill:none;stroke:black;" cx="21548" cy="-8637" rx="101.832" ry="18"/>
<text text-anchor="middle" x="21548" y="-8634.1" style="font-family:Times New Roman;font-size:11.00;">Agawam, Massachusetts</text>
</g>
<!-- ID=Worcester,_Massachusetts&#45;&gt;ID=Agawam,_Massachusetts -->
<g id="edge28" class="edge"><title>ID=Worcester,_Massachusetts&#45;&gt;ID=Agawam,_Massachusetts</title>
<path style="fill:none;stroke:black;" d="M18031,-5375C18313,-5637 21210,-8323 21521,-8612"/>
<polygon style="fill:black;stroke:black;" points="21519.2,-8615.05 21529,-8619 21523.8,-8609.78 21519.2,-8615.05"/>
</g>
<!-- ID=Stainless_steel -->
<g id="node34" class="node"><title>ID=Stainless_steel</title>
<ellipse style="fill:none;stroke:black;" cx="16894" cy="-5651" rx="101.116" ry="20.5061"/>
<text text-anchor="middle" x="16894" y="-5646.2" style="font-family:Times New Roman;font-size:17.00;">Stainless steel</text>
</g>
<!-- ID=August_13&#45;&gt;ID=Stainless_steel -->
<g id="edge34" class="edge"><title>ID=August_13&#45;&gt;ID=Stainless_steel</title>
<path style="fill:none;stroke:black;" d="M16082,-5465C16267,-5507 16653,-5595 16817,-5634"/>
<polygon style="fill:black;stroke:black;" points="16816.5,-5637.47 16827,-5636 16817.9,-5630.61 16816.5,-5637.47"/>
</g>
<!-- ID=Calendar_of_saints -->
<g id="node40" class="node"><title>ID=Calendar_of_saints</title>
<ellipse style="fill:none;stroke:black;" cx="17779" cy="-6880" rx="125.158" ry="20.5061"/>
<text text-anchor="middle" x="17779" y="-6875.2" style="font-family:Times New Roman;font-size:17.00;">Calendar of saints</text>
</g>
<!-- ID=August_13&#45;&gt;ID=Calendar_of_saints -->
<g id="edge40" class="edge"><title>ID=August_13&#45;&gt;ID=Calendar_of_saints</title>
<path style="fill:none;stroke:black;" d="M16020,-5475C16266,-5670 17524,-6676 17746,-6854"/>
<polygon style="fill:black;stroke:black;" points="17743.9,-6856.8 17754,-6860 17748.1,-6851.2 17743.9,-6856.8"/>
</g>
<!-- ID=Louis_Baraguey_d&#39;Hilliers -->
<g id="node46" class="node"><title>ID=Louis_Baraguey_d&#39;Hilliers</title>
<ellipse style="fill:none;stroke:black;" cx="16332" cy="-6451" rx="167.792" ry="20.5061"/>
<text text-anchor="middle" x="16332" y="-6446.2" style="font-family:Times New Roman;font-size:17.00;">Louis Baraguey d&#39;Hilliers</text>
</g>
<!-- ID=August_13&#45;&gt;ID=Louis_Baraguey_d&#39;Hilliers -->
<g id="edge46" class="edge"><title>ID=August_13&#45;&gt;ID=Louis_Baraguey_d&#39;Hilliers</title>
<path style="fill:none;stroke:black;" d="M15991,-5476C16046,-5632 16270,-6273 16322,-6420"/>
<polygon style="fill:black;stroke:black;" points="16318.8,-6421.43 16325,-6430 16325.5,-6419.42 16318.8,-6421.43"/>
</g>
<!-- ID=July -->
<g id="node52" class="node"><title>ID=July</title>
<ellipse style="fill:none;stroke:black;" cx="15267" cy="-7528" rx="34.1461" ry="20.5061"/>
<text text-anchor="middle" x="15267" y="-7523.2" style="font-family:Times New Roman;font-size:17.00;">July</text>
</g>
<!-- ID=August_13&#45;&gt;ID=July -->
<g id="edge52" class="edge"><title>ID=August_13&#45;&gt;ID=July</title>
<path style="fill:none;stroke:black;" d="M15967,-5476C15882,-5727 15358,-7264 15277,-7498"/>
<polygon style="fill:black;stroke:black;" points="15273.5,-7497.42 15274,-7508 15280.2,-7499.43 15273.5,-7497.42"/>
</g>
<!-- ID=Tool_steel -->
<g id="node37" class="node"><title>ID=Tool_steel</title>
<ellipse style="fill:none;stroke:black;" cx="19149" cy="-8761" rx="44.9809" ry="18"/>
<text text-anchor="middle" x="19149" y="-8758.1" style="font-family:Times New Roman;font-size:11.00;">Tool steel</text>
</g>
<!-- ID=Stainless_steel&#45;&gt;ID=Tool_steel -->
<g id="edge37" class="edge"><title>ID=Stainless_steel&#45;&gt;ID=Tool_steel</title>
<path style="fill:none;stroke:black;" d="M16909,-5672C17094,-5927 18925,-8453 19130,-8736"/>
<polygon style="fill:black;stroke:black;" points="19127.2,-8738.1 19136,-8744 19132.8,-8733.9 19127.2,-8738.1"/>
</g>
<!-- ID=Calendar_of_Saints_(Armenian_Apostolic_Church) -->
<g id="node43" class="node"><title>ID=Calendar_of_Saints_(Armenian_Apostolic_Church)</title>
<ellipse style="fill:none;stroke:black;" cx="17488" cy="-9033" rx="192.03" ry="18"/>
<text text-anchor="middle" x="17488" y="-9030.1" style="font-family:Times New Roman;font-size:11.00;">Calendar of Saints (Armenian Apostolic Church)</text>
</g>
<!-- ID=Calendar_of_saints&#45;&gt;ID=Calendar_of_Saints_(Armenian_Apostolic_Church) -->
<g id="edge43" class="edge"><title>ID=Calendar_of_saints&#45;&gt;ID=Calendar_of_Saints_(Armenian_Apostolic_Church)</title>
<path style="fill:none;stroke:black;" d="M17776,-6901C17748,-7105 17524,-8767 17491,-9005"/>
<polygon style="fill:black;stroke:black;" points="17487.5,-9004.7 17490,-9015 17494.5,-9005.4 17487.5,-9004.7"/>
</g>
<!-- ID=Catalonia -->
<g id="node49" class="node"><title>ID=Catalonia</title>
<ellipse style="fill:none;stroke:black;" cx="16632" cy="-7550" rx="46.877" ry="18"/>
<text text-anchor="middle" x="16632" y="-7547.1" style="font-family:Times New Roman;font-size:11.00;">Catalonia</text>
</g>
<!-- ID=Louis_Baraguey_d&#39;Hilliers&#45;&gt;ID=Catalonia -->
<g id="edge49" class="edge"><title>ID=Louis_Baraguey_d&#39;Hilliers&#45;&gt;ID=Catalonia</title>
<path style="fill:none;stroke:black;" d="M16338,-6471C16375,-6606 16581,-7366 16624,-7522"/>
<polygon style="fill:black;stroke:black;" points="16620.8,-7523.43 16627,-7532 16627.5,-7521.42 16620.8,-7523.43"/>
</g>
<!-- ID=June_3 -->
<g id="node55" class="node"><title>ID=June_3</title>
<ellipse style="fill:none;stroke:black;" cx="15910" cy="-9097" rx="34.1105" ry="18"/>
<text text-anchor="middle" x="15910" y="-9094.1" style="font-family:Times New Roman;font-size:11.00;">June 3</text>
</g>
<!-- ID=July&#45;&gt;ID=June_3 -->
<g id="edge55" class="edge"><title>ID=July&#45;&gt;ID=June_3</title>
<path style="fill:none;stroke:black;" d="M15275,-7548C15344,-7716 15820,-8876 15899,-9070"/>
<polygon style="fill:black;stroke:black;" points="15895.7,-9071.28 15903,-9079 15902.1,-9068.44 15895.7,-9071.28"/>
</g>
<!-- ID=Dartmouth_College -->
<g id="node61" class="node"><title>ID=Dartmouth_College</title>
<ellipse style="fill:none;stroke:black;" cx="15377" cy="-6219" rx="128.901" ry="20.5061"/>
<text text-anchor="middle" x="15377" y="-6214.2" style="font-family:Times New Roman;font-size:17.00;">Dartmouth College</text>
</g>
<!-- ID=List_of_U.S._colleges_and_universities_by_endowment&#45;&gt;ID=Dartmouth_College -->
<g id="edge61" class="edge"><title>ID=List_of_U.S._colleges_and_universities_by_endowment&#45;&gt;ID=Dartmouth_College</title>
<path style="fill:none;stroke:black;" d="M15456,-4955C15444,-5140 15390,-6012 15379,-6188"/>
<polygon style="fill:black;stroke:black;" points="15375.5,-6187.7 15378,-6198 15382.5,-6188.4 15375.5,-6187.7"/>
</g>
<!-- ID=Swarthmore_College -->
<g id="node67" class="node"><title>ID=Swarthmore_College</title>
<ellipse style="fill:none;stroke:black;" cx="14508" cy="-6743" rx="140.007" ry="20.5061"/>
<text text-anchor="middle" x="14508" y="-6738.2" style="font-family:Times New Roman;font-size:17.00;">Swarthmore College</text>
</g>
<!-- ID=List_of_U.S._colleges_and_universities_by_endowment&#45;&gt;ID=Swarthmore_College -->
<g id="edge67" class="edge"><title>ID=List_of_U.S._colleges_and_universities_by_endowment&#45;&gt;ID=Swarthmore_College</title>
<path style="fill:none;stroke:black;" d="M15440,-4955C15320,-5186 14635,-6498 14524,-6713"/>
<polygon style="fill:black;stroke:black;" points="14520.8,-6711.56 14519,-6722 14526.9,-6714.96 14520.8,-6711.56"/>
</g>
<!-- ID=Baylor_University -->
<g id="node73" class="node"><title>ID=Baylor_University</title>
<ellipse style="fill:none;stroke:black;" cx="14211" cy="-5632" rx="118.794" ry="20.5061"/>
<text text-anchor="middle" x="14211" y="-5627.2" style="font-family:Times New Roman;font-size:17.00;">Baylor University</text>
</g>
<!-- ID=List_of_U.S._colleges_and_universities_by_endowment&#45;&gt;ID=Baylor_University -->
<g id="edge73" class="edge"><title>ID=List_of_U.S._colleges_and_universities_by_endowment&#45;&gt;ID=Baylor_University</title>
<path style="fill:none;stroke:black;" d="M15397,-4955C15181,-5079 14441,-5500 14255,-5607"/>
<polygon style="fill:black;stroke:black;" points="14253,-5604.08 14246,-5612 14256.4,-5610.2 14253,-5604.08"/>
</g>
<!-- ID=2007&#45;11&#45;5 -->
<g id="node79" class="node"><title>ID=2007&#45;11&#45;5</title>
<ellipse style="fill:none;stroke:black;" cx="13452" cy="-6496" rx="75.1594" ry="20.5061"/>
<text text-anchor="middle" x="13452" y="-6491.2" style="font-family:Times New Roman;font-size:17.00;">2007&#45;11&#45;5</text>
</g>
<!-- ID=List_of_U.S._colleges_and_universities_by_endowment&#45;&gt;ID=2007&#45;11&#45;5 -->
<g id="edge79" class="edge"><title>ID=List_of_U.S._colleges_and_universities_by_endowment&#45;&gt;ID=2007&#45;11&#45;5</title>
<path style="fill:none;stroke:black;" d="M15414,-4955C15143,-5166 13719,-6286 13485,-6471"/>
<polygon style="fill:black;stroke:black;" points="13482.9,-6468.2 13477,-6477 13487.1,-6473.8 13482.9,-6468.2"/>
</g>
<!-- ID=Aisha_Tyler -->
<g id="node64" class="node"><title>ID=Aisha_Tyler</title>
<ellipse style="fill:none;stroke:black;" cx="14253" cy="-9185" rx="51.1658" ry="18"/>
<text text-anchor="middle" x="14253" y="-9182.1" style="font-family:Times New Roman;font-size:11.00;">Aisha Tyler</text>
</g>
<!-- ID=Dartmouth_College&#45;&gt;ID=Aisha_Tyler -->
<g id="edge64" class="edge"><title>ID=Dartmouth_College&#45;&gt;ID=Aisha_Tyler</title>
<path style="fill:none;stroke:black;" d="M15369,-6240C15276,-6486 14371,-8875 14264,-9157"/>
<polygon style="fill:black;stroke:black;" points="14260.5,-9156.42 14260,-9167 14267,-9159.02 14260.5,-9156.42"/>
</g>
<!-- ID=Employment -->
<g id="node70" class="node"><title>ID=Employment</title>
<ellipse style="fill:none;stroke:black;" cx="13544" cy="-7794" rx="56.8509" ry="18"/>
<text text-anchor="middle" x="13544" y="-7791.1" style="font-family:Times New Roman;font-size:11.00;">Employment</text>
</g>
<!-- ID=Swarthmore_College&#45;&gt;ID=Employment -->
<g id="edge70" class="edge"><title>ID=Swarthmore_College&#45;&gt;ID=Employment</title>
<path style="fill:none;stroke:black;" d="M14489,-6764C14368,-6896 13699,-7624 13567,-7769"/>
<polygon style="fill:black;stroke:black;" points="13564,-7767.17 13560,-7777 13569.2,-7771.78 13564,-7767.17"/>
</g>
<!-- ID=Robert_J._Marks_II -->
<g id="node76" class="node"><title>ID=Robert_J._Marks_II</title>
<ellipse style="fill:none;stroke:black;" cx="12054" cy="-8952" rx="73.9061" ry="18"/>
<text text-anchor="middle" x="12054" y="-8949.1" style="font-family:Times New Roman;font-size:11.00;">Robert J. Marks II</text>
</g>
<!-- ID=Baylor_University&#45;&gt;ID=Robert_J._Marks_II -->
<g id="edge76" class="edge"><title>ID=Baylor_University&#45;&gt;ID=Robert_J._Marks_II</title>
<path style="fill:none;stroke:black;" d="M14198,-5653C14026,-5917 12266,-8627 12072,-8925"/>
<polygon style="fill:black;stroke:black;" points="12068.6,-8923.74 12066,-8934 12074.5,-8927.62 12068.6,-8923.74"/>
</g>
<!-- ID=Boston_Architectural_College -->
<g id="node85" class="node"><title>ID=Boston_Architectural_College</title>
<ellipse style="fill:none;stroke:black;" cx="11998" cy="-6731" rx="190.919" ry="20.5061"/>
<text text-anchor="middle" x="11998" y="-6726.2" style="font-family:Times New Roman;font-size:17.00;">Boston Architectural College</text>
</g>
<!-- ID=Suffolk_University&#45;&gt;ID=Boston_Architectural_College -->
<g id="edge85" class="edge"><title>ID=Suffolk_University&#45;&gt;ID=Boston_Architectural_College</title>
<path style="fill:none;stroke:black;" d="M14902,-5483C14478,-5665 12421,-6549 12054,-6707"/>
<polygon style="fill:black;stroke:black;" points="12052.7,-6703.74 12045,-6711 12055.6,-6710.14 12052.7,-6703.74"/>
</g>
<!-- ID=Urban_College_of_Boston -->
<g id="node88" class="node"><title>ID=Urban_College_of_Boston</title>
<ellipse style="fill:none;stroke:black;" cx="13097" cy="-5328" rx="164.049" ry="20.5061"/>
<text text-anchor="middle" x="13097" y="-5323.2" style="font-family:Times New Roman;font-size:17.00;">Urban College of Boston</text>
</g>
<!-- ID=Suffolk_University&#45;&gt;ID=Urban_College_of_Boston -->
<g id="edge88" class="edge"><title>ID=Suffolk_University&#45;&gt;ID=Urban_College_of_Boston</title>
<path style="fill:none;stroke:black;" d="M14760,-5436C14376,-5411 13587,-5360 13253,-5338"/>
<polygon style="fill:black;stroke:black;" points="13253.3,-5334.51 13243,-5337 13252.6,-5341.48 13253.3,-5334.51"/>
</g>
<!-- ID=1983 -->
<g id="node94" class="node"><title>ID=1983</title>
<ellipse style="fill:none;stroke:black;" cx="10004" cy="-6113" rx="43.1335" ry="20.5061"/>
<text text-anchor="middle" x="10004" y="-6108.2" style="font-family:Times New Roman;font-size:17.00;">1983</text>
</g>
<!-- ID=Suffolk_University&#45;&gt;ID=1983 -->
<g id="edge94" class="edge"><title>ID=Suffolk_University&#45;&gt;ID=1983</title>
<path style="fill:none;stroke:black;" d="M14803,-5473C13979,-5583 10520,-6044 10056,-6106"/>
<polygon style="fill:black;stroke:black;" points="10055.6,-6102.52 10046,-6107 10056.3,-6109.49 10055.6,-6102.52"/>
</g>
<!-- ID=Vietnam -->
<g id="node100" class="node"><title>ID=Vietnam</title>
<ellipse style="fill:none;stroke:black;" cx="11772" cy="-4728" rx="63.1385" ry="20.5061"/>
<text text-anchor="middle" x="11772" y="-4723.2" style="font-family:Times New Roman;font-size:17.00;">Vietnam</text>
</g>
<!-- ID=Suffolk_University&#45;&gt;ID=Vietnam -->
<g id="edge100" class="edge"><title>ID=Suffolk_University&#45;&gt;ID=Vietnam</title>
<path style="fill:none;stroke:black;" d="M14849,-5421C14306,-5299 12220,-4829 11834,-4742"/>
<polygon style="fill:black;stroke:black;" points="11834.5,-4738.53 11824,-4740 11833.1,-4745.39 11834.5,-4738.53"/>
</g>
<!-- ID=List_of_colleges_and_universities_in_metropolitan_Boston -->
<g id="node91" class="node"><title>ID=List_of_colleges_and_universities_in_metropolitan_Boston</title>
<ellipse style="fill:none;stroke:black;" cx="9518" cy="-8559" rx="217.928" ry="18"/>
<text text-anchor="middle" x="9518" y="-8556.1" style="font-family:Times New Roman;font-size:11.00;">List of colleges and universities in metropolitan Boston</text>
</g>
<!-- ID=Urban_College_of_Boston&#45;&gt;ID=List_of_colleges_and_universities_in_metropolitan_Boston -->
<g id="edge91" class="edge"><title>ID=Urban_College_of_Boston&#45;&gt;ID=List_of_colleges_and_universities_in_metropolitan_Boston</title>
<path style="fill:none;stroke:black;" d="M13074,-5349C12786,-5609 9862,-8248 9546,-8534"/>
<polygon style="fill:black;stroke:black;" points="9543.22,-8531.78 9538,-8541 9547.83,-8537.05 9543.22,-8531.78"/>
</g>
<!-- ID=1990s -->
<g id="node97" class="node"><title>ID=1990s</title>
<ellipse style="fill:none;stroke:black;" cx="5968" cy="-8227" rx="32.8472" ry="18"/>
<text text-anchor="middle" x="5968" y="-8224.1" style="font-family:Times New Roman;font-size:11.00;">1990s</text>
</g>
<!-- ID=1983&#45;&gt;ID=1990s -->
<g id="edge97" class="edge"><title>ID=1983&#45;&gt;ID=1990s</title>
<path style="fill:none;stroke:black;" d="M9975,-6128C9632,-6307 6367,-8018 6001,-8209"/>
<polygon style="fill:black;stroke:black;" points="5999.04,-8206.08 5992,-8214 6002.44,-8212.2 5999.04,-8206.08"/>
</g>
<!-- ID=United_States -->
<g id="node103" class="node"><title>ID=United_States</title>
<ellipse style="fill:none;stroke:black;" cx="77" cy="-7378" rx="60.1397" ry="18"/>
<text text-anchor="middle" x="77" y="-7375.1" style="font-family:Times New Roman;font-size:11.00;">United States</text>
</g>
<!-- ID=Vietnam&#45;&gt;ID=United_States -->
<g id="edge103" class="edge"><title>ID=Vietnam&#45;&gt;ID=United_States</title>
<path style="fill:none;stroke:black;" d="M11720,-4740C10915,-4922 983,-7173 135,-7365"/>
<polygon style="fill:black;stroke:black;" points="134.119,-7361.61 125,-7367 135.492,-7368.47 134.119,-7361.61"/>
</g>
<!-- ID=All&#45;American_Girls_Professional_Baseball_League -->
<g id="node109" class="node"><title>ID=All&#45;American_Girls_Professional_Baseball_League</title>
<ellipse style="fill:none;stroke:black;" cx="8515" cy="-4255" rx="311.834" ry="20.5061"/>
<text text-anchor="middle" x="8515" y="-4250.2" style="font-family:Times New Roman;font-size:17.00;">All&#45;American Girls Professional Baseball League</text>
</g>
<!-- ID=International_League&#45;&gt;ID=All&#45;American_Girls_Professional_Baseball_League -->
<g id="edge109" class="edge"><title>ID=International_League&#45;&gt;ID=All&#45;American_Girls_Professional_Baseball_League</title>
<path style="fill:none;stroke:black;" d="M13759,-4612C12845,-4550 9626,-4331 8742,-4271"/>
<polygon style="fill:black;stroke:black;" points="8742.3,-4267.51 8732,-4270 8741.6,-4274.48 8742.3,-4267.51"/>
</g>
<!-- ID=Toledo_Mud_Hens -->
<g id="node115" class="node"><title>ID=Toledo_Mud_Hens</title>
<ellipse style="fill:none;stroke:black;" cx="10707" cy="-3166" rx="120.915" ry="20.5061"/>
<text text-anchor="middle" x="10707" y="-3161.2" style="font-family:Times New Roman;font-size:17.00;">Toledo Mud Hens</text>
</g>
<!-- ID=International_League&#45;&gt;ID=Toledo_Mud_Hens -->
<g id="edge115" class="edge"><title>ID=International_League&#45;&gt;ID=Toledo_Mud_Hens</title>
<path style="fill:none;stroke:black;" d="M13927,-4596C13477,-4396 11140,-3358 10759,-3189"/>
<polygon style="fill:black;stroke:black;" points="10760.6,-3185.86 10750,-3185 10757.7,-3192.26 10760.6,-3185.86"/>
</g>
<!-- ID=Fifth_Third_Field_(Toledo) -->
<g id="node121" class="node"><title>ID=Fifth_Third_Field_(Toledo)</title>
<ellipse style="fill:none;stroke:black;" cx="12190" cy="-2469" rx="167.084" ry="20.5061"/>
<text text-anchor="middle" x="12190" y="-2464.2" style="font-family:Times New Roman;font-size:17.00;">Fifth Third Field (Toledo)</text>
</g>
<!-- ID=International_League&#45;&gt;ID=Fifth_Third_Field_(Toledo) -->
<g id="edge121" class="edge"><title>ID=International_League&#45;&gt;ID=Fifth_Third_Field_(Toledo)</title>
<path style="fill:none;stroke:black;" d="M13973,-4595C13758,-4338 12409,-2730 12213,-2498"/>
<polygon style="fill:black;stroke:black;" points="12215.8,-2495.9 12207,-2490 12210.2,-2500.1 12215.8,-2495.9"/>
</g>
<!-- ID=Governors&#39;_Cup -->
<g id="node127" class="node"><title>ID=Governors&#39;_Cup</title>
<ellipse style="fill:none;stroke:black;" cx="13043" cy="-3931" rx="108.187" ry="20.5061"/>
<text text-anchor="middle" x="13043" y="-3926.2" style="font-family:Times New Roman;font-size:17.00;">Governors&#39; Cup</text>
</g>
<!-- ID=International_League&#45;&gt;ID=Governors&#39;_Cup -->
<g id="edge127" class="edge"><title>ID=International_League&#45;&gt;ID=Governors&#39;_Cup</title>
<path style="fill:none;stroke:black;" d="M13955,-4595C13789,-4473 13227,-4065 13079,-3957"/>
<polygon style="fill:black;stroke:black;" points="13081.1,-3954.2 13071,-3951 13076.9,-3959.8 13081.1,-3954.2"/>
</g>
<!-- ID=National_Association_of_Base_Ball_Players -->
<g id="node112" class="node"><title>ID=National_Association_of_Base_Ball_Players</title>
<ellipse style="fill:none;stroke:black;" cx="5066" cy="-4638" rx="164.999" ry="18"/>
<text text-anchor="middle" x="5066" y="-4635.1" style="font-family:Times New Roman;font-size:11.00;">National Association of Base Ball Players</text>
</g>
<!-- ID=All&#45;American_Girls_Professional_Baseball_League&#45;&gt;ID=National_Association_of_Base_Ball_Players -->
<g id="edge112" class="edge"><title>ID=All&#45;American_Girls_Professional_Baseball_League&#45;&gt;ID=National_Association_of_Base_Ball_Players</title>
<path style="fill:none;stroke:black;" d="M8356,-4273C7768,-4339 5721,-4565 5192,-4624"/>
<polygon style="fill:black;stroke:black;" points="5191.6,-4620.52 5182,-4625 5192.3,-4627.49 5191.6,-4620.52"/>
</g>
<!-- ID=Ice_hockey -->
<g id="node118" class="node"><title>ID=Ice_hockey</title>
<ellipse style="fill:none;stroke:black;" cx="50" cy="-1837" rx="48.7731" ry="18"/>
<text text-anchor="middle" x="50" y="-1834.1" style="font-family:Times New Roman;font-size:11.00;">Ice hockey</text>
</g>
<!-- ID=Toledo_Mud_Hens&#45;&gt;ID=Ice_hockey -->
<g id="edge118" class="edge"><title>ID=Toledo_Mud_Hens&#45;&gt;ID=Ice_hockey</title>
<path style="fill:none;stroke:black;" d="M10610,-3154C9590,-3027 893,-1942 107,-1844"/>
<polygon style="fill:black;stroke:black;" points="107.299,-1840.51 97,-1843 106.602,-1847.48 107.299,-1840.51"/>
</g>
<!-- ID=Alliance_Bank_Stadium -->
<g id="node124" class="node"><title>ID=Alliance_Bank_Stadium</title>
<ellipse style="fill:none;stroke:black;" cx="5843" cy="-938" rx="94.7514" ry="18"/>
<text text-anchor="middle" x="5843" y="-935.1" style="font-family:Times New Roman;font-size:11.00;">Alliance Bank Stadium</text>
</g>
<!-- ID=Fifth_Third_Field_(Toledo)&#45;&gt;ID=Alliance_Bank_Stadium -->
<g id="edge124" class="edge"><title>ID=Fifth_Third_Field_(Toledo)&#45;&gt;ID=Alliance_Bank_Stadium</title>
<path style="fill:none;stroke:black;" d="M12114,-2451C11444,-2289 6551,-1109 5912,-954"/>
<polygon style="fill:black;stroke:black;" points="5912.49,-950.529 5902,-952 5911.12,-957.393 5912.49,-950.529"/>
</g>
<!-- ID=General_Manager -->
<g id="node130" class="node"><title>ID=General_Manager</title>
<ellipse style="fill:none;stroke:black;" cx="9428" cy="-776" rx="75.8011" ry="18"/>
<text text-anchor="middle" x="9428" y="-773.1" style="font-family:Times New Roman;font-size:11.00;">General Manager</text>
</g>
<!-- ID=Governors&#39;_Cup&#45;&gt;ID=General_Manager -->
<g id="edge130" class="edge"><title>ID=Governors&#39;_Cup&#45;&gt;ID=General_Manager</title>
<path style="fill:none;stroke:black;" d="M13020,-3911C12729,-3656 9776,-1080 9456,-801"/>
<polygon style="fill:black;stroke:black;" points="9457.83,-797.951 9448,-794 9453.22,-803.219 9457.83,-797.951"/>
</g>
<!-- ID=New_World -->
<g id="node136" class="node"><title>ID=New_World</title>
<ellipse style="fill:none;stroke:black;" cx="13521" cy="-2840" rx="80.1095" ry="20.5061"/>
<text text-anchor="middle" x="13521" y="-2835.2" style="font-family:Times New Roman;font-size:17.00;">New World</text>
</g>
<!-- ID=Peabody_Museum_of_Archaeology_and_Ethnology&#45;&gt;ID=New_World -->
<g id="edge136" class="edge"><title>ID=Peabody_Museum_of_Archaeology_and_Ethnology&#45;&gt;ID=New_World</title>
<path style="fill:none;stroke:black;" d="M14754,-4538C14591,-4314 13690,-3073 13542,-2868"/>
<polygon style="fill:black;stroke:black;" points="13544.8,-2865.9 13536,-2860 13539.2,-2870.1 13544.8,-2865.9"/>
</g>
<!-- ID=1866 -->
<g id="node142" class="node"><title>ID=1866</title>
<ellipse style="fill:none;stroke:black;" cx="14211" cy="-3658" rx="43.1335" ry="20.5061"/>
<text text-anchor="middle" x="14211" y="-3653.2" style="font-family:Times New Roman;font-size:17.00;">1866</text>
</g>
<!-- ID=Peabody_Museum_of_Archaeology_and_Ethnology&#45;&gt;ID=1866 -->
<g id="edge142" class="edge"><title>ID=Peabody_Museum_of_Archaeology_and_Ethnology&#45;&gt;ID=1866</title>
<path style="fill:none;stroke:black;" d="M14757,-4538C14666,-4391 14312,-3821 14228,-3687"/>
<polygon style="fill:black;stroke:black;" points="14230.9,-3685.04 14223,-3678 14224.8,-3688.44 14230.9,-3685.04"/>
</g>
<!-- ID=Find_or_fix_a_stub -->
<g id="node148" class="node"><title>ID=Find_or_fix_a_stub</title>
<ellipse style="fill:none;stroke:black;" cx="14475" cy="-2504" rx="116.172" ry="20.5061"/>
<text text-anchor="middle" x="14475" y="-2499.2" style="font-family:Times New Roman;font-size:17.00;">Find or fix a stub</text>
</g>
<!-- ID=Peabody_Museum_of_Archaeology_and_Ethnology&#45;&gt;ID=Find_or_fix_a_stub -->
<g id="edge148" class="edge"><title>ID=Peabody_Museum_of_Archaeology_and_Ethnology&#45;&gt;ID=Find_or_fix_a_stub</title>
<path style="fill:none;stroke:black;" d="M14774,-4538C14738,-4289 14514,-2771 14479,-2535"/>
<polygon style="fill:black;stroke:black;" points="14482.5,-2534.6 14478,-2525 14475.5,-2535.3 14482.5,-2534.6"/>
</g>
<!-- ID=Harvard_Museum_of_Natural_History -->
<g id="node154" class="node"><title>ID=Harvard_Museum_of_Natural_History</title>
<ellipse style="fill:none;stroke:black;" cx="19601" cy="-4673" rx="237.088" ry="20.5061"/>
<text text-anchor="middle" x="19601" y="-4668.2" style="font-family:Times New Roman;font-size:17.00;">Harvard Museum of Natural History</text>
</g>
<!-- ID=Peabody_Museum_of_Archaeology_and_Ethnology&#45;&gt;ID=Harvard_Museum_of_Natural_History -->
<g id="edge154" class="edge"><title>ID=Peabody_Museum_of_Archaeology_and_Ethnology&#45;&gt;ID=Harvard_Museum_of_Natural_History</title>
<path style="fill:none;stroke:black;" d="M15361,-4585C16422,-4607 18629,-4653 19360,-4668"/>
<polygon style="fill:black;stroke:black;" points="19360,-4671.5 19370,-4668 19360,-4664.5 19360,-4671.5"/>
</g>
<!-- ID=Christopher_Columbus -->
<g id="node139" class="node"><title>ID=Christopher_Columbus</title>
<ellipse style="fill:none;stroke:black;" cx="11925" cy="-273" rx="94.7514" ry="18"/>
<text text-anchor="middle" x="11925" y="-270.1" style="font-family:Times New Roman;font-size:11.00;">Christopher Columbus</text>
</g>
<!-- ID=New_World&#45;&gt;ID=Christopher_Columbus -->
<g id="edge139" class="edge"><title>ID=New_World&#45;&gt;ID=Christopher_Columbus</title>
<path style="fill:none;stroke:black;" d="M13508,-2820C13369,-2594 12101,-557 11941,-300"/>
<polygon style="fill:black;stroke:black;" points="11943.9,-298.042 11936,-291 11937.8,-301.441 11943.9,-298.042"/>
</g>
<!-- ID=Second_Battle_of_Langensalza -->
<g id="node145" class="node"><title>ID=Second_Battle_of_Langensalza</title>
<ellipse style="fill:none;stroke:black;" cx="13479" cy="-1503" rx="121.913" ry="18"/>
<text text-anchor="middle" x="13479" y="-1500.1" style="font-family:Times New Roman;font-size:11.00;">Second Battle of Langensalza</text>
</g>
<!-- ID=1866&#45;&gt;ID=Second_Battle_of_Langensalza -->
<g id="edge145" class="edge"><title>ID=1866&#45;&gt;ID=Second_Battle_of_Langensalza</title>
<path style="fill:none;stroke:black;" d="M14204,-3638C14135,-3435 13568,-1766 13488,-1531"/>
<polygon style="fill:black;stroke:black;" points="13491.2,-1529.57 13485,-1521 13484.5,-1531.58 13491.2,-1529.57"/>
</g>
<!-- ID=Ticket_(admission) -->
<g id="node151" class="node"><title>ID=Ticket_(admission)</title>
<ellipse style="fill:none;stroke:black;" cx="14096" cy="-19" rx="77.8289" ry="18"/>
<text text-anchor="middle" x="14096" y="-16.1" style="font-family:Times New Roman;font-size:11.00;">Ticket (admission)</text>
</g>
<!-- ID=Find_or_fix_a_stub&#45;&gt;ID=Ticket_(admission) -->
<g id="edge151" class="edge"><title>ID=Find_or_fix_a_stub&#45;&gt;ID=Ticket_(admission)</title>
<path style="fill:none;stroke:black;" d="M14472,-2483C14437,-2260 14140,-306 14101,-47"/>
<polygon style="fill:black;stroke:black;" points="14104.4,-46.1194 14099,-37 14097.5,-47.4922 14104.4,-46.1194"/>
</g>
<!-- ID=Harvard_Museum_of_Natural_History&#45;&gt;ID=Harvard_University -->
<g id="edge157" class="edge"><title>ID=Harvard_Museum_of_Natural_History&#45;&gt;ID=Harvard_University</title>
<path style="fill:none;stroke:black;" d="M19379,-4666C18815,-4647 17320,-4599 16582,-4575"/>
<polygon style="fill:black;stroke:black;" points="16582,-4571.5 16572,-4575 16582,-4578.5 16582,-4571.5"/>
</g>
<!-- ID=James_Brown_(TV_personality) -->
<g id="node162" class="node"><title>ID=James_Brown_(TV_personality)</title>
<ellipse style="fill:none;stroke:black;" cx="14990" cy="-3713" rx="196.783" ry="20.5061"/>
<text text-anchor="middle" x="14990" y="-3708.2" style="font-family:Times New Roman;font-size:17.00;">James Brown (TV personality)</text>
</g>
<!-- ID=Boston_Celtics&#45;&gt;ID=James_Brown_(TV_personality) -->
<g id="edge163" class="edge"><title>ID=Boston_Celtics&#45;&gt;ID=James_Brown_(TV_personality)</title>
<path style="fill:none;stroke:black;" d="M15445,-4201C15355,-4104 15099,-3830 15016,-3741"/>
<polygon style="fill:black;stroke:black;" points="15018.5,-3738.6 15009,-3734 15013.6,-3743.55 15018.5,-3738.6"/>
</g>
<!-- ID=Green -->
<g id="node168" class="node"><title>ID=Green</title>
<ellipse style="fill:none;stroke:black;" cx="15256" cy="-2947" rx="48.9975" ry="20.5061"/>
<text text-anchor="middle" x="15256" y="-2942.2" style="font-family:Times New Roman;font-size:17.00;">Green</text>
</g>
<!-- ID=Boston_Celtics&#45;&gt;ID=Green -->
<g id="edge169" class="edge"><title>ID=Boston_Celtics&#45;&gt;ID=Green</title>
<path style="fill:none;stroke:black;" d="M15471,-4200C15440,-4016 15291,-3151 15262,-2978"/>
<polygon style="fill:black;stroke:black;" points="15265.4,-2977.12 15260,-2968 15258.5,-2978.49 15265.4,-2977.12"/>
</g>
<!-- ID=Jerry_West -->
<g id="node174" class="node"><title>ID=Jerry_West</title>
<ellipse style="fill:none;stroke:black;" cx="16039" cy="-2641" rx="75.8684" ry="20.5061"/>
<text text-anchor="middle" x="16039" y="-2636.2" style="font-family:Times New Roman;font-size:17.00;">Jerry West</text>
</g>
<!-- ID=Boston_Celtics&#45;&gt;ID=Jerry_West -->
<g id="edge175" class="edge"><title>ID=Boston_Celtics&#45;&gt;ID=Jerry_West</title>
<path style="fill:none;stroke:black;" d="M15489,-4200C15564,-3988 15958,-2870 16029,-2672"/>
<polygon style="fill:black;stroke:black;" points="16032.5,-2672.58 16032,-2662 16025.8,-2670.57 16032.5,-2672.58"/>
</g>
<!-- ID=Central_Connecticut_State_University -->
<g id="node180" class="node"><title>ID=Central_Connecticut_State_University</title>
<ellipse style="fill:none;stroke:black;" cx="15917" cy="-3629" rx="241.123" ry="20.5061"/>
<text text-anchor="middle" x="15917" y="-3624.2" style="font-family:Times New Roman;font-size:17.00;">Central Connecticut State University</text>
</g>
<!-- ID=Boston_Celtics&#45;&gt;ID=Central_Connecticut_State_University -->
<g id="edge181" class="edge"><title>ID=Boston_Celtics&#45;&gt;ID=Central_Connecticut_State_University</title>
<path style="fill:none;stroke:black;" d="M15502,-4201C15581,-4092 15824,-3758 15896,-3657"/>
<polygon style="fill:black;stroke:black;" points="15898.8,-3659.1 15902,-3649 15893.2,-3654.9 15898.8,-3659.1"/>
</g>
<!-- ID=1997&#45;98_NHL_season -->
<g id="node165" class="node"><title>ID=1997&#45;98_NHL_season</title>
<ellipse style="fill:none;stroke:black;" cx="15152" cy="-1598" rx="89.0663" ry="18"/>
<text text-anchor="middle" x="15152" y="-1595.1" style="font-family:Times New Roman;font-size:11.00;">1997&#45;98 NHL season</text>
</g>
<!-- ID=James_Brown_(TV_personality)&#45;&gt;ID=1997&#45;98_NHL_season -->
<g id="edge166" class="edge"><title>ID=James_Brown_(TV_personality)&#45;&gt;ID=1997&#45;98_NHL_season</title>
<path style="fill:none;stroke:black;" d="M14992,-3692C15007,-3490 15132,-1861 15150,-1626"/>
<polygon style="fill:black;stroke:black;" points="15153.5,-1626.3 15151,-1616 15146.5,-1625.6 15153.5,-1626.3"/>
</g>
<!-- ID=Togo -->
<g id="node171" class="node"><title>ID=Togo</title>
<ellipse style="fill:none;stroke:black;" cx="15821" cy="-84" rx="27.9267" ry="18"/>
<text text-anchor="middle" x="15821" y="-81.1" style="font-family:Times New Roman;font-size:11.00;">Togo</text>
</g>
<!-- ID=Green&#45;&gt;ID=Togo -->
<g id="edge172" class="edge"><title>ID=Green&#45;&gt;ID=Togo</title>
<path style="fill:none;stroke:black;" d="M15260,-2926C15308,-2685 15760,-393 15815,-112"/>
<polygon style="fill:black;stroke:black;" points="15818.5,-112.492 15817,-102 15811.6,-111.119 15818.5,-112.492"/>
</g>
<!-- ID=Dave_Cowens -->
<g id="node177" class="node"><title>ID=Dave_Cowens</title>
<ellipse style="fill:none;stroke:black;" cx="16657" cy="-1646" rx="58.8786" ry="18"/>
<text text-anchor="middle" x="16657" y="-1643.1" style="font-family:Times New Roman;font-size:11.00;">Dave Cowens</text>
</g>
<!-- ID=Jerry_West&#45;&gt;ID=Dave_Cowens -->
<g id="edge178" class="edge"><title>ID=Jerry_West&#45;&gt;ID=Dave_Cowens</title>
<path style="fill:none;stroke:black;" d="M16052,-2621C16130,-2494 16551,-1816 16641,-1673"/>
<polygon style="fill:black;stroke:black;" points="16644.2,-1674.44 16646,-1664 16638.1,-1671.04 16644.2,-1674.44"/>
</g>
<!-- ID=Catharine_Beecher -->
<g id="node183" class="node"><title>ID=Catharine_Beecher</title>
<ellipse style="fill:none;stroke:black;" cx="17444" cy="-142" rx="80.2229" ry="18"/>
<text text-anchor="middle" x="17444" y="-139.1" style="font-family:Times New Roman;font-size:11.00;">Catharine Beecher</text>
</g>
<!-- ID=Central_Connecticut_State_University&#45;&gt;ID=Catharine_Beecher -->
<g id="edge184" class="edge"><title>ID=Central_Connecticut_State_University&#45;&gt;ID=Catharine_Beecher</title>
<path style="fill:none;stroke:black;" d="M15926,-3608C16046,-3336 17296,-481 17432,-169"/>
<polygon style="fill:black;stroke:black;" points="17435.1,-170.56 17436,-160 17428.7,-167.717 17435.1,-170.56"/>
</g>
<!-- ID=Benjamin_Franklin -->
<g id="node189" class="node"><title>ID=Benjamin_Franklin</title>
<ellipse style="fill:none;stroke:black;" cx="17051" cy="-2918" rx="126.072" ry="20.5061"/>
<text text-anchor="middle" x="17051" y="-2913.2" style="font-family:Times New Roman;font-size:17.00;">Benjamin Franklin</text>
</g>
<!-- ID=Jared_Sparks&#45;&gt;ID=Benjamin_Franklin -->
<g id="edge190" class="edge"><title>ID=Jared_Sparks&#45;&gt;ID=Benjamin_Franklin</title>
<path style="fill:none;stroke:black;" d="M16764,-3753C16813,-3613 16995,-3081 17041,-2949"/>
<polygon style="fill:black;stroke:black;" points="17044.5,-2949.58 17044,-2939 17037.8,-2947.57 17044.5,-2949.58"/>
</g>
<!-- ID=Alexis_de_Tocqueville -->
<g id="node195" class="node"><title>ID=Alexis_de_Tocqueville</title>
<ellipse style="fill:none;stroke:black;" cx="18064" cy="-2244" rx="140.922" ry="20.5061"/>
<text text-anchor="middle" x="18064" y="-2239.2" style="font-family:Times New Roman;font-size:17.00;">Alexis de Tocqueville</text>
</g>
<!-- ID=Jared_Sparks&#45;&gt;ID=Alexis_de_Tocqueville -->
<g id="edge196" class="edge"><title>ID=Jared_Sparks&#45;&gt;ID=Alexis_de_Tocqueville</title>
<path style="fill:none;stroke:black;" d="M16781,-3754C16957,-3547 17878,-2462 18040,-2273"/>
<polygon style="fill:black;stroke:black;" points="18043,-2274.83 18047,-2265 18037.8,-2270.22 18043,-2274.83"/>
</g>
<!-- ID=Master_of_Arts_(postgraduate) -->
<g id="node201" class="node"><title>ID=Master_of_Arts_(postgraduate)</title>
<ellipse style="fill:none;stroke:black;" cx="19637" cy="-2770" rx="197.99" ry="20.5061"/>
<text text-anchor="middle" x="19637" y="-2765.2" style="font-family:Times New Roman;font-size:17.00;">Master of Arts (postgraduate)</text>
</g>
<!-- ID=Jared_Sparks&#45;&gt;ID=Master_of_Arts_(postgraduate) -->
<g id="edge202" class="edge"><title>ID=Jared_Sparks&#45;&gt;ID=Master_of_Arts_(postgraduate)</title>
<path style="fill:none;stroke:black;" d="M16838,-3758C17268,-3606 19191,-2928 19572,-2793"/>
<polygon style="fill:black;stroke:black;" points="19572.6,-2796.48 19581,-2790 19570.4,-2789.84 19572.6,-2796.48"/>
</g>
<!-- ID=Kazimierz_Pulaski -->
<g id="node207" class="node"><title>ID=Kazimierz_Pulaski</title>
<ellipse style="fill:none;stroke:black;" cx="22064" cy="-3352" rx="120.915" ry="20.5061"/>
<text text-anchor="middle" x="22064" y="-3347.2" style="font-family:Times New Roman;font-size:17.00;">Kazimierz Pulaski</text>
</g>
<!-- ID=Jared_Sparks&#45;&gt;ID=Kazimierz_Pulaski -->
<g id="edge208" class="edge"><title>ID=Jared_Sparks&#45;&gt;ID=Kazimierz_Pulaski</title>
<path style="fill:none;stroke:black;" d="M16913,-3775C17713,-3709 21249,-3419 21945,-3362"/>
<polygon style="fill:black;stroke:black;" points="21945.4,-3365.48 21955,-3361 21944.7,-3358.51 21945.4,-3365.48"/>
</g>
<!-- ID=1687 -->
<g id="node192" class="node"><title>ID=1687</title>
<ellipse style="fill:none;stroke:black;" cx="19142" cy="-428" rx="29.0571" ry="18"/>
<text text-anchor="middle" x="19142" y="-425.1" style="font-family:Times New Roman;font-size:11.00;">1687</text>
</g>
<!-- ID=Benjamin_Franklin&#45;&gt;ID=1687 -->
<g id="edge193" class="edge"><title>ID=Benjamin_Franklin&#45;&gt;ID=1687</title>
<path style="fill:none;stroke:black;" d="M17068,-2898C17256,-2675 18919,-692 19121,-452"/>
<polygon style="fill:black;stroke:black;" points="19124,-453.831 19128,-444 19118.8,-449.221 19124,-453.831"/>
</g>
<!-- ID=National_liberalism -->
<g id="node198" class="node"><title>ID=National_liberalism</title>
<ellipse style="fill:none;stroke:black;" cx="21536" cy="-559" rx="82.2481" ry="18"/>
<text text-anchor="middle" x="21536" y="-556.1" style="font-family:Times New Roman;font-size:11.00;">National liberalism</text>
</g>
<!-- ID=Alexis_de_Tocqueville&#45;&gt;ID=National_liberalism -->
<g id="edge199" class="edge"><title>ID=Alexis_de_Tocqueville&#45;&gt;ID=National_liberalism</title>
<path style="fill:none;stroke:black;" d="M18104,-2224C18465,-2050 21121,-760 21493,-580"/>
<polygon style="fill:black;stroke:black;" points="21494.3,-583.26 21502,-576 21491.4,-576.863 21494.3,-583.26"/>
</g>
<!-- ID=United_Kingdom -->
<g id="node204" class="node"><title>ID=United_Kingdom</title>
<ellipse style="fill:none;stroke:black;" cx="25253" cy="-928" rx="70.246" ry="18"/>
<text text-anchor="middle" x="25253" y="-925.1" style="font-family:Times New Roman;font-size:11.00;">United Kingdom</text>
</g>
<!-- ID=Master_of_Arts_(postgraduate)&#45;&gt;ID=United_Kingdom -->
<g id="edge205" class="edge"><title>ID=Master_of_Arts_(postgraduate)&#45;&gt;ID=United_Kingdom</title>
<path style="fill:none;stroke:black;" d="M19697,-2750C20262,-2565 24666,-1121 25200,-945"/>
<polygon style="fill:black;stroke:black;" points="25201.4,-948.226 25210,-942 25199.4,-941.521 25201.4,-948.226"/>
</g>
</g>
</svg>
