<?xml version="1.0" encoding="UTF-8" standalone="no"?>
<!DOCTYPE svg PUBLIC "-//W3C//DTD SVG 1.0//EN"
 "http://www.w3.org/TR/2001/REC-SVG-20010904/DTD/svg10.dtd" [
 <!ATTLIST svg xmlns:xlink CDATA #FIXED "http://www.w3.org/1999/xlink">
]>
<!-- Generated by Graphviz version 2.18 (Fri May &#160;2 20:53:13 UTC 2008)
     For user: (lispserver) ,,, -->
<!-- Title: g Pages: 1 -->
<svg width="17478pt" height="8314pt"
 viewBox="0.00 0.00 17478.00 8314.00" xmlns="http://www.w3.org/2000/svg" xmlns:xlink="http://www.w3.org/1999/xlink">
<g id="graph0" class="graph" transform="scale(1 1) rotate(0) translate(4 8310)">
<title>g</title>
<polygon style="fill:white;stroke:white;" points="-4,4 -4,-8310 17474,-8310 17474,4 -4,4"/>
<!-- ID=USS_Enterprise -->
<g id="node2" class="node"><title>ID=USS_Enterprise</title>
<ellipse style="fill:none;stroke:black;" cx="9005" cy="-4082" rx="345.775" ry="55.8614"/>
<text text-anchor="middle" x="9005" y="-4063.5" style="font-family:Times New Roman;font-size:60.00;">USS Enterprise</text>
</g>
<!-- ID=USS_Enterprise_(NCC&#45;1701) -->
<g id="node4" class="node"><title>ID=USS_Enterprise_(NCC&#45;1701)</title>
<ellipse style="fill:none;stroke:black;" cx="9820" cy="-4174" rx="366.988" ry="34.6482"/>
<text text-anchor="middle" x="9820" y="-4163" style="font-family:Times New Roman;font-size:35.00;">USS Enterprise (NCC&#45;1701)</text>
</g>
<!-- ID=USS_Enterprise&#45;&gt;ID=USS_Enterprise_(NCC&#45;1701) -->
<g id="edge4" class="edge"><title>ID=USS_Enterprise&#45;&gt;ID=USS_Enterprise_(NCC&#45;1701)</title>
<path style="fill:none;stroke:black;" d="M9289,-4114C9382,-4125 9484,-4136 9574,-4147"/>
<polygon style="fill:black;stroke:black;" points="9573.7,-4150.49 9584,-4148 9574.4,-4143.52 9573.7,-4150.49"/>
</g>
<!-- ID=TS_Enterprise_(T&#45;AK&#45;5059) -->
<g id="node28" class="node"><title>ID=TS_Enterprise_(T&#45;AK&#45;5059)</title>
<ellipse style="fill:none;stroke:black;" cx="9146" cy="-4986" rx="342.24" ry="34.6482"/>
<text text-anchor="middle" x="9146" y="-4975" style="font-family:Times New Roman;font-size:35.00;">TS Enterprise (T&#45;AK&#45;5059)</text>
</g>
<!-- ID=USS_Enterprise&#45;&gt;ID=TS_Enterprise_(T&#45;AK&#45;5059) -->
<g id="edge28" class="edge"><title>ID=USS_Enterprise&#45;&gt;ID=TS_Enterprise_(T&#45;AK&#45;5059)</title>
<path style="fill:none;stroke:black;" d="M9014,-4138C9040,-4305 9115,-4791 9139,-4941"/>
<polygon style="fill:black;stroke:black;" points="9135.61,-4941.88 9141,-4951 9142.47,-4940.51 9135.61,-4941.88"/>
</g>
<!-- ID=USS_Enterprise_(NCC&#45;1701&#45;B) -->
<g id="node31" class="node"><title>ID=USS_Enterprise_(NCC&#45;1701&#45;B)</title>
<ellipse style="fill:none;stroke:black;" cx="8412" cy="-5040" rx="393.858" ry="34.6482"/>
<text text-anchor="middle" x="8412" y="-5029" style="font-family:Times New Roman;font-size:35.00;">USS Enterprise (NCC&#45;1701&#45;B)</text>
</g>
<!-- ID=USS_Enterprise&#45;&gt;ID=USS_Enterprise_(NCC&#45;1701&#45;B) -->
<g id="edge31" class="edge"><title>ID=USS_Enterprise&#45;&gt;ID=USS_Enterprise_(NCC&#45;1701&#45;B)</title>
<path style="fill:none;stroke:black;" d="M8970,-4138C8862,-4313 8535,-4841 8438,-4996"/>
<polygon style="fill:black;stroke:black;" points="8434.8,-4994.56 8433,-5005 8440.92,-4997.96 8434.8,-4994.56"/>
</g>
<!-- ID=United_States_Navy -->
<g id="node56" class="node"><title>ID=United_States_Navy</title>
<ellipse style="fill:none;stroke:black;" cx="7450" cy="-4174" rx="258.094" ry="34.6482"/>
<text text-anchor="middle" x="7450" y="-4163" style="font-family:Times New Roman;font-size:35.00;">United States Navy</text>
</g>
<!-- ID=USS_Enterprise&#45;&gt;ID=United_States_Navy -->
<g id="edge57" class="edge"><title>ID=USS_Enterprise&#45;&gt;ID=United_States_Navy</title>
<path style="fill:none;stroke:black;" d="M8680,-4101C8387,-4119 7962,-4143 7696,-4159"/>
<polygon style="fill:black;stroke:black;" points="7695.6,-4155.52 7686,-4160 7696.3,-4162.49 7695.6,-4155.52"/>
</g>
<!-- ID=Enterprise_(SP&#45;790) -->
<g id="node83" class="node"><title>ID=Enterprise_(SP&#45;790)</title>
<ellipse style="fill:none;stroke:black;" cx="6455" cy="-4096" rx="260.922" ry="34.6482"/>
<text text-anchor="middle" x="6455" y="-4085" style="font-family:Times New Roman;font-size:35.00;">Enterprise (SP&#45;790)</text>
</g>
<!-- ID=USS_Enterprise&#45;&gt;ID=Enterprise_(SP&#45;790) -->
<g id="edge84" class="edge"><title>ID=USS_Enterprise&#45;&gt;ID=Enterprise_(SP&#45;790)</title>
<path style="fill:none;stroke:black;" d="M8659,-4084C8146,-4087 7192,-4092 6726,-4095"/>
<polygon style="fill:black;stroke:black;" points="6726,-4091.5 6716,-4095 6726,-4098.5 6726,-4091.5"/>
</g>
<!-- ID=USS_Enterprise_(NCC&#45;1701&#45;J) -->
<g id="node107" class="node"><title>ID=USS_Enterprise_(NCC&#45;1701&#45;J)</title>
<ellipse style="fill:none;stroke:black;" cx="8264" cy="-4135" rx="384.873" ry="34.6482"/>
<text text-anchor="middle" x="8264" y="-4124" style="font-family:Times New Roman;font-size:35.00;">USS Enterprise (NCC&#45;1701&#45;J)</text>
</g>
<!-- ID=USS_Enterprise&#45;&gt;ID=USS_Enterprise_(NCC&#45;1701&#45;J) -->
<g id="edge108" class="edge"><title>ID=USS_Enterprise&#45;&gt;ID=USS_Enterprise_(NCC&#45;1701&#45;J)</title>
<path style="fill:none;stroke:black;" d="M8688,-4105C8651,-4108 8613,-4110 8576,-4113"/>
<polygon style="fill:black;stroke:black;" points="8575.6,-4109.52 8566,-4114 8576.3,-4116.49 8575.6,-4109.52"/>
</g>
<!-- ID=USS_Enterprise_(CV&#45;6) -->
<g id="node134" class="node"><title>ID=USS_Enterprise_(CV&#45;6)</title>
<ellipse style="fill:none;stroke:black;" cx="8702" cy="-3211" rx="294.156" ry="34.6482"/>
<text text-anchor="middle" x="8702" y="-3200" style="font-family:Times New Roman;font-size:35.00;">USS Enterprise (CV&#45;6)</text>
</g>
<!-- ID=USS_Enterprise&#45;&gt;ID=USS_Enterprise_(CV&#45;6) -->
<g id="edge135" class="edge"><title>ID=USS_Enterprise&#45;&gt;ID=USS_Enterprise_(CV&#45;6)</title>
<path style="fill:none;stroke:black;" d="M8985,-4026C8929,-3865 8768,-3401 8717,-3256"/>
<polygon style="fill:black;stroke:black;" points="8720.23,-3254.57 8714,-3246 8713.52,-3256.58 8720.23,-3254.57"/>
</g>
<!-- ID=WikiProject_Ships/Guidelines -->
<g id="node161" class="node"><title>ID=WikiProject_Ships/Guidelines</title>
<ellipse style="fill:none;stroke:black;" cx="10578" cy="-3355" rx="377.095" ry="34.6482"/>
<text text-anchor="middle" x="10578" y="-3344" style="font-family:Times New Roman;font-size:35.00;">WikiProject Ships/Guidelines</text>
</g>
<!-- ID=USS_Enterprise&#45;&gt;ID=WikiProject_Ships/Guidelines -->
<g id="edge162" class="edge"><title>ID=USS_Enterprise&#45;&gt;ID=WikiProject_Ships/Guidelines</title>
<path style="fill:none;stroke:black;" d="M9119,-4029C9420,-3890 10234,-3514 10496,-3393"/>
<polygon style="fill:black;stroke:black;" points="10497.3,-3396.26 10505,-3389 10494.4,-3389.86 10497.3,-3396.26"/>
</g>
<!-- ID=USS_Enterprise_(NCC&#45;1701&#45;C) -->
<g id="node164" class="node"><title>ID=USS_Enterprise_(NCC&#45;1701&#45;C)</title>
<ellipse style="fill:none;stroke:black;" cx="10846" cy="-4724" rx="394.066" ry="34.6482"/>
<text text-anchor="middle" x="10846" y="-4713" style="font-family:Times New Roman;font-size:35.00;">USS Enterprise (NCC&#45;1701&#45;C)</text>
</g>
<!-- ID=USS_Enterprise&#45;&gt;ID=USS_Enterprise_(NCC&#45;1701&#45;C) -->
<g id="edge165" class="edge"><title>ID=USS_Enterprise&#45;&gt;ID=USS_Enterprise_(NCC&#45;1701&#45;C)</title>
<path style="fill:none;stroke:black;" d="M9151,-4133C9509,-4259 10428,-4578 10740,-4687"/>
<polygon style="fill:black;stroke:black;" points="10739.4,-4690.48 10750,-4690 10741.4,-4683.77 10739.4,-4690.48"/>
</g>
<!-- ID=Reliable_sources -->
<g id="node7" class="node"><title>ID=Reliable_sources</title>
<ellipse style="fill:none;stroke:black;" cx="14406" cy="-5806" rx="113.844" ry="20.5061"/>
<text text-anchor="middle" x="14406" y="-5801.2" style="font-family:Times New Roman;font-size:17.00;">Reliable sources</text>
</g>
<!-- ID=USS_Enterprise_(NCC&#45;1701)&#45;&gt;ID=Reliable_sources -->
<g id="edge7" class="edge"><title>ID=USS_Enterprise_(NCC&#45;1701)&#45;&gt;ID=Reliable_sources</title>
<path style="fill:none;stroke:black;" d="M9914,-4207C10518,-4423 13852,-5609 14345,-5785"/>
<polygon style="fill:black;stroke:black;" points="14343.4,-5788.16 14354,-5788 14345.6,-5781.52 14343.4,-5788.16"/>
</g>
<!-- ID=Weapons_of_Star_Trek -->
<g id="node13" class="node"><title>ID=Weapons_of_Star_Trek</title>
<ellipse style="fill:none;stroke:black;" cx="12214" cy="-5711" rx="145.872" ry="20.5061"/>
<text text-anchor="middle" x="12214" y="-5706.2" style="font-family:Times New Roman;font-size:17.00;">Weapons of Star Trek</text>
</g>
<!-- ID=USS_Enterprise_(NCC&#45;1701)&#45;&gt;ID=Weapons_of_Star_Trek -->
<g id="edge13" class="edge"><title>ID=USS_Enterprise_(NCC&#45;1701)&#45;&gt;ID=Weapons_of_Star_Trek</title>
<path style="fill:none;stroke:black;" d="M9873,-4208C10197,-4416 11891,-5503 12174,-5685"/>
<polygon style="fill:black;stroke:black;" points="12172.7,-5688.37 12183,-5691 12176.6,-5682.54 12172.7,-5688.37"/>
</g>
<!-- ID=Requiem_for_Methuselah -->
<g id="node19" class="node"><title>ID=Requiem_for_Methuselah</title>
<ellipse style="fill:none;stroke:black;" cx="9899" cy="-5340" rx="164.963" ry="20.5061"/>
<text text-anchor="middle" x="9899" y="-5335.2" style="font-family:Times New Roman;font-size:17.00;">Requiem for Methuselah</text>
</g>
<!-- ID=USS_Enterprise_(NCC&#45;1701)&#45;&gt;ID=Requiem_for_Methuselah -->
<g id="edge19" class="edge"><title>ID=USS_Enterprise_(NCC&#45;1701)&#45;&gt;ID=Requiem_for_Methuselah</title>
<path style="fill:none;stroke:black;" d="M9822,-4209C9834,-4381 9886,-5146 9897,-5309"/>
<polygon style="fill:black;stroke:black;" points="9893.52,-5309.4 9898,-5319 9900.49,-5308.7 9893.52,-5309.4"/>
</g>
<!-- ID=NCC&#45;1701&#45;A -->
<g id="node25" class="node"><title>ID=NCC&#45;1701&#45;A</title>
<ellipse style="fill:none;stroke:black;" cx="10774" cy="-6196" rx="90.0096" ry="20.5061"/>
<text text-anchor="middle" x="10774" y="-6191.2" style="font-family:Times New Roman;font-size:17.00;">NCC&#45;1701&#45;A</text>
</g>
<!-- ID=USS_Enterprise_(NCC&#45;1701)&#45;&gt;ID=NCC&#45;1701&#45;A -->
<g id="edge25" class="edge"><title>ID=USS_Enterprise_(NCC&#45;1701)&#45;&gt;ID=NCC&#45;1701&#45;A</title>
<path style="fill:none;stroke:black;" d="M9836,-4209C9952,-4455 10652,-5937 10760,-6166"/>
<polygon style="fill:black;stroke:black;" points="10756.7,-6167.28 10764,-6175 10763.1,-6164.44 10756.7,-6167.28"/>
</g>
<!-- ID=Anderson_Cooper_360° -->
<g id="node10" class="node"><title>ID=Anderson_Cooper_360°</title>
<ellipse style="fill:none;stroke:black;" cx="17373" cy="-4576" rx="96.0148" ry="18"/>
<text text-anchor="middle" x="17373" y="-4573.1" style="font-family:Times New Roman;font-size:11.00;">Anderson Cooper 360°</text>
</g>
<!-- ID=Reliable_sources&#45;&gt;ID=Anderson_Cooper_360° -->
<g id="edge10" class="edge"><title>ID=Reliable_sources&#45;&gt;ID=Anderson_Cooper_360°</title>
<path style="fill:none;stroke:black;" d="M14451,-5787C14794,-5644 16969,-4743 17324,-4596"/>
<polygon style="fill:black;stroke:black;" points="17325.3,-4599.26 17333,-4592 17322.4,-4592.86 17325.3,-4599.26"/>
</g>
<!-- ID=Vulcan_(Star_Trek) -->
<g id="node16" class="node"><title>ID=Vulcan_(Star_Trek)</title>
<ellipse style="fill:none;stroke:black;" cx="16956" cy="-7643" rx="77.1949" ry="18"/>
<text text-anchor="middle" x="16956" y="-7640.1" style="font-family:Times New Roman;font-size:11.00;">Vulcan (Star Trek)</text>
</g>
<!-- ID=Weapons_of_Star_Trek&#45;&gt;ID=Vulcan_(Star_Trek) -->
<g id="edge16" class="edge"><title>ID=Weapons_of_Star_Trek&#45;&gt;ID=Vulcan_(Star_Trek)</title>
<path style="fill:none;stroke:black;" d="M12262,-5730C12727,-5921 16441,-7433 16908,-7623"/>
<polygon style="fill:black;stroke:black;" points="16906.4,-7626.14 16917,-7627 16909.3,-7619.74 16906.4,-7626.14"/>
</g>
<!-- ID=Artificial_intelligence -->
<g id="node35" class="node"><title>ID=Artificial_intelligence</title>
<ellipse style="fill:none;stroke:black;" cx="13705" cy="-7990" rx="89.0663" ry="18"/>
<text text-anchor="middle" x="13705" y="-7987.1" style="font-family:Times New Roman;font-size:11.00;">Artificial intelligence</text>
</g>
<!-- ID=Weapons_of_Star_Trek&#45;&gt;ID=Artificial_intelligence -->
<g id="edge36" class="edge"><title>ID=Weapons_of_Star_Trek&#45;&gt;ID=Artificial_intelligence</title>
<path style="fill:none;stroke:black;" d="M12228,-5732C12367,-5944 13532,-7725 13688,-7964"/>
<polygon style="fill:black;stroke:black;" points="13684.7,-7965.38 13693,-7972 13690.7,-7961.66 13684.7,-7965.38"/>
</g>
<!-- ID=Uhura -->
<g id="node22" class="node"><title>ID=Uhura</title>
<ellipse style="fill:none;stroke:black;" cx="11787" cy="-7758" rx="32.9792" ry="18"/>
<text text-anchor="middle" x="11787" y="-7755.1" style="font-family:Times New Roman;font-size:11.00;">Uhura</text>
</g>
<!-- ID=Requiem_for_Methuselah&#45;&gt;ID=Uhura -->
<g id="edge22" class="edge"><title>ID=Requiem_for_Methuselah&#45;&gt;ID=Uhura</title>
<path style="fill:none;stroke:black;" d="M9915,-5361C10087,-5580 11579,-7492 11768,-7733"/>
<polygon style="fill:black;stroke:black;" points="11765.2,-7735.1 11774,-7741 11770.8,-7730.9 11765.2,-7735.1"/>
</g>
<!-- ID=USS_Enterprise_(NCC&#45;1701&#45;B)&#45;&gt;ID=Weapons_of_Star_Trek -->
<g id="edge33" class="edge"><title>ID=USS_Enterprise_(NCC&#45;1701&#45;B)&#45;&gt;ID=Weapons_of_Star_Trek</title>
<path style="fill:none;stroke:black;" d="M8587,-5071C9251,-5188 11597,-5602 12113,-5693"/>
<polygon style="fill:black;stroke:black;" points="12112.5,-5696.47 12123,-5695 12113.9,-5689.61 12112.5,-5696.47"/>
</g>
<!-- ID=Photon_torpedo -->
<g id="node38" class="node"><title>ID=Photon_torpedo</title>
<ellipse style="fill:none;stroke:black;" cx="9656" cy="-6724" rx="106.98" ry="20.5061"/>
<text text-anchor="middle" x="9656" y="-6719.2" style="font-family:Times New Roman;font-size:17.00;">Photon torpedo</text>
</g>
<!-- ID=USS_Enterprise_(NCC&#45;1701&#45;B)&#45;&gt;ID=Photon_torpedo -->
<g id="edge39" class="edge"><title>ID=USS_Enterprise_(NCC&#45;1701&#45;B)&#45;&gt;ID=Photon_torpedo</title>
<path style="fill:none;stroke:black;" d="M8438,-5075C8601,-5295 9486,-6493 9635,-6695"/>
<polygon style="fill:black;stroke:black;" points="9632.2,-6697.1 9641,-6703 9637.8,-6692.9 9632.2,-6697.1"/>
</g>
<!-- ID=USS_Enterprise_(NCC&#45;1701&#45;A) -->
<g id="node44" class="node"><title>ID=USS_Enterprise_(NCC&#45;1701&#45;A)</title>
<ellipse style="fill:none;stroke:black;" cx="8887" cy="-5976" rx="200.818" ry="20.5061"/>
<text text-anchor="middle" x="8887" y="-5971.2" style="font-family:Times New Roman;font-size:17.00;">USS Enterprise (NCC&#45;1701&#45;A)</text>
</g>
<!-- ID=USS_Enterprise_(NCC&#45;1701&#45;B)&#45;&gt;ID=USS_Enterprise_(NCC&#45;1701&#45;A) -->
<g id="edge45" class="edge"><title>ID=USS_Enterprise_(NCC&#45;1701&#45;B)&#45;&gt;ID=USS_Enterprise_(NCC&#45;1701&#45;A)</title>
<path style="fill:none;stroke:black;" d="M8430,-5075C8505,-5223 8802,-5808 8872,-5946"/>
<polygon style="fill:black;stroke:black;" points="8869.08,-5947.96 8877,-5955 8875.2,-5944.56 8869.08,-5947.96"/>
</g>
<!-- ID=Starship_Enterprise -->
<g id="node50" class="node"><title>ID=Starship_Enterprise</title>
<ellipse style="fill:none;stroke:black;" cx="7889" cy="-6036" rx="133.143" ry="20.5061"/>
<text text-anchor="middle" x="7889" y="-6031.2" style="font-family:Times New Roman;font-size:17.00;">Starship Enterprise</text>
</g>
<!-- ID=USS_Enterprise_(NCC&#45;1701&#45;B)&#45;&gt;ID=Starship_Enterprise -->
<g id="edge51" class="edge"><title>ID=USS_Enterprise_(NCC&#45;1701&#45;B)&#45;&gt;ID=Starship_Enterprise</title>
<path style="fill:none;stroke:black;" d="M8394,-5075C8313,-5229 7981,-5861 7905,-6006"/>
<polygon style="fill:black;stroke:black;" points="7901.8,-6004.56 7900,-6015 7907.92,-6007.96 7901.8,-6004.56"/>
</g>
<!-- ID=Maser -->
<g id="node41" class="node"><title>ID=Maser</title>
<ellipse style="fill:none;stroke:black;" cx="10419" cy="-8223" rx="32.9792" ry="18"/>
<text text-anchor="middle" x="10419" y="-8220.1" style="font-family:Times New Roman;font-size:11.00;">Maser</text>
</g>
<!-- ID=Photon_torpedo&#45;&gt;ID=Maser -->
<g id="edge42" class="edge"><title>ID=Photon_torpedo&#45;&gt;ID=Maser</title>
<path style="fill:none;stroke:black;" d="M9666,-6745C9750,-6910 10311,-8011 10405,-8197"/>
<polygon style="fill:black;stroke:black;" points="10402.1,-8198.96 10410,-8206 10408.2,-8195.56 10402.1,-8198.96"/>
</g>
<!-- ID=Shields_(Star_Trek) -->
<g id="node47" class="node"><title>ID=Shields_(Star_Trek)</title>
<ellipse style="fill:none;stroke:black;" cx="8961" cy="-8287" rx="78.9595" ry="18"/>
<text text-anchor="middle" x="8961" y="-8284.1" style="font-family:Times New Roman;font-size:11.00;">Shields (Star Trek)</text>
</g>
<!-- ID=USS_Enterprise_(NCC&#45;1701&#45;A)&#45;&gt;ID=Shields_(Star_Trek) -->
<g id="edge48" class="edge"><title>ID=USS_Enterprise_(NCC&#45;1701&#45;A)&#45;&gt;ID=Shields_(Star_Trek)</title>
<path style="fill:none;stroke:black;" d="M8888,-5997C8895,-6210 8952,-8011 8960,-8259"/>
<polygon style="fill:black;stroke:black;" points="8956.5,-8259 8960,-8269 8963.5,-8259 8956.5,-8259"/>
</g>
<!-- ID=May_24 -->
<g id="node53" class="node"><title>ID=May_24</title>
<ellipse style="fill:none;stroke:black;" cx="8280" cy="-7062" rx="36.772" ry="18"/>
<text text-anchor="middle" x="8280" y="-7059.1" style="font-family:Times New Roman;font-size:11.00;">May 24</text>
</g>
<!-- ID=Starship_Enterprise&#45;&gt;ID=May_24 -->
<g id="edge54" class="edge"><title>ID=Starship_Enterprise&#45;&gt;ID=May_24</title>
<path style="fill:none;stroke:black;" d="M7897,-6056C7946,-6186 8213,-6885 8269,-7034"/>
<polygon style="fill:black;stroke:black;" points="8266.04,-7036.02 8273,-7044 8272.54,-7033.42 8266.04,-7036.02"/>
</g>
<!-- ID=United_States_Naval_Forces_Europe -->
<g id="node59" class="node"><title>ID=United_States_Naval_Forces_Europe</title>
<ellipse style="fill:none;stroke:black;" cx="7617" cy="-5116" rx="231.224" ry="20.5061"/>
<text text-anchor="middle" x="7617" y="-5111.2" style="font-family:Times New Roman;font-size:17.00;">United States Naval Forces Europe</text>
</g>
<!-- ID=United_States_Navy&#45;&gt;ID=United_States_Naval_Forces_Europe -->
<g id="edge60" class="edge"><title>ID=United_States_Navy&#45;&gt;ID=United_States_Naval_Forces_Europe</title>
<path style="fill:none;stroke:black;" d="M7456,-4209C7482,-4358 7587,-4944 7611,-5085"/>
<polygon style="fill:black;stroke:black;" points="7607.61,-5085.88 7613,-5095 7614.47,-5084.51 7607.61,-5085.88"/>
</g>
<!-- ID=U.S._state -->
<g id="node65" class="node"><title>ID=U.S._state</title>
<ellipse style="fill:none;stroke:black;" cx="6879" cy="-6566" rx="70.0036" ry="20.5061"/>
<text text-anchor="middle" x="6879" y="-6561.2" style="font-family:Times New Roman;font-size:17.00;">U.S. state</text>
</g>
<!-- ID=United_States_Navy&#45;&gt;ID=U.S._state -->
<g id="edge66" class="edge"><title>ID=United_States_Navy&#45;&gt;ID=U.S._state</title>
<path style="fill:none;stroke:black;" d="M7442,-4209C7376,-4482 6947,-6280 6886,-6536"/>
<polygon style="fill:black;stroke:black;" points="6882.53,-6535.51 6884,-6546 6889.39,-6536.88 6882.53,-6535.51"/>
</g>
<!-- ID=Aircraft_carrier -->
<g id="node71" class="node"><title>ID=Aircraft_carrier</title>
<ellipse style="fill:none;stroke:black;" cx="5332" cy="-6301" rx="106.066" ry="20.5061"/>
<text text-anchor="middle" x="5332" y="-6296.2" style="font-family:Times New Roman;font-size:17.00;">Aircraft carrier</text>
</g>
<!-- ID=United_States_Navy&#45;&gt;ID=Aircraft_carrier -->
<g id="edge72" class="edge"><title>ID=United_States_Navy&#45;&gt;ID=Aircraft_carrier</title>
<path style="fill:none;stroke:black;" d="M7416,-4208C7163,-4462 5587,-6045 5359,-6274"/>
<polygon style="fill:black;stroke:black;" points="5356.6,-6271.45 5352,-6281 5361.55,-6276.4 5356.6,-6271.45"/>
</g>
<!-- ID=Carrier_battle_group -->
<g id="node77" class="node"><title>ID=Carrier_battle_group</title>
<ellipse style="fill:none;stroke:black;" cx="6600" cy="-5248" rx="137.886" ry="20.5061"/>
<text text-anchor="middle" x="6600" y="-5243.2" style="font-family:Times New Roman;font-size:17.00;">Carrier battle group</text>
</g>
<!-- ID=United_States_Navy&#45;&gt;ID=Carrier_battle_group -->
<g id="edge78" class="edge"><title>ID=United_States_Navy&#45;&gt;ID=Carrier_battle_group</title>
<path style="fill:none;stroke:black;" d="M7423,-4209C7292,-4372 6741,-5070 6622,-5220"/>
<polygon style="fill:black;stroke:black;" points="6619.2,-5217.9 6616,-5228 6624.8,-5222.1 6619.2,-5217.9"/>
</g>
<!-- ID=Harold_P._Smith -->
<g id="node62" class="node"><title>ID=Harold_P._Smith</title>
<ellipse style="fill:none;stroke:black;" cx="7383" cy="-8258" rx="68.221" ry="18"/>
<text text-anchor="middle" x="7383" y="-8255.1" style="font-family:Times New Roman;font-size:11.00;">Harold P. Smith</text>
</g>
<!-- ID=United_States_Naval_Forces_Europe&#45;&gt;ID=Harold_P._Smith -->
<g id="edge63" class="edge"><title>ID=United_States_Naval_Forces_Europe&#45;&gt;ID=Harold_P._Smith</title>
<path style="fill:none;stroke:black;" d="M7615,-5137C7596,-5394 7407,-7931 7385,-8230"/>
<polygon style="fill:black;stroke:black;" points="7381.51,-8229.7 7384,-8240 7388.48,-8230.4 7381.51,-8229.7"/>
</g>
<!-- ID=Jarvis_Island -->
<g id="node68" class="node"><title>ID=Jarvis_Island</title>
<ellipse style="fill:none;stroke:black;" cx="5735" cy="-8090" rx="56.2192" ry="18"/>
<text text-anchor="middle" x="5735" y="-8087.1" style="font-family:Times New Roman;font-size:11.00;">Jarvis Island</text>
</g>
<!-- ID=U.S._state&#45;&gt;ID=Jarvis_Island -->
<g id="edge69" class="edge"><title>ID=U.S._state&#45;&gt;ID=Jarvis_Island</title>
<path style="fill:none;stroke:black;" d="M6864,-6586C6740,-6751 5894,-7878 5754,-8064"/>
<polygon style="fill:black;stroke:black;" points="5751.2,-8061.9 5748,-8072 5756.8,-8066.1 5751.2,-8061.9"/>
</g>
<!-- ID=USS_Sicily -->
<g id="node74" class="node"><title>ID=USS_Sicily</title>
<ellipse style="fill:none;stroke:black;" cx="3599" cy="-8012" rx="46.877" ry="18"/>
<text text-anchor="middle" x="3599" y="-8009.1" style="font-family:Times New Roman;font-size:11.00;">USS Sicily</text>
</g>
<!-- ID=Aircraft_carrier&#45;&gt;ID=USS_Sicily -->
<g id="edge75" class="edge"><title>ID=Aircraft_carrier&#45;&gt;ID=USS_Sicily</title>
<path style="fill:none;stroke:black;" d="M5311,-6321C5130,-6500 3818,-7795 3623,-7988"/>
<polygon style="fill:black;stroke:black;" points="3620.6,-7985.45 3616,-7995 3625.55,-7990.4 3620.6,-7985.45"/>
</g>
<!-- ID=Europe -->
<g id="node80" class="node"><title>ID=Europe</title>
<ellipse style="fill:none;stroke:black;" cx="371" cy="-7793" rx="36.772" ry="18"/>
<text text-anchor="middle" x="371" y="-7790.1" style="font-family:Times New Roman;font-size:11.00;">Europe</text>
</g>
<!-- ID=Carrier_battle_group&#45;&gt;ID=Europe -->
<g id="edge81" class="edge"><title>ID=Carrier_battle_group&#45;&gt;ID=Europe</title>
<path style="fill:none;stroke:black;" d="M6553,-5267C6006,-5490 900,-7576 409,-7777"/>
<polygon style="fill:black;stroke:black;" points="407.717,-7773.74 400,-7781 410.56,-7780.14 407.717,-7773.74"/>
</g>
<!-- ID=Perfect_stub_article -->
<g id="node86" class="node"><title>ID=Perfect_stub_article</title>
<ellipse style="fill:none;stroke:black;" cx="3208" cy="-5973" rx="130.108" ry="20.5061"/>
<text text-anchor="middle" x="3208" y="-5968.2" style="font-family:Times New Roman;font-size:17.00;">Perfect stub article</text>
</g>
<!-- ID=Enterprise_(SP&#45;790)&#45;&gt;ID=Perfect_stub_article -->
<g id="edge87" class="edge"><title>ID=Enterprise_(SP&#45;790)&#45;&gt;ID=Perfect_stub_article</title>
<path style="fill:none;stroke:black;" d="M6397,-4130C5992,-4364 3604,-5744 3251,-5948"/>
<polygon style="fill:black;stroke:black;" points="3249.04,-5945.08 3242,-5953 3252.44,-5951.2 3249.04,-5945.08"/>
</g>
<!-- ID=United_States_Coast_Guard -->
<g id="node89" class="node"><title>ID=United_States_Coast_Guard</title>
<ellipse style="fill:none;stroke:black;" cx="5094" cy="-4828" rx="178.191" ry="20.5061"/>
<text text-anchor="middle" x="5094" y="-4823.2" style="font-family:Times New Roman;font-size:17.00;">United States Coast Guard</text>
</g>
<!-- ID=Enterprise_(SP&#45;790)&#45;&gt;ID=United_States_Coast_Guard -->
<g id="edge90" class="edge"><title>ID=Enterprise_(SP&#45;790)&#45;&gt;ID=United_States_Coast_Guard</title>
<path style="fill:none;stroke:black;" d="M6393,-4130C6160,-4255 5344,-4693 5140,-4803"/>
<polygon style="fill:black;stroke:black;" points="5138.04,-4800.08 5131,-4808 5141.44,-4806.2 5138.04,-4800.08"/>
</g>
<!-- ID=Find_or_fix_a_stub -->
<g id="node95" class="node"><title>ID=Find_or_fix_a_stub</title>
<ellipse style="fill:none;stroke:black;" cx="3102" cy="-4118" rx="116.172" ry="20.5061"/>
<text text-anchor="middle" x="3102" y="-4113.2" style="font-family:Times New Roman;font-size:17.00;">Find or fix a stub</text>
</g>
<!-- ID=Enterprise_(SP&#45;790)&#45;&gt;ID=Find_or_fix_a_stub -->
<g id="edge96" class="edge"><title>ID=Enterprise_(SP&#45;790)&#45;&gt;ID=Find_or_fix_a_stub</title>
<path style="fill:none;stroke:black;" d="M6194,-4098C5517,-4102 3721,-4114 3228,-4117"/>
<polygon style="fill:black;stroke:black;" points="3228,-4113.5 3218,-4117 3228,-4120.5 3228,-4113.5"/>
</g>
<!-- ID=Ship -->
<g id="node101" class="node"><title>ID=Ship</title>
<ellipse style="fill:none;stroke:black;" cx="5140" cy="-3388" rx="39.0967" ry="20.5061"/>
<text text-anchor="middle" x="5140" y="-3383.2" style="font-family:Times New Roman;font-size:17.00;">Ship</text>
</g>
<!-- ID=Enterprise_(SP&#45;790)&#45;&gt;ID=Ship -->
<g id="edge102" class="edge"><title>ID=Enterprise_(SP&#45;790)&#45;&gt;ID=Ship</title>
<path style="fill:none;stroke:black;" d="M6392,-4062C6161,-3938 5356,-3505 5176,-3408"/>
<polygon style="fill:black;stroke:black;" points="5177.44,-3404.8 5167,-3403 5174.04,-3410.92 5177.44,-3404.8"/>
</g>
<!-- ID=Household_income_in_the_United_States -->
<g id="node92" class="node"><title>ID=Household_income_in_the_United_States</title>
<ellipse style="fill:none;stroke:black;" cx="157" cy="-5295" rx="156.155" ry="18"/>
<text text-anchor="middle" x="157" y="-5292.1" style="font-family:Times New Roman;font-size:11.00;">Household income in the United States</text>
</g>
<!-- ID=United_States_Coast_Guard&#45;&gt;ID=Household_income_in_the_United_States -->
<g id="edge93" class="edge"><title>ID=United_States_Coast_Guard&#45;&gt;ID=Household_income_in_the_United_States</title>
<path style="fill:none;stroke:black;" d="M4956,-4841C4243,-4909 984,-5217 288,-5283"/>
<polygon style="fill:black;stroke:black;" points="287.602,-5279.52 278,-5284 288.299,-5286.49 287.602,-5279.52"/>
</g>
<!-- ID=Method_stub -->
<g id="node98" class="node"><title>ID=Method_stub</title>
<ellipse style="fill:none;stroke:black;" cx="192" cy="-2972" rx="56.8509" ry="18"/>
<text text-anchor="middle" x="192" y="-2969.1" style="font-family:Times New Roman;font-size:11.00;">Method stub</text>
</g>
<!-- ID=Find_or_fix_a_stub&#45;&gt;ID=Method_stub -->
<g id="edge99" class="edge"><title>ID=Find_or_fix_a_stub&#45;&gt;ID=Method_stub</title>
<path style="fill:none;stroke:black;" d="M3054,-4099C2707,-3962 575,-3123 237,-2990"/>
<polygon style="fill:black;stroke:black;" points="238.56,-2986.86 228,-2986 235.717,-2993.26 238.56,-2986.86"/>
</g>
<!-- ID=Cable_Layer -->
<g id="node104" class="node"><title>ID=Cable_Layer</title>
<ellipse style="fill:none;stroke:black;" cx="373" cy="-497" rx="54.9558" ry="18"/>
<text text-anchor="middle" x="373" y="-494.1" style="font-family:Times New Roman;font-size:11.00;">Cable Layer</text>
</g>
<!-- ID=Ship&#45;&gt;ID=Cable_Layer -->
<g id="edge105" class="edge"><title>ID=Ship&#45;&gt;ID=Cable_Layer</title>
<path style="fill:none;stroke:black;" d="M5114,-3372C4759,-3157 821,-769 408,-518"/>
<polygon style="fill:black;stroke:black;" points="409.441,-514.797 399,-513 406.042,-520.916 409.441,-514.797"/>
</g>
<!-- ID=Sloop&#45;of&#45;war -->
<g id="node110" class="node"><title>ID=Sloop&#45;of&#45;war</title>
<ellipse style="fill:none;stroke:black;" cx="6722" cy="-2986" rx="90.0096" ry="20.5061"/>
<text text-anchor="middle" x="6722" y="-2981.2" style="font-family:Times New Roman;font-size:17.00;">Sloop&#45;of&#45;war</text>
</g>
<!-- ID=USS_Enterprise_(NCC&#45;1701&#45;J)&#45;&gt;ID=Sloop&#45;of&#45;war -->
<g id="edge111" class="edge"><title>ID=USS_Enterprise_(NCC&#45;1701&#45;J)&#45;&gt;ID=Sloop&#45;of&#45;war</title>
<path style="fill:none;stroke:black;" d="M8218,-4101C7986,-3928 6959,-3162 6756,-3012"/>
<polygon style="fill:black;stroke:black;" points="6758.1,-3009.2 6748,-3006 6753.9,-3014.8 6758.1,-3009.2"/>
</g>
<!-- ID=USS_Enterprise_(NCC&#45;1701&#45;E) -->
<g id="node116" class="node"><title>ID=USS_Enterprise_(NCC&#45;1701&#45;E)</title>
<ellipse style="fill:none;stroke:black;" cx="5429" cy="-1952" rx="200.818" ry="20.5061"/>
<text text-anchor="middle" x="5429" y="-1947.2" style="font-family:Times New Roman;font-size:17.00;">USS Enterprise (NCC&#45;1701&#45;E)</text>
</g>
<!-- ID=USS_Enterprise_(NCC&#45;1701&#45;J)&#45;&gt;ID=USS_Enterprise_(NCC&#45;1701&#45;E) -->
<g id="edge117" class="edge"><title>ID=USS_Enterprise_(NCC&#45;1701&#45;J)&#45;&gt;ID=USS_Enterprise_(NCC&#45;1701&#45;E)</title>
<path style="fill:none;stroke:black;" d="M8219,-4101C7884,-3843 5762,-2208 5464,-1978"/>
<polygon style="fill:black;stroke:black;" points="5466.1,-1975.2 5456,-1972 5461.9,-1980.8 5466.1,-1975.2"/>
</g>
<!-- ID=Christopher_Pike_(Star_Trek) -->
<g id="node122" class="node"><title>ID=Christopher_Pike_(Star_Trek)</title>
<ellipse style="fill:none;stroke:black;" cx="7009" cy="-1752" rx="188.798" ry="20.5061"/>
<text text-anchor="middle" x="7009" y="-1747.2" style="font-family:Times New Roman;font-size:17.00;">Christopher Pike (Star Trek)</text>
</g>
<!-- ID=USS_Enterprise_(NCC&#45;1701&#45;J)&#45;&gt;ID=Christopher_Pike_(Star_Trek) -->
<g id="edge123" class="edge"><title>ID=USS_Enterprise_(NCC&#45;1701&#45;J)&#45;&gt;ID=Christopher_Pike_(Star_Trek)</title>
<path style="fill:none;stroke:black;" d="M8246,-4100C8102,-3828 7158,-2035 7025,-1782"/>
<polygon style="fill:black;stroke:black;" points="7027.92,-1780.04 7020,-1773 7021.8,-1783.44 7027.92,-1780.04"/>
</g>
<!-- ID=Star_Trek -->
<g id="node128" class="node"><title>ID=Star_Trek</title>
<ellipse style="fill:none;stroke:black;" cx="7754" cy="-3296" rx="70.0036" ry="20.5061"/>
<text text-anchor="middle" x="7754" y="-3291.2" style="font-family:Times New Roman;font-size:17.00;">Star Trek</text>
</g>
<!-- ID=USS_Enterprise_(NCC&#45;1701&#45;J)&#45;&gt;ID=Star_Trek -->
<g id="edge129" class="edge"><title>ID=USS_Enterprise_(NCC&#45;1701&#45;J)&#45;&gt;ID=Star_Trek</title>
<path style="fill:none;stroke:black;" d="M8243,-4101C8159,-3963 7850,-3453 7771,-3325"/>
<polygon style="fill:black;stroke:black;" points="7773.92,-3323.04 7766,-3316 7767.8,-3326.44 7773.92,-3323.04"/>
</g>
<!-- ID=Junk_(ship) -->
<g id="node113" class="node"><title>ID=Junk_(ship)</title>
<ellipse style="fill:none;stroke:black;" cx="3617" cy="-271" rx="49.9024" ry="18"/>
<text text-anchor="middle" x="3617" y="-268.1" style="font-family:Times New Roman;font-size:11.00;">Junk (ship)</text>
</g>
<!-- ID=Sloop&#45;of&#45;war&#45;&gt;ID=Junk_(ship) -->
<g id="edge114" class="edge"><title>ID=Sloop&#45;of&#45;war&#45;&gt;ID=Junk_(ship)</title>
<path style="fill:none;stroke:black;" d="M6699,-2966C6435,-2734 3935,-548 3644,-295"/>
<polygon style="fill:black;stroke:black;" points="3645.83,-291.951 3636,-288 3641.22,-297.219 3645.83,-291.951"/>
</g>
<!-- ID=Diane_Carey -->
<g id="node119" class="node"><title>ID=Diane_Carey</title>
<ellipse style="fill:none;stroke:black;" cx="3274" cy="-2284" rx="56.2192" ry="18"/>
<text text-anchor="middle" x="3274" y="-2281.1" style="font-family:Times New Roman;font-size:11.00;">Diane Carey</text>
</g>
<!-- ID=USS_Enterprise_(NCC&#45;1701&#45;E)&#45;&gt;ID=Diane_Carey -->
<g id="edge120" class="edge"><title>ID=USS_Enterprise_(NCC&#45;1701&#45;E)&#45;&gt;ID=Diane_Carey</title>
<path style="fill:none;stroke:black;" d="M5318,-1969C4928,-2029 3631,-2229 3335,-2274"/>
<polygon style="fill:black;stroke:black;" points="3334.12,-2270.61 3325,-2276 3335.49,-2277.47 3334.12,-2270.61"/>
</g>
<!-- ID=James_T._Kirk -->
<g id="node125" class="node"><title>ID=James_T._Kirk</title>
<ellipse style="fill:none;stroke:black;" cx="5780" cy="-192" rx="56.9827" ry="18"/>
<text text-anchor="middle" x="5780" y="-189.1" style="font-family:Times New Roman;font-size:11.00;">James T. Kirk</text>
</g>
<!-- ID=Christopher_Pike_(Star_Trek)&#45;&gt;ID=James_T._Kirk -->
<g id="edge126" class="edge"><title>ID=Christopher_Pike_(Star_Trek)&#45;&gt;ID=James_T._Kirk</title>
<path style="fill:none;stroke:black;" d="M6993,-1731C6860,-1562 5948,-405 5800,-218"/>
<polygon style="fill:black;stroke:black;" points="5802.8,-215.9 5794,-210 5797.2,-220.1 5802.8,-215.9"/>
</g>
<!-- ID=Teleportation -->
<g id="node131" class="node"><title>ID=Teleportation</title>
<ellipse style="fill:none;stroke:black;" cx="7413" cy="-71" rx="60.0092" ry="18"/>
<text text-anchor="middle" x="7413" y="-68.1" style="font-family:Times New Roman;font-size:11.00;">Teleportation</text>
</g>
<!-- ID=Star_Trek&#45;&gt;ID=Teleportation -->
<g id="edge132" class="edge"><title>ID=Star_Trek&#45;&gt;ID=Teleportation</title>
<path style="fill:none;stroke:black;" d="M7752,-3275C7724,-3017 7448,-402 7416,-99"/>
<polygon style="fill:black;stroke:black;" points="7419.48,-98.6021 7415,-89 7412.51,-99.2987 7419.48,-98.6021"/>
</g>
<!-- ID=Puget_Sound_Naval_Shipyard -->
<g id="node137" class="node"><title>ID=Puget_Sound_Naval_Shipyard</title>
<ellipse style="fill:none;stroke:black;" cx="8121" cy="-2449" rx="190.919" ry="20.5061"/>
<text text-anchor="middle" x="8121" y="-2444.2" style="font-family:Times New Roman;font-size:17.00;">Puget Sound Naval Shipyard</text>
</g>
<!-- ID=USS_Enterprise_(CV&#45;6)&#45;&gt;ID=Puget_Sound_Naval_Shipyard -->
<g id="edge138" class="edge"><title>ID=USS_Enterprise_(CV&#45;6)&#45;&gt;ID=Puget_Sound_Naval_Shipyard</title>
<path style="fill:none;stroke:black;" d="M8676,-3176C8577,-3047 8233,-2596 8143,-2477"/>
<polygon style="fill:black;stroke:black;" points="8145.8,-2474.9 8137,-2469 8140.2,-2479.1 8145.8,-2474.9"/>
</g>
<!-- ID=USS_Washington_(BB&#45;56) -->
<g id="node143" class="node"><title>ID=USS_Washington_(BB&#45;56)</title>
<ellipse style="fill:none;stroke:black;" cx="9226" cy="-1884" rx="166.877" ry="20.5061"/>
<text text-anchor="middle" x="9226" y="-1879.2" style="font-family:Times New Roman;font-size:17.00;">USS Washington (BB&#45;56)</text>
</g>
<!-- ID=USS_Enterprise_(CV&#45;6)&#45;&gt;ID=USS_Washington_(BB&#45;56) -->
<g id="edge144" class="edge"><title>ID=USS_Enterprise_(CV&#45;6)&#45;&gt;ID=USS_Washington_(BB&#45;56)</title>
<path style="fill:none;stroke:black;" d="M8716,-3177C8790,-2989 9144,-2091 9214,-1914"/>
<polygon style="fill:black;stroke:black;" points="9217.14,-1915.56 9218,-1905 9210.74,-1912.72 9217.14,-1915.56"/>
</g>
<!-- ID=USS_Hammann_(DD&#45;412) -->
<g id="node149" class="node"><title>ID=USS_Hammann_(DD&#45;412)</title>
<ellipse style="fill:none;stroke:black;" cx="9556" cy="-3057" rx="167.084" ry="20.5061"/>
<text text-anchor="middle" x="9556" y="-3052.2" style="font-family:Times New Roman;font-size:17.00;">USS Hammann (DD&#45;412)</text>
</g>
<!-- ID=USS_Enterprise_(CV&#45;6)&#45;&gt;ID=USS_Hammann_(DD&#45;412) -->
<g id="edge150" class="edge"><title>ID=USS_Enterprise_(CV&#45;6)&#45;&gt;ID=USS_Hammann_(DD&#45;412)</title>
<path style="fill:none;stroke:black;" d="M8862,-3182C9035,-3151 9305,-3102 9452,-3076"/>
<polygon style="fill:black;stroke:black;" points="9452.88,-3079.39 9462,-3074 9451.51,-3072.53 9452.88,-3079.39"/>
</g>
<!-- ID=Guadalcanal -->
<g id="node155" class="node"><title>ID=Guadalcanal</title>
<ellipse style="fill:none;stroke:black;" cx="10304" cy="-1922" rx="89.0955" ry="20.5061"/>
<text text-anchor="middle" x="10304" y="-1917.2" style="font-family:Times New Roman;font-size:17.00;">Guadalcanal</text>
</g>
<!-- ID=USS_Enterprise_(CV&#45;6)&#45;&gt;ID=Guadalcanal -->
<g id="edge156" class="edge"><title>ID=USS_Enterprise_(CV&#45;6)&#45;&gt;ID=Guadalcanal</title>
<path style="fill:none;stroke:black;" d="M8744,-3177C8974,-2993 10068,-2113 10271,-1948"/>
<polygon style="fill:black;stroke:black;" points="10273.1,-1950.8 10279,-1942 10268.9,-1945.2 10273.1,-1950.8"/>
</g>
<!-- ID=Bremerton,_Washington -->
<g id="node140" class="node"><title>ID=Bremerton,_Washington</title>
<ellipse style="fill:none;stroke:black;" cx="8276" cy="-1356" rx="98.0413" ry="18"/>
<text text-anchor="middle" x="8276" y="-1353.1" style="font-family:Times New Roman;font-size:11.00;">Bremerton, Washington</text>
</g>
<!-- ID=Puget_Sound_Naval_Shipyard&#45;&gt;ID=Bremerton,_Washington -->
<g id="edge141" class="edge"><title>ID=Puget_Sound_Naval_Shipyard&#45;&gt;ID=Bremerton,_Washington</title>
<path style="fill:none;stroke:black;" d="M8124,-2428C8143,-2293 8250,-1540 8272,-1384"/>
<polygon style="fill:black;stroke:black;" points="8275.49,-1384.3 8273,-1374 8268.52,-1383.6 8275.49,-1384.3"/>
</g>
<!-- ID=October_6 -->
<g id="node146" class="node"><title>ID=October_6</title>
<ellipse style="fill:none;stroke:black;" cx="8909" cy="-19" rx="46.877" ry="18"/>
<text text-anchor="middle" x="8909" y="-16.1" style="font-family:Times New Roman;font-size:11.00;">October 6</text>
</g>
<!-- ID=USS_Washington_(BB&#45;56)&#45;&gt;ID=October_6 -->
<g id="edge147" class="edge"><title>ID=USS_Washington_(BB&#45;56)&#45;&gt;ID=October_6</title>
<path style="fill:none;stroke:black;" d="M9222,-1863C9191,-1676 8951,-265 8914,-47"/>
<polygon style="fill:black;stroke:black;" points="8917.39,-46.1194 8912,-37 8910.53,-47.4922 8917.39,-46.1194"/>
</g>
<!-- ID=January_6 -->
<g id="node152" class="node"><title>ID=January_6</title>
<ellipse style="fill:none;stroke:black;" cx="10235" cy="-236" rx="46.1124" ry="18"/>
<text text-anchor="middle" x="10235" y="-233.1" style="font-family:Times New Roman;font-size:11.00;">January 6</text>
</g>
<!-- ID=USS_Hammann_(DD&#45;412)&#45;&gt;ID=January_6 -->
<g id="edge153" class="edge"><title>ID=USS_Hammann_(DD&#45;412)&#45;&gt;ID=January_6</title>
<path style="fill:none;stroke:black;" d="M9561,-3036C9619,-2796 10161,-542 10229,-264"/>
<polygon style="fill:black;stroke:black;" points="10232.5,-264.492 10231,-254 10225.6,-263.119 10232.5,-264.492"/>
</g>
<!-- ID=Pacific_Forum -->
<g id="node158" class="node"><title>ID=Pacific_Forum</title>
<ellipse style="fill:none;stroke:black;" cx="11838" cy="-294" rx="61.9043" ry="18"/>
<text text-anchor="middle" x="11838" y="-291.1" style="font-family:Times New Roman;font-size:11.00;">Pacific Forum</text>
</g>
<!-- ID=Guadalcanal&#45;&gt;ID=Pacific_Forum -->
<g id="edge159" class="edge"><title>ID=Guadalcanal&#45;&gt;ID=Pacific_Forum</title>
<path style="fill:none;stroke:black;" d="M10323,-1902C10486,-1728 11636,-509 11815,-318"/>
<polygon style="fill:black;stroke:black;" points="11817.4,-320.546 11822,-311 11812.5,-315.596 11817.4,-320.546"/>
</g>
<!-- ID=2332 -->
<g id="node167" class="node"><title>ID=2332</title>
<ellipse style="fill:none;stroke:black;" cx="11502" cy="-2257" rx="43.1335" ry="20.5061"/>
<text text-anchor="middle" x="11502" y="-2252.2" style="font-family:Times New Roman;font-size:17.00;">2332</text>
</g>
<!-- ID=USS_Enterprise_(NCC&#45;1701&#45;C)&#45;&gt;ID=2332 -->
<g id="edge168" class="edge"><title>ID=USS_Enterprise_(NCC&#45;1701&#45;C)&#45;&gt;ID=2332</title>
<path style="fill:none;stroke:black;" d="M10855,-4689C10929,-4410 11424,-2549 11494,-2287"/>
<polygon style="fill:black;stroke:black;" points="11497.5,-2287.58 11497,-2277 11490.8,-2285.57 11497.5,-2287.58"/>
</g>
<!-- ID=Yesterday&#39;s_Enterprise_(TNG_episode) -->
<g id="node170" class="node"><title>ID=Yesterday&#39;s_Enterprise_(TNG_episode)</title>
<ellipse style="fill:none;stroke:black;" cx="11857" cy="-3869" rx="244.866" ry="20.5061"/>
<text text-anchor="middle" x="11857" y="-3864.2" style="font-family:Times New Roman;font-size:17.00;">Yesterday&#39;s Enterprise (TNG episode)</text>
</g>
<!-- ID=USS_Enterprise_(NCC&#45;1701&#45;C)&#45;&gt;ID=Yesterday&#39;s_Enterprise_(TNG_episode) -->
<g id="edge171" class="edge"><title>ID=USS_Enterprise_(NCC&#45;1701&#45;C)&#45;&gt;ID=Yesterday&#39;s_Enterprise_(TNG_episode)</title>
<path style="fill:none;stroke:black;" d="M10887,-4689C11053,-4549 11675,-4023 11825,-3897"/>
<polygon style="fill:black;stroke:black;" points="11827.8,-3899.22 11833,-3890 11823.2,-3893.95 11827.8,-3899.22"/>
</g>
<!-- ID=Romulan_starships -->
<g id="node176" class="node"><title>ID=Romulan_starships</title>
<ellipse style="fill:none;stroke:black;" cx="13083" cy="-2335" rx="126.78" ry="20.5061"/>
<text text-anchor="middle" x="13083" y="-2330.2" style="font-family:Times New Roman;font-size:17.00;">Romulan starships</text>
</g>
<!-- ID=USS_Enterprise_(NCC&#45;1701&#45;C)&#45;&gt;ID=Romulan_starships -->
<g id="edge177" class="edge"><title>ID=USS_Enterprise_(NCC&#45;1701&#45;C)&#45;&gt;ID=Romulan_starships</title>
<path style="fill:none;stroke:black;" d="M10878,-4689C11135,-4416 12826,-2609 13057,-2362"/>
<polygon style="fill:black;stroke:black;" points="13059.4,-2364.55 13064,-2355 13054.5,-2359.6 13059.4,-2364.55"/>
</g>
<!-- ID=Guinan -->
<g id="node182" class="node"><title>ID=Guinan</title>
<ellipse style="fill:none;stroke:black;" cx="13464" cy="-4175" rx="55.8614" ry="20.5061"/>
<text text-anchor="middle" x="13464" y="-4170.2" style="font-family:Times New Roman;font-size:17.00;">Guinan</text>
</g>
<!-- ID=USS_Enterprise_(NCC&#45;1701&#45;C)&#45;&gt;ID=Guinan -->
<g id="edge183" class="edge"><title>ID=USS_Enterprise_(NCC&#45;1701&#45;C)&#45;&gt;ID=Guinan</title>
<path style="fill:none;stroke:black;" d="M10998,-4692C11499,-4587 13079,-4256 13405,-4187"/>
<polygon style="fill:black;stroke:black;" points="13405.9,-4190.39 13415,-4185 13404.5,-4183.53 13405.9,-4190.39"/>
</g>
<!-- ID=A_Matter_of_Perspective_(TNG_episode) -->
<g id="node173" class="node"><title>ID=A_Matter_of_Perspective_(TNG_episode)</title>
<ellipse style="fill:none;stroke:black;" cx="14080" cy="-373" rx="152.866" ry="18"/>
<text text-anchor="middle" x="14080" y="-370.1" style="font-family:Times New Roman;font-size:11.00;">A Matter of Perspective (TNG episode)</text>
</g>
<!-- ID=Yesterday&#39;s_Enterprise_(TNG_episode)&#45;&gt;ID=A_Matter_of_Perspective_(TNG_episode) -->
<g id="edge174" class="edge"><title>ID=Yesterday&#39;s_Enterprise_(TNG_episode)&#45;&gt;ID=A_Matter_of_Perspective_(TNG_episode)</title>
<path style="fill:none;stroke:black;" d="M11870,-3848C12042,-3578 13867,-708 14063,-400"/>
<polygon style="fill:black;stroke:black;" points="14066.4,-401.262 14069,-391 14060.5,-397.379 14066.4,-401.262"/>
</g>
<!-- ID=Neutral_zone_(Star_Trek) -->
<g id="node179" class="node"><title>ID=Neutral_zone_(Star_Trek)</title>
<ellipse style="fill:none;stroke:black;" cx="17206" cy="-901" rx="99.9368" ry="18"/>
<text text-anchor="middle" x="17206" y="-898.1" style="font-family:Times New Roman;font-size:11.00;">Neutral zone (Star Trek)</text>
</g>
<!-- ID=Romulan_starships&#45;&gt;ID=Neutral_zone_(Star_Trek) -->
<g id="edge180" class="edge"><title>ID=Romulan_starships&#45;&gt;ID=Neutral_zone_(Star_Trek)</title>
<path style="fill:none;stroke:black;" d="M13137,-2316C13585,-2160 16694,-1079 17150,-920"/>
<polygon style="fill:black;stroke:black;" points="17151.4,-923.226 17160,-917 17149.4,-916.521 17151.4,-923.226"/>
</g>
<!-- ID=Damar_(Star_Trek) -->
<g id="node185" class="node"><title>ID=Damar_(Star_Trek)</title>
<ellipse style="fill:none;stroke:black;" cx="15219" cy="-2996" rx="77.1949" ry="18"/>
<text text-anchor="middle" x="15219" y="-2993.1" style="font-family:Times New Roman;font-size:11.00;">Damar (Star Trek)</text>
</g>
<!-- ID=Guinan&#45;&gt;ID=Damar_(Star_Trek) -->
<g id="edge186" class="edge"><title>ID=Guinan&#45;&gt;ID=Damar_(Star_Trek)</title>
<path style="fill:none;stroke:black;" d="M13491,-4157C13692,-4022 14962,-3169 15186,-3019"/>
<polygon style="fill:black;stroke:black;" points="15188.1,-3021.8 15194,-3013 15183.9,-3016.2 15188.1,-3021.8"/>
</g>
</g>
</svg>
