<?xml version="1.0" encoding="UTF-8" standalone="no"?>
<!DOCTYPE svg PUBLIC "-//W3C//DTD SVG 1.0//EN"
 "http://www.w3.org/TR/2001/REC-SVG-20010904/DTD/svg10.dtd" [
 <!ATTLIST svg xmlns:xlink CDATA #FIXED "http://www.w3.org/1999/xlink">
]>
<!-- Generated by Graphviz version 2.18 (Fri May &#160;2 20:53:13 UTC 2008)
     For user: (lispserver) ,,, -->
<!-- Title: g Pages: 1 -->
<svg width="24250pt" height="10849pt"
 viewBox="0.00 0.00 24250.00 10849.00" xmlns="http://www.w3.org/2000/svg" xmlns:xlink="http://www.w3.org/1999/xlink">
<g id="graph0" class="graph" transform="scale(1 1) rotate(0) translate(4 10845)">
<title>g</title>
<polygon style="fill:white;stroke:white;" points="-4,4 -4,-10845 24246,-10845 24246,4 -4,4"/>
<!-- ID=Harvard_University -->
<g id="node2" class="node"><title>ID=Harvard_University</title>
<ellipse style="fill:none;stroke:black;" cx="12083" cy="-5645" rx="425.886" ry="55.8614"/>
<text text-anchor="middle" x="12083" y="-5626.5" style="font-family:Times New Roman;font-size:60.00;">Harvard University</text>
</g>
<!-- ID=Fogg_Museum_of_Art -->
<g id="node4" class="node"><title>ID=Fogg_Museum_of_Art</title>
<ellipse style="fill:none;stroke:black;" cx="16646" cy="-5206" rx="270.115" ry="34.6482"/>
<text text-anchor="middle" x="16646" y="-5195" style="font-family:Times New Roman;font-size:35.00;">Fogg Museum of Art</text>
</g>
<!-- ID=Harvard_University&#45;&gt;ID=Fogg_Museum_of_Art -->
<g id="edge4" class="edge"><title>ID=Harvard_University&#45;&gt;ID=Fogg_Museum_of_Art</title>
<path style="fill:none;stroke:black;" d="M12427,-5612C13317,-5526 15679,-5299 16420,-5228"/>
<polygon style="fill:black;stroke:black;" points="16420.4,-5231.48 16430,-5227 16419.7,-5224.51 16420.4,-5231.48"/>
</g>
<!-- ID=Manchester_Monarchs -->
<g id="node7" class="node"><title>ID=Manchester_Monarchs</title>
<ellipse style="fill:none;stroke:black;" cx="13698" cy="-5368" rx="294.864" ry="34.6482"/>
<text text-anchor="middle" x="13698" y="-5357" style="font-family:Times New Roman;font-size:35.00;">Manchester Monarchs</text>
</g>
<!-- ID=Harvard_University&#45;&gt;ID=Manchester_Monarchs -->
<g id="edge7" class="edge"><title>ID=Harvard_University&#45;&gt;ID=Manchester_Monarchs</title>
<path style="fill:none;stroke:black;" d="M12342,-5600C12673,-5544 13237,-5447 13521,-5399"/>
<polygon style="fill:black;stroke:black;" points="13521.9,-5402.39 13531,-5397 13520.5,-5395.53 13521.9,-5402.39"/>
</g>
<!-- ID=John_Updike -->
<g id="node31" class="node"><title>ID=John_Updike</title>
<ellipse style="fill:none;stroke:black;" cx="12631" cy="-6636" rx="166.877" ry="34.6482"/>
<text text-anchor="middle" x="12631" y="-6625" style="font-family:Times New Roman;font-size:35.00;">John Updike</text>
</g>
<!-- ID=Harvard_University&#45;&gt;ID=John_Updike -->
<g id="edge31" class="edge"><title>ID=Harvard_University&#45;&gt;ID=John_Updike</title>
<path style="fill:none;stroke:black;" d="M12114,-5701C12213,-5880 12519,-6433 12607,-6593"/>
<polygon style="fill:black;stroke:black;" points="12604.1,-6594.96 12612,-6602 12610.2,-6591.56 12604.1,-6594.96"/>
</g>
<!-- ID=Federalist_Party -->
<g id="node56" class="node"><title>ID=Federalist_Party</title>
<ellipse style="fill:none;stroke:black;" cx="11756" cy="-6636" rx="212.839" ry="34.6482"/>
<text text-anchor="middle" x="11756" y="-6625" style="font-family:Times New Roman;font-size:35.00;">Federalist Party</text>
</g>
<!-- ID=Harvard_University&#45;&gt;ID=Federalist_Party -->
<g id="edge57" class="edge"><title>ID=Harvard_University&#45;&gt;ID=Federalist_Party</title>
<path style="fill:none;stroke:black;" d="M12064,-5701C12005,-5880 11824,-6432 11770,-6592"/>
<polygon style="fill:black;stroke:black;" points="11766.5,-6591.42 11767,-6602 11773.2,-6593.43 11766.5,-6591.42"/>
</g>
<!-- ID=Good_Will_Hunting -->
<g id="node59" class="node"><title>ID=Good_Will_Hunting</title>
<ellipse style="fill:none;stroke:black;" cx="11346" cy="-5659" rx="244.866" ry="34.6482"/>
<text text-anchor="middle" x="11346" y="-5648" style="font-family:Times New Roman;font-size:35.00;">Good Will Hunting</text>
</g>
<!-- ID=Harvard_University&#45;&gt;ID=Good_Will_Hunting -->
<g id="edge60" class="edge"><title>ID=Harvard_University&#45;&gt;ID=Good_Will_Hunting</title>
<path style="fill:none;stroke:black;" d="M11661,-5653C11640,-5653 11619,-5654 11599,-5654"/>
<polygon style="fill:black;stroke:black;" points="11599,-5650.5 11589,-5654 11599,-5657.5 11599,-5650.5"/>
</g>
<!-- ID=Faculty -->
<g id="node83" class="node"><title>ID=Faculty</title>
<ellipse style="fill:none;stroke:black;" cx="9760" cy="-6104" rx="103.945" ry="34.6482"/>
<text text-anchor="middle" x="9760" y="-6093" style="font-family:Times New Roman;font-size:35.00;">Faculty</text>
</g>
<!-- ID=Harvard_University&#45;&gt;ID=Faculty -->
<g id="edge84" class="edge"><title>ID=Harvard_University&#45;&gt;ID=Faculty</title>
<path style="fill:none;stroke:black;" d="M11847,-5692C11348,-5790 10204,-6017 9860,-6084"/>
<polygon style="fill:black;stroke:black;" points="9859.12,-6080.61 9850,-6086 9860.49,-6087.47 9859.12,-6080.61"/>
</g>
<!-- ID=Elizabeth_Wurtzel -->
<g id="node110" class="node"><title>ID=Elizabeth_Wurtzel</title>
<ellipse style="fill:none;stroke:black;" cx="11655" cy="-4718" rx="236.174" ry="34.6482"/>
<text text-anchor="middle" x="11655" y="-4707" style="font-family:Times New Roman;font-size:35.00;">Elizabeth Wurtzel</text>
</g>
<!-- ID=Harvard_University&#45;&gt;ID=Elizabeth_Wurtzel -->
<g id="edge111" class="edge"><title>ID=Harvard_University&#45;&gt;ID=Elizabeth_Wurtzel</title>
<path style="fill:none;stroke:black;" d="M12057,-5589C11980,-5420 11746,-4914 11675,-4762"/>
<polygon style="fill:black;stroke:black;" points="11678.3,-4760.72 11671,-4753 11671.9,-4763.56 11678.3,-4760.72"/>
</g>
<!-- ID=Harvardiana -->
<g id="node137" class="node"><title>ID=Harvardiana</title>
<ellipse style="fill:none;stroke:black;" cx="12605" cy="-5010" rx="169.205" ry="34.6482"/>
<text text-anchor="middle" x="12605" y="-4999" style="font-family:Times New Roman;font-size:35.00;">Harvardiana</text>
</g>
<!-- ID=Harvard_University&#45;&gt;ID=Harvardiana -->
<g id="edge138" class="edge"><title>ID=Harvard_University&#45;&gt;ID=Harvardiana</title>
<path style="fill:none;stroke:black;" d="M12129,-5589C12231,-5464 12479,-5163 12570,-5052"/>
<polygon style="fill:black;stroke:black;" points="12573,-5053.83 12577,-5044 12567.8,-5049.22 12573,-5053.83"/>
</g>
<!-- ID=New_England_Conservatory_of_Music -->
<g id="node161" class="node"><title>ID=New_England_Conservatory_of_Music</title>
<ellipse style="fill:none;stroke:black;" cx="12855" cy="-5750" rx="473.969" ry="34.6482"/>
<text text-anchor="middle" x="12855" y="-5739" style="font-family:Times New Roman;font-size:35.00;">New England Conservatory of Music</text>
</g>
<!-- ID=Harvard_University&#45;&gt;ID=New_England_Conservatory_of_Music -->
<g id="edge162" class="edge"><title>ID=Harvard_University&#45;&gt;ID=New_England_Conservatory_of_Music</title>
<path style="fill:none;stroke:black;" d="M12379,-5685C12459,-5696 12545,-5708 12621,-5719"/>
<polygon style="fill:black;stroke:black;" points="12620.7,-5722.49 12631,-5720 12621.4,-5715.52 12620.7,-5722.49"/>
</g>
<!-- ID=Boston_Celtics -->
<g id="node10" class="node"><title>ID=Boston_Celtics</title>
<ellipse style="fill:none;stroke:black;" cx="16472" cy="-7449" rx="99.9096" ry="20.5061"/>
<text text-anchor="middle" x="16472" y="-7444.2" style="font-family:Times New Roman;font-size:17.00;">Boston Celtics</text>
</g>
<!-- ID=Manchester_Monarchs&#45;&gt;ID=Boston_Celtics -->
<g id="edge10" class="edge"><title>ID=Manchester_Monarchs&#45;&gt;ID=Boston_Celtics</title>
<path style="fill:none;stroke:black;" d="M13744,-5402C14078,-5653 16143,-7202 16437,-7423"/>
<polygon style="fill:black;stroke:black;" points="16434.9,-7425.8 16445,-7429 16439.1,-7420.2 16434.9,-7425.8"/>
</g>
<!-- ID=Czechoslovakia -->
<g id="node16" class="node"><title>ID=Czechoslovakia</title>
<ellipse style="fill:none;stroke:black;" cx="14855" cy="-6158" rx="106.98" ry="20.5061"/>
<text text-anchor="middle" x="14855" y="-6153.2" style="font-family:Times New Roman;font-size:17.00;">Czechoslovakia</text>
</g>
<!-- ID=Manchester_Monarchs&#45;&gt;ID=Czechoslovakia -->
<g id="edge16" class="edge"><title>ID=Manchester_Monarchs&#45;&gt;ID=Czechoslovakia</title>
<path style="fill:none;stroke:black;" d="M13748,-5402C13943,-5536 14647,-6016 14818,-6132"/>
<polygon style="fill:black;stroke:black;" points="14815.9,-6134.8 14826,-6138 14820.1,-6129.2 14815.9,-6134.8"/>
</g>
<!-- ID=LA_Kings -->
<g id="node22" class="node"><title>ID=LA_Kings</title>
<ellipse style="fill:none;stroke:black;" cx="14575" cy="-7968" rx="67.1751" ry="20.5061"/>
<text text-anchor="middle" x="14575" y="-7963.2" style="font-family:Times New Roman;font-size:17.00;">LA Kings</text>
</g>
<!-- ID=Manchester_Monarchs&#45;&gt;ID=LA_Kings -->
<g id="edge22" class="edge"><title>ID=Manchester_Monarchs&#45;&gt;ID=LA_Kings</title>
<path style="fill:none;stroke:black;" d="M13710,-5403C13807,-5690 14474,-7668 14565,-7937"/>
<polygon style="fill:black;stroke:black;" points="14561.8,-7938.43 14568,-7947 14568.5,-7936.42 14561.8,-7938.43"/>
</g>
<!-- ID=Norfolk_Admirals -->
<g id="node25" class="node"><title>ID=Norfolk_Admirals</title>
<ellipse style="fill:none;stroke:black;" cx="13631" cy="-6512" rx="118.087" ry="20.5061"/>
<text text-anchor="middle" x="13631" y="-6507.2" style="font-family:Times New Roman;font-size:17.00;">Norfolk Admirals</text>
</g>
<!-- ID=Manchester_Monarchs&#45;&gt;ID=Norfolk_Admirals -->
<g id="edge25" class="edge"><title>ID=Manchester_Monarchs&#45;&gt;ID=Norfolk_Admirals</title>
<path style="fill:none;stroke:black;" d="M13696,-5403C13686,-5573 13642,-6320 13633,-6481"/>
<polygon style="fill:black;stroke:black;" points="13629.5,-6480.7 13632,-6491 13636.5,-6481.4 13629.5,-6480.7"/>
</g>
<!-- ID=Bankrupt -->
<g id="node13" class="node"><title>ID=Bankrupt</title>
<ellipse style="fill:none;stroke:black;" cx="23887" cy="-9560" rx="44.2173" ry="18"/>
<text text-anchor="middle" x="23887" y="-9557.1" style="font-family:Times New Roman;font-size:11.00;">Bankrupt</text>
</g>
<!-- ID=Boston_Celtics&#45;&gt;ID=Bankrupt -->
<g id="edge13" class="edge"><title>ID=Boston_Celtics&#45;&gt;ID=Bankrupt</title>
<path style="fill:none;stroke:black;" d="M16531,-7466C17193,-7654 23251,-9379 23841,-9547"/>
<polygon style="fill:black;stroke:black;" points="23840.4,-9550.48 23851,-9550 23842.4,-9543.77 23840.4,-9550.48"/>
</g>
<!-- ID=Karel_Kramář -->
<g id="node19" class="node"><title>ID=Karel_Kramář</title>
<ellipse style="fill:none;stroke:black;" cx="18916" cy="-10050" rx="60.1397" ry="18"/>
<text text-anchor="middle" x="18916" y="-10047.1" style="font-family:Times New Roman;font-size:11.00;">Karel Kramář</text>
</g>
<!-- ID=Czechoslovakia&#45;&gt;ID=Karel_Kramář -->
<g id="edge19" class="edge"><title>ID=Czechoslovakia&#45;&gt;ID=Karel_Kramář</title>
<path style="fill:none;stroke:black;" d="M14876,-6178C15177,-6468 18559,-9709 18890,-10025"/>
<polygon style="fill:black;stroke:black;" points="18888.2,-10028 18898,-10032 18892.8,-10022.8 18888.2,-10028"/>
</g>
<!-- ID=Kyle_Calder -->
<g id="node28" class="node"><title>ID=Kyle_Calder</title>
<ellipse style="fill:none;stroke:black;" cx="15985" cy="-10195" rx="53.0608" ry="18"/>
<text text-anchor="middle" x="15985" y="-10192.1" style="font-family:Times New Roman;font-size:11.00;">Kyle Calder</text>
</g>
<!-- ID=Norfolk_Admirals&#45;&gt;ID=Kyle_Calder -->
<g id="edge28" class="edge"><title>ID=Norfolk_Admirals&#45;&gt;ID=Kyle_Calder</title>
<path style="fill:none;stroke:black;" d="M13644,-6533C13823,-6813 15767,-9855 15969,-10169"/>
<polygon style="fill:black;stroke:black;" points="15965.7,-10170.4 15974,-10177 15971.7,-10166.7 15965.7,-10170.4"/>
</g>
<!-- ID=Pulitzer_Prize_for_Fiction -->
<g id="node34" class="node"><title>ID=Pulitzer_Prize_for_Fiction</title>
<ellipse style="fill:none;stroke:black;" cx="13311" cy="-7716" rx="162.134" ry="20.5061"/>
<text text-anchor="middle" x="13311" y="-7711.2" style="font-family:Times New Roman;font-size:17.00;">Pulitzer Prize for Fiction</text>
</g>
<!-- ID=John_Updike&#45;&gt;ID=Pulitzer_Prize_for_Fiction -->
<g id="edge34" class="edge"><title>ID=John_Updike&#45;&gt;ID=Pulitzer_Prize_for_Fiction</title>
<path style="fill:none;stroke:black;" d="M12653,-6670C12756,-6835 13196,-7534 13292,-7686"/>
<polygon style="fill:black;stroke:black;" points="13289.5,-7688.62 13298,-7695 13295.4,-7684.74 13289.5,-7688.62"/>
</g>
<!-- ID=Rabbit_At_Rest -->
<g id="node40" class="node"><title>ID=Rabbit_At_Rest</title>
<ellipse style="fill:none;stroke:black;" cx="12217" cy="-7670" rx="101.823" ry="20.5061"/>
<text text-anchor="middle" x="12217" y="-7665.2" style="font-family:Times New Roman;font-size:17.00;">Rabbit At Rest</text>
</g>
<!-- ID=John_Updike&#45;&gt;ID=Rabbit_At_Rest -->
<g id="edge40" class="edge"><title>ID=John_Updike&#45;&gt;ID=Rabbit_At_Rest</title>
<path style="fill:none;stroke:black;" d="M12617,-6670C12553,-6829 12289,-7489 12229,-7639"/>
<polygon style="fill:black;stroke:black;" points="12225.5,-7638.42 12225,-7649 12232,-7641.02 12225.5,-7638.42"/>
</g>
<!-- ID=In_the_Beauty_of_the_Lilies -->
<g id="node46" class="node"><title>ID=In_the_Beauty_of_the_Lilies</title>
<ellipse style="fill:none;stroke:black;" cx="11842" cy="-10820" rx="171.827" ry="20.5061"/>
<text text-anchor="middle" x="11842" y="-10815.2" style="font-family:Times New Roman;font-size:17.00;">In the Beauty of the Lilies</text>
</g>
<!-- ID=John_Updike&#45;&gt;ID=In_the_Beauty_of_the_Lilies -->
<g id="edge46" class="edge"><title>ID=John_Updike&#45;&gt;ID=In_the_Beauty_of_the_Lilies</title>
<path style="fill:none;stroke:black;" d="M12623,-6671C12545,-7050 11906,-10430 11847,-10789"/>
<polygon style="fill:black;stroke:black;" points="11843.5,-10788.5 11845,-10799 11850.4,-10789.9 11843.5,-10788.5"/>
</g>
<!-- ID=1981 -->
<g id="node50" class="node"><title>ID=1981</title>
<ellipse style="fill:none;stroke:black;" cx="11227" cy="-8077" rx="43.1335" ry="20.5061"/>
<text text-anchor="middle" x="11227" y="-8072.2" style="font-family:Times New Roman;font-size:17.00;">1981</text>
</g>
<!-- ID=John_Updike&#45;&gt;ID=1981 -->
<g id="edge51" class="edge"><title>ID=John_Updike&#45;&gt;ID=1981</title>
<path style="fill:none;stroke:black;" d="M12598,-6670C12405,-6868 11423,-7876 11252,-8051"/>
<polygon style="fill:black;stroke:black;" points="11249.6,-8048.45 11245,-8058 11254.5,-8053.4 11249.6,-8048.45"/>
</g>
<!-- ID=1959_in_literature -->
<g id="node37" class="node"><title>ID=1959_in_literature</title>
<ellipse style="fill:none;stroke:black;" cx="13956" cy="-10520" rx="75.8011" ry="18"/>
<text text-anchor="middle" x="13956" y="-10517.1" style="font-family:Times New Roman;font-size:11.00;">1959 in literature</text>
</g>
<!-- ID=Pulitzer_Prize_for_Fiction&#45;&gt;ID=1959_in_literature -->
<g id="edge37" class="edge"><title>ID=Pulitzer_Prize_for_Fiction&#45;&gt;ID=1959_in_literature</title>
<path style="fill:none;stroke:black;" d="M13316,-7737C13370,-7975 13885,-10214 13950,-10492"/>
<polygon style="fill:black;stroke:black;" points="13946.6,-10492.9 13952,-10502 13953.5,-10491.5 13946.6,-10492.9"/>
</g>
<!-- ID=Toyota -->
<g id="node43" class="node"><title>ID=Toyota</title>
<ellipse style="fill:none;stroke:black;" cx="12695" cy="-8945" rx="34.2387" ry="18"/>
<text text-anchor="middle" x="12695" y="-8942.1" style="font-family:Times New Roman;font-size:11.00;">Toyota</text>
</g>
<!-- ID=Rabbit_At_Rest&#45;&gt;ID=Toyota -->
<g id="edge43" class="edge"><title>ID=Rabbit_At_Rest&#45;&gt;ID=Toyota</title>
<path style="fill:none;stroke:black;" d="M12225,-7691C12280,-7840 12621,-8747 12684,-8917"/>
<polygon style="fill:black;stroke:black;" points="12681,-8919.02 12688,-8927 12687.5,-8916.42 12681,-8919.02"/>
</g>
<!-- ID=In_the_Beauty_of_the_Lilies&#45;&gt;ID=John_Updike -->
<g id="edge48" class="edge"><title>ID=In_the_Beauty_of_the_Lilies&#45;&gt;ID=John_Updike</title>
<path style="fill:none;stroke:black;" d="M11847,-10799C11909,-10501 12549,-7111 12624,-6681"/>
<polygon style="fill:black;stroke:black;" points="12627.5,-6681.49 12626,-6671 12620.6,-6680.12 12627.5,-6681.49"/>
</g>
<!-- ID=Greater_London_Council -->
<g id="node53" class="node"><title>ID=Greater_London_Council</title>
<ellipse style="fill:none;stroke:black;" cx="10488" cy="-9860" rx="99.9368" ry="18"/>
<text text-anchor="middle" x="10488" y="-9857.1" style="font-family:Times New Roman;font-size:11.00;">Greater London Council</text>
</g>
<!-- ID=1981&#45;&gt;ID=Greater_London_Council -->
<g id="edge54" class="edge"><title>ID=1981&#45;&gt;ID=Greater_London_Council</title>
<path style="fill:none;stroke:black;" d="M11219,-8097C11143,-8279 10586,-9623 10500,-9833"/>
<polygon style="fill:black;stroke:black;" points="10496.9,-9831.44 10496,-9842 10503.3,-9834.28 10496.9,-9831.44"/>
</g>
<!-- ID=Film_critics -->
<g id="node62" class="node"><title>ID=Film_critics</title>
<ellipse style="fill:none;stroke:black;" cx="9892" cy="-7811" rx="80.1095" ry="20.5061"/>
<text text-anchor="middle" x="9892" y="-7806.2" style="font-family:Times New Roman;font-size:17.00;">Film critics</text>
</g>
<!-- ID=Good_Will_Hunting&#45;&gt;ID=Film_critics -->
<g id="edge63" class="edge"><title>ID=Good_Will_Hunting&#45;&gt;ID=Film_critics</title>
<path style="fill:none;stroke:black;" d="M11323,-5694C11150,-5950 10070,-7548 9912,-7783"/>
<polygon style="fill:black;stroke:black;" points="9909.2,-7780.9 9906,-7791 9914.8,-7785.1 9909.2,-7780.9"/>
</g>
<!-- ID=Child_abandonment -->
<g id="node65" class="node"><title>ID=Child_abandonment</title>
<ellipse style="fill:none;stroke:black;" cx="10836" cy="-6575" rx="133.143" ry="20.5061"/>
<text text-anchor="middle" x="10836" y="-6570.2" style="font-family:Times New Roman;font-size:17.00;">Child abandonment</text>
</g>
<!-- ID=Good_Will_Hunting&#45;&gt;ID=Child_abandonment -->
<g id="edge66" class="edge"><title>ID=Good_Will_Hunting&#45;&gt;ID=Child_abandonment</title>
<path style="fill:none;stroke:black;" d="M11327,-5694C11245,-5840 10929,-6407 10853,-6545"/>
<polygon style="fill:black;stroke:black;" points="10849.8,-6543.56 10848,-6554 10855.9,-6546.96 10849.8,-6543.56"/>
</g>
<!-- ID=Fields_Medal -->
<g id="node71" class="node"><title>ID=Fields_Medal</title>
<ellipse style="fill:none;stroke:black;" cx="8087" cy="-7594" rx="91.9239" ry="20.5061"/>
<text text-anchor="middle" x="8087" y="-7589.2" style="font-family:Times New Roman;font-size:17.00;">Fields Medal</text>
</g>
<!-- ID=Good_Will_Hunting&#45;&gt;ID=Fields_Medal -->
<g id="edge72" class="edge"><title>ID=Good_Will_Hunting&#45;&gt;ID=Fields_Medal</title>
<path style="fill:none;stroke:black;" d="M11289,-5693C10889,-5932 8475,-7364 8129,-7570"/>
<polygon style="fill:black;stroke:black;" points="8127.04,-7567.08 8120,-7575 8130.44,-7573.2 8127.04,-7567.08"/>
</g>
<!-- ID=1997_in_film -->
<g id="node77" class="node"><title>ID=1997_in_film</title>
<ellipse style="fill:none;stroke:black;" cx="5216" cy="-6956" rx="85.0596" ry="20.5061"/>
<text text-anchor="middle" x="5216" y="-6951.2" style="font-family:Times New Roman;font-size:17.00;">1997 in film</text>
</g>
<!-- ID=Good_Will_Hunting&#45;&gt;ID=1997_in_film -->
<g id="edge78" class="edge"><title>ID=Good_Will_Hunting&#45;&gt;ID=1997_in_film</title>
<path style="fill:none;stroke:black;" d="M11210,-5688C10373,-5865 5919,-6807 5290,-6940"/>
<polygon style="fill:black;stroke:black;" points="5289.12,-6936.61 5280,-6942 5290.49,-6943.47 5289.12,-6936.61"/>
</g>
<!-- ID=Oedipus -->
<g id="node68" class="node"><title>ID=Oedipus</title>
<ellipse style="fill:none;stroke:black;" cx="8687" cy="-10346" rx="41.059" ry="18"/>
<text text-anchor="middle" x="8687" y="-10343.1" style="font-family:Times New Roman;font-size:11.00;">Oedipus</text>
</g>
<!-- ID=Child_abandonment&#45;&gt;ID=Oedipus -->
<g id="edge69" class="edge"><title>ID=Child_abandonment&#45;&gt;ID=Oedipus</title>
<path style="fill:none;stroke:black;" d="M10824,-6596C10662,-6880 8886,-9997 8702,-10319"/>
<polygon style="fill:black;stroke:black;" points="8698.8,-10317.6 8697,-10328 8704.92,-10321 8698.8,-10317.6"/>
</g>
<!-- ID=Pierre_Deligne -->
<g id="node74" class="node"><title>ID=Pierre_Deligne</title>
<ellipse style="fill:none;stroke:black;" cx="5739" cy="-10110" rx="63.1676" ry="18"/>
<text text-anchor="middle" x="5739" y="-10107.1" style="font-family:Times New Roman;font-size:11.00;">Pierre Deligne</text>
</g>
<!-- ID=Fields_Medal&#45;&gt;ID=Pierre_Deligne -->
<g id="edge75" class="edge"><title>ID=Fields_Medal&#45;&gt;ID=Pierre_Deligne</title>
<path style="fill:none;stroke:black;" d="M8068,-7614C7859,-7838 5993,-9838 5762,-10085"/>
<polygon style="fill:black;stroke:black;" points="5759.6,-10082.5 5755,-10092 5764.55,-10087.4 5759.6,-10082.5"/>
</g>
<!-- ID=The_Game_(film) -->
<g id="node80" class="node"><title>ID=The_Game_(film)</title>
<ellipse style="fill:none;stroke:black;" cx="725" cy="-9749" rx="70.1161" ry="18"/>
<text text-anchor="middle" x="725" y="-9746.1" style="font-family:Times New Roman;font-size:11.00;">The Game (film)</text>
</g>
<!-- ID=1997_in_film&#45;&gt;ID=The_Game_(film) -->
<g id="edge81" class="edge"><title>ID=1997_in_film&#45;&gt;ID=The_Game_(film)</title>
<path style="fill:none;stroke:black;" d="M5185,-6975C4812,-7207 1160,-9478 761,-9727"/>
<polygon style="fill:black;stroke:black;" points="759.042,-9724.08 752,-9732 762.441,-9730.2 759.042,-9724.08"/>
</g>
<!-- ID=Sense -->
<g id="node86" class="node"><title>ID=Sense</title>
<ellipse style="fill:none;stroke:black;" cx="8196" cy="-5651" rx="48.7904" ry="20.5061"/>
<text text-anchor="middle" x="8196" y="-5646.2" style="font-family:Times New Roman;font-size:17.00;">Sense</text>
</g>
<!-- ID=Faculty&#45;&gt;ID=Sense -->
<g id="edge87" class="edge"><title>ID=Faculty&#45;&gt;ID=Sense</title>
<path style="fill:none;stroke:black;" d="M9682,-6081C9404,-6001 8473,-5731 8246,-5666"/>
<polygon style="fill:black;stroke:black;" points="8246.58,-5662.52 8236,-5663 8244.57,-5669.23 8246.58,-5662.52"/>
</g>
<!-- ID=Indriya -->
<g id="node92" class="node"><title>ID=Indriya</title>
<ellipse style="fill:none;stroke:black;" cx="7076" cy="-4113" rx="55.8614" ry="20.5061"/>
<text text-anchor="middle" x="7076" y="-4108.2" style="font-family:Times New Roman;font-size:17.00;">Indriya</text>
</g>
<!-- ID=Faculty&#45;&gt;ID=Indriya -->
<g id="edge93" class="edge"><title>ID=Faculty&#45;&gt;ID=Indriya</title>
<path style="fill:none;stroke:black;" d="M9717,-6072C9398,-5836 7393,-4348 7109,-4138"/>
<polygon style="fill:black;stroke:black;" points="7111.1,-4135.2 7101,-4132 7106.9,-4140.8 7111.1,-4135.2"/>
</g>
<!-- ID=Wiktionary -->
<g id="node98" class="node"><title>ID=Wiktionary</title>
<ellipse style="fill:none;stroke:black;" cx="8343" cy="-2765" rx="79.196" ry="20.5061"/>
<text text-anchor="middle" x="8343" y="-2760.2" style="font-family:Times New Roman;font-size:17.00;">Wiktionary</text>
</g>
<!-- ID=Faculty&#45;&gt;ID=Wiktionary -->
<g id="edge99" class="edge"><title>ID=Faculty&#45;&gt;ID=Wiktionary</title>
<path style="fill:none;stroke:black;" d="M9745,-6070C9605,-5738 8487,-3104 8356,-2794"/>
<polygon style="fill:black;stroke:black;" points="8359.26,-2792.72 8352,-2785 8352.86,-2795.56 8359.26,-2792.72"/>
</g>
<!-- ID=Faculty_(university) -->
<g id="node104" class="node"><title>ID=Faculty_(university)</title>
<ellipse style="fill:none;stroke:black;" cx="9534" cy="-4430" rx="131.022" ry="20.5061"/>
<text text-anchor="middle" x="9534" y="-4425.2" style="font-family:Times New Roman;font-size:17.00;">Faculty (university)</text>
</g>
<!-- ID=Faculty&#45;&gt;ID=Faculty_(university) -->
<g id="edge105" class="edge"><title>ID=Faculty&#45;&gt;ID=Faculty_(university)</title>
<path style="fill:none;stroke:black;" d="M9755,-6069C9726,-5851 9566,-4668 9538,-4461"/>
<polygon style="fill:black;stroke:black;" points="9541.48,-4460.6 9537,-4451 9534.51,-4461.3 9541.48,-4460.6"/>
</g>
<!-- ID=Monotreme -->
<g id="node89" class="node"><title>ID=Monotreme</title>
<ellipse style="fill:none;stroke:black;" cx="54" cy="-5605" rx="53.0608" ry="18"/>
<text text-anchor="middle" x="54" y="-5602.1" style="font-family:Times New Roman;font-size:11.00;">Monotreme</text>
</g>
<!-- ID=Sense&#45;&gt;ID=Monotreme -->
<g id="edge90" class="edge"><title>ID=Sense&#45;&gt;ID=Monotreme</title>
<path style="fill:none;stroke:black;" d="M8147,-5651C7508,-5647 840,-5609 117,-5605"/>
<polygon style="fill:black;stroke:black;" points="117,-5601.5 107,-5605 117,-5608.5 117,-5601.5"/>
</g>
<!-- ID=Noble_Eightfold_Path -->
<g id="node95" class="node"><title>ID=Noble_Eightfold_Path</title>
<ellipse style="fill:none;stroke:black;" cx="4435" cy="-3996" rx="87.935" ry="18"/>
<text text-anchor="middle" x="4435" y="-3993.1" style="font-family:Times New Roman;font-size:11.00;">Noble Eightfold Path</text>
</g>
<!-- ID=Indriya&#45;&gt;ID=Noble_Eightfold_Path -->
<g id="edge96" class="edge"><title>ID=Indriya&#45;&gt;ID=Noble_Eightfold_Path</title>
<path style="fill:none;stroke:black;" d="M7020,-4111C6687,-4096 4959,-4019 4531,-4000"/>
<polygon style="fill:black;stroke:black;" points="4531,-3996.5 4521,-4000 4531,-4003.5 4531,-3996.5"/>
</g>
<!-- ID=USA_Congressional_staff_edits_to_Wikipedia -->
<g id="node101" class="node"><title>ID=USA_Congressional_staff_edits_to_Wikipedia</title>
<ellipse style="fill:none;stroke:black;" cx="456" cy="-1031" rx="170.052" ry="18"/>
<text text-anchor="middle" x="456" y="-1028.1" style="font-family:Times New Roman;font-size:11.00;">USA Congressional staff edits to Wikipedia</text>
</g>
<!-- ID=Wiktionary&#45;&gt;ID=USA_Congressional_staff_edits_to_Wikipedia -->
<g id="edge102" class="edge"><title>ID=Wiktionary&#45;&gt;ID=USA_Congressional_staff_edits_to_Wikipedia</title>
<path style="fill:none;stroke:black;" d="M8283,-2752C7600,-2602 1340,-1225 540,-1049"/>
<polygon style="fill:black;stroke:black;" points="540.492,-1045.53 530,-1047 539.119,-1052.39 540.492,-1045.53"/>
</g>
<!-- ID=Arithmetic -->
<g id="node107" class="node"><title>ID=Arithmetic</title>
<ellipse style="fill:none;stroke:black;" cx="5447" cy="-562" rx="48.7731" ry="18"/>
<text text-anchor="middle" x="5447" y="-559.1" style="font-family:Times New Roman;font-size:11.00;">Arithmetic</text>
</g>
<!-- ID=Faculty_(university)&#45;&gt;ID=Arithmetic -->
<g id="edge108" class="edge"><title>ID=Faculty_(university)&#45;&gt;ID=Arithmetic</title>
<path style="fill:none;stroke:black;" d="M9513,-4410C9210,-4122 5802,-898 5473,-586"/>
<polygon style="fill:black;stroke:black;" points="5474.83,-582.951 5465,-579 5470.22,-588.219 5474.83,-582.951"/>
</g>
<!-- ID=Clinical_depression -->
<g id="node113" class="node"><title>ID=Clinical_depression</title>
<ellipse style="fill:none;stroke:black;" cx="10656" cy="-5129" rx="130.108" ry="20.5061"/>
<text text-anchor="middle" x="10656" y="-5124.2" style="font-family:Times New Roman;font-size:17.00;">Clinical depression</text>
</g>
<!-- ID=Elizabeth_Wurtzel&#45;&gt;ID=Clinical_depression -->
<g id="edge114" class="edge"><title>ID=Elizabeth_Wurtzel&#45;&gt;ID=Clinical_depression</title>
<path style="fill:none;stroke:black;" d="M11576,-4751C11380,-4831 10880,-5037 10713,-5106"/>
<polygon style="fill:black;stroke:black;" points="10711,-5103.04 10703,-5110 10713.6,-5109.54 10711,-5103.04"/>
</g>
<!-- ID=2007 -->
<g id="node119" class="node"><title>ID=2007</title>
<ellipse style="fill:none;stroke:black;" cx="9980" cy="-2671" rx="43.1335" ry="20.5061"/>
<text text-anchor="middle" x="9980" y="-2666.2" style="font-family:Times New Roman;font-size:17.00;">2007</text>
</g>
<!-- ID=Elizabeth_Wurtzel&#45;&gt;ID=2007 -->
<g id="edge120" class="edge"><title>ID=Elizabeth_Wurtzel&#45;&gt;ID=2007</title>
<path style="fill:none;stroke:black;" d="M11627,-4683C11424,-4434 10184,-2921 10002,-2698"/>
<polygon style="fill:black;stroke:black;" points="10004.8,-2695.9 9996,-2690 9999.2,-2700.1 10004.8,-2695.9"/>
</g>
<!-- ID=Starz! -->
<g id="node125" class="node"><title>ID=Starz!</title>
<ellipse style="fill:none;stroke:black;" cx="10843" cy="-3945" rx="48.7904" ry="20.5061"/>
<text text-anchor="middle" x="10843" y="-3940.2" style="font-family:Times New Roman;font-size:17.00;">Starz!</text>
</g>
<!-- ID=Elizabeth_Wurtzel&#45;&gt;ID=Starz! -->
<g id="edge126" class="edge"><title>ID=Elizabeth_Wurtzel&#45;&gt;ID=Starz!</title>
<path style="fill:none;stroke:black;" d="M11619,-4684C11482,-4553 10992,-4086 10870,-3971"/>
<polygon style="fill:black;stroke:black;" points="10872.5,-3968.6 10863,-3964 10867.6,-3973.55 10872.5,-3968.6"/>
</g>
<!-- ID=Juris_Doctor -->
<g id="node131" class="node"><title>ID=Juris_Doctor</title>
<ellipse style="fill:none;stroke:black;" cx="11877" cy="-3557" rx="85.0596" ry="20.5061"/>
<text text-anchor="middle" x="11877" y="-3552.2" style="font-family:Times New Roman;font-size:17.00;">Juris Doctor</text>
</g>
<!-- ID=Elizabeth_Wurtzel&#45;&gt;ID=Juris_Doctor -->
<g id="edge132" class="edge"><title>ID=Elizabeth_Wurtzel&#45;&gt;ID=Juris_Doctor</title>
<path style="fill:none;stroke:black;" d="M11662,-4683C11695,-4511 11840,-3750 11871,-3587"/>
<polygon style="fill:black;stroke:black;" points="11874.5,-3587.49 11873,-3577 11867.6,-3586.12 11874.5,-3587.49"/>
</g>
<!-- ID=Galen -->
<g id="node116" class="node"><title>ID=Galen</title>
<ellipse style="fill:none;stroke:black;" cx="8375" cy="-218" rx="32.2155" ry="18"/>
<text text-anchor="middle" x="8375" y="-215.1" style="font-family:Times New Roman;font-size:11.00;">Galen</text>
</g>
<!-- ID=Clinical_depression&#45;&gt;ID=Galen -->
<g id="edge117" class="edge"><title>ID=Clinical_depression&#45;&gt;ID=Galen</title>
<path style="fill:none;stroke:black;" d="M10646,-5108C10494,-4780 8562,-621 8387,-245"/>
<polygon style="fill:black;stroke:black;" points="8390.26,-243.717 8383,-236 8383.86,-246.56 8390.26,-243.717"/>
</g>
<!-- ID=March_28 -->
<g id="node122" class="node"><title>ID=March_28</title>
<ellipse style="fill:none;stroke:black;" cx="10329" cy="-237" rx="46.1124" ry="18"/>
<text text-anchor="middle" x="10329" y="-234.1" style="font-family:Times New Roman;font-size:11.00;">March 28</text>
</g>
<!-- ID=2007&#45;&gt;ID=March_28 -->
<g id="edge123" class="edge"><title>ID=2007&#45;&gt;ID=March_28</title>
<path style="fill:none;stroke:black;" d="M9983,-2650C10015,-2430 10288,-520 10325,-265"/>
<polygon style="fill:black;stroke:black;" points="10328.5,-265.299 10326,-255 10321.5,-264.602 10328.5,-265.299"/>
</g>
<!-- ID=List_of_DirecTV_channels -->
<g id="node128" class="node"><title>ID=List_of_DirecTV_channels</title>
<ellipse style="fill:none;stroke:black;" cx="11247" cy="-2348" rx="101.199" ry="18"/>
<text text-anchor="middle" x="11247" y="-2345.1" style="font-family:Times New Roman;font-size:11.00;">List of DirecTV channels</text>
</g>
<!-- ID=Starz!&#45;&gt;ID=List_of_DirecTV_channels -->
<g id="edge129" class="edge"><title>ID=Starz!&#45;&gt;ID=List_of_DirecTV_channels</title>
<path style="fill:none;stroke:black;" d="M10848,-3925C10891,-3754 11190,-2574 11240,-2376"/>
<polygon style="fill:black;stroke:black;" points="11243.5,-2376.49 11242,-2366 11236.6,-2375.12 11243.5,-2376.49"/>
</g>
<!-- ID=Australia -->
<g id="node134" class="node"><title>ID=Australia</title>
<ellipse style="fill:none;stroke:black;" cx="11905" cy="-19" rx="44.2173" ry="18"/>
<text text-anchor="middle" x="11905" y="-16.1" style="font-family:Times New Roman;font-size:11.00;">Australia</text>
</g>
<!-- ID=Juris_Doctor&#45;&gt;ID=Australia -->
<g id="edge135" class="edge"><title>ID=Juris_Doctor&#45;&gt;ID=Australia</title>
<path style="fill:none;stroke:black;" d="M11877,-3536C11879,-3262 11902,-366 11905,-47"/>
<polygon style="fill:black;stroke:black;" points="11908.5,-47 11905,-37 11901.5,-47 11908.5,-47"/>
</g>
<!-- ID=Cambridge,_Massachusetts -->
<g id="node140" class="node"><title>ID=Cambridge,_Massachusetts</title>
<ellipse style="fill:none;stroke:black;" cx="12456" cy="-4281" rx="181.019" ry="20.5061"/>
<text text-anchor="middle" x="12456" y="-4276.2" style="font-family:Times New Roman;font-size:17.00;">Cambridge, Massachusetts</text>
</g>
<!-- ID=Harvardiana&#45;&gt;ID=Cambridge,_Massachusetts -->
<g id="edge141" class="edge"><title>ID=Harvardiana&#45;&gt;ID=Cambridge,_Massachusetts</title>
<path style="fill:none;stroke:black;" d="M12598,-4975C12572,-4851 12486,-4430 12462,-4312"/>
<polygon style="fill:black;stroke:black;" points="12465.4,-4311.12 12460,-4302 12458.5,-4312.49 12465.4,-4311.12"/>
</g>
<!-- ID=1838 -->
<g id="node146" class="node"><title>ID=1838</title>
<ellipse style="fill:none;stroke:black;" cx="13060" cy="-3415" rx="43.1335" ry="20.5061"/>
<text text-anchor="middle" x="13060" y="-3410.2" style="font-family:Times New Roman;font-size:17.00;">1838</text>
</g>
<!-- ID=Harvardiana&#45;&gt;ID=1838 -->
<g id="edge147" class="edge"><title>ID=Harvardiana&#45;&gt;ID=1838</title>
<path style="fill:none;stroke:black;" d="M12615,-4975C12675,-4763 12994,-3644 13051,-3445"/>
<polygon style="fill:black;stroke:black;" points="13054.5,-3445.58 13054,-3435 13047.8,-3443.57 13054.5,-3445.58"/>
</g>
<!-- ID=United_States -->
<g id="node152" class="node"><title>ID=United_States</title>
<ellipse style="fill:none;stroke:black;" cx="13427" cy="-4464" rx="96.1665" ry="20.5061"/>
<text text-anchor="middle" x="13427" y="-4459.2" style="font-family:Times New Roman;font-size:17.00;">United States</text>
</g>
<!-- ID=Harvardiana&#45;&gt;ID=United_States -->
<g id="edge153" class="edge"><title>ID=Harvardiana&#45;&gt;ID=United_States</title>
<path style="fill:none;stroke:black;" d="M12655,-4977C12806,-4877 13256,-4578 13390,-4490"/>
<polygon style="fill:black;stroke:black;" points="13392.1,-4492.8 13398,-4484 13387.9,-4487.2 13392.1,-4492.8"/>
</g>
<!-- ID=Citation_needed -->
<g id="node158" class="node"><title>ID=Citation_needed</title>
<ellipse style="fill:none;stroke:black;" cx="14384" cy="-3653" rx="109.81" ry="20.5061"/>
<text text-anchor="middle" x="14384" y="-3648.2" style="font-family:Times New Roman;font-size:17.00;">Citation needed</text>
</g>
<!-- ID=Harvardiana&#45;&gt;ID=Citation_needed -->
<g id="edge159" class="edge"><title>ID=Harvardiana&#45;&gt;ID=Citation_needed</title>
<path style="fill:none;stroke:black;" d="M12649,-4976C12898,-4786 14127,-3849 14350,-3679"/>
<polygon style="fill:black;stroke:black;" points="14352.1,-3681.8 14358,-3673 14347.9,-3676.2 14352.1,-3681.8"/>
</g>
<!-- ID=Plymouth_County,_Massachusetts -->
<g id="node143" class="node"><title>ID=Plymouth_County,_Massachusetts</title>
<ellipse style="fill:none;stroke:black;" cx="12580" cy="-2146" rx="132.784" ry="18"/>
<text text-anchor="middle" x="12580" y="-2143.1" style="font-family:Times New Roman;font-size:11.00;">Plymouth County, Massachusetts</text>
</g>
<!-- ID=Cambridge,_Massachusetts&#45;&gt;ID=Plymouth_County,_Massachusetts -->
<g id="edge144" class="edge"><title>ID=Cambridge,_Massachusetts&#45;&gt;ID=Plymouth_County,_Massachusetts</title>
<path style="fill:none;stroke:black;" d="M12457,-4260C12469,-4056 12565,-2412 12578,-2174"/>
<polygon style="fill:black;stroke:black;" points="12581.5,-2174.3 12579,-2164 12574.5,-2173.6 12581.5,-2174.3"/>
</g>
<!-- ID=1810s -->
<g id="node149" class="node"><title>ID=1810s</title>
<ellipse style="fill:none;stroke:black;" cx="13642" cy="-34" rx="32.8472" ry="18"/>
<text text-anchor="middle" x="13642" y="-31.1" style="font-family:Times New Roman;font-size:11.00;">1810s</text>
</g>
<!-- ID=1838&#45;&gt;ID=1810s -->
<g id="edge150" class="edge"><title>ID=1838&#45;&gt;ID=1810s</title>
<path style="fill:none;stroke:black;" d="M13064,-3394C13109,-3128 13584,-371 13637,-62"/>
<polygon style="fill:black;stroke:black;" points="13640.5,-62.4922 13639,-52 13633.6,-61.1194 13640.5,-62.4922"/>
</g>
<!-- ID=October_16 -->
<g id="node155" class="node"><title>ID=October_16</title>
<ellipse style="fill:none;stroke:black;" cx="14243" cy="-2242" rx="51.9298" ry="18"/>
<text text-anchor="middle" x="14243" y="-2239.1" style="font-family:Times New Roman;font-size:11.00;">October 16</text>
</g>
<!-- ID=United_States&#45;&gt;ID=October_16 -->
<g id="edge156" class="edge"><title>ID=United_States&#45;&gt;ID=October_16</title>
<path style="fill:none;stroke:black;" d="M13435,-4443C13511,-4235 14144,-2510 14232,-2270"/>
<polygon style="fill:black;stroke:black;" points="14235.5,-2270.58 14236,-2260 14229,-2267.98 14235.5,-2270.58"/>
</g>
<!-- ID=Anthony_Glise -->
<g id="node164" class="node"><title>ID=Anthony_Glise</title>
<ellipse style="fill:none;stroke:black;" cx="14876" cy="-4714" rx="97.0803" ry="20.5061"/>
<text text-anchor="middle" x="14876" y="-4709.2" style="font-family:Times New Roman;font-size:17.00;">Anthony Glise</text>
</g>
<!-- ID=New_England_Conservatory_of_Music&#45;&gt;ID=Anthony_Glise -->
<g id="edge165" class="edge"><title>ID=New_England_Conservatory_of_Music&#45;&gt;ID=Anthony_Glise</title>
<path style="fill:none;stroke:black;" d="M12922,-5716C13235,-5555 14564,-4873 14830,-4738"/>
<polygon style="fill:black;stroke:black;" points="14832,-4740.92 14839,-4733 14828.6,-4734.8 14832,-4740.92"/>
</g>
<!-- ID=1958 -->
<g id="node170" class="node"><title>ID=1958</title>
<ellipse style="fill:none;stroke:black;" cx="16326" cy="-2970" rx="43.1335" ry="20.5061"/>
<text text-anchor="middle" x="16326" y="-2965.2" style="font-family:Times New Roman;font-size:17.00;">1958</text>
</g>
<!-- ID=New_England_Conservatory_of_Music&#45;&gt;ID=1958 -->
<g id="edge171" class="edge"><title>ID=New_England_Conservatory_of_Music&#45;&gt;ID=1958</title>
<path style="fill:none;stroke:black;" d="M12898,-5716C13273,-5416 15980,-3248 16296,-2994"/>
<polygon style="fill:black;stroke:black;" points="16298.1,-2996.8 16304,-2988 16293.9,-2991.2 16298.1,-2996.8"/>
</g>
<!-- ID=Percy_Jewett_Burrell -->
<g id="node176" class="node"><title>ID=Percy_Jewett_Burrell</title>
<ellipse style="fill:none;stroke:black;" cx="19339" cy="-3743" rx="135.972" ry="20.5061"/>
<text text-anchor="middle" x="19339" y="-3738.2" style="font-family:Times New Roman;font-size:17.00;">Percy Jewett Burrell</text>
</g>
<!-- ID=New_England_Conservatory_of_Music&#45;&gt;ID=Percy_Jewett_Burrell -->
<g id="edge177" class="edge"><title>ID=New_England_Conservatory_of_Music&#45;&gt;ID=Percy_Jewett_Burrell</title>
<path style="fill:none;stroke:black;" d="M12964,-5716C13756,-5471 18629,-3963 19269,-3765"/>
<polygon style="fill:black;stroke:black;" points="19270.4,-3768.23 19279,-3762 19268.4,-3761.52 19270.4,-3768.23"/>
</g>
<!-- ID=Kim_Kashkashian -->
<g id="node182" class="node"><title>ID=Kim_Kashkashian</title>
<ellipse style="fill:none;stroke:black;" cx="19377" cy="-6740" rx="118.794" ry="20.5061"/>
<text text-anchor="middle" x="19377" y="-6735.2" style="font-family:Times New Roman;font-size:17.00;">Kim Kashkashian</text>
</g>
<!-- ID=New_England_Conservatory_of_Music&#45;&gt;ID=Kim_Kashkashian -->
<g id="edge183" class="edge"><title>ID=New_England_Conservatory_of_Music&#45;&gt;ID=Kim_Kashkashian</title>
<path style="fill:none;stroke:black;" d="M13060,-5781C14076,-5935 18553,-6615 19278,-6725"/>
<polygon style="fill:black;stroke:black;" points="19277.7,-6728.49 19288,-6726 19278.4,-6721.52 19277.7,-6728.49"/>
</g>
<!-- ID=Elliot_Carter -->
<g id="node167" class="node"><title>ID=Elliot_Carter</title>
<ellipse style="fill:none;stroke:black;" cx="15793" cy="-234" rx="56.8509" ry="18"/>
<text text-anchor="middle" x="15793" y="-231.1" style="font-family:Times New Roman;font-size:11.00;">Elliot Carter</text>
</g>
<!-- ID=Anthony_Glise&#45;&gt;ID=Elliot_Carter -->
<g id="edge168" class="edge"><title>ID=Anthony_Glise&#45;&gt;ID=Elliot_Carter</title>
<path style="fill:none;stroke:black;" d="M14880,-4693C14944,-4381 15713,-623 15787,-262"/>
<polygon style="fill:black;stroke:black;" points="15790.5,-262.492 15789,-252 15783.6,-261.119 15790.5,-262.492"/>
</g>
<!-- ID=Nordic_Passport_Union -->
<g id="node173" class="node"><title>ID=Nordic_Passport_Union</title>
<ellipse style="fill:none;stroke:black;" cx="18831" cy="-470" rx="94.7514" ry="18"/>
<text text-anchor="middle" x="18831" y="-467.1" style="font-family:Times New Roman;font-size:11.00;">Nordic Passport Union</text>
</g>
<!-- ID=1958&#45;&gt;ID=Nordic_Passport_Union -->
<g id="edge174" class="edge"><title>ID=1958&#45;&gt;ID=Nordic_Passport_Union</title>
<path style="fill:none;stroke:black;" d="M16345,-2951C16560,-2737 18559,-742 18806,-495"/>
<polygon style="fill:black;stroke:black;" points="18808.4,-497.546 18813,-488 18803.5,-492.596 18808.4,-497.546"/>
</g>
<!-- ID=Boston_University -->
<g id="node179" class="node"><title>ID=Boston_University</title>
<ellipse style="fill:none;stroke:black;" cx="23862" cy="-960" rx="75.8011" ry="18"/>
<text text-anchor="middle" x="23862" y="-957.1" style="font-family:Times New Roman;font-size:11.00;">Boston University</text>
</g>
<!-- ID=Percy_Jewett_Burrell&#45;&gt;ID=Boston_University -->
<g id="edge180" class="edge"><title>ID=Percy_Jewett_Burrell&#45;&gt;ID=Boston_University</title>
<path style="fill:none;stroke:black;" d="M19372,-3723C19755,-3487 23422,-1231 23826,-982"/>
<polygon style="fill:black;stroke:black;" points="23828,-984.916 23835,-977 23824.6,-978.797 23828,-984.916"/>
</g>
<!-- ID=Vienna_Philharmonic -->
<g id="node185" class="node"><title>ID=Vienna_Philharmonic</title>
<ellipse style="fill:none;stroke:black;" cx="24152" cy="-5254" rx="89.0663" ry="18"/>
<text text-anchor="middle" x="24152" y="-5251.1" style="font-family:Times New Roman;font-size:11.00;">Vienna Philharmonic</text>
</g>
<!-- ID=Kim_Kashkashian&#45;&gt;ID=Vienna_Philharmonic -->
<g id="edge186" class="edge"><title>ID=Kim_Kashkashian&#45;&gt;ID=Vienna_Philharmonic</title>
<path style="fill:none;stroke:black;" d="M19435,-6722C19939,-6565 23586,-5430 24093,-5272"/>
<polygon style="fill:black;stroke:black;" points="24094.4,-5275.23 24103,-5269 24092.4,-5268.52 24094.4,-5275.23"/>
</g>
</g>
</svg>
