<?xml version="1.0" encoding="UTF-8" standalone="no"?>
<!DOCTYPE svg PUBLIC "-//W3C//DTD SVG 1.0//EN"
 "http://www.w3.org/TR/2001/REC-SVG-20010904/DTD/svg10.dtd" [
 <!ATTLIST svg xmlns:xlink CDATA #FIXED "http://www.w3.org/1999/xlink">
]>
<!-- Generated by Graphviz version 2.18 (Fri May &#160;2 20:53:13 UTC 2008)
     For user: (lispserver) ,,, -->
<!-- Title: g Pages: 1 -->
<svg width="9141pt" height="5998pt"
 viewBox="0.00 0.00 9141.00 5998.00" xmlns="http://www.w3.org/2000/svg" xmlns:xlink="http://www.w3.org/1999/xlink">
<g id="graph0" class="graph" transform="scale(1 1) rotate(0) translate(4 5994)">
<title>g</title>
<polygon style="fill:white;stroke:white;" points="-4,4 -4,-5994 9137,-5994 9137,4 -4,4"/>
<!-- ID=Harvard_University -->
<g id="node2" class="node"><title>ID=Harvard_University</title>
<ellipse style="fill:none;stroke:black;" cx="4451" cy="-3312" rx="220.117" ry="31.1127"/>
<text text-anchor="middle" x="4451" y="-3303" style="font-family:Times New Roman;font-size:30.00;">Harvard University</text>
</g>
<!-- ID=Hurling -->
<g id="node4" class="node"><title>ID=Hurling</title>
<ellipse style="fill:none;stroke:black;" cx="5474" cy="-3297" rx="80.1095" ry="26.163"/>
<text text-anchor="middle" x="5474" y="-3289" style="font-family:Times New Roman;font-size:25.00;">Hurling</text>
</g>
<!-- ID=Harvard_University&#45;&gt;ID=Hurling -->
<g id="edge4" class="edge"><title>ID=Harvard_University&#45;&gt;ID=Hurling</title>
<path style="fill:none;stroke:black;" d="M4670,-3309C4892,-3305 5225,-3300 5384,-3298"/>
<polygon style="fill:black;stroke:black;" points="5384,-3301.5 5394,-3298 5384,-3294.5 5384,-3301.5"/>
</g>
<!-- ID=Boston_RFC -->
<g id="node28" class="node"><title>ID=Boston_RFC</title>
<ellipse style="fill:none;stroke:black;" cx="4930" cy="-3301" rx="116.172" ry="26.163"/>
<text text-anchor="middle" x="4930" y="-3293" style="font-family:Times New Roman;font-size:25.00;">Boston RFC</text>
</g>
<!-- ID=Harvard_University&#45;&gt;ID=Boston_RFC -->
<g id="edge28" class="edge"><title>ID=Harvard_University&#45;&gt;ID=Boston_RFC</title>
<path style="fill:none;stroke:black;" d="M4668,-3307C4715,-3306 4762,-3305 4805,-3304"/>
<polygon style="fill:black;stroke:black;" points="4805,-3307.5 4815,-3304 4805,-3300.5 4805,-3307.5"/>
</g>
<!-- ID=Alwaleed_bin_Talal -->
<g id="node52" class="node"><title>ID=Alwaleed_bin_Talal</title>
<ellipse style="fill:none;stroke:black;" cx="4739" cy="-3910" rx="174.863" ry="26.163"/>
<text text-anchor="middle" x="4739" y="-3902" style="font-family:Times New Roman;font-size:25.00;">Alwaleed bin Talal</text>
</g>
<!-- ID=Harvard_University&#45;&gt;ID=Alwaleed_bin_Talal -->
<g id="edge52" class="edge"><title>ID=Harvard_University&#45;&gt;ID=Alwaleed_bin_Talal</title>
<path style="fill:none;stroke:black;" d="M4466,-3343C4515,-3445 4670,-3767 4722,-3875"/>
<polygon style="fill:black;stroke:black;" points="4718.74,-3876.28 4726,-3884 4725.14,-3873.44 4718.74,-3876.28"/>
</g>
<!-- ID=Harvard_Undergraduate_Council -->
<g id="node55" class="node"><title>ID=Harvard_Undergraduate_Council</title>
<ellipse style="fill:none;stroke:black;" cx="4135" cy="-3922" rx="301.227" ry="26.163"/>
<text text-anchor="middle" x="4135" y="-3914" style="font-family:Times New Roman;font-size:25.00;">Harvard Undergraduate Council</text>
</g>
<!-- ID=Harvard_University&#45;&gt;ID=Harvard_Undergraduate_Council -->
<g id="edge55" class="edge"><title>ID=Harvard_University&#45;&gt;ID=Harvard_Undergraduate_Council</title>
<path style="fill:none;stroke:black;" d="M4435,-3343C4382,-3446 4210,-3777 4154,-3887"/>
<polygon style="fill:black;stroke:black;" points="4150.8,-3885.56 4149,-3896 4156.92,-3888.96 4150.8,-3885.56"/>
</g>
<!-- ID=Harvard_Lampoon -->
<g id="node58" class="node"><title>ID=Harvard_Lampoon</title>
<ellipse style="fill:none;stroke:black;" cx="3929" cy="-3299" rx="173.948" ry="26.163"/>
<text text-anchor="middle" x="3929" y="-3291" style="font-family:Times New Roman;font-size:25.00;">Harvard Lampoon</text>
</g>
<!-- ID=Harvard_University&#45;&gt;ID=Harvard_Lampoon -->
<g id="edge58" class="edge"><title>ID=Harvard_University&#45;&gt;ID=Harvard_Lampoon</title>
<path style="fill:none;stroke:black;" d="M4234,-3307C4194,-3306 4151,-3305 4111,-3303"/>
<polygon style="fill:black;stroke:black;" points="4111,-3299.5 4101,-3303 4111,-3306.5 4111,-3299.5"/>
</g>
<!-- ID=Cape_Cod_Crusaders -->
<g id="node85" class="node"><title>ID=Cape_Cod_Crusaders</title>
<ellipse style="fill:none;stroke:black;" cx="3775" cy="-2760" rx="193.954" ry="26.163"/>
<text text-anchor="middle" x="3775" y="-2752" style="font-family:Times New Roman;font-size:25.00;">Cape Cod Crusaders</text>
</g>
<!-- ID=Harvard_University&#45;&gt;ID=Cape_Cod_Crusaders -->
<g id="edge85" class="edge"><title>ID=Harvard_University&#45;&gt;ID=Cape_Cod_Crusaders</title>
<path style="fill:none;stroke:black;" d="M4413,-3281C4296,-3185 3935,-2891 3815,-2792"/>
<polygon style="fill:black;stroke:black;" points="3817.1,-2789.2 3807,-2786 3812.9,-2794.8 3817.1,-2789.2"/>
</g>
<!-- ID=Western_Mass_Pioneers -->
<g id="node112" class="node"><title>ID=Western_Mass_Pioneers</title>
<ellipse style="fill:none;stroke:black;" cx="4294" cy="-2795" rx="219.91" ry="26.163"/>
<text text-anchor="middle" x="4294" y="-2787" style="font-family:Times New Roman;font-size:25.00;">Western Mass Pioneers</text>
</g>
<!-- ID=Harvard_University&#45;&gt;ID=Western_Mass_Pioneers -->
<g id="edge112" class="edge"><title>ID=Harvard_University&#45;&gt;ID=Western_Mass_Pioneers</title>
<path style="fill:none;stroke:black;" d="M4442,-3281C4414,-3190 4334,-2927 4305,-2831"/>
<polygon style="fill:black;stroke:black;" points="4308.23,-2829.57 4302,-2821 4301.52,-2831.58 4308.23,-2829.57"/>
</g>
<!-- ID=List_of_Harvard_dormitories -->
<g id="node136" class="node"><title>ID=List_of_Harvard_dormitories</title>
<ellipse style="fill:none;stroke:black;" cx="4766" cy="-2769" rx="256.179" ry="26.163"/>
<text text-anchor="middle" x="4766" y="-2761" style="font-family:Times New Roman;font-size:25.00;">List of Harvard dormitories</text>
</g>
<!-- ID=Harvard_University&#45;&gt;ID=List_of_Harvard_dormitories -->
<g id="edge136" class="edge"><title>ID=Harvard_University&#45;&gt;ID=List_of_Harvard_dormitories</title>
<path style="fill:none;stroke:black;" d="M4469,-3281C4524,-3186 4689,-2903 4746,-2804"/>
<polygon style="fill:black;stroke:black;" points="4749.2,-2805.44 4751,-2795 4743.08,-2802.04 4749.2,-2805.44"/>
</g>
<!-- ID=ECAC_Hockey -->
<g id="node160" class="node"><title>ID=ECAC_Hockey</title>
<ellipse style="fill:none;stroke:black;" cx="5292" cy="-2728" rx="135.765" ry="26.163"/>
<text text-anchor="middle" x="5292" y="-2720" style="font-family:Times New Roman;font-size:25.00;">ECAC Hockey</text>
</g>
<!-- ID=Harvard_University&#45;&gt;ID=ECAC_Hockey -->
<g id="edge160" class="edge"><title>ID=Harvard_University&#45;&gt;ID=ECAC_Hockey</title>
<path style="fill:none;stroke:black;" d="M4495,-3281C4640,-3180 5101,-2860 5248,-2759"/>
<polygon style="fill:black;stroke:black;" points="5250.1,-2761.8 5256,-2753 5245.9,-2756.2 5250.1,-2761.8"/>
</g>
<!-- ID=All&#45;Ireland_Senior_Hurling_Championship_2000 -->
<g id="node7" class="node"><title>ID=All&#45;Ireland_Senior_Hurling_Championship_2000</title>
<ellipse style="fill:none;stroke:black;" cx="6396" cy="-3714" rx="192.793" ry="18"/>
<text text-anchor="middle" x="6396" y="-3710.2" style="font-family:Times New Roman;font-size:12.00;">All&#45;Ireland Senior Hurling Championship 2000</text>
</g>
<!-- ID=Hurling&#45;&gt;ID=All&#45;Ireland_Senior_Hurling_Championship_2000 -->
<g id="edge7" class="edge"><title>ID=Hurling&#45;&gt;ID=All&#45;Ireland_Senior_Hurling_Championship_2000</title>
<path style="fill:none;stroke:black;" d="M5521,-3318C5679,-3390 6188,-3619 6347,-3692"/>
<polygon style="fill:black;stroke:black;" points="6346.42,-3695.54 6357,-3696 6349.02,-3689.04 6346.42,-3695.54"/>
</g>
<!-- ID=All&#45;Ireland_Senior_Hurling_Championship_1984 -->
<g id="node13" class="node"><title>ID=All&#45;Ireland_Senior_Hurling_Championship_1984</title>
<ellipse style="fill:none;stroke:black;" cx="7615" cy="-3177" rx="192.793" ry="18"/>
<text text-anchor="middle" x="7615" y="-3173.2" style="font-family:Times New Roman;font-size:12.00;">All&#45;Ireland Senior Hurling Championship 1984</text>
</g>
<!-- ID=Hurling&#45;&gt;ID=All&#45;Ireland_Senior_Hurling_Championship_1984 -->
<g id="edge13" class="edge"><title>ID=Hurling&#45;&gt;ID=All&#45;Ireland_Senior_Hurling_Championship_1984</title>
<path style="fill:none;stroke:black;" d="M5553,-3293C5863,-3275 6999,-3212 7439,-3187"/>
<polygon style="fill:black;stroke:black;" points="7439.4,-3190.48 7449,-3186 7438.7,-3183.51 7439.4,-3190.48"/>
</g>
<!-- ID=All&#45;Ireland_Senior_Football_Championship -->
<g id="node19" class="node"><title>ID=All&#45;Ireland_Senior_Football_Championship</title>
<ellipse style="fill:none;stroke:black;" cx="7403" cy="-4499" rx="173.21" ry="18"/>
<text text-anchor="middle" x="7403" y="-4495.2" style="font-family:Times New Roman;font-size:12.00;">All&#45;Ireland Senior Football Championship</text>
</g>
<!-- ID=Hurling&#45;&gt;ID=All&#45;Ireland_Senior_Football_Championship -->
<g id="edge19" class="edge"><title>ID=Hurling&#45;&gt;ID=All&#45;Ireland_Senior_Football_Championship</title>
<path style="fill:none;stroke:black;" d="M5511,-3320C5755,-3472 7122,-4324 7365,-4476"/>
<polygon style="fill:black;stroke:black;" points="7363.56,-4479.2 7374,-4481 7366.96,-4473.08 7363.56,-4479.2"/>
</g>
<!-- ID=Easter_Sunday -->
<g id="node25" class="node"><title>ID=Easter_Sunday</title>
<ellipse style="fill:none;stroke:black;" cx="6106" cy="-4788" rx="68.221" ry="18"/>
<text text-anchor="middle" x="6106" y="-4784.2" style="font-family:Times New Roman;font-size:12.00;">Easter Sunday</text>
</g>
<!-- ID=Hurling&#45;&gt;ID=Easter_Sunday -->
<g id="edge25" class="edge"><title>ID=Hurling&#45;&gt;ID=Easter_Sunday</title>
<path style="fill:none;stroke:black;" d="M5485,-3323C5562,-3504 6016,-4575 6094,-4761"/>
<polygon style="fill:black;stroke:black;" points="6090.74,-4762.28 6098,-4770 6097.14,-4759.44 6090.74,-4762.28"/>
</g>
<!-- ID=All&#45;Ireland_Senior_Hurling_Championship_1924 -->
<g id="node10" class="node"><title>ID=All&#45;Ireland_Senior_Hurling_Championship_1924</title>
<ellipse style="fill:none;stroke:black;" cx="9007" cy="-2285" rx="124.786" ry="18"/>
<text text-anchor="middle" x="9007" y="-2282.8" style="font-family:Times New Roman;font-size:8.00;">All&#45;Ireland Senior Hurling Championship 1924</text>
</g>
<!-- ID=All&#45;Ireland_Senior_Hurling_Championship_2000&#45;&gt;ID=All&#45;Ireland_Senior_Hurling_Championship_1924 -->
<g id="edge10" class="edge"><title>ID=All&#45;Ireland_Senior_Hurling_Championship_2000&#45;&gt;ID=All&#45;Ireland_Senior_Hurling_Championship_1924</title>
<path style="fill:none;stroke:black;" d="M6429,-3696C6705,-3545 8658,-2476 8966,-2307"/>
<polygon style="fill:black;stroke:black;" points="8967.96,-2309.92 8975,-2302 8964.56,-2303.8 8967.96,-2309.92"/>
</g>
<!-- ID=All&#45;Ireland_Senior_Hurling_Championship_1981 -->
<g id="node16" class="node"><title>ID=All&#45;Ireland_Senior_Hurling_Championship_1981</title>
<ellipse style="fill:none;stroke:black;" cx="8926" cy="-3980" rx="124.786" ry="18"/>
<text text-anchor="middle" x="8926" y="-3977.8" style="font-family:Times New Roman;font-size:8.00;">All&#45;Ireland Senior Hurling Championship 1981</text>
</g>
<!-- ID=All&#45;Ireland_Senior_Hurling_Championship_1984&#45;&gt;ID=All&#45;Ireland_Senior_Hurling_Championship_1981 -->
<g id="edge16" class="edge"><title>ID=All&#45;Ireland_Senior_Hurling_Championship_1984&#45;&gt;ID=All&#45;Ireland_Senior_Hurling_Championship_1981</title>
<path style="fill:none;stroke:black;" d="M7644,-3195C7816,-3300 8696,-3839 8888,-3957"/>
<polygon style="fill:black;stroke:black;" points="8886.56,-3960.2 8897,-3962 8889.96,-3954.08 8886.56,-3960.2"/>
</g>
<!-- ID=1991 -->
<g id="node22" class="node"><title>ID=1991</title>
<ellipse style="fill:none;stroke:black;" cx="8835" cy="-5585" rx="27" ry="18"/>
<text text-anchor="middle" x="8835" y="-5582.8" style="font-family:Times New Roman;font-size:8.00;">1991</text>
</g>
<!-- ID=All&#45;Ireland_Senior_Football_Championship&#45;&gt;ID=1991 -->
<g id="edge22" class="edge"><title>ID=All&#45;Ireland_Senior_Football_Championship&#45;&gt;ID=1991</title>
<path style="fill:none;stroke:black;" d="M7427,-4517C7597,-4646 8630,-5429 8809,-5565"/>
<polygon style="fill:black;stroke:black;" points="8806.9,-5567.8 8817,-5571 8811.1,-5562.2 8806.9,-5567.8"/>
</g>
<!-- ID=W&#45;League -->
<g id="node31" class="node"><title>ID=W&#45;League</title>
<ellipse style="fill:none;stroke:black;" cx="5460" cy="-3909" rx="48.7731" ry="18"/>
<text text-anchor="middle" x="5460" y="-3905.2" style="font-family:Times New Roman;font-size:12.00;">W&#45;League</text>
</g>
<!-- ID=Boston_RFC&#45;&gt;ID=W&#45;League -->
<g id="edge31" class="edge"><title>ID=Boston_RFC&#45;&gt;ID=W&#45;League</title>
<path style="fill:none;stroke:black;" d="M4952,-3327C5039,-3426 5352,-3786 5438,-3884"/>
<polygon style="fill:black;stroke:black;" points="5435.78,-3886.78 5445,-3892 5441.05,-3882.17 5435.78,-3886.78"/>
</g>
<!-- ID=Boston_Blazers -->
<g id="node37" class="node"><title>ID=Boston_Blazers</title>
<ellipse style="fill:none;stroke:black;" cx="5197" cy="-4601" rx="70.1161" ry="18"/>
<text text-anchor="middle" x="5197" y="-4597.2" style="font-family:Times New Roman;font-size:12.00;">Boston Blazers</text>
</g>
<!-- ID=Boston_RFC&#45;&gt;ID=Boston_Blazers -->
<g id="edge37" class="edge"><title>ID=Boston_RFC&#45;&gt;ID=Boston_Blazers</title>
<path style="fill:none;stroke:black;" d="M4935,-3327C4969,-3493 5156,-4401 5191,-4573"/>
<polygon style="fill:black;stroke:black;" points="5187.61,-4573.88 5193,-4583 5194.47,-4572.51 5187.61,-4573.88"/>
</g>
<!-- ID=Central_Mass_Ravens -->
<g id="node43" class="node"><title>ID=Central_Mass_Ravens</title>
<ellipse style="fill:none;stroke:black;" cx="4834" cy="-5376" rx="94.7514" ry="18"/>
<text text-anchor="middle" x="4834" y="-5372.2" style="font-family:Times New Roman;font-size:12.00;">Central Mass Ravens</text>
</g>
<!-- ID=Boston_RFC&#45;&gt;ID=Central_Mass_Ravens -->
<g id="edge43" class="edge"><title>ID=Boston_RFC&#45;&gt;ID=Central_Mass_Ravens</title>
<path style="fill:none;stroke:black;" d="M4929,-3327C4919,-3549 4846,-5116 4835,-5348"/>
<polygon style="fill:black;stroke:black;" points="4831.5,-5348 4835,-5358 4838.5,-5348 4831.5,-5348"/>
</g>
<!-- ID=Continental_Indoor_Football_League -->
<g id="node46" class="node"><title>ID=Continental_Indoor_Football_League</title>
<ellipse style="fill:none;stroke:black;" cx="4437" cy="-4649" rx="152.234" ry="18"/>
<text text-anchor="middle" x="4437" y="-4645.2" style="font-family:Times New Roman;font-size:12.00;">Continental Indoor Football League</text>
</g>
<!-- ID=Boston_RFC&#45;&gt;ID=Continental_Indoor_Football_League -->
<g id="edge46" class="edge"><title>ID=Boston_RFC&#45;&gt;ID=Continental_Indoor_Football_League</title>
<path style="fill:none;stroke:black;" d="M4920,-3327C4858,-3497 4511,-4446 4447,-4621"/>
<polygon style="fill:black;stroke:black;" points="4443.52,-4620.42 4444,-4631 4450.23,-4622.43 4443.52,-4620.42"/>
</g>
<!-- ID=Richmond_Kickers_Destiny -->
<g id="node34" class="node"><title>ID=Richmond_Kickers_Destiny</title>
<ellipse style="fill:none;stroke:black;" cx="7171" cy="-5759" rx="73.9783" ry="18"/>
<text text-anchor="middle" x="7171" y="-5756.8" style="font-family:Times New Roman;font-size:8.00;">Richmond Kickers Destiny</text>
</g>
<!-- ID=W&#45;League&#45;&gt;ID=Richmond_Kickers_Destiny -->
<g id="edge34" class="edge"><title>ID=W&#45;League&#45;&gt;ID=Richmond_Kickers_Destiny</title>
<path style="fill:none;stroke:black;" d="M5476,-3926C5636,-4100 6956,-5527 7148,-5734"/>
<polygon style="fill:black;stroke:black;" points="7145.45,-5736.4 7155,-5741 7150.4,-5731.45 7145.45,-5736.4"/>
</g>
<!-- ID=Champion&#39;s_Cup -->
<g id="node40" class="node"><title>ID=Champion&#39;s_Cup</title>
<ellipse style="fill:none;stroke:black;" cx="5740" cy="-5878" rx="49.0748" ry="18"/>
<text text-anchor="middle" x="5740" y="-5875.8" style="font-family:Times New Roman;font-size:8.00;">Champion&#39;s Cup</text>
</g>
<!-- ID=Boston_Blazers&#45;&gt;ID=Champion&#39;s_Cup -->
<g id="edge40" class="edge"><title>ID=Boston_Blazers&#45;&gt;ID=Champion&#39;s_Cup</title>
<path style="fill:none;stroke:black;" d="M5205,-4619C5265,-4759 5656,-5680 5728,-5851"/>
<polygon style="fill:black;stroke:black;" points="5724.74,-5852.28 5732,-5860 5731.14,-5849.44 5724.74,-5852.28"/>
</g>
<!-- ID=American_Football_League_(1938) -->
<g id="node49" class="node"><title>ID=American_Football_League_(1938)</title>
<ellipse style="fill:none;stroke:black;" cx="4259" cy="-5971" rx="90.1432" ry="18"/>
<text text-anchor="middle" x="4259" y="-5968.8" style="font-family:Times New Roman;font-size:8.00;">American Football League (1938)</text>
</g>
<!-- ID=Continental_Indoor_Football_League&#45;&gt;ID=American_Football_League_(1938) -->
<g id="edge49" class="edge"><title>ID=Continental_Indoor_Football_League&#45;&gt;ID=American_Football_League_(1938)</title>
<path style="fill:none;stroke:black;" d="M4435,-4667C4415,-4811 4286,-5766 4262,-5943"/>
<polygon style="fill:black;stroke:black;" points="4258.51,-5942.7 4261,-5953 4265.48,-5943.4 4258.51,-5942.7"/>
</g>
<!-- ID=Great_Britain -->
<g id="node61" class="node"><title>ID=Great_Britain</title>
<ellipse style="fill:none;stroke:black;" cx="3757" cy="-4758" rx="62.0357" ry="18"/>
<text text-anchor="middle" x="3757" y="-4754.2" style="font-family:Times New Roman;font-size:12.00;">Great Britain</text>
</g>
<!-- ID=Harvard_Lampoon&#45;&gt;ID=Great_Britain -->
<g id="edge61" class="edge"><title>ID=Harvard_Lampoon&#45;&gt;ID=Great_Britain</title>
<path style="fill:none;stroke:black;" d="M3926,-3325C3905,-3504 3782,-4545 3760,-4730"/>
<polygon style="fill:black;stroke:black;" points="3756.51,-4729.7 3759,-4740 3763.48,-4730.4 3756.51,-4729.7"/>
</g>
<!-- ID=Magazine -->
<g id="node67" class="node"><title>ID=Magazine</title>
<ellipse style="fill:none;stroke:black;" cx="3444" cy="-3838" rx="48.1376" ry="18"/>
<text text-anchor="middle" x="3444" y="-3834.2" style="font-family:Times New Roman;font-size:12.00;">Magazine</text>
</g>
<!-- ID=Harvard_Lampoon&#45;&gt;ID=Magazine -->
<g id="edge67" class="edge"><title>ID=Harvard_Lampoon&#45;&gt;ID=Magazine</title>
<path style="fill:none;stroke:black;" d="M3906,-3325C3823,-3417 3547,-3724 3466,-3814"/>
<polygon style="fill:black;stroke:black;" points="3463.6,-3811.45 3459,-3821 3468.55,-3816.4 3463.6,-3811.45"/>
</g>
<!-- ID=John_Updike -->
<g id="node73" class="node"><title>ID=John_Updike</title>
<ellipse style="fill:none;stroke:black;" cx="2795" cy="-4621" rx="58.2438" ry="18"/>
<text text-anchor="middle" x="2795" y="-4617.2" style="font-family:Times New Roman;font-size:12.00;">John Updike</text>
</g>
<!-- ID=Harvard_Lampoon&#45;&gt;ID=John_Updike -->
<g id="edge73" class="edge"><title>ID=Harvard_Lampoon&#45;&gt;ID=John_Updike</title>
<path style="fill:none;stroke:black;" d="M3907,-3325C3763,-3492 2959,-4429 2817,-4595"/>
<polygon style="fill:black;stroke:black;" points="2813.95,-4593.17 2810,-4603 2819.22,-4597.78 2813.95,-4593.17"/>
</g>
<!-- ID=William_Randolph_Hearst -->
<g id="node79" class="node"><title>ID=William_Randolph_Hearst</title>
<ellipse style="fill:none;stroke:black;" cx="2507" cy="-3566" rx="108.781" ry="18"/>
<text text-anchor="middle" x="2507" y="-3562.2" style="font-family:Times New Roman;font-size:12.00;">William Randolph Hearst</text>
</g>
<!-- ID=Harvard_Lampoon&#45;&gt;ID=William_Randolph_Hearst -->
<g id="edge79" class="edge"><title>ID=Harvard_Lampoon&#45;&gt;ID=William_Randolph_Hearst</title>
<path style="fill:none;stroke:black;" d="M3820,-3319C3547,-3371 2833,-3505 2589,-3550"/>
<polygon style="fill:black;stroke:black;" points="2588.12,-3546.61 2579,-3552 2589.49,-3553.47 2588.12,-3546.61"/>
</g>
<!-- ID=Scots_language -->
<g id="node64" class="node"><title>ID=Scots_language</title>
<ellipse style="fill:none;stroke:black;" cx="3204" cy="-5727" rx="46.7654" ry="18"/>
<text text-anchor="middle" x="3204" y="-5724.8" style="font-family:Times New Roman;font-size:8.00;">Scots language</text>
</g>
<!-- ID=Great_Britain&#45;&gt;ID=Scots_language -->
<g id="edge64" class="edge"><title>ID=Great_Britain&#45;&gt;ID=Scots_language</title>
<path style="fill:none;stroke:black;" d="M3747,-4776C3680,-4894 3301,-5558 3219,-5700"/>
<polygon style="fill:black;stroke:black;" points="3215.8,-5698.56 3214,-5709 3221.92,-5701.96 3215.8,-5698.56"/>
</g>
<!-- ID=Defamation -->
<g id="node70" class="node"><title>ID=Defamation</title>
<ellipse style="fill:none;stroke:black;" cx="1892" cy="-5758" rx="38.1051" ry="18"/>
<text text-anchor="middle" x="1892" y="-5755.8" style="font-family:Times New Roman;font-size:8.00;">Defamation</text>
</g>
<!-- ID=Magazine&#45;&gt;ID=Defamation -->
<g id="edge70" class="edge"><title>ID=Magazine&#45;&gt;ID=Defamation</title>
<path style="fill:none;stroke:black;" d="M3430,-3855C3286,-4035 2084,-5522 1913,-5733"/>
<polygon style="fill:black;stroke:black;" points="1909.95,-5731.17 1906,-5741 1915.22,-5735.78 1909.95,-5731.17"/>
</g>
<!-- ID=Poetry -->
<g id="node76" class="node"><title>ID=Poetry</title>
<ellipse style="fill:none;stroke:black;" cx="231" cy="-5557" rx="27" ry="18"/>
<text text-anchor="middle" x="231" y="-5554.8" style="font-family:Times New Roman;font-size:8.00;">Poetry</text>
</g>
<!-- ID=John_Updike&#45;&gt;ID=Poetry -->
<g id="edge76" class="edge"><title>ID=John_Updike&#45;&gt;ID=Poetry</title>
<path style="fill:none;stroke:black;" d="M2757,-4635C2463,-4743 542,-5444 265,-5545"/>
<polygon style="fill:black;stroke:black;" points="263.573,-5541.77 255,-5548 265.584,-5548.48 263.573,-5541.77"/>
</g>
<!-- ID=Internet_Movie_Database -->
<g id="node82" class="node"><title>ID=Internet_Movie_Database</title>
<ellipse style="fill:none;stroke:black;" cx="1534" cy="-4444" rx="71.0141" ry="18"/>
<text text-anchor="middle" x="1534" y="-4441.8" style="font-family:Times New Roman;font-size:8.00;">Internet Movie Database</text>
</g>
<!-- ID=William_Randolph_Hearst&#45;&gt;ID=Internet_Movie_Database -->
<g id="edge82" class="edge"><title>ID=William_Randolph_Hearst&#45;&gt;ID=Internet_Movie_Database</title>
<path style="fill:none;stroke:black;" d="M2487,-3584C2364,-3696 1703,-4291 1561,-4419"/>
<polygon style="fill:black;stroke:black;" points="1558.22,-4416.78 1553,-4426 1562.83,-4422.05 1558.22,-4416.78"/>
</g>
<!-- ID=National_Football_League -->
<g id="node88" class="node"><title>ID=National_Football_League</title>
<ellipse style="fill:none;stroke:black;" cx="3238" cy="-3061" rx="110.043" ry="18"/>
<text text-anchor="middle" x="3238" y="-3057.2" style="font-family:Times New Roman;font-size:12.00;">National Football League</text>
</g>
<!-- ID=Cape_Cod_Crusaders&#45;&gt;ID=National_Football_League -->
<g id="edge88" class="edge"><title>ID=Cape_Cod_Crusaders&#45;&gt;ID=National_Football_League</title>
<path style="fill:none;stroke:black;" d="M3730,-2785C3626,-2843 3375,-2984 3278,-3039"/>
<polygon style="fill:black;stroke:black;" points="3276.04,-3036.08 3269,-3044 3279.44,-3042.2 3276.04,-3036.08"/>
</g>
<!-- ID=List_of_soccer_clubs_in_the_United_States -->
<g id="node94" class="node"><title>ID=List_of_soccer_clubs_in_the_United_States</title>
<ellipse style="fill:none;stroke:black;" cx="2465" cy="-2441" rx="169.921" ry="18"/>
<text text-anchor="middle" x="2465" y="-2437.2" style="font-family:Times New Roman;font-size:12.00;">List of soccer clubs in the United States</text>
</g>
<!-- ID=Cape_Cod_Crusaders&#45;&gt;ID=List_of_soccer_clubs_in_the_United_States -->
<g id="edge94" class="edge"><title>ID=Cape_Cod_Crusaders&#45;&gt;ID=List_of_soccer_clubs_in_the_United_States</title>
<path style="fill:none;stroke:black;" d="M3681,-2737C3435,-2677 2771,-2516 2543,-2460"/>
<polygon style="fill:black;stroke:black;" points="2543.49,-2456.53 2533,-2458 2542.12,-2463.39 2543.49,-2456.53"/>
</g>
<!-- ID=MLS_Cup -->
<g id="node100" class="node"><title>ID=MLS_Cup</title>
<ellipse style="fill:none;stroke:black;" cx="1542" cy="-1558" rx="46.1124" ry="18"/>
<text text-anchor="middle" x="1542" y="-1554.2" style="font-family:Times New Roman;font-size:12.00;">MLS Cup</text>
</g>
<!-- ID=Cape_Cod_Crusaders&#45;&gt;ID=MLS_Cup -->
<g id="edge100" class="edge"><title>ID=Cape_Cod_Crusaders&#45;&gt;ID=MLS_Cup</title>
<path style="fill:none;stroke:black;" d="M3728,-2735C3434,-2576 1840,-1718 1578,-1578"/>
<polygon style="fill:black;stroke:black;" points="1579.44,-1574.8 1569,-1573 1576.04,-1580.92 1579.44,-1574.8"/>
</g>
<!-- ID=Super&#45;20_League -->
<g id="node106" class="node"><title>ID=Super&#45;20_League</title>
<ellipse style="fill:none;stroke:black;" cx="2831" cy="-1244" rx="77.1949" ry="18"/>
<text text-anchor="middle" x="2831" y="-1240.2" style="font-family:Times New Roman;font-size:12.00;">Super&#45;20 League</text>
</g>
<!-- ID=Cape_Cod_Crusaders&#45;&gt;ID=Super&#45;20_League -->
<g id="edge106" class="edge"><title>ID=Cape_Cod_Crusaders&#45;&gt;ID=Super&#45;20_League</title>
<path style="fill:none;stroke:black;" d="M3759,-2734C3645,-2551 2964,-1457 2847,-1271"/>
<polygon style="fill:black;stroke:black;" points="2849.92,-1269.04 2842,-1262 2843.8,-1272.44 2849.92,-1269.04"/>
</g>
<!-- ID=List_of_leagues_of_American_football -->
<g id="node91" class="node"><title>ID=List_of_leagues_of_American_football</title>
<ellipse style="fill:none;stroke:black;" cx="97" cy="-3854" rx="95.9179" ry="18"/>
<text text-anchor="middle" x="97" y="-3851.8" style="font-family:Times New Roman;font-size:8.00;">List of leagues of American football</text>
</g>
<!-- ID=National_Football_League&#45;&gt;ID=List_of_leagues_of_American_football -->
<g id="edge91" class="edge"><title>ID=National_Football_League&#45;&gt;ID=List_of_leagues_of_American_football</title>
<path style="fill:none;stroke:black;" d="M3178,-3076C2785,-3175 579,-3732 164,-3838"/>
<polygon style="fill:black;stroke:black;" points="163.119,-3834.61 154,-3840 164.492,-3841.47 163.119,-3834.61"/>
</g>
<!-- ID=Mississippi_Brilla -->
<g id="node97" class="node"><title>ID=Mississippi_Brilla</title>
<ellipse style="fill:none;stroke:black;" cx="1375" cy="-3007" rx="51.9615" ry="18"/>
<text text-anchor="middle" x="1375" y="-3004.8" style="font-family:Times New Roman;font-size:8.00;">Mississippi Brilla</text>
</g>
<!-- ID=List_of_soccer_clubs_in_the_United_States&#45;&gt;ID=Mississippi_Brilla -->
<g id="edge97" class="edge"><title>ID=List_of_soccer_clubs_in_the_United_States&#45;&gt;ID=Mississippi_Brilla</title>
<path style="fill:none;stroke:black;" d="M2431,-2459C2269,-2543 1583,-2898 1413,-2987"/>
<polygon style="fill:black;stroke:black;" points="1411.04,-2984.08 1404,-2992 1414.44,-2990.2 1411.04,-2984.08"/>
</g>
<!-- ID=Designated_Player_Rule -->
<g id="node103" class="node"><title>ID=Designated_Player_Rule</title>
<ellipse style="fill:none;stroke:black;" cx="102" cy="-2103" rx="66.9726" ry="18"/>
<text text-anchor="middle" x="102" y="-2100.8" style="font-family:Times New Roman;font-size:8.00;">Designated Player Rule</text>
</g>
<!-- ID=MLS_Cup&#45;&gt;ID=Designated_Player_Rule -->
<g id="edge103" class="edge"><title>ID=MLS_Cup&#45;&gt;ID=Designated_Player_Rule</title>
<path style="fill:none;stroke:black;" d="M1509,-1571C1320,-1642 376,-1999 151,-2084"/>
<polygon style="fill:black;stroke:black;" points="148.985,-2081.04 141,-2088 151.585,-2087.54 148.985,-2081.04"/>
</g>
<!-- ID=Brooklyn_Knights -->
<g id="node109" class="node"><title>ID=Brooklyn_Knights</title>
<ellipse style="fill:none;stroke:black;" cx="226" cy="-401" rx="53.1162" ry="18"/>
<text text-anchor="middle" x="226" y="-398.8" style="font-family:Times New Roman;font-size:8.00;">Brooklyn Knights</text>
</g>
<!-- ID=Super&#45;20_League&#45;&gt;ID=Brooklyn_Knights -->
<g id="edge109" class="edge"><title>ID=Super&#45;20_League&#45;&gt;ID=Brooklyn_Knights</title>
<path style="fill:none;stroke:black;" d="M2786,-1229C2470,-1127 600,-522 275,-416"/>
<polygon style="fill:black;stroke:black;" points="275.584,-412.521 265,-413 273.573,-419.226 275.584,-412.521"/>
</g>
<!-- ID=Dartmouth_Big_Green -->
<g id="node115" class="node"><title>ID=Dartmouth_Big_Green</title>
<ellipse style="fill:none;stroke:black;" cx="3263" cy="-2246" rx="96.1457" ry="18"/>
<text text-anchor="middle" x="3263" y="-2242.2" style="font-family:Times New Roman;font-size:12.00;">Dartmouth Big Green</text>
</g>
<!-- ID=Western_Mass_Pioneers&#45;&gt;ID=Dartmouth_Big_Green -->
<g id="edge115" class="edge"><title>ID=Western_Mass_Pioneers&#45;&gt;ID=Dartmouth_Big_Green</title>
<path style="fill:none;stroke:black;" d="M4246,-2769C4071,-2676 3468,-2355 3304,-2268"/>
<polygon style="fill:black;stroke:black;" points="3305.44,-2264.8 3295,-2263 3302.04,-2270.92 3305.44,-2264.8"/>
</g>
<!-- ID=Eastern_League_(baseball) -->
<g id="node121" class="node"><title>ID=Eastern_League_(baseball)</title>
<ellipse style="fill:none;stroke:black;" cx="3658" cy="-1676" rx="115.096" ry="18"/>
<text text-anchor="middle" x="3658" y="-1672.2" style="font-family:Times New Roman;font-size:12.00;">Eastern League (baseball)</text>
</g>
<!-- ID=Western_Mass_Pioneers&#45;&gt;ID=Eastern_League_(baseball) -->
<g id="edge121" class="edge"><title>ID=Western_Mass_Pioneers&#45;&gt;ID=Eastern_League_(baseball)</title>
<path style="fill:none;stroke:black;" d="M4279,-2769C4194,-2618 3760,-1856 3673,-1703"/>
<polygon style="fill:black;stroke:black;" points="3675.92,-1701.04 3668,-1694 3669.8,-1704.44 3675.92,-1701.04"/>
</g>
<!-- ID=New_Britain_Rock_Cats -->
<g id="node127" class="node"><title>ID=New_Britain_Rock_Cats</title>
<ellipse style="fill:none;stroke:black;" cx="4000" cy="-2290" rx="99.8048" ry="18"/>
<text text-anchor="middle" x="4000" y="-2286.2" style="font-family:Times New Roman;font-size:12.00;">New Britain Rock Cats</text>
</g>
<!-- ID=Western_Mass_Pioneers&#45;&gt;ID=New_Britain_Rock_Cats -->
<g id="edge127" class="edge"><title>ID=Western_Mass_Pioneers&#45;&gt;ID=New_Britain_Rock_Cats</title>
<path style="fill:none;stroke:black;" d="M4279,-2769C4229,-2683 4067,-2405 4016,-2317"/>
<polygon style="fill:black;stroke:black;" points="4018.92,-2315.04 4011,-2308 4012.8,-2318.44 4018.92,-2315.04"/>
</g>
<!-- ID=USSoccer -->
<g id="node133" class="node"><title>ID=USSoccer</title>
<ellipse style="fill:none;stroke:black;" cx="4298" cy="-1720" rx="46.877" ry="18"/>
<text text-anchor="middle" x="4298" y="-1716.2" style="font-family:Times New Roman;font-size:12.00;">USSoccer</text>
</g>
<!-- ID=Western_Mass_Pioneers&#45;&gt;ID=USSoccer -->
<g id="edge133" class="edge"><title>ID=Western_Mass_Pioneers&#45;&gt;ID=USSoccer</title>
<path style="fill:none;stroke:black;" d="M4294,-2769C4295,-2623 4298,-1901 4298,-1748"/>
<polygon style="fill:black;stroke:black;" points="4301.5,-1748 4298,-1738 4294.5,-1748 4301.5,-1748"/>
</g>
<!-- ID=Rensselaer_Polytechnic_Institute -->
<g id="node118" class="node"><title>ID=Rensselaer_Polytechnic_Institute</title>
<ellipse style="fill:none;stroke:black;" cx="1872" cy="-217" rx="88.9119" ry="18"/>
<text text-anchor="middle" x="1872" y="-214.8" style="font-family:Times New Roman;font-size:8.00;">Rensselaer Polytechnic Institute</text>
</g>
<!-- ID=Dartmouth_Big_Green&#45;&gt;ID=Rensselaer_Polytechnic_Institute -->
<g id="edge118" class="edge"><title>ID=Dartmouth_Big_Green&#45;&gt;ID=Rensselaer_Polytechnic_Institute</title>
<path style="fill:none;stroke:black;" d="M3251,-2228C3122,-2041 2044,-467 1890,-244"/>
<polygon style="fill:black;stroke:black;" points="1892.46,-241.379 1884,-235 1886.63,-245.262 1892.46,-241.379"/>
</g>
<!-- ID=Kansai_Big_Six_Baseball_League -->
<g id="node124" class="node"><title>ID=Kansai_Big_Six_Baseball_League</title>
<ellipse style="fill:none;stroke:black;" cx="3276" cy="-110" rx="86.1019" ry="18"/>
<text text-anchor="middle" x="3276" y="-107.8" style="font-family:Times New Roman;font-size:8.00;">Kansai Big Six Baseball League</text>
</g>
<!-- ID=Eastern_League_(baseball)&#45;&gt;ID=Kansai_Big_Six_Baseball_League -->
<g id="edge124" class="edge"><title>ID=Eastern_League_(baseball)&#45;&gt;ID=Kansai_Big_Six_Baseball_League</title>
<path style="fill:none;stroke:black;" d="M3654,-1658C3615,-1499 3331,-334 3282,-138"/>
<polygon style="fill:black;stroke:black;" points="3285.39,-137.119 3280,-128 3278.53,-138.492 3285.39,-137.119"/>
</g>
<!-- ID=Sports_in_New_England -->
<g id="node130" class="node"><title>ID=Sports_in_New_England</title>
<ellipse style="fill:none;stroke:black;" cx="4010" cy="-908" rx="66.9726" ry="18"/>
<text text-anchor="middle" x="4010" y="-905.8" style="font-family:Times New Roman;font-size:8.00;">Sports in New England</text>
</g>
<!-- ID=New_Britain_Rock_Cats&#45;&gt;ID=Sports_in_New_England -->
<g id="edge130" class="edge"><title>ID=New_Britain_Rock_Cats&#45;&gt;ID=Sports_in_New_England</title>
<path style="fill:none;stroke:black;" d="M4000,-2272C4001,-2124 4009,-1119 4010,-936"/>
<polygon style="fill:black;stroke:black;" points="4013.5,-936 4010,-926 4006.5,-936 4013.5,-936"/>
</g>
<!-- ID=Michael_Kinsley -->
<g id="node139" class="node"><title>ID=Michael_Kinsley</title>
<ellipse style="fill:none;stroke:black;" cx="4556" cy="-2281" rx="72.0111" ry="18"/>
<text text-anchor="middle" x="4556" y="-2277.2" style="font-family:Times New Roman;font-size:12.00;">Michael Kinsley</text>
</g>
<!-- ID=List_of_Harvard_dormitories&#45;&gt;ID=Michael_Kinsley -->
<g id="edge139" class="edge"><title>ID=List_of_Harvard_dormitories&#45;&gt;ID=Michael_Kinsley</title>
<path style="fill:none;stroke:black;" d="M4755,-2743C4718,-2658 4605,-2394 4568,-2308"/>
<polygon style="fill:black;stroke:black;" points="4571.26,-2306.72 4564,-2299 4564.86,-2309.56 4571.26,-2306.72"/>
</g>
<!-- ID=Charles_Schumer -->
<g id="node145" class="node"><title>ID=Charles_Schumer</title>
<ellipse style="fill:none;stroke:black;" cx="4816" cy="-1538" rx="77.8289" ry="18"/>
<text text-anchor="middle" x="4816" y="-1534.2" style="font-family:Times New Roman;font-size:12.00;">Charles Schumer</text>
</g>
<!-- ID=List_of_Harvard_dormitories&#45;&gt;ID=Charles_Schumer -->
<g id="edge145" class="edge"><title>ID=List_of_Harvard_dormitories&#45;&gt;ID=Charles_Schumer</title>
<path style="fill:none;stroke:black;" d="M4767,-2743C4773,-2582 4808,-1733 4815,-1566"/>
<polygon style="fill:black;stroke:black;" points="4818.5,-1566 4815,-1556 4811.5,-1566 4818.5,-1566"/>
</g>
<!-- ID=Articles_with_unsourced_statements_since_February_2007 -->
<g id="node151" class="node"><title>ID=Articles_with_unsourced_statements_since_February_2007</title>
<ellipse style="fill:none;stroke:black;" cx="5584" cy="-1511" rx="236.879" ry="18"/>
<text text-anchor="middle" x="5584" y="-1507.2" style="font-family:Times New Roman;font-size:12.00;">Articles with unsourced statements since February 2007</text>
</g>
<!-- ID=List_of_Harvard_dormitories&#45;&gt;ID=Articles_with_unsourced_statements_since_February_2007 -->
<g id="edge151" class="edge"><title>ID=List_of_Harvard_dormitories&#45;&gt;ID=Articles_with_unsourced_statements_since_February_2007</title>
<path style="fill:none;stroke:black;" d="M4783,-2743C4889,-2580 5459,-1703 5566,-1538"/>
<polygon style="fill:black;stroke:black;" points="5569.37,-1539.26 5572,-1529 5563.54,-1535.38 5569.37,-1539.26"/>
</g>
<!-- ID=John_Weidman -->
<g id="node154" class="node"><title>ID=John_Weidman</title>
<ellipse style="fill:none;stroke:black;" cx="5099" cy="-2168" rx="66.9577" ry="18"/>
<text text-anchor="middle" x="5099" y="-2164.2" style="font-family:Times New Roman;font-size:12.00;">John Weidman</text>
</g>
<!-- ID=List_of_Harvard_dormitories&#45;&gt;ID=John_Weidman -->
<g id="edge154" class="edge"><title>ID=List_of_Harvard_dormitories&#45;&gt;ID=John_Weidman</title>
<path style="fill:none;stroke:black;" d="M4781,-2743C4835,-2644 5029,-2295 5084,-2195"/>
<polygon style="fill:black;stroke:black;" points="5087.2,-2196.44 5089,-2186 5081.08,-2193.04 5087.2,-2196.44"/>
</g>
<!-- ID=Detroit,_Michigan -->
<g id="node142" class="node"><title>ID=Detroit,_Michigan</title>
<ellipse style="fill:none;stroke:black;" cx="4563" cy="-19" rx="53.773" ry="18"/>
<text text-anchor="middle" x="4563" y="-16.8" style="font-family:Times New Roman;font-size:8.00;">Detroit, Michigan</text>
</g>
<!-- ID=Michael_Kinsley&#45;&gt;ID=Detroit,_Michigan -->
<g id="edge142" class="edge"><title>ID=Michael_Kinsley&#45;&gt;ID=Detroit,_Michigan</title>
<path style="fill:none;stroke:black;" d="M4556,-2263C4557,-2064 4562,-294 4563,-47"/>
<polygon style="fill:black;stroke:black;" points="4566.5,-47 4563,-37 4559.5,-47 4566.5,-47"/>
</g>
<!-- ID=List_of_United_States_Senators_from_North_Carolina -->
<g id="node148" class="node"><title>ID=List_of_United_States_Senators_from_North_Carolina</title>
<ellipse style="fill:none;stroke:black;" cx="5120" cy="-816" rx="135.756" ry="18"/>
<text text-anchor="middle" x="5120" y="-813.8" style="font-family:Times New Roman;font-size:8.00;">List of United States Senators from North Carolina</text>
</g>
<!-- ID=Charles_Schumer&#45;&gt;ID=List_of_United_States_Senators_from_North_Carolina -->
<g id="edge148" class="edge"><title>ID=Charles_Schumer&#45;&gt;ID=List_of_United_States_Senators_from_North_Carolina</title>
<path style="fill:none;stroke:black;" d="M4824,-1520C4865,-1423 5059,-961 5108,-843"/>
<polygon style="fill:black;stroke:black;" points="5111.14,-844.56 5112,-834 5104.74,-841.717 5111.14,-844.56"/>
</g>
<!-- ID=Dramatists_Guild_of_America -->
<g id="node157" class="node"><title>ID=Dramatists_Guild_of_America</title>
<ellipse style="fill:none;stroke:black;" cx="5897" cy="-111" rx="79.1732" ry="18"/>
<text text-anchor="middle" x="5897" y="-108.8" style="font-family:Times New Roman;font-size:8.00;">Dramatists Guild of America</text>
</g>
<!-- ID=John_Weidman&#45;&gt;ID=Dramatists_Guild_of_America -->
<g id="edge157" class="edge"><title>ID=John_Weidman&#45;&gt;ID=Dramatists_Guild_of_America</title>
<path style="fill:none;stroke:black;" d="M5106,-2150C5179,-1962 5797,-369 5886,-138"/>
<polygon style="fill:black;stroke:black;" points="5889.14,-139.56 5890,-129 5882.74,-136.717 5889.14,-139.56"/>
</g>
<!-- ID=University_of_Pennsylvania -->
<g id="node163" class="node"><title>ID=University_of_Pennsylvania</title>
<ellipse style="fill:none;stroke:black;" cx="5825" cy="-2214" rx="115.096" ry="18"/>
<text text-anchor="middle" x="5825" y="-2210.2" style="font-family:Times New Roman;font-size:12.00;">University of Pennsylvania</text>
</g>
<!-- ID=ECAC_Hockey&#45;&gt;ID=University_of_Pennsylvania -->
<g id="edge163" class="edge"><title>ID=ECAC_Hockey&#45;&gt;ID=University_of_Pennsylvania</title>
<path style="fill:none;stroke:black;" d="M5319,-2702C5410,-2615 5709,-2326 5799,-2239"/>
<polygon style="fill:black;stroke:black;" points="5801.4,-2241.55 5806,-2232 5796.45,-2236.6 5801.4,-2241.55"/>
</g>
<!-- ID=Houston_Field_House -->
<g id="node169" class="node"><title>ID=Houston_Field_House</title>
<ellipse style="fill:none;stroke:black;" cx="6457" cy="-1253" rx="92.9881" ry="18"/>
<text text-anchor="middle" x="6457" y="-1249.2" style="font-family:Times New Roman;font-size:12.00;">Houston Field House</text>
</g>
<!-- ID=ECAC_Hockey&#45;&gt;ID=Houston_Field_House -->
<g id="edge169" class="edge"><title>ID=ECAC_Hockey&#45;&gt;ID=Houston_Field_House</title>
<path style="fill:none;stroke:black;" d="M5312,-2702C5455,-2522 6293,-1460 6437,-1279"/>
<polygon style="fill:black;stroke:black;" points="6439.8,-1281.1 6443,-1271 6434.2,-1276.9 6439.8,-1281.1"/>
</g>
<!-- ID=Northeast_United_States -->
<g id="node175" class="node"><title>ID=Northeast_United_States</title>
<ellipse style="fill:none;stroke:black;" cx="6689" cy="-2450" rx="106.885" ry="18"/>
<text text-anchor="middle" x="6689" y="-2446.2" style="font-family:Times New Roman;font-size:12.00;">Northeast United States</text>
</g>
<!-- ID=ECAC_Hockey&#45;&gt;ID=Northeast_United_States -->
<g id="edge175" class="edge"><title>ID=ECAC_Hockey&#45;&gt;ID=Northeast_United_States</title>
<path style="fill:none;stroke:black;" d="M5386,-2709C5646,-2658 6369,-2514 6610,-2466"/>
<polygon style="fill:black;stroke:black;" points="6610.88,-2469.39 6620,-2464 6609.51,-2462.53 6610.88,-2469.39"/>
</g>
<!-- ID=Connecticut -->
<g id="node178" class="node"><title>ID=Connecticut</title>
<ellipse style="fill:none;stroke:black;" cx="6008" cy="-2970" rx="58.2438" ry="18"/>
<text text-anchor="middle" x="6008" y="-2966.2" style="font-family:Times New Roman;font-size:12.00;">Connecticut</text>
</g>
<!-- ID=ECAC_Hockey&#45;&gt;ID=Connecticut -->
<g id="edge178" class="edge"><title>ID=ECAC_Hockey&#45;&gt;ID=Connecticut</title>
<path style="fill:none;stroke:black;" d="M5359,-2751C5502,-2799 5833,-2911 5958,-2954"/>
<polygon style="fill:black;stroke:black;" points="5957.42,-2957.48 5968,-2957 5959.43,-2950.77 5957.42,-2957.48"/>
</g>
<!-- ID=Eastern_Association_of_Rowing_Colleges -->
<g id="node166" class="node"><title>ID=Eastern_Association_of_Rowing_Colleges</title>
<ellipse style="fill:none;stroke:black;" cx="7314" cy="-236" rx="105.154" ry="18"/>
<text text-anchor="middle" x="7314" y="-233.8" style="font-family:Times New Roman;font-size:8.00;">Eastern Association of Rowing Colleges</text>
</g>
<!-- ID=University_of_Pennsylvania&#45;&gt;ID=Eastern_Association_of_Rowing_Colleges -->
<g id="edge166" class="edge"><title>ID=University_of_Pennsylvania&#45;&gt;ID=Eastern_Association_of_Rowing_Colleges</title>
<path style="fill:none;stroke:black;" d="M5839,-2196C5977,-2012 7129,-481 7294,-262"/>
<polygon style="fill:black;stroke:black;" points="7296.8,-264.1 7300,-254 7291.2,-259.9 7296.8,-264.1"/>
</g>
<!-- ID=1985 -->
<g id="node172" class="node"><title>ID=1985</title>
<ellipse style="fill:none;stroke:black;" cx="8900" cy="-458" rx="27" ry="18"/>
<text text-anchor="middle" x="8900" y="-455.8" style="font-family:Times New Roman;font-size:8.00;">1985</text>
</g>
<!-- ID=Houston_Field_House&#45;&gt;ID=1985 -->
<g id="edge172" class="edge"><title>ID=Houston_Field_House&#45;&gt;ID=1985</title>
<path style="fill:none;stroke:black;" d="M6505,-1237C6820,-1134 8596,-557 8865,-469"/>
<polygon style="fill:black;stroke:black;" points="8866.43,-472.226 8875,-466 8864.42,-465.521 8866.43,-472.226"/>
</g>
<!-- ID=City_University_of_New_York -->
<g id="node181" class="node"><title>ID=City_University_of_New_York</title>
<ellipse style="fill:none;stroke:black;" cx="7705" cy="-1683" rx="77.9423" ry="18"/>
<text text-anchor="middle" x="7705" y="-1680.8" style="font-family:Times New Roman;font-size:8.00;">City University of New York</text>
</g>
<!-- ID=Connecticut&#45;&gt;ID=City_University_of_New_York -->
<g id="edge181" class="edge"><title>ID=Connecticut&#45;&gt;ID=City_University_of_New_York</title>
<path style="fill:none;stroke:black;" d="M6030,-2953C6212,-2815 7460,-1868 7674,-1706"/>
<polygon style="fill:black;stroke:black;" points="7676.1,-1708.8 7682,-1700 7671.9,-1703.2 7676.1,-1708.8"/>
</g>
</g>
</svg>
