<?xml version="1.0" encoding="UTF-8" standalone="no"?>
<!DOCTYPE svg PUBLIC "-//W3C//DTD SVG 1.0//EN"
 "http://www.w3.org/TR/2001/REC-SVG-20010904/DTD/svg10.dtd" [
 <!ATTLIST svg xmlns:xlink CDATA #FIXED "http://www.w3.org/1999/xlink">
]>
<!-- Generated by Graphviz version 2.18 (Fri May &#160;2 20:53:13 UTC 2008)
     For user: (lispserver) ,,, -->
<!-- Title: g Pages: 1 -->
<svg width="8913pt" height="5463pt"
 viewBox="0.00 0.00 8913.00 5463.00" xmlns="http://www.w3.org/2000/svg" xmlns:xlink="http://www.w3.org/1999/xlink">
<g id="graph0" class="graph" transform="scale(1 1) rotate(0) translate(4 5459)">
<title>g</title>
<polygon style="fill:white;stroke:white;" points="-4,4 -4,-5459 8909,-5459 8909,4 -4,4"/>
<!-- ID=Harvard_University -->
<g id="node2" class="node"><title>ID=Harvard_University</title>
<ellipse style="fill:none;stroke:black;" cx="4729" cy="-2889" rx="220.117" ry="31.1127"/>
<text text-anchor="middle" x="4729" y="-2880" style="font-family:Times New Roman;font-size:30.00;">Harvard University</text>
</g>
<!-- ID=Widener_Library -->
<g id="node4" class="node"><title>ID=Widener_Library</title>
<ellipse style="fill:none;stroke:black;" cx="5097" cy="-3025" rx="157.892" ry="26.163"/>
<text text-anchor="middle" x="5097" y="-3017" style="font-family:Times New Roman;font-size:25.00;">Widener Library</text>
</g>
<!-- ID=Harvard_University&#45;&gt;ID=Widener_Library -->
<g id="edge4" class="edge"><title>ID=Harvard_University&#45;&gt;ID=Widener_Library</title>
<path style="fill:none;stroke:black;" d="M4807,-2918C4872,-2942 4961,-2975 5024,-2998"/>
<polygon style="fill:black;stroke:black;" points="5022.41,-3001.16 5033,-3001 5024.62,-2994.52 5022.41,-3001.16"/>
</g>
<!-- ID=Glass_Flowers -->
<g id="node31" class="node"><title>ID=Glass_Flowers</title>
<ellipse style="fill:none;stroke:black;" cx="4771" cy="-3241" rx="135.972" ry="26.163"/>
<text text-anchor="middle" x="4771" y="-3233" style="font-family:Times New Roman;font-size:25.00;">Glass Flowers</text>
</g>
<!-- ID=Harvard_University&#45;&gt;ID=Glass_Flowers -->
<g id="edge31" class="edge"><title>ID=Harvard_University&#45;&gt;ID=Glass_Flowers</title>
<path style="fill:none;stroke:black;" d="M4733,-2920C4741,-2985 4758,-3135 4767,-3205"/>
<polygon style="fill:black;stroke:black;" points="4763.52,-3205.4 4768,-3215 4770.49,-3204.7 4763.52,-3205.4"/>
</g>
<!-- ID=Harvard_Stem_Cell_Institute -->
<g id="node52" class="node"><title>ID=Harvard_Stem_Cell_Institute</title>
<ellipse style="fill:none;stroke:black;" cx="4415" cy="-3202" rx="258.801" ry="26.163"/>
<text text-anchor="middle" x="4415" y="-3194" style="font-family:Times New Roman;font-size:25.00;">Harvard Stem Cell Institute</text>
</g>
<!-- ID=Harvard_University&#45;&gt;ID=Harvard_Stem_Cell_Institute -->
<g id="edge52" class="edge"><title>ID=Harvard_University&#45;&gt;ID=Harvard_Stem_Cell_Institute</title>
<path style="fill:none;stroke:black;" d="M4698,-2920C4638,-2980 4510,-3107 4448,-3169"/>
<polygon style="fill:black;stroke:black;" points="4445.6,-3166.45 4441,-3176 4450.55,-3171.4 4445.6,-3166.45"/>
</g>
<!-- ID=Audioslave -->
<g id="node55" class="node"><title>ID=Audioslave</title>
<ellipse style="fill:none;stroke:black;" cx="4086" cy="-3064" rx="108.894" ry="26.163"/>
<text text-anchor="middle" x="4086" y="-3056" style="font-family:Times New Roman;font-size:25.00;">Audioslave</text>
</g>
<!-- ID=Harvard_University&#45;&gt;ID=Audioslave -->
<g id="edge55" class="edge"><title>ID=Harvard_University&#45;&gt;ID=Audioslave</title>
<path style="fill:none;stroke:black;" d="M4628,-2917C4501,-2951 4285,-3010 4168,-3041"/>
<polygon style="fill:black;stroke:black;" points="4166.57,-3037.77 4158,-3044 4168.58,-3044.48 4166.57,-3037.77"/>
</g>
<!-- ID=Henry_David_Thoreau -->
<g id="node82" class="node"><title>ID=Henry_David_Thoreau</title>
<ellipse style="fill:none;stroke:black;" cx="3684" cy="-2859" rx="203.146" ry="26.163"/>
<text text-anchor="middle" x="3684" y="-2851" style="font-family:Times New Roman;font-size:25.00;">Henry David Thoreau</text>
</g>
<!-- ID=Harvard_University&#45;&gt;ID=Henry_David_Thoreau -->
<g id="edge82" class="edge"><title>ID=Harvard_University&#45;&gt;ID=Henry_David_Thoreau</title>
<path style="fill:none;stroke:black;" d="M4513,-2883C4331,-2878 4072,-2870 3892,-2865"/>
<polygon style="fill:black;stroke:black;" points="3892,-2861.5 3882,-2865 3892,-2868.5 3892,-2861.5"/>
</g>
<!-- ID=President_of_Harvard_University -->
<g id="node106" class="node"><title>ID=President_of_Harvard_University</title>
<ellipse style="fill:none;stroke:black;" cx="4106" cy="-2696" rx="296.985" ry="26.163"/>
<text text-anchor="middle" x="4106" y="-2688" style="font-family:Times New Roman;font-size:25.00;">President of Harvard University</text>
</g>
<!-- ID=Harvard_University&#45;&gt;ID=President_of_Harvard_University -->
<g id="edge106" class="edge"><title>ID=Harvard_University&#45;&gt;ID=President_of_Harvard_University</title>
<path style="fill:none;stroke:black;" d="M4638,-2861C4520,-2824 4315,-2761 4197,-2724"/>
<polygon style="fill:black;stroke:black;" points="4197.58,-2720.52 4187,-2721 4195.57,-2727.23 4197.58,-2720.52"/>
</g>
<!-- ID=Erich_Segal -->
<g id="node130" class="node"><title>ID=Erich_Segal</title>
<ellipse style="fill:none;stroke:black;" cx="4420" cy="-2803" rx="114.051" ry="26.163"/>
<text text-anchor="middle" x="4420" y="-2795" style="font-family:Times New Roman;font-size:25.00;">Erich Segal</text>
</g>
<!-- ID=Harvard_University&#45;&gt;ID=Erich_Segal -->
<g id="edge130" class="edge"><title>ID=Harvard_University&#45;&gt;ID=Erich_Segal</title>
<path style="fill:none;stroke:black;" d="M4630,-2861C4589,-2850 4542,-2836 4503,-2826"/>
<polygon style="fill:black;stroke:black;" points="4503.58,-2822.52 4493,-2823 4501.57,-2829.23 4503.58,-2822.52"/>
</g>
<!-- ID=John_Adams -->
<g id="node157" class="node"><title>ID=John_Adams</title>
<ellipse style="fill:none;stroke:black;" cx="4702" cy="-2556" rx="116.172" ry="26.163"/>
<text text-anchor="middle" x="4702" y="-2548" style="font-family:Times New Roman;font-size:25.00;">John Adams</text>
</g>
<!-- ID=Harvard_University&#45;&gt;ID=John_Adams -->
<g id="edge157" class="edge"><title>ID=Harvard_University&#45;&gt;ID=John_Adams</title>
<path style="fill:none;stroke:black;" d="M4726,-2858C4721,-2796 4710,-2659 4705,-2592"/>
<polygon style="fill:black;stroke:black;" points="4708.48,-2591.6 4704,-2582 4701.51,-2592.3 4708.48,-2591.6"/>
</g>
<!-- ID=September_8 -->
<g id="node184" class="node"><title>ID=September_8</title>
<ellipse style="fill:none;stroke:black;" cx="5083" cy="-2637" rx="125.865" ry="26.163"/>
<text text-anchor="middle" x="5083" y="-2629" style="font-family:Times New Roman;font-size:25.00;">September 8</text>
</g>
<!-- ID=Harvard_University&#45;&gt;ID=September_8 -->
<g id="edge184" class="edge"><title>ID=Harvard_University&#45;&gt;ID=September_8</title>
<path style="fill:none;stroke:black;" d="M4772,-2858C4840,-2810 4971,-2717 5040,-2668"/>
<polygon style="fill:black;stroke:black;" points="5042.1,-2670.8 5048,-2662 5037.9,-2665.2 5042.1,-2670.8"/>
</g>
<!-- ID=H._P._Lovecraft -->
<g id="node7" class="node"><title>ID=H._P._Lovecraft</title>
<ellipse style="fill:none;stroke:black;" cx="5514" cy="-3327" rx="68.221" ry="18"/>
<text text-anchor="middle" x="5514" y="-3323.2" style="font-family:Times New Roman;font-size:12.00;">H. P. Lovecraft</text>
</g>
<!-- ID=Widener_Library&#45;&gt;ID=H._P._Lovecraft -->
<g id="edge7" class="edge"><title>ID=Widener_Library&#45;&gt;ID=H._P._Lovecraft</title>
<path style="fill:none;stroke:black;" d="M5132,-3050C5212,-3108 5406,-3248 5482,-3304"/>
<polygon style="fill:black;stroke:black;" points="5479.9,-3306.8 5490,-3310 5484.1,-3301.2 5479.9,-3306.8"/>
</g>
<!-- ID=1915 -->
<g id="node13" class="node"><title>ID=1915</title>
<ellipse style="fill:none;stroke:black;" cx="6122" cy="-3203" rx="29.0571" ry="18"/>
<text text-anchor="middle" x="6122" y="-3199.2" style="font-family:Times New Roman;font-size:12.00;">1915</text>
</g>
<!-- ID=Widener_Library&#45;&gt;ID=1915 -->
<g id="edge13" class="edge"><title>ID=Widener_Library&#45;&gt;ID=1915</title>
<path style="fill:none;stroke:black;" d="M5206,-3044C5431,-3083 5940,-3172 6084,-3196"/>
<polygon style="fill:black;stroke:black;" points="6083.51,-3199.47 6094,-3198 6084.88,-3192.61 6083.51,-3199.47"/>
</g>
<!-- ID=Elkins_Park,_Pennsylvania -->
<g id="node19" class="node"><title>ID=Elkins_Park,_Pennsylvania</title>
<ellipse style="fill:none;stroke:black;" cx="6998" cy="-3935" rx="111.807" ry="18"/>
<text text-anchor="middle" x="6998" y="-3931.2" style="font-family:Times New Roman;font-size:12.00;">Elkins Park, Pennsylvania</text>
</g>
<!-- ID=Widener_Library&#45;&gt;ID=Elkins_Park,_Pennsylvania -->
<g id="edge19" class="edge"><title>ID=Widener_Library&#45;&gt;ID=Elkins_Park,_Pennsylvania</title>
<path style="fill:none;stroke:black;" d="M5149,-3050C5422,-3181 6696,-3790 6953,-3913"/>
<polygon style="fill:black;stroke:black;" points="6951.56,-3916.2 6962,-3918 6954.96,-3910.08 6951.56,-3916.2"/>
</g>
<!-- ID=Legend -->
<g id="node25" class="node"><title>ID=Legend</title>
<ellipse style="fill:none;stroke:black;" cx="5150" cy="-3565" rx="39.9282" ry="18"/>
<text text-anchor="middle" x="5150" y="-3561.2" style="font-family:Times New Roman;font-size:12.00;">Legend</text>
</g>
<!-- ID=Widener_Library&#45;&gt;ID=Legend -->
<g id="edge25" class="edge"><title>ID=Widener_Library&#45;&gt;ID=Legend</title>
<path style="fill:none;stroke:black;" d="M5100,-3051C5109,-3141 5138,-3443 5147,-3537"/>
<polygon style="fill:black;stroke:black;" points="5143.52,-3537.4 5148,-3547 5150.49,-3536.7 5143.52,-3537.4"/>
</g>
<!-- ID=Dreams_in_the_Witch_House_and_Other_Weird_Stories -->
<g id="node10" class="node"><title>ID=Dreams_in_the_Witch_House_and_Other_Weird_Stories</title>
<ellipse style="fill:none;stroke:black;" cx="7122" cy="-2836" rx="139.218" ry="18"/>
<text text-anchor="middle" x="7122" y="-2833.8" style="font-family:Times New Roman;font-size:8.00;">Dreams in the Witch House and Other Weird Stories</text>
</g>
<!-- ID=H._P._Lovecraft&#45;&gt;ID=Dreams_in_the_Witch_House_and_Other_Weird_Stories -->
<g id="edge10" class="edge"><title>ID=H._P._Lovecraft&#45;&gt;ID=Dreams_in_the_Witch_House_and_Other_Weird_Stories</title>
<path style="fill:none;stroke:black;" d="M5559,-3313C5783,-3245 6792,-2937 7058,-2856"/>
<polygon style="fill:black;stroke:black;" points="7059.43,-2859.23 7068,-2853 7057.42,-2852.52 7059.43,-2859.23"/>
</g>
<!-- ID=December_27 -->
<g id="node16" class="node"><title>ID=December_27</title>
<ellipse style="fill:none;stroke:black;" cx="8850" cy="-3541" rx="41.0684" ry="18"/>
<text text-anchor="middle" x="8850" y="-3538.8" style="font-family:Times New Roman;font-size:8.00;">December 27</text>
</g>
<!-- ID=1915&#45;&gt;ID=December_27 -->
<g id="edge16" class="edge"><title>ID=1915&#45;&gt;ID=December_27</title>
<path style="fill:none;stroke:black;" d="M6151,-3207C6417,-3240 8454,-3492 8800,-3535"/>
<polygon style="fill:black;stroke:black;" points="8799.7,-3538.49 8810,-3536 8800.4,-3531.52 8799.7,-3538.49"/>
</g>
<!-- ID=Edgar_Lee_Masters -->
<g id="node22" class="node"><title>ID=Edgar_Lee_Masters</title>
<ellipse style="fill:none;stroke:black;" cx="8734" cy="-5189" rx="54.9263" ry="18"/>
<text text-anchor="middle" x="8734" y="-5186.8" style="font-family:Times New Roman;font-size:8.00;">Edgar Lee Masters</text>
</g>
<!-- ID=Elkins_Park,_Pennsylvania&#45;&gt;ID=Edgar_Lee_Masters -->
<g id="edge22" class="edge"><title>ID=Elkins_Park,_Pennsylvania&#45;&gt;ID=Edgar_Lee_Masters</title>
<path style="fill:none;stroke:black;" d="M7023,-3953C7216,-4092 8488,-5010 8703,-5167"/>
<polygon style="fill:black;stroke:black;" points="8700.9,-5169.8 8711,-5173 8705.1,-5164.2 8700.9,-5169.8"/>
</g>
<!-- ID=Genre -->
<g id="node28" class="node"><title>ID=Genre</title>
<ellipse style="fill:none;stroke:black;" cx="6797" cy="-5320" rx="27" ry="18"/>
<text text-anchor="middle" x="6797" y="-5317.8" style="font-family:Times New Roman;font-size:8.00;">Genre</text>
</g>
<!-- ID=Legend&#45;&gt;ID=Genre -->
<g id="edge28" class="edge"><title>ID=Legend&#45;&gt;ID=Genre</title>
<path style="fill:none;stroke:black;" d="M5166,-3582C5322,-3749 6595,-5104 6775,-5298"/>
<polygon style="fill:black;stroke:black;" points="6772.45,-5300.4 6782,-5305 6777.4,-5295.45 6772.45,-5300.4"/>
</g>
<!-- ID=Artificial_flowers -->
<g id="node34" class="node"><title>ID=Artificial_flowers</title>
<ellipse style="fill:none;stroke:black;" cx="5895" cy="-4074" rx="75.8011" ry="18"/>
<text text-anchor="middle" x="5895" y="-4070.2" style="font-family:Times New Roman;font-size:12.00;">Artificial flowers</text>
</g>
<!-- ID=Glass_Flowers&#45;&gt;ID=Artificial_flowers -->
<g id="edge34" class="edge"><title>ID=Glass_Flowers&#45;&gt;ID=Artificial_flowers</title>
<path style="fill:none;stroke:black;" d="M4805,-3266C4973,-3391 5703,-3932 5864,-4051"/>
<polygon style="fill:black;stroke:black;" points="5861.9,-4053.8 5872,-4057 5866.1,-4048.2 5861.9,-4053.8"/>
</g>
<!-- ID=Botanical_Museum -->
<g id="node37" class="node"><title>ID=Botanical_Museum</title>
<ellipse style="fill:none;stroke:black;" cx="5153" cy="-4243" rx="84.0129" ry="18"/>
<text text-anchor="middle" x="5153" y="-4239.2" style="font-family:Times New Roman;font-size:12.00;">Botanical Museum</text>
</g>
<!-- ID=Glass_Flowers&#45;&gt;ID=Botanical_Museum -->
<g id="edge37" class="edge"><title>ID=Glass_Flowers&#45;&gt;ID=Botanical_Museum</title>
<path style="fill:none;stroke:black;" d="M4781,-3267C4835,-3407 5088,-4072 5142,-4216"/>
<polygon style="fill:black;stroke:black;" points="5138.74,-4217.28 5146,-4225 5145.14,-4214.44 5138.74,-4217.28"/>
</g>
<!-- ID=Marianne_Moore -->
<g id="node43" class="node"><title>ID=Marianne_Moore</title>
<ellipse style="fill:none;stroke:black;" cx="4688" cy="-3680" rx="75.9333" ry="18"/>
<text text-anchor="middle" x="4688" y="-3676.2" style="font-family:Times New Roman;font-size:12.00;">Marianne Moore</text>
</g>
<!-- ID=Glass_Flowers&#45;&gt;ID=Marianne_Moore -->
<g id="edge43" class="edge"><title>ID=Glass_Flowers&#45;&gt;ID=Marianne_Moore</title>
<path style="fill:none;stroke:black;" d="M4766,-3267C4752,-3345 4708,-3572 4693,-3652"/>
<polygon style="fill:black;stroke:black;" points="4689.53,-3651.51 4691,-3662 4696.39,-3652.88 4689.53,-3651.51"/>
</g>
<!-- ID=New_York_Times -->
<g id="node49" class="node"><title>ID=New_York_Times</title>
<ellipse style="fill:none;stroke:black;" cx="4498" cy="-4330" rx="73.9061" ry="18"/>
<text text-anchor="middle" x="4498" y="-4326.2" style="font-family:Times New Roman;font-size:12.00;">New York Times</text>
</g>
<!-- ID=Glass_Flowers&#45;&gt;ID=New_York_Times -->
<g id="edge49" class="edge"><title>ID=Glass_Flowers&#45;&gt;ID=New_York_Times</title>
<path style="fill:none;stroke:black;" d="M4764,-3267C4727,-3415 4543,-4148 4505,-4302"/>
<polygon style="fill:black;stroke:black;" points="4501.53,-4301.51 4503,-4312 4508.39,-4302.88 4501.53,-4301.51"/>
</g>
<!-- ID=Margaret_Towle -->
<g id="node40" class="node"><title>ID=Margaret_Towle</title>
<ellipse style="fill:none;stroke:black;" cx="5680" cy="-5321" rx="47.9974" ry="18"/>
<text text-anchor="middle" x="5680" y="-5318.8" style="font-family:Times New Roman;font-size:8.00;">Margaret Towle</text>
</g>
<!-- ID=Botanical_Museum&#45;&gt;ID=Margaret_Towle -->
<g id="edge40" class="edge"><title>ID=Botanical_Museum&#45;&gt;ID=Margaret_Towle</title>
<path style="fill:none;stroke:black;" d="M5162,-4261C5224,-4388 5592,-5141 5667,-5294"/>
<polygon style="fill:black;stroke:black;" points="5663.74,-5295.28 5671,-5303 5670.14,-5292.44 5663.74,-5295.28"/>
</g>
<!-- ID=United_States -->
<g id="node46" class="node"><title>ID=United_States</title>
<ellipse style="fill:none;stroke:black;" cx="4887" cy="-5434" rx="42.8036" ry="18"/>
<text text-anchor="middle" x="4887" y="-5431.8" style="font-family:Times New Roman;font-size:8.00;">United States</text>
</g>
<!-- ID=Marianne_Moore&#45;&gt;ID=United_States -->
<g id="edge46" class="edge"><title>ID=Marianne_Moore&#45;&gt;ID=United_States</title>
<path style="fill:none;stroke:black;" d="M4690,-3698C4710,-3869 4860,-5195 4884,-5406"/>
<polygon style="fill:black;stroke:black;" points="4880.52,-5406.4 4885,-5416 4887.49,-5405.7 4880.52,-5406.4"/>
</g>
<!-- ID=January_16 -->
<g id="node58" class="node"><title>ID=January_16</title>
<ellipse style="fill:none;stroke:black;" cx="4227" cy="-3613" rx="53.0608" ry="18"/>
<text text-anchor="middle" x="4227" y="-3609.2" style="font-family:Times New Roman;font-size:12.00;">January 16</text>
</g>
<!-- ID=Audioslave&#45;&gt;ID=January_16 -->
<g id="edge58" class="edge"><title>ID=Audioslave&#45;&gt;ID=January_16</title>
<path style="fill:none;stroke:black;" d="M4093,-3090C4117,-3182 4196,-3491 4220,-3585"/>
<polygon style="fill:black;stroke:black;" points="4216.61,-3585.88 4222,-3595 4223.47,-3584.51 4216.61,-3585.88"/>
</g>
<!-- ID=Presidency_of_George_W._Bush -->
<g id="node64" class="node"><title>ID=Presidency_of_George_W._Bush</title>
<ellipse style="fill:none;stroke:black;" cx="3887" cy="-4197" rx="130.125" ry="18"/>
<text text-anchor="middle" x="3887" y="-4193.2" style="font-family:Times New Roman;font-size:12.00;">Presidency of George W. Bush</text>
</g>
<!-- ID=Audioslave&#45;&gt;ID=Presidency_of_George_W._Bush -->
<g id="edge64" class="edge"><title>ID=Audioslave&#45;&gt;ID=Presidency_of_George_W._Bush</title>
<path style="fill:none;stroke:black;" d="M4081,-3090C4055,-3242 3919,-4011 3892,-4169"/>
<polygon style="fill:black;stroke:black;" points="3888.53,-4168.51 3890,-4179 3895.39,-4169.88 3888.53,-4168.51"/>
</g>
<!-- ID=Existentialism -->
<g id="node70" class="node"><title>ID=Existentialism</title>
<ellipse style="fill:none;stroke:black;" cx="3746" cy="-3432" rx="65.8273" ry="18"/>
<text text-anchor="middle" x="3746" y="-3428.2" style="font-family:Times New Roman;font-size:12.00;">Existentialism</text>
</g>
<!-- ID=Audioslave&#45;&gt;ID=Existentialism -->
<g id="edge70" class="edge"><title>ID=Audioslave&#45;&gt;ID=Existentialism</title>
<path style="fill:none;stroke:black;" d="M4062,-3090C4000,-3157 3832,-3339 3769,-3406"/>
<polygon style="fill:black;stroke:black;" points="3765.95,-3404.17 3762,-3414 3771.22,-3408.78 3765.95,-3404.17"/>
</g>
<!-- ID=RIAA -->
<g id="node76" class="node"><title>ID=RIAA</title>
<ellipse style="fill:none;stroke:black;" cx="3192" cy="-4107" rx="29.1856" ry="18"/>
<text text-anchor="middle" x="3192" y="-4103.2" style="font-family:Times New Roman;font-size:12.00;">RIAA</text>
</g>
<!-- ID=Audioslave&#45;&gt;ID=RIAA -->
<g id="edge76" class="edge"><title>ID=Audioslave&#45;&gt;ID=RIAA</title>
<path style="fill:none;stroke:black;" d="M4064,-3090C3940,-3233 3331,-3944 3213,-4083"/>
<polygon style="fill:black;stroke:black;" points="3209.95,-4081.17 3206,-4091 3215.22,-4085.78 3209.95,-4081.17"/>
</g>
<!-- ID=1865 -->
<g id="node61" class="node"><title>ID=1865</title>
<ellipse style="fill:none;stroke:black;" cx="4125" cy="-5436" rx="27" ry="18"/>
<text text-anchor="middle" x="4125" y="-5433.8" style="font-family:Times New Roman;font-size:8.00;">1865</text>
</g>
<!-- ID=January_16&#45;&gt;ID=1865 -->
<g id="edge61" class="edge"><title>ID=January_16&#45;&gt;ID=1865</title>
<path style="fill:none;stroke:black;" d="M4226,-3631C4216,-3805 4139,-5191 4127,-5408"/>
<polygon style="fill:black;stroke:black;" points="4123.51,-5407.7 4126,-5418 4130.48,-5408.4 4123.51,-5407.7"/>
</g>
<!-- ID=List_of_nicknames_used_by_George_W._Bush -->
<g id="node67" class="node"><title>ID=List_of_nicknames_used_by_George_W._Bush</title>
<ellipse style="fill:none;stroke:black;" cx="3345" cy="-5308" rx="112.083" ry="18"/>
<text text-anchor="middle" x="3345" y="-5305.8" style="font-family:Times New Roman;font-size:8.00;">List of nicknames used by George W. Bush</text>
</g>
<!-- ID=Presidency_of_George_W._Bush&#45;&gt;ID=List_of_nicknames_used_by_George_W._Bush -->
<g id="edge67" class="edge"><title>ID=Presidency_of_George_W._Bush&#45;&gt;ID=List_of_nicknames_used_by_George_W._Bush</title>
<path style="fill:none;stroke:black;" d="M3878,-4215C3815,-4345 3435,-5124 3359,-5281"/>
<polygon style="fill:black;stroke:black;" points="3355.8,-5279.56 3354,-5290 3361.92,-5282.96 3355.8,-5279.56"/>
</g>
<!-- ID=Pragmatism -->
<g id="node73" class="node"><title>ID=Pragmatism</title>
<ellipse style="fill:none;stroke:black;" cx="2220" cy="-5334" rx="38.1801" ry="18"/>
<text text-anchor="middle" x="2220" y="-5331.8" style="font-family:Times New Roman;font-size:8.00;">Pragmatism</text>
</g>
<!-- ID=Existentialism&#45;&gt;ID=Pragmatism -->
<g id="edge73" class="edge"><title>ID=Existentialism&#45;&gt;ID=Pragmatism</title>
<path style="fill:none;stroke:black;" d="M3732,-3450C3589,-3628 2409,-5098 2240,-5309"/>
<polygon style="fill:black;stroke:black;" points="2237.2,-5306.9 2234,-5317 2242.8,-5311.1 2237.2,-5306.9"/>
</g>
<!-- ID=April_22 -->
<g id="node79" class="node"><title>ID=April_22</title>
<ellipse style="fill:none;stroke:black;" cx="5526" cy="-2287" rx="28.9458" ry="18"/>
<text text-anchor="middle" x="5526" y="-2284.8" style="font-family:Times New Roman;font-size:8.00;">April 22</text>
</g>
<!-- ID=RIAA&#45;&gt;ID=April_22 -->
<g id="edge79" class="edge"><title>ID=RIAA&#45;&gt;ID=April_22</title>
<path style="fill:none;stroke:black;" d="M3210,-4093C3413,-3934 5258,-2496 5500,-2307"/>
<polygon style="fill:black;stroke:black;" points="5502.1,-2309.8 5508,-2301 5497.9,-2304.2 5502.1,-2309.8"/>
</g>
<!-- ID=Indro_Montanelli -->
<g id="node194" class="node"><title>ID=Indro_Montanelli</title>
<ellipse style="fill:none;stroke:black;" cx="6906" cy="-262" rx="51.9615" ry="18"/>
<text text-anchor="middle" x="6906" y="-259.8" style="font-family:Times New Roman;font-size:8.00;">Indro Montanelli</text>
</g>
<!-- ID=April_22&#45;&gt;ID=Indro_Montanelli -->
<g id="edge195" class="edge"><title>ID=April_22&#45;&gt;ID=Indro_Montanelli</title>
<path style="fill:none;stroke:black;" d="M5537,-2270C5659,-2090 6736,-511 6888,-288"/>
<polygon style="fill:black;stroke:black;" points="6890.8,-290.1 6894,-280 6885.2,-285.9 6890.8,-290.1"/>
</g>
<!-- ID=Citation_needed -->
<g id="node85" class="node"><title>ID=Citation_needed</title>
<ellipse style="fill:none;stroke:black;" cx="2129" cy="-3997" rx="73.9061" ry="18"/>
<text text-anchor="middle" x="2129" y="-3993.2" style="font-family:Times New Roman;font-size:12.00;">Citation needed</text>
</g>
<!-- ID=Henry_David_Thoreau&#45;&gt;ID=Citation_needed -->
<g id="edge85" class="edge"><title>ID=Henry_David_Thoreau&#45;&gt;ID=Citation_needed</title>
<path style="fill:none;stroke:black;" d="M3649,-2885C3440,-3038 2361,-3827 2161,-3974"/>
<polygon style="fill:black;stroke:black;" points="2158.9,-3971.2 2153,-3980 2163.1,-3976.8 2158.9,-3971.2"/>
</g>
<!-- ID=Philosophy -->
<g id="node88" class="node"><title>ID=Philosophy</title>
<ellipse style="fill:none;stroke:black;" cx="3056" cy="-3339" rx="53.1907" ry="18"/>
<text text-anchor="middle" x="3056" y="-3335.2" style="font-family:Times New Roman;font-size:12.00;">Philosophy</text>
</g>
<!-- ID=Henry_David_Thoreau&#45;&gt;ID=Philosophy -->
<g id="edge88" class="edge"><title>ID=Henry_David_Thoreau&#45;&gt;ID=Philosophy</title>
<path style="fill:none;stroke:black;" d="M3650,-2885C3540,-2970 3191,-3236 3086,-3316"/>
<polygon style="fill:black;stroke:black;" points="3083.9,-3313.2 3078,-3322 3088.1,-3318.8 3083.9,-3313.2"/>
</g>
<!-- ID=Bust -->
<g id="node94" class="node"><title>ID=Bust</title>
<ellipse style="fill:none;stroke:black;" cx="1947" cy="-2981" rx="27.9267" ry="18"/>
<text text-anchor="middle" x="1947" y="-2977.2" style="font-family:Times New Roman;font-size:12.00;">Bust</text>
</g>
<!-- ID=Henry_David_Thoreau&#45;&gt;ID=Bust -->
<g id="edge94" class="edge"><title>ID=Henry_David_Thoreau&#45;&gt;ID=Bust</title>
<path style="fill:none;stroke:black;" d="M3506,-2872C3112,-2899 2184,-2965 1985,-2978"/>
<polygon style="fill:black;stroke:black;" points="1984.6,-2974.52 1975,-2979 1985.3,-2981.49 1984.6,-2974.52"/>
</g>
<!-- ID=Corporal_punishment -->
<g id="node100" class="node"><title>ID=Corporal_punishment</title>
<ellipse style="fill:none;stroke:black;" cx="3172" cy="-2801" rx="94.8837" ry="18"/>
<text text-anchor="middle" x="3172" y="-2797.2" style="font-family:Times New Roman;font-size:12.00;">Corporal punishment</text>
</g>
<!-- ID=Henry_David_Thoreau&#45;&gt;ID=Corporal_punishment -->
<g id="edge100" class="edge"><title>ID=Henry_David_Thoreau&#45;&gt;ID=Corporal_punishment</title>
<path style="fill:none;stroke:black;" d="M3532,-2842C3445,-2832 3338,-2820 3264,-2811"/>
<polygon style="fill:black;stroke:black;" points="3264.3,-2807.51 3254,-2810 3263.6,-2814.48 3264.3,-2807.51"/>
</g>
<!-- ID=Alexander_the_Great -->
<g id="node91" class="node"><title>ID=Alexander_the_Great</title>
<ellipse style="fill:none;stroke:black;" cx="263" cy="-5198" rx="60.0444" ry="18"/>
<text text-anchor="middle" x="263" y="-5195.8" style="font-family:Times New Roman;font-size:8.00;">Alexander the Great</text>
</g>
<!-- ID=Philosophy&#45;&gt;ID=Alexander_the_Great -->
<g id="edge91" class="edge"><title>ID=Philosophy&#45;&gt;ID=Alexander_the_Great</title>
<path style="fill:none;stroke:black;" d="M3032,-3355C2778,-3524 593,-4978 297,-5176"/>
<polygon style="fill:black;stroke:black;" points="294.379,-5173.54 288,-5182 298.262,-5179.37 294.379,-5173.54"/>
</g>
<!-- ID=Bust_(sculpture) -->
<g id="node97" class="node"><title>ID=Bust_(sculpture)</title>
<ellipse style="fill:none;stroke:black;" cx="293" cy="-3644" rx="47.9974" ry="18"/>
<text text-anchor="middle" x="293" y="-3641.8" style="font-family:Times New Roman;font-size:8.00;">Bust (sculpture)</text>
</g>
<!-- ID=Bust&#45;&gt;ID=Bust_(sculpture) -->
<g id="edge97" class="edge"><title>ID=Bust&#45;&gt;ID=Bust_(sculpture)</title>
<path style="fill:none;stroke:black;" d="M1923,-2991C1741,-3064 574,-3532 335,-3627"/>
<polygon style="fill:black;stroke:black;" points="333.717,-3623.74 326,-3631 336.56,-3630.14 333.717,-3623.74"/>
</g>
<!-- ID=Capital_punishment -->
<g id="node103" class="node"><title>ID=Capital_punishment</title>
<ellipse style="fill:none;stroke:black;" cx="60" cy="-2246" rx="58.8897" ry="18"/>
<text text-anchor="middle" x="60" y="-2243.8" style="font-family:Times New Roman;font-size:8.00;">Capital punishment</text>
</g>
<!-- ID=Corporal_punishment&#45;&gt;ID=Capital_punishment -->
<g id="edge103" class="edge"><title>ID=Corporal_punishment&#45;&gt;ID=Capital_punishment</title>
<path style="fill:none;stroke:black;" d="M3103,-2789C2685,-2715 514,-2327 121,-2257"/>
<polygon style="fill:black;stroke:black;" points="121.492,-2253.53 111,-2255 120.119,-2260.39 121.492,-2253.53"/>
</g>
<!-- ID=Derek_Curtis_Bok -->
<g id="node109" class="node"><title>ID=Derek_Curtis_Bok</title>
<ellipse style="fill:none;stroke:black;" cx="2713" cy="-2388" rx="78.9595" ry="18"/>
<text text-anchor="middle" x="2713" y="-2384.2" style="font-family:Times New Roman;font-size:12.00;">Derek Curtis Bok</text>
</g>
<!-- ID=President_of_Harvard_University&#45;&gt;ID=Derek_Curtis_Bok -->
<g id="edge109" class="edge"><title>ID=President_of_Harvard_University&#45;&gt;ID=Derek_Curtis_Bok</title>
<path style="fill:none;stroke:black;" d="M3996,-2672C3720,-2611 3002,-2452 2780,-2403"/>
<polygon style="fill:black;stroke:black;" points="2780.49,-2399.53 2770,-2401 2779.12,-2406.39 2780.49,-2399.53"/>
</g>
<!-- ID=Puritan -->
<g id="node112" class="node"><title>ID=Puritan</title>
<ellipse style="fill:none;stroke:black;" cx="2832" cy="-1470" rx="39.7956" ry="18"/>
<text text-anchor="middle" x="2832" y="-1466.2" style="font-family:Times New Roman;font-size:12.00;">Puritan</text>
</g>
<!-- ID=President_of_Harvard_University&#45;&gt;ID=Puritan -->
<g id="edge112" class="edge"><title>ID=President_of_Harvard_University&#45;&gt;ID=Puritan</title>
<path style="fill:none;stroke:black;" d="M4079,-2670C3911,-2508 3017,-1648 2857,-1494"/>
<polygon style="fill:black;stroke:black;" points="2858.83,-1490.95 2849,-1487 2854.22,-1496.22 2858.83,-1490.95"/>
</g>
<!-- ID=Drew_Gilpin_Faust -->
<g id="node118" class="node"><title>ID=Drew_Gilpin_Faust</title>
<ellipse style="fill:none;stroke:black;" cx="3509" cy="-1533" rx="82.1179" ry="18"/>
<text text-anchor="middle" x="3509" y="-1529.2" style="font-family:Times New Roman;font-size:12.00;">Drew Gilpin Faust</text>
</g>
<!-- ID=President_of_Harvard_University&#45;&gt;ID=Drew_Gilpin_Faust -->
<g id="edge118" class="edge"><title>ID=President_of_Harvard_University&#45;&gt;ID=Drew_Gilpin_Faust</title>
<path style="fill:none;stroke:black;" d="M4093,-2670C4013,-2514 3604,-1718 3523,-1560"/>
<polygon style="fill:black;stroke:black;" points="3525.92,-1558.04 3518,-1551 3519.8,-1561.44 3525.92,-1558.04"/>
</g>
<!-- ID=Samuel_Willard -->
<g id="node124" class="node"><title>ID=Samuel_Willard</title>
<ellipse style="fill:none;stroke:black;" cx="3401" cy="-2220" rx="70.1161" ry="18"/>
<text text-anchor="middle" x="3401" y="-2216.2" style="font-family:Times New Roman;font-size:12.00;">Samuel Willard</text>
</g>
<!-- ID=President_of_Harvard_University&#45;&gt;ID=Samuel_Willard -->
<g id="edge124" class="edge"><title>ID=President_of_Harvard_University&#45;&gt;ID=Samuel_Willard</title>
<path style="fill:none;stroke:black;" d="M4068,-2670C3943,-2586 3552,-2322 3435,-2243"/>
<polygon style="fill:black;stroke:black;" points="3436.26,-2239.63 3426,-2237 3432.38,-2245.46 3436.26,-2239.63"/>
</g>
<!-- ID=Augustine_of_Hippo -->
<g id="node115" class="node"><title>ID=Augustine_of_Hippo</title>
<ellipse style="fill:none;stroke:black;" cx="1770" cy="-1799" rx="56.003" ry="18"/>
<text text-anchor="middle" x="1770" y="-1796.8" style="font-family:Times New Roman;font-size:8.00;">Augustine of Hippo</text>
</g>
<!-- ID=Puritan&#45;&gt;ID=Augustine_of_Hippo -->
<g id="edge115" class="edge"><title>ID=Puritan&#45;&gt;ID=Augustine_of_Hippo</title>
<path style="fill:none;stroke:black;" d="M2799,-1480C2647,-1528 2006,-1726 1821,-1783"/>
<polygon style="fill:black;stroke:black;" points="1819.57,-1779.77 1811,-1786 1821.58,-1786.48 1819.57,-1779.77"/>
</g>
<!-- ID=Professor -->
<g id="node121" class="node"><title>ID=Professor</title>
<ellipse style="fill:none;stroke:black;" cx="214" cy="-428" rx="31.1769" ry="18"/>
<text text-anchor="middle" x="214" y="-425.8" style="font-family:Times New Roman;font-size:8.00;">Professor</text>
</g>
<!-- ID=Drew_Gilpin_Faust&#45;&gt;ID=Professor -->
<g id="edge121" class="edge"><title>ID=Drew_Gilpin_Faust&#45;&gt;ID=Professor</title>
<path style="fill:none;stroke:black;" d="M3464,-1518C3096,-1395 584,-553 251,-440"/>
<polygon style="fill:black;stroke:black;" points="251.584,-436.521 241,-437 249.573,-443.226 251.584,-436.521"/>
</g>
<!-- ID=Salem -->
<g id="node127" class="node"><title>ID=Salem</title>
<ellipse style="fill:none;stroke:black;" cx="2064" cy="-270" rx="27" ry="18"/>
<text text-anchor="middle" x="2064" y="-267.8" style="font-family:Times New Roman;font-size:8.00;">Salem</text>
</g>
<!-- ID=Samuel_Willard&#45;&gt;ID=Salem -->
<g id="edge127" class="edge"><title>ID=Samuel_Willard&#45;&gt;ID=Salem</title>
<path style="fill:none;stroke:black;" d="M3389,-2202C3265,-2021 2227,-507 2081,-294"/>
<polygon style="fill:black;stroke:black;" points="2083.8,-291.9 2075,-286 2078.2,-296.1 2083.8,-291.9"/>
</g>
<!-- ID=1971 -->
<g id="node133" class="node"><title>ID=1971</title>
<ellipse style="fill:none;stroke:black;" cx="3894" cy="-2416" rx="29.0571" ry="18"/>
<text text-anchor="middle" x="3894" y="-2412.2" style="font-family:Times New Roman;font-size:12.00;">1971</text>
</g>
<!-- ID=Erich_Segal&#45;&gt;ID=1971 -->
<g id="edge133" class="edge"><title>ID=Erich_Segal&#45;&gt;ID=1971</title>
<path style="fill:none;stroke:black;" d="M4386,-2778C4288,-2706 4009,-2501 3921,-2436"/>
<polygon style="fill:black;stroke:black;" points="3923.1,-2433.2 3913,-2430 3918.9,-2438.8 3923.1,-2433.2"/>
</g>
<!-- ID=Master&#39;s_degree -->
<g id="node139" class="node"><title>ID=Master&#39;s_degree</title>
<ellipse style="fill:none;stroke:black;" cx="3908" cy="-1993" rx="75.8011" ry="18"/>
<text text-anchor="middle" x="3908" y="-1989.2" style="font-family:Times New Roman;font-size:12.00;">Master&#39;s degree</text>
</g>
<!-- ID=Erich_Segal&#45;&gt;ID=Master&#39;s_degree -->
<g id="edge139" class="edge"><title>ID=Erich_Segal&#45;&gt;ID=Master&#39;s_degree</title>
<path style="fill:none;stroke:black;" d="M4404,-2777C4327,-2655 4002,-2142 3924,-2019"/>
<polygon style="fill:black;stroke:black;" points="3927.27,-2017.62 3919,-2011 3921.33,-2021.34 3927.27,-2017.62"/>
</g>
<!-- ID=Love_Story_(1970_film) -->
<g id="node145" class="node"><title>ID=Love_Story_(1970_film)</title>
<ellipse style="fill:none;stroke:black;" cx="4366" cy="-1962" rx="96.1457" ry="18"/>
<text text-anchor="middle" x="4366" y="-1958.2" style="font-family:Times New Roman;font-size:12.00;">Love Story (1970 film)</text>
</g>
<!-- ID=Erich_Segal&#45;&gt;ID=Love_Story_(1970_film) -->
<g id="edge145" class="edge"><title>ID=Erich_Segal&#45;&gt;ID=Love_Story_(1970_film)</title>
<path style="fill:none;stroke:black;" d="M4418,-2777C4410,-2653 4376,-2119 4368,-1990"/>
<polygon style="fill:black;stroke:black;" points="4371.48,-1989.6 4367,-1980 4364.51,-1990.3 4371.48,-1989.6"/>
</g>
<!-- ID=Oxford -->
<g id="node151" class="node"><title>ID=Oxford</title>
<ellipse style="fill:none;stroke:black;" cx="4332" cy="-2408" rx="36.772" ry="18"/>
<text text-anchor="middle" x="4332" y="-2404.2" style="font-family:Times New Roman;font-size:12.00;">Oxford</text>
</g>
<!-- ID=Erich_Segal&#45;&gt;ID=Oxford -->
<g id="edge151" class="edge"><title>ID=Erich_Segal&#45;&gt;ID=Oxford</title>
<path style="fill:none;stroke:black;" d="M4414,-2777C4399,-2706 4354,-2510 4338,-2436"/>
<polygon style="fill:black;stroke:black;" points="4341.39,-2435.12 4336,-2426 4334.53,-2436.49 4341.39,-2435.12"/>
</g>
<!-- ID=Muhammad_Ali -->
<g id="node136" class="node"><title>ID=Muhammad_Ali</title>
<ellipse style="fill:none;stroke:black;" cx="3213" cy="-128" rx="46.7654" ry="18"/>
<text text-anchor="middle" x="3213" y="-125.8" style="font-family:Times New Roman;font-size:8.00;">Muhammad Ali</text>
</g>
<!-- ID=1971&#45;&gt;ID=Muhammad_Ali -->
<g id="edge136" class="edge"><title>ID=1971&#45;&gt;ID=Muhammad_Ali</title>
<path style="fill:none;stroke:black;" d="M3889,-2398C3830,-2200 3294,-401 3221,-156"/>
<polygon style="fill:black;stroke:black;" points="3224.23,-154.573 3218,-146 3217.52,-156.584 3224.23,-154.573"/>
</g>
<!-- ID=France -->
<g id="node142" class="node"><title>ID=France</title>
<ellipse style="fill:none;stroke:black;" cx="3854" cy="-955" rx="27.1355" ry="18"/>
<text text-anchor="middle" x="3854" y="-952.8" style="font-family:Times New Roman;font-size:8.00;">France</text>
</g>
<!-- ID=Master&#39;s_degree&#45;&gt;ID=France -->
<g id="edge142" class="edge"><title>ID=Master&#39;s_degree&#45;&gt;ID=France</title>
<path style="fill:none;stroke:black;" d="M3907,-1975C3901,-1852 3864,-1136 3856,-983"/>
<polygon style="fill:black;stroke:black;" points="3859.48,-982.602 3855,-973 3852.51,-983.299 3859.48,-982.602"/>
</g>
<!-- ID=Vincent_Canby -->
<g id="node148" class="node"><title>ID=Vincent_Canby</title>
<ellipse style="fill:none;stroke:black;" cx="4131" cy="-1520" rx="46.188" ry="18"/>
<text text-anchor="middle" x="4131" y="-1517.8" style="font-family:Times New Roman;font-size:8.00;">Vincent Canby</text>
</g>
<!-- ID=Love_Story_(1970_film)&#45;&gt;ID=Vincent_Canby -->
<g id="edge148" class="edge"><title>ID=Love_Story_(1970_film)&#45;&gt;ID=Vincent_Canby</title>
<path style="fill:none;stroke:black;" d="M4356,-1944C4319,-1876 4190,-1630 4146,-1547"/>
<polygon style="fill:black;stroke:black;" points="4148.92,-1545.04 4141,-1538 4142.8,-1548.44 4148.92,-1545.04"/>
</g>
<!-- ID=Kibibyte -->
<g id="node154" class="node"><title>ID=Kibibyte</title>
<ellipse style="fill:none;stroke:black;" cx="4188" cy="-19" rx="28.9458" ry="18"/>
<text text-anchor="middle" x="4188" y="-16.8" style="font-family:Times New Roman;font-size:8.00;">Kibibyte</text>
</g>
<!-- ID=Oxford&#45;&gt;ID=Kibibyte -->
<g id="edge154" class="edge"><title>ID=Oxford&#45;&gt;ID=Kibibyte</title>
<path style="fill:none;stroke:black;" d="M4331,-2390C4319,-2184 4205,-302 4190,-47"/>
<polygon style="fill:black;stroke:black;" points="4193.48,-46.6021 4189,-37 4186.51,-47.2987 4193.48,-46.6021"/>
</g>
<!-- ID=Grover_Cleveland -->
<g id="node160" class="node"><title>ID=Grover_Cleveland</title>
<ellipse style="fill:none;stroke:black;" cx="4655" cy="-2214" rx="79.0906" ry="18"/>
<text text-anchor="middle" x="4655" y="-2210.2" style="font-family:Times New Roman;font-size:12.00;">Grover Cleveland</text>
</g>
<!-- ID=John_Adams&#45;&gt;ID=Grover_Cleveland -->
<g id="edge160" class="edge"><title>ID=John_Adams&#45;&gt;ID=Grover_Cleveland</title>
<path style="fill:none;stroke:black;" d="M4698,-2530C4689,-2467 4667,-2307 4658,-2242"/>
<polygon style="fill:black;stroke:black;" points="4661.48,-2241.6 4657,-2232 4654.51,-2242.3 4661.48,-2241.6"/>
</g>
<!-- ID=Antoine_Lavoisier -->
<g id="node166" class="node"><title>ID=Antoine_Lavoisier</title>
<ellipse style="fill:none;stroke:black;" cx="4850" cy="-1822" rx="80.2229" ry="18"/>
<text text-anchor="middle" x="4850" y="-1818.2" style="font-family:Times New Roman;font-size:12.00;">Antoine Lavoisier</text>
</g>
<!-- ID=John_Adams&#45;&gt;ID=Antoine_Lavoisier -->
<g id="edge166" class="edge"><title>ID=John_Adams&#45;&gt;ID=Antoine_Lavoisier</title>
<path style="fill:none;stroke:black;" d="M4707,-2530C4730,-2417 4821,-1967 4844,-1850"/>
<polygon style="fill:black;stroke:black;" points="4847.47,-1850.49 4846,-1840 4840.61,-1849.12 4847.47,-1850.49"/>
</g>
<!-- ID=Rationality -->
<g id="node172" class="node"><title>ID=Rationality</title>
<ellipse style="fill:none;stroke:black;" cx="5376" cy="-1841" rx="53.0608" ry="18"/>
<text text-anchor="middle" x="5376" y="-1837.2" style="font-family:Times New Roman;font-size:12.00;">Rationality</text>
</g>
<!-- ID=John_Adams&#45;&gt;ID=Rationality -->
<g id="edge172" class="edge"><title>ID=John_Adams&#45;&gt;ID=Rationality</title>
<path style="fill:none;stroke:black;" d="M4726,-2531C4830,-2419 5250,-1975 5353,-1865"/>
<polygon style="fill:black;stroke:black;" points="5355.4,-1867.55 5360,-1858 5350.45,-1862.6 5355.4,-1867.55"/>
</g>
<!-- ID=Alben_W._Barkley -->
<g id="node178" class="node"><title>ID=Alben_W._Barkley</title>
<ellipse style="fill:none;stroke:black;" cx="5038" cy="-2264" rx="77.1949" ry="18"/>
<text text-anchor="middle" x="5038" y="-2260.2" style="font-family:Times New Roman;font-size:12.00;">Alben W. Barkley</text>
</g>
<!-- ID=John_Adams&#45;&gt;ID=Alben_W._Barkley -->
<g id="edge178" class="edge"><title>ID=John_Adams&#45;&gt;ID=Alben_W._Barkley</title>
<path style="fill:none;stroke:black;" d="M4731,-2531C4795,-2475 4948,-2343 5010,-2288"/>
<polygon style="fill:black;stroke:black;" points="5012.78,-2290.22 5018,-2281 5008.17,-2284.95 5012.78,-2290.22"/>
</g>
<!-- ID=Arthur_Pue_Gorman -->
<g id="node163" class="node"><title>ID=Arthur_Pue_Gorman</title>
<ellipse style="fill:none;stroke:black;" cx="4601" cy="-1235" rx="57.814" ry="18"/>
<text text-anchor="middle" x="4601" y="-1232.8" style="font-family:Times New Roman;font-size:8.00;">Arthur Pue Gorman</text>
</g>
<!-- ID=Grover_Cleveland&#45;&gt;ID=Arthur_Pue_Gorman -->
<g id="edge163" class="edge"><title>ID=Grover_Cleveland&#45;&gt;ID=Arthur_Pue_Gorman</title>
<path style="fill:none;stroke:black;" d="M4654,-2196C4648,-2077 4611,-1410 4603,-1263"/>
<polygon style="fill:black;stroke:black;" points="4606.48,-1262.6 4602,-1253 4599.51,-1263.3 4606.48,-1262.6"/>
</g>
<!-- ID=Arvid_Horn -->
<g id="node169" class="node"><title>ID=Arvid_Horn</title>
<ellipse style="fill:none;stroke:black;" cx="4974" cy="-137" rx="36.9504" ry="18"/>
<text text-anchor="middle" x="4974" y="-134.8" style="font-family:Times New Roman;font-size:8.00;">Arvid Horn</text>
</g>
<!-- ID=Antoine_Lavoisier&#45;&gt;ID=Arvid_Horn -->
<g id="edge169" class="edge"><title>ID=Antoine_Lavoisier&#45;&gt;ID=Arvid_Horn</title>
<path style="fill:none;stroke:black;" d="M4851,-1804C4864,-1638 4957,-371 4972,-165"/>
<polygon style="fill:black;stroke:black;" points="4975.49,-165.299 4973,-155 4968.52,-164.602 4975.49,-165.299"/>
</g>
<!-- ID=Irrationality -->
<g id="node175" class="node"><title>ID=Irrationality</title>
<ellipse style="fill:none;stroke:black;" cx="5249" cy="-1185" rx="39.9156" ry="18"/>
<text text-anchor="middle" x="5249" y="-1182.8" style="font-family:Times New Roman;font-size:8.00;">Irrationality</text>
</g>
<!-- ID=Rationality&#45;&gt;ID=Irrationality -->
<g id="edge175" class="edge"><title>ID=Rationality&#45;&gt;ID=Irrationality</title>
<path style="fill:none;stroke:black;" d="M5372,-1823C5355,-1732 5276,-1324 5255,-1213"/>
<polygon style="fill:black;stroke:black;" points="5258.39,-1212.12 5253,-1203 5251.53,-1213.49 5258.39,-1212.12"/>
</g>
<!-- ID=U.S._Government_Printing_Office -->
<g id="node181" class="node"><title>ID=U.S._Government_Printing_Office</title>
<ellipse style="fill:none;stroke:black;" cx="5798" cy="-163" rx="88.9119" ry="18"/>
<text text-anchor="middle" x="5798" y="-160.8" style="font-family:Times New Roman;font-size:8.00;">U.S. Government Printing Office</text>
</g>
<!-- ID=Alben_W._Barkley&#45;&gt;ID=U.S._Government_Printing_Office -->
<g id="edge181" class="edge"><title>ID=Alben_W._Barkley&#45;&gt;ID=U.S._Government_Printing_Office</title>
<path style="fill:none;stroke:black;" d="M5045,-2246C5114,-2055 5704,-423 5788,-190"/>
<polygon style="fill:black;stroke:black;" points="5791.16,-191.594 5791,-181 5784.52,-189.38 5791.16,-191.594"/>
</g>
<!-- ID=September_8&#45;&gt;ID=April_22 -->
<g id="edge192" class="edge"><title>ID=September_8&#45;&gt;ID=April_22</title>
<path style="fill:none;stroke:black;" d="M5115,-2612C5198,-2547 5422,-2369 5500,-2308"/>
<polygon style="fill:black;stroke:black;" points="5502.78,-2310.22 5508,-2301 5498.17,-2304.95 5502.78,-2310.22"/>
</g>
<!-- ID=Confederate_States_of_America -->
<g id="node187" class="node"><title>ID=Confederate_States_of_America</title>
<ellipse style="fill:none;stroke:black;" cx="6026" cy="-1470" rx="132.151" ry="18"/>
<text text-anchor="middle" x="6026" y="-1466.2" style="font-family:Times New Roman;font-size:12.00;">Confederate States of America</text>
</g>
<!-- ID=September_8&#45;&gt;ID=Confederate_States_of_America -->
<g id="edge187" class="edge"><title>ID=September_8&#45;&gt;ID=Confederate_States_of_America</title>
<path style="fill:none;stroke:black;" d="M5104,-2611C5229,-2457 5878,-1653 6004,-1496"/>
<polygon style="fill:black;stroke:black;" points="6007.05,-1497.83 6011,-1488 6001.78,-1493.22 6007.05,-1497.83"/>
</g>
<!-- ID=1602 -->
<g id="node197" class="node"><title>ID=1602</title>
<ellipse style="fill:none;stroke:black;" cx="6146" cy="-2394" rx="29.0571" ry="18"/>
<text text-anchor="middle" x="6146" y="-2390.2" style="font-family:Times New Roman;font-size:12.00;">1602</text>
</g>
<!-- ID=September_8&#45;&gt;ID=1602 -->
<g id="edge198" class="edge"><title>ID=September_8&#45;&gt;ID=1602</title>
<path style="fill:none;stroke:black;" d="M5168,-2618C5386,-2568 5956,-2437 6108,-2402"/>
<polygon style="fill:black;stroke:black;" points="6108.88,-2405.39 6118,-2400 6107.51,-2398.53 6108.88,-2405.39"/>
</g>
<!-- ID=April -->
<g id="node203" class="node"><title>ID=April</title>
<ellipse style="fill:none;stroke:black;" cx="5544" cy="-2787" rx="29.1856" ry="18"/>
<text text-anchor="middle" x="5544" y="-2783.2" style="font-family:Times New Roman;font-size:12.00;">April</text>
</g>
<!-- ID=September_8&#45;&gt;ID=April -->
<g id="edge204" class="edge"><title>ID=September_8&#45;&gt;ID=April</title>
<path style="fill:none;stroke:black;" d="M5151,-2659C5251,-2692 5432,-2751 5508,-2776"/>
<polygon style="fill:black;stroke:black;" points="5507.42,-2779.48 5518,-2779 5509.43,-2772.77 5507.42,-2779.48"/>
</g>
<!-- ID=February_8 -->
<g id="node190" class="node"><title>ID=February_8</title>
<ellipse style="fill:none;stroke:black;" cx="8775" cy="-389" rx="35.8748" ry="18"/>
<text text-anchor="middle" x="8775" y="-386.8" style="font-family:Times New Roman;font-size:8.00;">February 8</text>
</g>
<!-- ID=Confederate_States_of_America&#45;&gt;ID=February_8 -->
<g id="edge190" class="edge"><title>ID=Confederate_States_of_America&#45;&gt;ID=February_8</title>
<path style="fill:none;stroke:black;" d="M6069,-1453C6393,-1325 8431,-524 8736,-404"/>
<polygon style="fill:black;stroke:black;" points="8738.02,-406.964 8746,-400 8735.42,-400.464 8738.02,-406.964"/>
</g>
<!-- ID=Caesar,_duc_de_Choiseul -->
<g id="node200" class="node"><title>ID=Caesar,_duc_de_Choiseul</title>
<ellipse style="fill:none;stroke:black;" cx="7078" cy="-1710" rx="67.0496" ry="18"/>
<text text-anchor="middle" x="7078" y="-1707.8" style="font-family:Times New Roman;font-size:8.00;">Caesar, duc de Choiseul</text>
</g>
<!-- ID=1602&#45;&gt;ID=Caesar,_duc_de_Choiseul -->
<g id="edge201" class="edge"><title>ID=1602&#45;&gt;ID=Caesar,_duc_de_Choiseul</title>
<path style="fill:none;stroke:black;" d="M6165,-2380C6282,-2295 6900,-1841 7047,-1733"/>
<polygon style="fill:black;stroke:black;" points="7049.1,-1735.8 7055,-1727 7044.9,-1730.2 7049.1,-1735.8"/>
</g>
<!-- ID=February_15 -->
<g id="node206" class="node"><title>ID=February_15</title>
<ellipse style="fill:none;stroke:black;" cx="8866" cy="-2090" rx="38.1801" ry="18"/>
<text text-anchor="middle" x="8866" y="-2087.8" style="font-family:Times New Roman;font-size:8.00;">February 15</text>
</g>
<!-- ID=April&#45;&gt;ID=February_15 -->
<g id="edge207" class="edge"><title>ID=April&#45;&gt;ID=February_15</title>
<path style="fill:none;stroke:black;" d="M5572,-2781C5868,-2719 8449,-2177 8821,-2099"/>
<polygon style="fill:black;stroke:black;" points="8821.88,-2102.39 8831,-2097 8820.51,-2095.53 8821.88,-2102.39"/>
</g>
</g>
</svg>
