<?xml version="1.0" encoding="UTF-8" standalone="no"?>
<!DOCTYPE svg PUBLIC "-//W3C//DTD SVG 1.0//EN"
 "http://www.w3.org/TR/2001/REC-SVG-20010904/DTD/svg10.dtd" [
 <!ATTLIST svg xmlns:xlink CDATA #FIXED "http://www.w3.org/1999/xlink">
]>
<!-- Generated by Graphviz version 2.18 (Fri May &#160;2 20:53:13 UTC 2008)
     For user: (lispserver) ,,, -->
<!-- Title: g Pages: 1 -->
<svg width="4170pt" height="2656pt"
 viewBox="0.00 0.00 4170.00 2656.00" xmlns="http://www.w3.org/2000/svg" xmlns:xlink="http://www.w3.org/1999/xlink">
<g id="graph0" class="graph" transform="scale(1 1) rotate(0) translate(4 2652)">
<title>g</title>
<polygon style="fill:white;stroke:white;" points="-4,4 -4,-2652 4166,-2652 4166,4 -4,4"/>
<!-- ID=Harvard_University -->
<g id="node2" class="node"><title>ID=Harvard_University</title>
<ellipse style="fill:none;stroke:black;" cx="2029" cy="-1236" rx="220.117" ry="31.1127"/>
<text text-anchor="middle" x="2029" y="-1227" style="font-family:Times New Roman;font-size:30.00;">Harvard University</text>
</g>
<!-- ID=Harvard_Corporation -->
<g id="node4" class="node"><title>ID=Harvard_Corporation</title>
<ellipse style="fill:none;stroke:black;" cx="2666" cy="-1494" rx="198.904" ry="26.163"/>
<text text-anchor="middle" x="2666" y="-1486" style="font-family:Times New Roman;font-size:25.00;">Harvard Corporation</text>
</g>
<!-- ID=Harvard_University&#45;&gt;ID=Harvard_Corporation -->
<g id="edge4" class="edge"><title>ID=Harvard_University&#45;&gt;ID=Harvard_Corporation</title>
<path style="fill:none;stroke:black;" d="M2101,-1265C2224,-1315 2472,-1416 2594,-1465"/>
<polygon style="fill:black;stroke:black;" points="2593.42,-1468.54 2604,-1469 2596.02,-1462.04 2593.42,-1468.54"/>
</g>
<!-- ID=University_of_Michigan -->
<g id="node7" class="node"><title>ID=University_of_Michigan</title>
<ellipse style="fill:none;stroke:black;" cx="2348" cy="-1444" rx="214.96" ry="26.163"/>
<text text-anchor="middle" x="2348" y="-1436" style="font-family:Times New Roman;font-size:25.00;">University of Michigan</text>
</g>
<!-- ID=Harvard_University&#45;&gt;ID=University_of_Michigan -->
<g id="edge7" class="edge"><title>ID=Harvard_University&#45;&gt;ID=University_of_Michigan</title>
<path style="fill:none;stroke:black;" d="M2076,-1266C2136,-1305 2240,-1373 2300,-1412"/>
<polygon style="fill:black;stroke:black;" points="2298.74,-1415.37 2309,-1418 2302.62,-1409.54 2298.74,-1415.37"/>
</g>
<!-- ID=University_of_California,_Irvine -->
<g id="node31" class="node"><title>ID=University_of_California,_Irvine</title>
<ellipse style="fill:none;stroke:black;" cx="2258" cy="-1788" rx="283.757" ry="26.163"/>
<text text-anchor="middle" x="2258" y="-1780" style="font-family:Times New Roman;font-size:25.00;">University of California, Irvine</text>
</g>
<!-- ID=Harvard_University&#45;&gt;ID=University_of_California,_Irvine -->
<g id="edge31" class="edge"><title>ID=Harvard_University&#45;&gt;ID=University_of_California,_Irvine</title>
<path style="fill:none;stroke:black;" d="M2042,-1267C2082,-1363 2201,-1652 2243,-1753"/>
<polygon style="fill:black;stroke:black;" points="2239.74,-1754.28 2247,-1762 2246.14,-1751.44 2239.74,-1754.28"/>
</g>
<!-- ID=Lavietes_Pavilion -->
<g id="node52" class="node"><title>ID=Lavietes_Pavilion</title>
<ellipse style="fill:none;stroke:black;" cx="2064" cy="-1533" rx="162.842" ry="26.163"/>
<text text-anchor="middle" x="2064" y="-1525" style="font-family:Times New Roman;font-size:25.00;">Lavietes Pavilion</text>
</g>
<!-- ID=Harvard_University&#45;&gt;ID=Lavietes_Pavilion -->
<g id="edge52" class="edge"><title>ID=Harvard_University&#45;&gt;ID=Lavietes_Pavilion</title>
<path style="fill:none;stroke:black;" d="M2033,-1267C2040,-1323 2053,-1438 2060,-1497"/>
<polygon style="fill:black;stroke:black;" points="2056.52,-1497.4 2061,-1507 2063.49,-1496.7 2056.52,-1497.4"/>
</g>
<!-- ID=Harvardiana -->
<g id="node79" class="node"><title>ID=Harvardiana</title>
<ellipse style="fill:none;stroke:black;" cx="1767" cy="-1482" rx="123.951" ry="26.163"/>
<text text-anchor="middle" x="1767" y="-1474" style="font-family:Times New Roman;font-size:25.00;">Harvardiana</text>
</g>
<!-- ID=Harvard_University&#45;&gt;ID=Harvardiana -->
<g id="edge79" class="edge"><title>ID=Harvard_University&#45;&gt;ID=Harvardiana</title>
<path style="fill:none;stroke:black;" d="M1989,-1267C1935,-1314 1842,-1401 1795,-1449"/>
<polygon style="fill:black;stroke:black;" points="1792.6,-1446.45 1788,-1456 1797.55,-1451.4 1792.6,-1446.45"/>
</g>
<!-- ID=Bridgewater_State_College -->
<g id="node99" class="node"><title>ID=Bridgewater_State_College</title>
<ellipse style="fill:none;stroke:black;" cx="1435" cy="-1355" rx="73.9783" ry="18"/>
<text text-anchor="middle" x="1435" y="-1352.8" style="font-family:Times New Roman;font-size:8.00;">Bridgewater State College</text>
</g>
<!-- ID=Harvard_University&#45;&gt;ID=Bridgewater_State_College -->
<g id="edge100" class="edge"><title>ID=Harvard_University&#45;&gt;ID=Bridgewater_State_College</title>
<path style="fill:none;stroke:black;" d="M1902,-1261C1780,-1285 1599,-1322 1502,-1341"/>
<polygon style="fill:black;stroke:black;" points="1501.12,-1337.61 1492,-1343 1502.49,-1344.47 1501.12,-1337.61"/>
</g>
<!-- ID=Alan_Jay_Lerner -->
<g id="node102" class="node"><title>ID=Alan_Jay_Lerner</title>
<ellipse style="fill:none;stroke:black;" cx="1728" cy="-1153" rx="150.113" ry="26.163"/>
<text text-anchor="middle" x="1728" y="-1145" style="font-family:Times New Roman;font-size:25.00;">Alan Jay Lerner</text>
</g>
<!-- ID=Harvard_University&#45;&gt;ID=Alan_Jay_Lerner -->
<g id="edge103" class="edge"><title>ID=Harvard_University&#45;&gt;ID=Alan_Jay_Lerner</title>
<path style="fill:none;stroke:black;" d="M1929,-1208C1893,-1198 1853,-1187 1818,-1178"/>
<polygon style="fill:black;stroke:black;" points="1818.58,-1174.52 1808,-1175 1816.57,-1181.23 1818.58,-1174.52"/>
</g>
<!-- ID=American_League -->
<g id="node129" class="node"><title>ID=American_League</title>
<ellipse style="fill:none;stroke:black;" cx="2007" cy="-895" rx="167.084" ry="26.163"/>
<text text-anchor="middle" x="2007" y="-887" style="font-family:Times New Roman;font-size:25.00;">American League</text>
</g>
<!-- ID=Harvard_University&#45;&gt;ID=American_League -->
<g id="edge130" class="edge"><title>ID=Harvard_University&#45;&gt;ID=American_League</title>
<path style="fill:none;stroke:black;" d="M2027,-1205C2023,-1142 2014,-999 2010,-931"/>
<polygon style="fill:black;stroke:black;" points="2013.48,-930.602 2009,-921 2006.51,-931.299 2013.48,-930.602"/>
</g>
<!-- ID=The_Sound_and_the_Fury -->
<g id="node156" class="node"><title>ID=The_Sound_and_the_Fury</title>
<ellipse style="fill:none;stroke:black;" cx="2307" cy="-1123" rx="225.067" ry="26.163"/>
<text text-anchor="middle" x="2307" y="-1115" style="font-family:Times New Roman;font-size:25.00;">The Sound and the Fury</text>
</g>
<!-- ID=Harvard_University&#45;&gt;ID=The_Sound_and_the_Fury -->
<g id="edge157" class="edge"><title>ID=Harvard_University&#45;&gt;ID=The_Sound_and_the_Fury</title>
<path style="fill:none;stroke:black;" d="M2101,-1207C2143,-1190 2195,-1168 2236,-1152"/>
<polygon style="fill:black;stroke:black;" points="2237.28,-1155.26 2245,-1148 2234.44,-1148.86 2237.28,-1155.26"/>
</g>
<!-- ID=Cheel_Arena -->
<g id="node178" class="node"><title>ID=Cheel_Arena</title>
<ellipse style="fill:none;stroke:black;" cx="2640" cy="-1176" rx="121.122" ry="26.163"/>
<text text-anchor="middle" x="2640" y="-1168" style="font-family:Times New Roman;font-size:25.00;">Cheel Arena</text>
</g>
<!-- ID=Harvard_University&#45;&gt;ID=Cheel_Arena -->
<g id="edge180" class="edge"><title>ID=Harvard_University&#45;&gt;ID=Cheel_Arena</title>
<path style="fill:none;stroke:black;" d="M2210,-1218C2310,-1208 2432,-1197 2520,-1188"/>
<polygon style="fill:black;stroke:black;" points="2520.4,-1191.48 2530,-1187 2519.7,-1184.51 2520.4,-1191.48"/>
</g>
<!-- ID=January_22 -->
<g id="node10" class="node"><title>ID=January_22</title>
<ellipse style="fill:none;stroke:black;" cx="3471" cy="-1563" rx="53.0608" ry="18"/>
<text text-anchor="middle" x="3471" y="-1559.2" style="font-family:Times New Roman;font-size:12.00;">January 22</text>
</g>
<!-- ID=University_of_Michigan&#45;&gt;ID=January_22 -->
<g id="edge10" class="edge"><title>ID=University_of_Michigan&#45;&gt;ID=January_22</title>
<path style="fill:none;stroke:black;" d="M2510,-1461C2764,-1487 3242,-1539 3410,-1557"/>
<polygon style="fill:black;stroke:black;" points="3409.7,-1560.49 3420,-1558 3410.4,-1553.52 3409.7,-1560.49"/>
</g>
<!-- ID=Biosphere_reserve -->
<g id="node16" class="node"><title>ID=Biosphere_reserve</title>
<ellipse style="fill:none;stroke:black;" cx="3014" cy="-1724" rx="82.882" ry="18"/>
<text text-anchor="middle" x="3014" y="-1720.2" style="font-family:Times New Roman;font-size:12.00;">Biosphere reserve</text>
</g>
<!-- ID=University_of_Michigan&#45;&gt;ID=Biosphere_reserve -->
<g id="edge16" class="edge"><title>ID=University_of_Michigan&#45;&gt;ID=Biosphere_reserve</title>
<path style="fill:none;stroke:black;" d="M2408,-1469C2538,-1524 2848,-1654 2967,-1704"/>
<polygon style="fill:black;stroke:black;" points="2965.44,-1707.14 2976,-1708 2968.28,-1700.74 2965.44,-1707.14"/>
</g>
<!-- ID=University_of_Michigan_Medical_School -->
<g id="node22" class="node"><title>ID=University_of_Michigan_Medical_School</title>
<ellipse style="fill:none;stroke:black;" cx="3441" cy="-2049" rx="161.841" ry="18"/>
<text text-anchor="middle" x="3441" y="-2045.2" style="font-family:Times New Roman;font-size:12.00;">University of Michigan Medical School</text>
</g>
<!-- ID=University_of_Michigan&#45;&gt;ID=University_of_Michigan_Medical_School -->
<g id="edge22" class="edge"><title>ID=University_of_Michigan&#45;&gt;ID=University_of_Michigan_Medical_School</title>
<path style="fill:none;stroke:black;" d="M2394,-1469C2574,-1569 3230,-1932 3400,-2026"/>
<polygon style="fill:black;stroke:black;" points="3398.56,-2029.2 3409,-2031 3401.96,-2023.08 3398.56,-2029.2"/>
</g>
<!-- ID=October_21 -->
<g id="node25" class="node"><title>ID=October_21</title>
<ellipse style="fill:none;stroke:black;" cx="2600" cy="-1814" rx="53.8258" ry="18"/>
<text text-anchor="middle" x="2600" y="-1810.2" style="font-family:Times New Roman;font-size:12.00;">October 21</text>
</g>
<!-- ID=University_of_Michigan&#45;&gt;ID=October_21 -->
<g id="edge25" class="edge"><title>ID=University_of_Michigan&#45;&gt;ID=October_21</title>
<path style="fill:none;stroke:black;" d="M2366,-1470C2412,-1538 2536,-1719 2582,-1788"/>
<polygon style="fill:black;stroke:black;" points="2579.2,-1790.1 2588,-1796 2584.8,-1785.9 2579.2,-1790.1"/>
</g>
<!-- ID=1826 -->
<g id="node13" class="node"><title>ID=1826</title>
<ellipse style="fill:none;stroke:black;" cx="4080" cy="-1894" rx="27" ry="18"/>
<text text-anchor="middle" x="4080" y="-1891.8" style="font-family:Times New Roman;font-size:8.00;">1826</text>
</g>
<!-- ID=January_22&#45;&gt;ID=1826 -->
<g id="edge13" class="edge"><title>ID=January_22&#45;&gt;ID=1826</title>
<path style="fill:none;stroke:black;" d="M3499,-1578C3601,-1633 3946,-1821 4050,-1878"/>
<polygon style="fill:black;stroke:black;" points="4048.56,-1881.2 4059,-1883 4051.96,-1875.08 4048.56,-1881.2"/>
</g>
<!-- ID=Sustainable_use -->
<g id="node19" class="node"><title>ID=Sustainable_use</title>
<ellipse style="fill:none;stroke:black;" cx="4042" cy="-2544" rx="47.9201" ry="18"/>
<text text-anchor="middle" x="4042" y="-2541.8" style="font-family:Times New Roman;font-size:8.00;">Sustainable use</text>
</g>
<!-- ID=Biosphere_reserve&#45;&gt;ID=Sustainable_use -->
<g id="edge19" class="edge"><title>ID=Biosphere_reserve&#45;&gt;ID=Sustainable_use</title>
<path style="fill:none;stroke:black;" d="M3036,-1742C3168,-1847 3864,-2402 4014,-2522"/>
<polygon style="fill:black;stroke:black;" points="4011.9,-2524.8 4022,-2528 4016.1,-2519.2 4011.9,-2524.8"/>
</g>
<!-- ID=January_13 -->
<g id="node28" class="node"><title>ID=January_13</title>
<ellipse style="fill:none;stroke:black;" cx="3347" cy="-2600" rx="35.8748" ry="18"/>
<text text-anchor="middle" x="3347" y="-2597.8" style="font-family:Times New Roman;font-size:8.00;">January 13</text>
</g>
<!-- ID=October_21&#45;&gt;ID=January_13 -->
<g id="edge28" class="edge"><title>ID=October_21&#45;&gt;ID=January_13</title>
<path style="fill:none;stroke:black;" d="M2617,-1832C2715,-1934 3211,-2457 3324,-2575"/>
<polygon style="fill:black;stroke:black;" points="3321.78,-2577.78 3331,-2583 3327.05,-2573.17 3321.78,-2577.78"/>
</g>
<!-- ID=Costa_Mesa -->
<g id="node34" class="node"><title>ID=Costa_Mesa</title>
<ellipse style="fill:none;stroke:black;" cx="2946" cy="-2130" rx="56.8509" ry="18"/>
<text text-anchor="middle" x="2946" y="-2126.2" style="font-family:Times New Roman;font-size:12.00;">Costa Mesa</text>
</g>
<!-- ID=University_of_California,_Irvine&#45;&gt;ID=Costa_Mesa -->
<g id="edge34" class="edge"><title>ID=University_of_California,_Irvine&#45;&gt;ID=Costa_Mesa</title>
<path style="fill:none;stroke:black;" d="M2310,-1814C2441,-1879 2788,-2052 2906,-2110"/>
<polygon style="fill:black;stroke:black;" points="2904.56,-2113.2 2915,-2115 2907.96,-2107.08 2904.56,-2113.2"/>
</g>
<!-- ID=Hong_Kong_University_of_Science_and_Technology -->
<g id="node37" class="node"><title>ID=Hong_Kong_University_of_Science_and_Technology</title>
<ellipse style="fill:none;stroke:black;" cx="2528" cy="-2171" rx="204.795" ry="18"/>
<text text-anchor="middle" x="2528" y="-2167.2" style="font-family:Times New Roman;font-size:12.00;">Hong Kong University of Science and Technology</text>
</g>
<!-- ID=University_of_California,_Irvine&#45;&gt;ID=Hong_Kong_University_of_Science_and_Technology -->
<g id="edge37" class="edge"><title>ID=University_of_California,_Irvine&#45;&gt;ID=Hong_Kong_University_of_Science_and_Technology</title>
<path style="fill:none;stroke:black;" d="M2276,-1814C2325,-1884 2459,-2074 2509,-2145"/>
<polygon style="fill:black;stroke:black;" points="2506.2,-2147.1 2515,-2153 2511.8,-2142.9 2506.2,-2147.1"/>
</g>
<!-- ID=Glen_David_Gold -->
<g id="node43" class="node"><title>ID=Glen_David_Gold</title>
<ellipse style="fill:none;stroke:black;" cx="1889" cy="-1820" rx="74.0375" ry="18"/>
<text text-anchor="middle" x="1889" y="-1816.2" style="font-family:Times New Roman;font-size:12.00;">Glen David Gold</text>
</g>
<!-- ID=University_of_California,_Irvine&#45;&gt;ID=Glen_David_Gold -->
<g id="edge43" class="edge"><title>ID=University_of_California,_Irvine&#45;&gt;ID=Glen_David_Gold</title>
<path style="fill:none;stroke:black;" d="M2052,-1806C2022,-1809 1994,-1811 1969,-1813"/>
<polygon style="fill:black;stroke:black;" points="1968.6,-1809.52 1959,-1814 1969.3,-1816.49 1968.6,-1809.52"/>
</g>
<!-- ID=2008_February_16 -->
<g id="node49" class="node"><title>ID=2008_February_16</title>
<ellipse style="fill:none;stroke:black;" cx="2181" cy="-2137" rx="79.0906" ry="18"/>
<text text-anchor="middle" x="2181" y="-2133.2" style="font-family:Times New Roman;font-size:12.00;">2008 February 16</text>
</g>
<!-- ID=University_of_California,_Irvine&#45;&gt;ID=2008_February_16 -->
<g id="edge49" class="edge"><title>ID=University_of_California,_Irvine&#45;&gt;ID=2008_February_16</title>
<path style="fill:none;stroke:black;" d="M2252,-1814C2238,-1878 2202,-2042 2187,-2109"/>
<polygon style="fill:black;stroke:black;" points="2183.53,-2108.51 2185,-2119 2190.39,-2109.88 2183.53,-2108.51"/>
</g>
<!-- ID=Zhejiang_University -->
<g id="node40" class="node"><title>ID=Zhejiang_University</title>
<ellipse style="fill:none;stroke:black;" cx="2833" cy="-2622" rx="58.8897" ry="18"/>
<text text-anchor="middle" x="2833" y="-2619.8" style="font-family:Times New Roman;font-size:8.00;">Zhejiang University</text>
</g>
<!-- ID=Hong_Kong_University_of_Science_and_Technology&#45;&gt;ID=Zhejiang_University -->
<g id="edge40" class="edge"><title>ID=Hong_Kong_University_of_Science_and_Technology&#45;&gt;ID=Zhejiang_University</title>
<path style="fill:none;stroke:black;" d="M2540,-2189C2587,-2259 2759,-2513 2815,-2596"/>
<polygon style="fill:black;stroke:black;" points="2812.2,-2598.1 2821,-2604 2817.8,-2593.9 2812.2,-2598.1"/>
</g>
<!-- ID=Alice_Sebold -->
<g id="node46" class="node"><title>ID=Alice_Sebold</title>
<ellipse style="fill:none;stroke:black;" cx="2405" cy="-2629" rx="38.7629" ry="18"/>
<text text-anchor="middle" x="2405" y="-2626.8" style="font-family:Times New Roman;font-size:8.00;">Alice Sebold</text>
</g>
<!-- ID=Glen_David_Gold&#45;&gt;ID=Alice_Sebold -->
<g id="edge46" class="edge"><title>ID=Glen_David_Gold&#45;&gt;ID=Alice_Sebold</title>
<path style="fill:none;stroke:black;" d="M1901,-1838C1968,-1943 2309,-2478 2389,-2603"/>
<polygon style="fill:black;stroke:black;" points="2386.08,-2604.96 2394,-2612 2392.2,-2601.56 2386.08,-2604.96"/>
</g>
<!-- ID=Basketball -->
<g id="node55" class="node"><title>ID=Basketball</title>
<ellipse style="fill:none;stroke:black;" cx="1514" cy="-1745" rx="51.9298" ry="18"/>
<text text-anchor="middle" x="1514" y="-1741.2" style="font-family:Times New Roman;font-size:12.00;">Basketball</text>
</g>
<!-- ID=Lavietes_Pavilion&#45;&gt;ID=Basketball -->
<g id="edge55" class="edge"><title>ID=Lavietes_Pavilion&#45;&gt;ID=Basketball</title>
<path style="fill:none;stroke:black;" d="M2001,-1557C1889,-1601 1656,-1691 1559,-1728"/>
<polygon style="fill:black;stroke:black;" points="1556.98,-1725.04 1549,-1732 1559.58,-1731.54 1556.98,-1725.04"/>
</g>
<!-- ID=Arena -->
<g id="node61" class="node"><title>ID=Arena</title>
<ellipse style="fill:none;stroke:black;" cx="1860" cy="-2175" rx="34.1105" ry="18"/>
<text text-anchor="middle" x="1860" y="-2171.2" style="font-family:Times New Roman;font-size:12.00;">Arena</text>
</g>
<!-- ID=Lavietes_Pavilion&#45;&gt;ID=Arena -->
<g id="edge61" class="edge"><title>ID=Lavietes_Pavilion&#45;&gt;ID=Arena</title>
<path style="fill:none;stroke:black;" d="M2056,-1559C2022,-1663 1902,-2042 1869,-2147"/>
<polygon style="fill:black;stroke:black;" points="1865.52,-2146.42 1866,-2157 1872.23,-2148.43 1865.52,-2146.42"/>
</g>
<!-- ID=Cambridge,_Massachusetts -->
<g id="node67" class="node"><title>ID=Cambridge,_Massachusetts</title>
<ellipse style="fill:none;stroke:black;" cx="1525" cy="-2130" rx="118.887" ry="18"/>
<text text-anchor="middle" x="1525" y="-2126.2" style="font-family:Times New Roman;font-size:12.00;">Cambridge, Massachusetts</text>
</g>
<!-- ID=Lavietes_Pavilion&#45;&gt;ID=Cambridge,_Massachusetts -->
<g id="edge67" class="edge"><title>ID=Lavietes_Pavilion&#45;&gt;ID=Cambridge,_Massachusetts</title>
<path style="fill:none;stroke:black;" d="M2040,-1559C1951,-1657 1637,-2006 1548,-2104"/>
<polygon style="fill:black;stroke:black;" points="1544.95,-2102.17 1541,-2112 1550.22,-2106.78 1544.95,-2102.17"/>
</g>
<!-- ID=Cornell_University -->
<g id="node73" class="node"><title>ID=Cornell_University</title>
<ellipse style="fill:none;stroke:black;" cx="1108" cy="-1619" rx="82.1179" ry="18"/>
<text text-anchor="middle" x="1108" y="-1615.2" style="font-family:Times New Roman;font-size:12.00;">Cornell University</text>
</g>
<!-- ID=Lavietes_Pavilion&#45;&gt;ID=Cornell_University -->
<g id="edge73" class="edge"><title>ID=Lavietes_Pavilion&#45;&gt;ID=Cornell_University</title>
<path style="fill:none;stroke:black;" d="M1922,-1546C1721,-1565 1359,-1597 1194,-1611"/>
<polygon style="fill:black;stroke:black;" points="1193.6,-1607.52 1184,-1612 1194.3,-1614.49 1193.6,-1607.52"/>
</g>
<!-- ID=2006 -->
<g id="node58" class="node"><title>ID=2006</title>
<ellipse style="fill:none;stroke:black;" cx="2036" cy="-2622" rx="27" ry="18"/>
<text text-anchor="middle" x="2036" y="-2619.8" style="font-family:Times New Roman;font-size:8.00;">2006</text>
</g>
<!-- ID=Basketball&#45;&gt;ID=2006 -->
<g id="edge58" class="edge"><title>ID=Basketball&#45;&gt;ID=2006</title>
<path style="fill:none;stroke:black;" d="M1525,-1763C1590,-1874 1942,-2465 2021,-2596"/>
<polygon style="fill:black;stroke:black;" points="2018.08,-2597.96 2026,-2605 2024.2,-2594.56 2018.08,-2597.96"/>
</g>
<!-- ID=NHL -->
<g id="node64" class="node"><title>ID=NHL</title>
<ellipse style="fill:none;stroke:black;" cx="1659" cy="-2628" rx="27" ry="18"/>
<text text-anchor="middle" x="1659" y="-2625.8" style="font-family:Times New Roman;font-size:8.00;">NHL</text>
</g>
<!-- ID=Arena&#45;&gt;ID=NHL -->
<g id="edge64" class="edge"><title>ID=Arena&#45;&gt;ID=NHL</title>
<path style="fill:none;stroke:black;" d="M1852,-2193C1821,-2263 1708,-2517 1671,-2601"/>
<polygon style="fill:black;stroke:black;" points="1667.86,-2599.44 1667,-2610 1674.26,-2602.28 1667.86,-2599.44"/>
</g>
<!-- ID=Central_Square -->
<g id="node70" class="node"><title>ID=Central_Square</title>
<ellipse style="fill:none;stroke:black;" cx="1238" cy="-2605" rx="46.8444" ry="18"/>
<text text-anchor="middle" x="1238" y="-2602.8" style="font-family:Times New Roman;font-size:8.00;">Central Square</text>
</g>
<!-- ID=Cambridge,_Massachusetts&#45;&gt;ID=Central_Square -->
<g id="edge70" class="edge"><title>ID=Cambridge,_Massachusetts&#45;&gt;ID=Central_Square</title>
<path style="fill:none;stroke:black;" d="M1514,-2148C1471,-2221 1306,-2493 1254,-2578"/>
<polygon style="fill:black;stroke:black;" points="1250.8,-2576.56 1249,-2587 1256.92,-2579.96 1250.8,-2576.56"/>
</g>
<!-- ID=Date_of_establishment -->
<g id="node76" class="node"><title>ID=Date_of_establishment</title>
<ellipse style="fill:none;stroke:black;" cx="744" cy="-2573" rx="63.0085" ry="18"/>
<text text-anchor="middle" x="744" y="-2570.8" style="font-family:Times New Roman;font-size:8.00;">Date of establishment</text>
</g>
<!-- ID=Cornell_University&#45;&gt;ID=Date_of_establishment -->
<g id="edge76" class="edge"><title>ID=Cornell_University&#45;&gt;ID=Date_of_establishment</title>
<path style="fill:none;stroke:black;" d="M1101,-1637C1056,-1754 809,-2404 755,-2546"/>
<polygon style="fill:black;stroke:black;" points="751.863,-2544.44 751,-2555 758.26,-2547.28 751.863,-2544.44"/>
</g>
<!-- ID=Harvardiana&#45;&gt;ID=Harvard_University -->
<g id="edge97" class="edge"><title>ID=Harvardiana&#45;&gt;ID=Harvard_University</title>
<path style="fill:none;stroke:black;" d="M1800,-1457C1850,-1413 1944,-1325 1995,-1274"/>
<polygon style="fill:black;stroke:black;" points="1997.4,-1276.55 2002,-1267 1992.45,-1271.6 1997.4,-1276.55"/>
</g>
<!-- ID=Articles_with_unsourced_statements_since_February_2007 -->
<g id="node82" class="node"><title>ID=Articles_with_unsourced_statements_since_February_2007</title>
<ellipse style="fill:none;stroke:black;" cx="1132" cy="-2069" rx="236.879" ry="18"/>
<text text-anchor="middle" x="1132" y="-2065.2" style="font-family:Times New Roman;font-size:12.00;">Articles with unsourced statements since February 2007</text>
</g>
<!-- ID=Harvardiana&#45;&gt;ID=Articles_with_unsourced_statements_since_February_2007 -->
<g id="edge82" class="edge"><title>ID=Harvardiana&#45;&gt;ID=Articles_with_unsourced_statements_since_February_2007</title>
<path style="fill:none;stroke:black;" d="M1739,-1508C1635,-1604 1263,-1948 1159,-2044"/>
<polygon style="fill:black;stroke:black;" points="1156.6,-2041.45 1152,-2051 1161.55,-2046.4 1156.6,-2041.45"/>
</g>
<!-- ID=1835 -->
<g id="node85" class="node"><title>ID=1835</title>
<ellipse style="fill:none;stroke:black;" cx="670" cy="-1966" rx="29.0571" ry="18"/>
<text text-anchor="middle" x="670" y="-1962.2" style="font-family:Times New Roman;font-size:12.00;">1835</text>
</g>
<!-- ID=Harvardiana&#45;&gt;ID=1835 -->
<g id="edge85" class="edge"><title>ID=Harvardiana&#45;&gt;ID=1835</title>
<path style="fill:none;stroke:black;" d="M1714,-1506C1520,-1590 860,-1882 704,-1951"/>
<polygon style="fill:black;stroke:black;" points="701.985,-1948.04 694,-1955 704.585,-1954.54 701.985,-1948.04"/>
</g>
<!-- ID=1911 -->
<g id="node91" class="node"><title>ID=1911</title>
<ellipse style="fill:none;stroke:black;" cx="660" cy="-1427" rx="29.0571" ry="18"/>
<text text-anchor="middle" x="660" y="-1423.2" style="font-family:Times New Roman;font-size:12.00;">1911</text>
</g>
<!-- ID=Harvardiana&#45;&gt;ID=1911 -->
<g id="edge91" class="edge"><title>ID=Harvardiana&#45;&gt;ID=1911</title>
<path style="fill:none;stroke:black;" d="M1646,-1476C1400,-1464 851,-1436 699,-1429"/>
<polygon style="fill:black;stroke:black;" points="699.299,-1425.51 689,-1428 698.602,-1432.48 699.299,-1425.51"/>
</g>
<!-- ID=Pope_Pius_X -->
<g id="node88" class="node"><title>ID=Pope_Pius_X</title>
<ellipse style="fill:none;stroke:black;" cx="73" cy="-2531" rx="38.1051" ry="18"/>
<text text-anchor="middle" x="73" y="-2528.8" style="font-family:Times New Roman;font-size:8.00;">Pope Pius X</text>
</g>
<!-- ID=1835&#45;&gt;ID=Pope_Pius_X -->
<g id="edge88" class="edge"><title>ID=1835&#45;&gt;ID=Pope_Pius_X</title>
<path style="fill:none;stroke:black;" d="M654,-1981C572,-2059 198,-2413 98,-2508"/>
<polygon style="fill:black;stroke:black;" points="95.221,-2505.78 90,-2515 99.8306,-2511.05 95.221,-2505.78"/>
</g>
<!-- ID=Otakar_Vávra -->
<g id="node94" class="node"><title>ID=Otakar_Vávra</title>
<ellipse style="fill:none;stroke:black;" cx="44" cy="-1861" rx="42.8036" ry="18"/>
<text text-anchor="middle" x="44" y="-1858.8" style="font-family:Times New Roman;font-size:8.00;">Otakar Vávra</text>
</g>
<!-- ID=1911&#45;&gt;ID=Otakar_Vávra -->
<g id="edge94" class="edge"><title>ID=1911&#45;&gt;ID=Otakar_Vávra</title>
<path style="fill:none;stroke:black;" d="M641,-1441C551,-1503 183,-1763 74,-1839"/>
<polygon style="fill:black;stroke:black;" points="71.9,-1836.2 66,-1845 76.1,-1841.8 71.9,-1836.2"/>
</g>
<!-- ID=Great_American_Songbook -->
<g id="node105" class="node"><title>ID=Great_American_Songbook</title>
<ellipse style="fill:none;stroke:black;" cx="1061" cy="-1147" rx="114.965" ry="18"/>
<text text-anchor="middle" x="1061" y="-1143.2" style="font-family:Times New Roman;font-size:12.00;">Great American Songbook</text>
</g>
<!-- ID=Alan_Jay_Lerner&#45;&gt;ID=Great_American_Songbook -->
<g id="edge106" class="edge"><title>ID=Alan_Jay_Lerner&#45;&gt;ID=Great_American_Songbook</title>
<path style="fill:none;stroke:black;" d="M1578,-1152C1460,-1151 1297,-1149 1186,-1148"/>
<polygon style="fill:black;stroke:black;" points="1186,-1144.5 1176,-1148 1186,-1151.5 1186,-1144.5"/>
</g>
<!-- ID=Find_A_Grave -->
<g id="node111" class="node"><title>ID=Find_A_Grave</title>
<ellipse style="fill:none;stroke:black;" cx="656" cy="-850" rx="62.0357" ry="18"/>
<text text-anchor="middle" x="656" y="-846.2" style="font-family:Times New Roman;font-size:12.00;">Find A Grave</text>
</g>
<!-- ID=Alan_Jay_Lerner&#45;&gt;ID=Find_A_Grave -->
<g id="edge112" class="edge"><title>ID=Alan_Jay_Lerner&#45;&gt;ID=Find_A_Grave</title>
<path style="fill:none;stroke:black;" d="M1649,-1131C1442,-1072 887,-915 711,-866"/>
<polygon style="fill:black;stroke:black;" points="711.584,-862.521 701,-863 709.573,-869.226 711.584,-862.521"/>
</g>
<!-- ID=Lyricist -->
<g id="node117" class="node"><title>ID=Lyricist</title>
<ellipse style="fill:none;stroke:black;" cx="1069" cy="-623" rx="39.7956" ry="18"/>
<text text-anchor="middle" x="1069" y="-619.2" style="font-family:Times New Roman;font-size:12.00;">Lyricist</text>
</g>
<!-- ID=Alan_Jay_Lerner&#45;&gt;ID=Lyricist -->
<g id="edge118" class="edge"><title>ID=Alan_Jay_Lerner&#45;&gt;ID=Lyricist</title>
<path style="fill:none;stroke:black;" d="M1696,-1127C1584,-1037 1203,-731 1097,-645"/>
<polygon style="fill:black;stroke:black;" points="1099.1,-642.2 1089,-639 1094.9,-647.8 1099.1,-642.2"/>
</g>
<!-- ID=Chris_Connor -->
<g id="node123" class="node"><title>ID=Chris_Connor</title>
<ellipse style="fill:none;stroke:black;" cx="1397" cy="-946" rx="63.1676" ry="18"/>
<text text-anchor="middle" x="1397" y="-942.2" style="font-family:Times New Roman;font-size:12.00;">Chris Connor</text>
</g>
<!-- ID=Alan_Jay_Lerner&#45;&gt;ID=Chris_Connor -->
<g id="edge124" class="edge"><title>ID=Alan_Jay_Lerner&#45;&gt;ID=Chris_Connor</title>
<path style="fill:none;stroke:black;" d="M1688,-1128C1622,-1087 1494,-1007 1432,-968"/>
<polygon style="fill:black;stroke:black;" points="1433.26,-964.635 1423,-962 1429.38,-970.459 1433.26,-964.635"/>
</g>
<!-- ID=Nat_King_Cole -->
<g id="node108" class="node"><title>ID=Nat_King_Cole</title>
<ellipse style="fill:none;stroke:black;" cx="50" cy="-1282" rx="43.8786" ry="18"/>
<text text-anchor="middle" x="50" y="-1279.8" style="font-family:Times New Roman;font-size:8.00;">Nat King Cole</text>
</g>
<!-- ID=Great_American_Songbook&#45;&gt;ID=Nat_King_Cole -->
<g id="edge109" class="edge"><title>ID=Great_American_Songbook&#45;&gt;ID=Nat_King_Cole</title>
<path style="fill:none;stroke:black;" d="M973,-1159C769,-1185 266,-1253 102,-1275"/>
<polygon style="fill:black;stroke:black;" points="101.602,-1271.52 92,-1276 102.299,-1278.49 101.602,-1271.52"/>
</g>
<!-- ID=Europe -->
<g id="node114" class="node"><title>ID=Europe</title>
<ellipse style="fill:none;stroke:black;" cx="54" cy="-718" rx="27" ry="18"/>
<text text-anchor="middle" x="54" y="-715.8" style="font-family:Times New Roman;font-size:8.00;">Europe</text>
</g>
<!-- ID=Find_A_Grave&#45;&gt;ID=Europe -->
<g id="edge115" class="edge"><title>ID=Find_A_Grave&#45;&gt;ID=Europe</title>
<path style="fill:none;stroke:black;" d="M606,-839C488,-814 192,-749 90,-726"/>
<polygon style="fill:black;stroke:black;" points="90.4922,-722.529 80,-724 89.1194,-729.393 90.4922,-722.529"/>
</g>
<!-- ID=Diane_Warren -->
<g id="node120" class="node"><title>ID=Diane_Warren</title>
<ellipse style="fill:none;stroke:black;" cx="69" cy="-92" rx="43.9565" ry="18"/>
<text text-anchor="middle" x="69" y="-89.8" style="font-family:Times New Roman;font-size:8.00;">Diane Warren</text>
</g>
<!-- ID=Lyricist&#45;&gt;ID=Diane_Warren -->
<g id="edge121" class="edge"><title>ID=Lyricist&#45;&gt;ID=Diane_Warren</title>
<path style="fill:none;stroke:black;" d="M1043,-609C906,-536 264,-196 105,-111"/>
<polygon style="fill:black;stroke:black;" points="106.441,-107.797 96,-106 103.042,-113.916 106.441,-107.797"/>
</g>
<!-- ID=Father -->
<g id="node126" class="node"><title>ID=Father</title>
<ellipse style="fill:none;stroke:black;" cx="703" cy="-145" rx="27" ry="18"/>
<text text-anchor="middle" x="703" y="-142.8" style="font-family:Times New Roman;font-size:8.00;">Father</text>
</g>
<!-- ID=Chris_Connor&#45;&gt;ID=Father -->
<g id="edge127" class="edge"><title>ID=Chris_Connor&#45;&gt;ID=Father</title>
<path style="fill:none;stroke:black;" d="M1382,-929C1291,-825 827,-289 724,-169"/>
<polygon style="fill:black;stroke:black;" points="726.219,-166.221 717,-161 720.951,-170.831 726.219,-166.221"/>
</g>
<!-- ID=Bobby_Brown_(baseball) -->
<g id="node132" class="node"><title>ID=Bobby_Brown_(baseball)</title>
<ellipse style="fill:none;stroke:black;" cx="1713" cy="-820" rx="104.99" ry="18"/>
<text text-anchor="middle" x="1713" y="-816.2" style="font-family:Times New Roman;font-size:12.00;">Bobby Brown (baseball)</text>
</g>
<!-- ID=American_League&#45;&gt;ID=Bobby_Brown_(baseball) -->
<g id="edge133" class="edge"><title>ID=American_League&#45;&gt;ID=Bobby_Brown_(baseball)</title>
<path style="fill:none;stroke:black;" d="M1920,-873C1876,-862 1823,-848 1781,-838"/>
<polygon style="fill:black;stroke:black;" points="1781.58,-834.521 1771,-835 1779.57,-841.226 1781.58,-834.521"/>
</g>
<!-- ID=Federal_League -->
<g id="node138" class="node"><title>ID=Federal_League</title>
<ellipse style="fill:none;stroke:black;" cx="1465" cy="-509" rx="72.1418" ry="18"/>
<text text-anchor="middle" x="1465" y="-505.2" style="font-family:Times New Roman;font-size:12.00;">Federal League</text>
</g>
<!-- ID=American_League&#45;&gt;ID=Federal_League -->
<g id="edge139" class="edge"><title>ID=American_League&#45;&gt;ID=Federal_League</title>
<path style="fill:none;stroke:black;" d="M1971,-869C1871,-798 1593,-600 1497,-532"/>
<polygon style="fill:black;stroke:black;" points="1499.1,-529.2 1489,-526 1494.9,-534.8 1499.1,-529.2"/>
</g>
<!-- ID=Professional_baseball -->
<g id="node144" class="node"><title>ID=Professional_baseball</title>
<ellipse style="fill:none;stroke:black;" cx="1838" cy="-488" rx="94.8837" ry="18"/>
<text text-anchor="middle" x="1838" y="-484.2" style="font-family:Times New Roman;font-size:12.00;">Professional baseball</text>
</g>
<!-- ID=American_League&#45;&gt;ID=Professional_baseball -->
<g id="edge145" class="edge"><title>ID=American_League&#45;&gt;ID=Professional_baseball</title>
<path style="fill:none;stroke:black;" d="M1996,-869C1966,-796 1880,-591 1850,-516"/>
<polygon style="fill:black;stroke:black;" points="1852.96,-513.985 1846,-506 1846.46,-516.585 1852.96,-513.985"/>
</g>
<!-- ID=American_League_Championship_Series -->
<g id="node150" class="node"><title>ID=American_League_Championship_Series</title>
<ellipse style="fill:none;stroke:black;" cx="2164" cy="-484" rx="166.763" ry="18"/>
<text text-anchor="middle" x="2164" y="-480.2" style="font-family:Times New Roman;font-size:12.00;">American League Championship Series</text>
</g>
<!-- ID=American_League&#45;&gt;ID=American_League_Championship_Series -->
<g id="edge151" class="edge"><title>ID=American_League&#45;&gt;ID=American_League_Championship_Series</title>
<path style="fill:none;stroke:black;" d="M2017,-869C2045,-796 2125,-587 2153,-511"/>
<polygon style="fill:black;stroke:black;" points="2156.14,-512.56 2157,-502 2149.74,-509.717 2156.14,-512.56"/>
</g>
<!-- ID=Stanford_University -->
<g id="node135" class="node"><title>ID=Stanford_University</title>
<ellipse style="fill:none;stroke:black;" cx="1178" cy="-41" rx="57.814" ry="18"/>
<text text-anchor="middle" x="1178" y="-38.8" style="font-family:Times New Roman;font-size:8.00;">Stanford University</text>
</g>
<!-- ID=Bobby_Brown_(baseball)&#45;&gt;ID=Stanford_University -->
<g id="edge136" class="edge"><title>ID=Bobby_Brown_(baseball)&#45;&gt;ID=Stanford_University</title>
<path style="fill:none;stroke:black;" d="M1701,-802C1630,-700 1280,-189 1196,-67"/>
<polygon style="fill:black;stroke:black;" points="1198.8,-64.9 1190,-59 1193.2,-69.1 1198.8,-64.9"/>
</g>
<!-- ID=Continental_Baseball_League -->
<g id="node141" class="node"><title>ID=Continental_Baseball_League</title>
<ellipse style="fill:none;stroke:black;" cx="1620" cy="-26" rx="80.829" ry="18"/>
<text text-anchor="middle" x="1620" y="-23.8" style="font-family:Times New Roman;font-size:8.00;">Continental Baseball League</text>
</g>
<!-- ID=Federal_League&#45;&gt;ID=Continental_Baseball_League -->
<g id="edge142" class="edge"><title>ID=Federal_League&#45;&gt;ID=Continental_Baseball_League</title>
<path style="fill:none;stroke:black;" d="M1471,-491C1494,-418 1583,-142 1611,-54"/>
<polygon style="fill:black;stroke:black;" points="1614.48,-54.584 1614,-44 1607.77,-52.5725 1614.48,-54.584"/>
</g>
<!-- ID=Western_Baseball_League -->
<g id="node147" class="node"><title>ID=Western_Baseball_League</title>
<ellipse style="fill:none;stroke:black;" cx="2006" cy="-22" rx="71.0141" ry="18"/>
<text text-anchor="middle" x="2006" y="-19.8" style="font-family:Times New Roman;font-size:8.00;">Western Baseball League</text>
</g>
<!-- ID=Professional_baseball&#45;&gt;ID=Western_Baseball_League -->
<g id="edge148" class="edge"><title>ID=Professional_baseball&#45;&gt;ID=Western_Baseball_League</title>
<path style="fill:none;stroke:black;" d="M1844,-470C1870,-399 1965,-136 1996,-49"/>
<polygon style="fill:black;stroke:black;" points="1999.16,-50.5937 1999,-40 1992.52,-48.38 1999.16,-50.5937"/>
</g>
<!-- ID=Mariano_Rivera -->
<g id="node153" class="node"><title>ID=Mariano_Rivera</title>
<ellipse style="fill:none;stroke:black;" cx="2389" cy="-19" rx="47.9974" ry="18"/>
<text text-anchor="middle" x="2389" y="-16.8" style="font-family:Times New Roman;font-size:8.00;">Mariano Rivera</text>
</g>
<!-- ID=American_League_Championship_Series&#45;&gt;ID=Mariano_Rivera -->
<g id="edge154" class="edge"><title>ID=American_League_Championship_Series&#45;&gt;ID=Mariano_Rivera</title>
<path style="fill:none;stroke:black;" d="M2173,-466C2208,-395 2335,-132 2376,-46"/>
<polygon style="fill:black;stroke:black;" points="2379.14,-47.5596 2380,-37 2372.74,-44.7166 2379.14,-47.5596"/>
</g>
<!-- ID=High_school -->
<g id="node159" class="node"><title>ID=High_school</title>
<ellipse style="fill:none;stroke:black;" cx="2293" cy="-805" rx="56.8509" ry="18"/>
<text text-anchor="middle" x="2293" y="-801.2" style="font-family:Times New Roman;font-size:12.00;">High school</text>
</g>
<!-- ID=The_Sound_and_the_Fury&#45;&gt;ID=High_school -->
<g id="edge160" class="edge"><title>ID=The_Sound_and_the_Fury&#45;&gt;ID=High_school</title>
<path style="fill:none;stroke:black;" d="M2306,-1097C2304,-1038 2297,-894 2294,-833"/>
<polygon style="fill:black;stroke:black;" points="2297.5,-833 2294,-823 2290.5,-833 2297.5,-833"/>
</g>
<!-- ID=Quentin_Compson -->
<g id="node165" class="node"><title>ID=Quentin_Compson</title>
<ellipse style="fill:none;stroke:black;" cx="2529" cy="-476" rx="80.9863" ry="18"/>
<text text-anchor="middle" x="2529" y="-472.2" style="font-family:Times New Roman;font-size:12.00;">Quentin Compson</text>
</g>
<!-- ID=The_Sound_and_the_Fury&#45;&gt;ID=Quentin_Compson -->
<g id="edge166" class="edge"><title>ID=The_Sound_and_the_Fury&#45;&gt;ID=Quentin_Compson</title>
<path style="fill:none;stroke:black;" d="M2319,-1097C2360,-993 2490,-611 2522,-504"/>
<polygon style="fill:black;stroke:black;" points="2525.48,-504.584 2525,-494 2518.77,-502.573 2525.48,-504.584"/>
</g>
<!-- ID=Narrative_point&#45;of&#45;view -->
<g id="node169" class="node"><title>ID=Narrative_point&#45;of&#45;view</title>
<ellipse style="fill:none;stroke:black;" cx="2948" cy="-518" rx="101.068" ry="18"/>
<text text-anchor="middle" x="2948" y="-514.2" style="font-family:Times New Roman;font-size:12.00;">Narrative point&#45;of&#45;view</text>
</g>
<!-- ID=The_Sound_and_the_Fury&#45;&gt;ID=Narrative_point&#45;of&#45;view -->
<g id="edge171" class="edge"><title>ID=The_Sound_and_the_Fury&#45;&gt;ID=Narrative_point&#45;of&#45;view</title>
<path style="fill:none;stroke:black;" d="M2335,-1097C2440,-998 2818,-641 2921,-543"/>
<polygon style="fill:black;stroke:black;" points="2923.78,-545.219 2929,-536 2919.17,-539.951 2923.78,-545.219"/>
</g>
<!-- ID=The_Reivers -->
<g id="node172" class="node"><title>ID=The_Reivers</title>
<ellipse style="fill:none;stroke:black;" cx="2622" cy="-844" rx="56.9827" ry="18"/>
<text text-anchor="middle" x="2622" y="-840.2" style="font-family:Times New Roman;font-size:12.00;">The Reivers</text>
</g>
<!-- ID=The_Sound_and_the_Fury&#45;&gt;ID=The_Reivers -->
<g id="edge174" class="edge"><title>ID=The_Sound_and_the_Fury&#45;&gt;ID=The_Reivers</title>
<path style="fill:none;stroke:black;" d="M2336,-1097C2397,-1044 2537,-920 2595,-868"/>
<polygon style="fill:black;stroke:black;" points="2597.78,-870.219 2603,-861 2593.17,-864.951 2597.78,-870.219"/>
</g>
<!-- ID=Northern_Territory -->
<g id="node162" class="node"><title>ID=Northern_Territory</title>
<ellipse style="fill:none;stroke:black;" cx="2825" cy="-27" rx="57.1577" ry="18"/>
<text text-anchor="middle" x="2825" y="-24.8" style="font-family:Times New Roman;font-size:8.00;">Northern Territory</text>
</g>
<!-- ID=High_school&#45;&gt;ID=Northern_Territory -->
<g id="edge163" class="edge"><title>ID=High_school&#45;&gt;ID=Northern_Territory</title>
<path style="fill:none;stroke:black;" d="M2305,-787C2374,-685 2724,-175 2807,-53"/>
<polygon style="fill:black;stroke:black;" points="2809.8,-55.1 2813,-45 2804.2,-50.9 2809.8,-55.1"/>
</g>
<!-- ID=Quentin_Compson&#45;&gt;ID=The_Sound_and_the_Fury -->
<g id="edge168" class="edge"><title>ID=Quentin_Compson&#45;&gt;ID=The_Sound_and_the_Fury</title>
<path style="fill:none;stroke:black;" d="M2520,-494C2484,-582 2352,-967 2316,-1087"/>
<polygon style="fill:black;stroke:black;" points="2312.52,-1086.42 2313,-1097 2319.23,-1088.43 2312.52,-1086.42"/>
</g>
<!-- ID=Random_House -->
<g id="node175" class="node"><title>ID=Random_House</title>
<ellipse style="fill:none;stroke:black;" cx="3343" cy="-49" rx="45.0333" ry="18"/>
<text text-anchor="middle" x="3343" y="-46.8" style="font-family:Times New Roman;font-size:8.00;">Random House</text>
</g>
<!-- ID=The_Reivers&#45;&gt;ID=Random_House -->
<g id="edge177" class="edge"><title>ID=The_Reivers&#45;&gt;ID=Random_House</title>
<path style="fill:none;stroke:black;" d="M2638,-827C2731,-723 3211,-195 3320,-74"/>
<polygon style="fill:black;stroke:black;" points="3323.05,-75.8306 3327,-66 3317.78,-71.221 3323.05,-75.8306"/>
</g>
<!-- ID=Cornell_Big_Red -->
<g id="node181" class="node"><title>ID=Cornell_Big_Red</title>
<ellipse style="fill:none;stroke:black;" cx="3013" cy="-930" rx="72.1418" ry="18"/>
<text text-anchor="middle" x="3013" y="-926.2" style="font-family:Times New Roman;font-size:12.00;">Cornell Big Red</text>
</g>
<!-- ID=Cheel_Arena&#45;&gt;ID=Cornell_Big_Red -->
<g id="edge183" class="edge"><title>ID=Cheel_Arena&#45;&gt;ID=Cornell_Big_Red</title>
<path style="fill:none;stroke:black;" d="M2678,-1151C2751,-1103 2909,-999 2979,-953"/>
<polygon style="fill:black;stroke:black;" points="2981.1,-955.8 2987,-947 2976.9,-950.2 2981.1,-955.8"/>
</g>
<!-- ID=Rensselaer_Polytechnic_Institute -->
<g id="node187" class="node"><title>ID=Rensselaer_Polytechnic_Institute</title>
<ellipse style="fill:none;stroke:black;" cx="3440" cy="-599" rx="138.969" ry="18"/>
<text text-anchor="middle" x="3440" y="-595.2" style="font-family:Times New Roman;font-size:12.00;">Rensselaer Polytechnic Institute</text>
</g>
<!-- ID=Cheel_Arena&#45;&gt;ID=Rensselaer_Polytechnic_Institute -->
<g id="edge189" class="edge"><title>ID=Cheel_Arena&#45;&gt;ID=Rensselaer_Polytechnic_Institute</title>
<path style="fill:none;stroke:black;" d="M2675,-1151C2807,-1055 3278,-716 3407,-623"/>
<polygon style="fill:black;stroke:black;" points="3409.1,-625.8 3415,-617 3404.9,-620.2 3409.1,-625.8"/>
</g>
<!-- ID=NCAA -->
<g id="node193" class="node"><title>ID=NCAA</title>
<ellipse style="fill:none;stroke:black;" cx="3471" cy="-1084" rx="32.9792" ry="18"/>
<text text-anchor="middle" x="3471" y="-1080.2" style="font-family:Times New Roman;font-size:12.00;">NCAA</text>
</g>
<!-- ID=Cheel_Arena&#45;&gt;ID=NCAA -->
<g id="edge195" class="edge"><title>ID=Cheel_Arena&#45;&gt;ID=NCAA</title>
<path style="fill:none;stroke:black;" d="M2748,-1164C2933,-1144 3303,-1102 3428,-1089"/>
<polygon style="fill:black;stroke:black;" points="3428.4,-1092.48 3438,-1088 3427.7,-1085.51 3428.4,-1092.48"/>
</g>
<!-- ID=Potsdam,_New_York -->
<g id="node196" class="node"><title>ID=Potsdam,_New_York</title>
<ellipse style="fill:none;stroke:black;" cx="3031" cy="-1323" rx="87.1713" ry="18"/>
<text text-anchor="middle" x="3031" y="-1319.2" style="font-family:Times New Roman;font-size:12.00;">Potsdam, New York</text>
</g>
<!-- ID=Cheel_Arena&#45;&gt;ID=Potsdam,_New_York -->
<g id="edge198" class="edge"><title>ID=Cheel_Arena&#45;&gt;ID=Potsdam,_New_York</title>
<path style="fill:none;stroke:black;" d="M2700,-1199C2777,-1228 2907,-1277 2980,-1304"/>
<polygon style="fill:black;stroke:black;" points="2978.41,-1307.16 2989,-1307 2980.62,-1300.52 2978.41,-1307.16"/>
</g>
<!-- ID=University_of_Florida -->
<g id="node184" class="node"><title>ID=University_of_Florida</title>
<ellipse style="fill:none;stroke:black;" cx="4040" cy="-105" rx="60.1208" ry="18"/>
<text text-anchor="middle" x="4040" y="-102.8" style="font-family:Times New Roman;font-size:8.00;">University of Florida</text>
</g>
<!-- ID=Cornell_Big_Red&#45;&gt;ID=University_of_Florida -->
<g id="edge186" class="edge"><title>ID=Cornell_Big_Red&#45;&gt;ID=University_of_Florida</title>
<path style="fill:none;stroke:black;" d="M3034,-913C3166,-807 3859,-250 4011,-128"/>
<polygon style="fill:black;stroke:black;" points="4013.1,-130.8 4019,-122 4008.9,-125.2 4013.1,-130.8"/>
</g>
<!-- ID=Shirley_Ann_Jackson -->
<g id="node190" class="node"><title>ID=Shirley_Ann_Jackson</title>
<ellipse style="fill:none;stroke:black;" cx="4080" cy="-753" rx="60.0444" ry="18"/>
<text text-anchor="middle" x="4080" y="-750.8" style="font-family:Times New Roman;font-size:8.00;">Shirley Ann Jackson</text>
</g>
<!-- ID=Rensselaer_Polytechnic_Institute&#45;&gt;ID=Shirley_Ann_Jackson -->
<g id="edge192" class="edge"><title>ID=Rensselaer_Polytechnic_Institute&#45;&gt;ID=Shirley_Ann_Jackson</title>
<path style="fill:none;stroke:black;" d="M3506,-615C3632,-645 3905,-711 4023,-740"/>
<polygon style="fill:black;stroke:black;" points="4022.51,-743.471 4033,-742 4023.88,-736.607 4022.51,-743.471"/>
</g>
<!-- ID=Potsdam_(village),_New_York -->
<g id="node199" class="node"><title>ID=Potsdam_(village),_New_York</title>
<ellipse style="fill:none;stroke:black;" cx="4083" cy="-1324" rx="78.0195" ry="18"/>
<text text-anchor="middle" x="4083" y="-1321.8" style="font-family:Times New Roman;font-size:8.00;">Potsdam (village), New York</text>
</g>
<!-- ID=Potsdam,_New_York&#45;&gt;ID=Potsdam_(village),_New_York -->
<g id="edge201" class="edge"><title>ID=Potsdam,_New_York&#45;&gt;ID=Potsdam_(village),_New_York</title>
<path style="fill:none;stroke:black;" d="M3118,-1323C3317,-1323 3796,-1324 3995,-1324"/>
<polygon style="fill:black;stroke:black;" points="3995,-1327.5 4005,-1324 3995,-1320.5 3995,-1327.5"/>
</g>
</g>
</svg>
