<?xml version="1.0" encoding="UTF-8" standalone="no"?>
<!DOCTYPE svg PUBLIC "-//W3C//DTD SVG 1.0//EN"
 "http://www.w3.org/TR/2001/REC-SVG-20010904/DTD/svg10.dtd" [
 <!ATTLIST svg xmlns:xlink CDATA #FIXED "http://www.w3.org/1999/xlink">
]>
<!-- Generated by Graphviz version 2.18 (Fri May &#160;2 20:53:13 UTC 2008)
     For user: (lispserver) ,,, -->
<!-- Title: g Pages: 1 -->
<svg width="3495pt" height="2260pt"
 viewBox="0.00 0.00 3495.00 2260.00" xmlns="http://www.w3.org/2000/svg" xmlns:xlink="http://www.w3.org/1999/xlink">
<g id="graph0" class="graph" transform="scale(1 1) rotate(0) translate(4 2256)">
<title>g</title>
<polygon style="fill:white;stroke:white;" points="-4,4 -4,-2256 3491,-2256 3491,4 -4,4"/>
<!-- ID=Harvard_University -->
<g id="node2" class="node"><title>ID=Harvard_University</title>
<ellipse style="fill:none;stroke:black;" cx="1692" cy="-1102" rx="220.117" ry="31.1127"/>
<text text-anchor="middle" x="1692" y="-1093" style="font-family:Times New Roman;font-size:30.00;">Harvard University</text>
</g>
<!-- ID=American_football -->
<g id="node4" class="node"><title>ID=American_football</title>
<ellipse style="fill:none;stroke:black;" cx="2103" cy="-1191" rx="169.205" ry="26.163"/>
<text text-anchor="middle" x="2103" y="-1183" style="font-family:Times New Roman;font-size:25.00;">American football</text>
</g>
<!-- ID=Harvard_University&#45;&gt;ID=American_football -->
<g id="edge4" class="edge"><title>ID=Harvard_University&#45;&gt;ID=American_football</title>
<path style="fill:none;stroke:black;" d="M1812,-1128C1870,-1140 1939,-1155 1995,-1168"/>
<polygon style="fill:black;stroke:black;" points="1994.51,-1171.47 2005,-1170 1995.88,-1164.61 1994.51,-1171.47"/>
</g>
<!-- ID=New_York_Public_Library -->
<g id="node31" class="node"><title>ID=New_York_Public_Library</title>
<ellipse style="fill:none;stroke:black;" cx="1886" cy="-1251" rx="229.103" ry="26.163"/>
<text text-anchor="middle" x="1886" y="-1243" style="font-family:Times New Roman;font-size:25.00;">New York Public Library</text>
</g>
<!-- ID=Harvard_University&#45;&gt;ID=New_York_Public_Library -->
<g id="edge31" class="edge"><title>ID=Harvard_University&#45;&gt;ID=New_York_Public_Library</title>
<path style="fill:none;stroke:black;" d="M1732,-1133C1764,-1158 1811,-1193 1844,-1219"/>
<polygon style="fill:black;stroke:black;" points="1841.9,-1221.8 1852,-1225 1846.1,-1216.2 1841.9,-1221.8"/>
</g>
<!-- ID=University_of_Oregon -->
<g id="node52" class="node"><title>ID=University_of_Oregon</title>
<ellipse style="fill:none;stroke:black;" cx="1680" cy="-1311" rx="197.99" ry="26.163"/>
<text text-anchor="middle" x="1680" y="-1303" style="font-family:Times New Roman;font-size:25.00;">University of Oregon</text>
</g>
<!-- ID=Harvard_University&#45;&gt;ID=University_of_Oregon -->
<g id="edge52" class="edge"><title>ID=Harvard_University&#45;&gt;ID=University_of_Oregon</title>
<path style="fill:none;stroke:black;" d="M1690,-1133C1688,-1172 1685,-1235 1683,-1275"/>
<polygon style="fill:black;stroke:black;" points="1679.51,-1274.7 1682,-1285 1686.48,-1275.4 1679.51,-1274.7"/>
</g>
<!-- ID=Boston_University -->
<g id="node76" class="node"><title>ID=Boston_University</title>
<ellipse style="fill:none;stroke:black;" cx="1481" cy="-1224" rx="169.913" ry="26.163"/>
<text text-anchor="middle" x="1481" y="-1216" style="font-family:Times New Roman;font-size:25.00;">Boston University</text>
</g>
<!-- ID=Harvard_University&#45;&gt;ID=Boston_University -->
<g id="edge76" class="edge"><title>ID=Harvard_University&#45;&gt;ID=Boston_University</title>
<path style="fill:none;stroke:black;" d="M1640,-1132C1607,-1150 1566,-1174 1533,-1194"/>
<polygon style="fill:black;stroke:black;" points="1531.04,-1191.08 1524,-1199 1534.44,-1197.2 1531.04,-1191.08"/>
</g>
<!-- ID=Mascot -->
<g id="node103" class="node"><title>ID=Mascot</title>
<ellipse style="fill:none;stroke:black;" cx="1275" cy="-1096" rx="75.8684" ry="26.163"/>
<text text-anchor="middle" x="1275" y="-1088" style="font-family:Times New Roman;font-size:25.00;">Mascot</text>
</g>
<!-- ID=Harvard_University&#45;&gt;ID=Mascot -->
<g id="edge103" class="edge"><title>ID=Harvard_University&#45;&gt;ID=Mascot</title>
<path style="fill:none;stroke:black;" d="M1473,-1099C1433,-1098 1394,-1097 1361,-1097"/>
<polygon style="fill:black;stroke:black;" points="1361,-1093.5 1351,-1097 1361,-1100.5 1361,-1093.5"/>
</g>
<!-- ID=Trivia_sections -->
<g id="node130" class="node"><title>ID=Trivia_sections</title>
<ellipse style="fill:none;stroke:black;" cx="1286" cy="-818" rx="142.128" ry="26.163"/>
<text text-anchor="middle" x="1286" y="-810" style="font-family:Times New Roman;font-size:25.00;">Trivia sections</text>
</g>
<!-- ID=Harvard_University&#45;&gt;ID=Trivia_sections -->
<g id="edge130" class="edge"><title>ID=Harvard_University&#45;&gt;ID=Trivia_sections</title>
<path style="fill:none;stroke:black;" d="M1649,-1072C1571,-1017 1409,-903 1330,-849"/>
<polygon style="fill:black;stroke:black;" points="1332.1,-846.2 1322,-843 1327.9,-851.8 1332.1,-846.2"/>
</g>
<!-- ID=May_16 -->
<g id="node133" class="node"><title>ID=May_16</title>
<ellipse style="fill:none;stroke:black;" cx="1501" cy="-989" rx="77.7817" ry="26.163"/>
<text text-anchor="middle" x="1501" y="-981" style="font-family:Times New Roman;font-size:25.00;">May 16</text>
</g>
<!-- ID=Harvard_University&#45;&gt;ID=May_16 -->
<g id="edge133" class="edge"><title>ID=Harvard_University&#45;&gt;ID=May_16</title>
<path style="fill:none;stroke:black;" d="M1641,-1072C1612,-1055 1577,-1034 1549,-1017"/>
<polygon style="fill:black;stroke:black;" points="1550.44,-1013.8 1540,-1012 1547.04,-1019.92 1550.44,-1013.8"/>
</g>
<!-- ID=University_of_Chicago -->
<g id="node160" class="node"><title>ID=University_of_Chicago</title>
<ellipse style="fill:none;stroke:black;" cx="1902" cy="-1027" rx="203.146" ry="26.163"/>
<text text-anchor="middle" x="1902" y="-1019" style="font-family:Times New Roman;font-size:25.00;">University of Chicago</text>
</g>
<!-- ID=Harvard_University&#45;&gt;ID=University_of_Chicago -->
<g id="edge160" class="edge"><title>ID=Harvard_University&#45;&gt;ID=University_of_Chicago</title>
<path style="fill:none;stroke:black;" d="M1773,-1073C1790,-1067 1807,-1061 1823,-1055"/>
<polygon style="fill:black;stroke:black;" points="1824.43,-1058.23 1833,-1052 1822.42,-1051.52 1824.43,-1058.23"/>
</g>
<!-- ID=University_of_Michigan -->
<g id="node184" class="node"><title>ID=University_of_Michigan</title>
<ellipse style="fill:none;stroke:black;" cx="2121" cy="-933" rx="214.96" ry="26.163"/>
<text text-anchor="middle" x="2121" y="-925" style="font-family:Times New Roman;font-size:25.00;">University of Michigan</text>
</g>
<!-- ID=Harvard_University&#45;&gt;ID=University_of_Michigan -->
<g id="edge184" class="edge"><title>ID=Harvard_University&#45;&gt;ID=University_of_Michigan</title>
<path style="fill:none;stroke:black;" d="M1766,-1073C1845,-1041 1969,-992 2047,-962"/>
<polygon style="fill:black;stroke:black;" points="2049.02,-964.964 2057,-958 2046.42,-958.464 2049.02,-964.964"/>
</g>
<!-- ID=Canadian_Football_League -->
<g id="node7" class="node"><title>ID=Canadian_Football_League</title>
<ellipse style="fill:none;stroke:black;" cx="2349" cy="-1423" rx="114.965" ry="18"/>
<text text-anchor="middle" x="2349" y="-1419.2" style="font-family:Times New Roman;font-size:12.00;">Canadian Football League</text>
</g>
<!-- ID=American_football&#45;&gt;ID=Canadian_Football_League -->
<g id="edge7" class="edge"><title>ID=American_football&#45;&gt;ID=Canadian_Football_League</title>
<path style="fill:none;stroke:black;" d="M2130,-1217C2177,-1262 2276,-1354 2323,-1398"/>
<polygon style="fill:black;stroke:black;" points="2320.45,-1400.4 2330,-1405 2325.4,-1395.45 2320.45,-1400.4"/>
</g>
<!-- ID=Southern_United_States -->
<g id="node13" class="node"><title>ID=Southern_United_States</title>
<ellipse style="fill:none;stroke:black;" cx="2604" cy="-1301" rx="104.227" ry="18"/>
<text text-anchor="middle" x="2604" y="-1297.2" style="font-family:Times New Roman;font-size:12.00;">Southern United States</text>
</g>
<!-- ID=American_football&#45;&gt;ID=Southern_United_States -->
<g id="edge13" class="edge"><title>ID=American_football&#45;&gt;ID=Southern_United_States</title>
<path style="fill:none;stroke:black;" d="M2200,-1212C2296,-1233 2443,-1265 2530,-1285"/>
<polygon style="fill:black;stroke:black;" points="2529.51,-1288.47 2540,-1287 2530.88,-1281.61 2529.51,-1288.47"/>
</g>
<!-- ID=Ringette -->
<g id="node19" class="node"><title>ID=Ringette</title>
<ellipse style="fill:none;stroke:black;" cx="2776" cy="-1673" rx="44.849" ry="18"/>
<text text-anchor="middle" x="2776" y="-1669.2" style="font-family:Times New Roman;font-size:12.00;">Ringette</text>
</g>
<!-- ID=American_football&#45;&gt;ID=Ringette -->
<g id="edge19" class="edge"><title>ID=American_football&#45;&gt;ID=Ringette</title>
<path style="fill:none;stroke:black;" d="M2139,-1217C2257,-1302 2635,-1572 2746,-1651"/>
<polygon style="fill:black;stroke:black;" points="2743.9,-1653.8 2754,-1657 2748.1,-1648.2 2743.9,-1653.8"/>
</g>
<!-- ID=Canadian_football -->
<g id="node25" class="node"><title>ID=Canadian_football</title>
<ellipse style="fill:none;stroke:black;" cx="2100" cy="-1452" rx="80.8545" ry="18"/>
<text text-anchor="middle" x="2100" y="-1448.2" style="font-family:Times New Roman;font-size:12.00;">Canadian football</text>
</g>
<!-- ID=American_football&#45;&gt;ID=Canadian_football -->
<g id="edge25" class="edge"><title>ID=American_football&#45;&gt;ID=Canadian_football</title>
<path style="fill:none;stroke:black;" d="M2103,-1217C2102,-1267 2101,-1373 2100,-1424"/>
<polygon style="fill:black;stroke:black;" points="2096.5,-1424 2100,-1434 2103.5,-1424 2096.5,-1424"/>
</g>
<!-- ID=2003_CFL_season -->
<g id="node10" class="node"><title>ID=2003_CFL_season</title>
<ellipse style="fill:none;stroke:black;" cx="2964" cy="-1236" rx="50.8068" ry="18"/>
<text text-anchor="middle" x="2964" y="-1233.8" style="font-family:Times New Roman;font-size:8.00;">2003 CFL season</text>
</g>
<!-- ID=Canadian_Football_League&#45;&gt;ID=2003_CFL_season -->
<g id="edge10" class="edge"><title>ID=Canadian_Football_League&#45;&gt;ID=2003_CFL_season</title>
<path style="fill:none;stroke:black;" d="M2402,-1407C2519,-1371 2802,-1285 2915,-1251"/>
<polygon style="fill:black;stroke:black;" points="2916.43,-1254.23 2925,-1248 2914.42,-1247.52 2916.43,-1254.23"/>
</g>
<!-- ID=Arid -->
<g id="node16" class="node"><title>ID=Arid</title>
<ellipse style="fill:none;stroke:black;" cx="3364" cy="-1543" rx="27" ry="18"/>
<text text-anchor="middle" x="3364" y="-1540.8" style="font-family:Times New Roman;font-size:8.00;">Arid</text>
</g>
<!-- ID=Southern_United_States&#45;&gt;ID=Arid -->
<g id="edge16" class="edge"><title>ID=Southern_United_States&#45;&gt;ID=Arid</title>
<path style="fill:none;stroke:black;" d="M2654,-1317C2797,-1363 3208,-1493 3329,-1532"/>
<polygon style="fill:black;stroke:black;" points="3328.42,-1535.48 3339,-1535 3330.43,-1528.77 3328.42,-1535.48"/>
</g>
<!-- ID=Shinty -->
<g id="node22" class="node"><title>ID=Shinty</title>
<ellipse style="fill:none;stroke:black;" cx="3289" cy="-2128" rx="27" ry="18"/>
<text text-anchor="middle" x="3289" y="-2125.8" style="font-family:Times New Roman;font-size:8.00;">Shinty</text>
</g>
<!-- ID=Ringette&#45;&gt;ID=Shinty -->
<g id="edge22" class="edge"><title>ID=Ringette&#45;&gt;ID=Shinty</title>
<path style="fill:none;stroke:black;" d="M2795,-1689C2874,-1759 3177,-2029 3265,-2106"/>
<polygon style="fill:black;stroke:black;" points="3263.17,-2109.05 3273,-2113 3267.78,-2103.78 3263.17,-2109.05"/>
</g>
<!-- ID=Pesäpallo -->
<g id="node28" class="node"><title>ID=Pesäpallo</title>
<ellipse style="fill:none;stroke:black;" cx="2687" cy="-2162" rx="31.8342" ry="18"/>
<text text-anchor="middle" x="2687" y="-2159.8" style="font-family:Times New Roman;font-size:8.00;">Pesäpallo</text>
</g>
<!-- ID=Canadian_football&#45;&gt;ID=Pesäpallo -->
<g id="edge28" class="edge"><title>ID=Canadian_football&#45;&gt;ID=Pesäpallo</title>
<path style="fill:none;stroke:black;" d="M2115,-1470C2195,-1566 2574,-2026 2666,-2137"/>
<polygon style="fill:black;stroke:black;" points="2663.78,-2139.78 2673,-2145 2669.05,-2135.17 2663.78,-2139.78"/>
</g>
<!-- ID=National_Battlefields_and_Military_Parks_of_the_United_States -->
<g id="node34" class="node"><title>ID=National_Battlefields_and_Military_Parks_of_the_United_States</title>
<ellipse style="fill:none;stroke:black;" cx="2374" cy="-1742" rx="250.144" ry="18"/>
<text text-anchor="middle" x="2374" y="-1738.2" style="font-family:Times New Roman;font-size:12.00;">National Battlefields and Military Parks of the United States</text>
</g>
<!-- ID=New_York_Public_Library&#45;&gt;ID=National_Battlefields_and_Military_Parks_of_the_United_States -->
<g id="edge34" class="edge"><title>ID=New_York_Public_Library&#45;&gt;ID=National_Battlefields_and_Military_Parks_of_the_United_States</title>
<path style="fill:none;stroke:black;" d="M1912,-1277C1996,-1362 2265,-1633 2349,-1717"/>
<polygon style="fill:black;stroke:black;" points="2346.45,-1719.4 2356,-1724 2351.4,-1714.45 2346.45,-1719.4"/>
</g>
<!-- ID=Gladiator -->
<g id="node37" class="node"><title>ID=Gladiator</title>
<ellipse style="fill:none;stroke:black;" cx="2066" cy="-1762" rx="46.877" ry="18"/>
<text text-anchor="middle" x="2066" y="-1758.2" style="font-family:Times New Roman;font-size:12.00;">Gladiator</text>
</g>
<!-- ID=New_York_Public_Library&#45;&gt;ID=Gladiator -->
<g id="edge37" class="edge"><title>ID=New_York_Public_Library&#45;&gt;ID=Gladiator</title>
<path style="fill:none;stroke:black;" d="M1895,-1277C1926,-1364 2025,-1645 2057,-1734"/>
<polygon style="fill:black;stroke:black;" points="2053.77,-1735.43 2060,-1744 2060.48,-1733.42 2053.77,-1735.43"/>
</g>
<!-- ID=James_Baldwin -->
<g id="node43" class="node"><title>ID=James_Baldwin</title>
<ellipse style="fill:none;stroke:black;" cx="1883" cy="-1492" rx="68.221" ry="18"/>
<text text-anchor="middle" x="1883" y="-1488.2" style="font-family:Times New Roman;font-size:12.00;">James Baldwin</text>
</g>
<!-- ID=New_York_Public_Library&#45;&gt;ID=James_Baldwin -->
<g id="edge43" class="edge"><title>ID=New_York_Public_Library&#45;&gt;ID=James_Baldwin</title>
<path style="fill:none;stroke:black;" d="M1886,-1277C1885,-1323 1884,-1417 1883,-1464"/>
<polygon style="fill:black;stroke:black;" points="1879.5,-1464 1883,-1474 1886.5,-1464 1879.5,-1464"/>
</g>
<!-- ID=B._Altman -->
<g id="node49" class="node"><title>ID=B._Altman</title>
<ellipse style="fill:none;stroke:black;" cx="1808" cy="-1791" rx="48.7731" ry="18"/>
<text text-anchor="middle" x="1808" y="-1787.2" style="font-family:Times New Roman;font-size:12.00;">B. Altman</text>
</g>
<!-- ID=New_York_Public_Library&#45;&gt;ID=B._Altman -->
<g id="edge49" class="edge"><title>ID=New_York_Public_Library&#45;&gt;ID=B._Altman</title>
<path style="fill:none;stroke:black;" d="M1882,-1277C1869,-1367 1826,-1669 1812,-1763"/>
<polygon style="fill:black;stroke:black;" points="1808.51,-1762.7 1811,-1773 1815.48,-1763.4 1808.51,-1762.7"/>
</g>
<!-- ID=Tempo -->
<g id="node40" class="node"><title>ID=Tempo</title>
<ellipse style="fill:none;stroke:black;" cx="2281" cy="-2181" rx="27" ry="18"/>
<text text-anchor="middle" x="2281" y="-2178.8" style="font-family:Times New Roman;font-size:8.00;">Tempo</text>
</g>
<!-- ID=Gladiator&#45;&gt;ID=Tempo -->
<g id="edge40" class="edge"><title>ID=Gladiator&#45;&gt;ID=Tempo</title>
<path style="fill:none;stroke:black;" d="M2075,-1780C2109,-1845 2228,-2076 2267,-2155"/>
<polygon style="fill:black;stroke:black;" points="2264.08,-2156.96 2272,-2164 2270.2,-2153.56 2264.08,-2156.96"/>
</g>
<!-- ID=Personal_name -->
<g id="node46" class="node"><title>ID=Personal_name</title>
<ellipse style="fill:none;stroke:black;" cx="1963" cy="-2189" rx="45.1095" ry="18"/>
<text text-anchor="middle" x="1963" y="-2186.8" style="font-family:Times New Roman;font-size:8.00;">Personal name</text>
</g>
<!-- ID=James_Baldwin&#45;&gt;ID=Personal_name -->
<g id="edge46" class="edge"><title>ID=James_Baldwin&#45;&gt;ID=Personal_name</title>
<path style="fill:none;stroke:black;" d="M1885,-1510C1897,-1605 1947,-2044 1960,-2161"/>
<polygon style="fill:black;stroke:black;" points="1956.52,-2161.4 1961,-2171 1963.49,-2160.7 1956.52,-2161.4"/>
</g>
<!-- ID=June_1 -->
<g id="node55" class="node"><title>ID=June_1</title>
<ellipse style="fill:none;stroke:black;" cx="1677" cy="-1543" rx="34.8756" ry="18"/>
<text text-anchor="middle" x="1677" y="-1539.2" style="font-family:Times New Roman;font-size:12.00;">June 1</text>
</g>
<!-- ID=University_of_Oregon&#45;&gt;ID=June_1 -->
<g id="edge55" class="edge"><title>ID=University_of_Oregon&#45;&gt;ID=June_1</title>
<path style="fill:none;stroke:black;" d="M1680,-1337C1679,-1381 1678,-1470 1677,-1515"/>
<polygon style="fill:black;stroke:black;" points="1673.5,-1515 1677,-1525 1680.5,-1515 1673.5,-1515"/>
</g>
<!-- ID=NPDA -->
<g id="node61" class="node"><title>ID=NPDA</title>
<ellipse style="fill:none;stroke:black;" cx="1543" cy="-1813" rx="32.9792" ry="18"/>
<text text-anchor="middle" x="1543" y="-1809.2" style="font-family:Times New Roman;font-size:12.00;">NPDA</text>
</g>
<!-- ID=University_of_Oregon&#45;&gt;ID=NPDA -->
<g id="edge61" class="edge"><title>ID=University_of_Oregon&#45;&gt;ID=NPDA</title>
<path style="fill:none;stroke:black;" d="M1673,-1337C1650,-1423 1575,-1697 1551,-1785"/>
<polygon style="fill:black;stroke:black;" points="1547.52,-1784.42 1548,-1795 1554.23,-1786.43 1547.52,-1784.42"/>
</g>
<!-- ID=Johns_Hopkins_University -->
<g id="node64" class="node"><title>ID=Johns_Hopkins_University</title>
<ellipse style="fill:none;stroke:black;" cx="1477" cy="-1480" rx="110.043" ry="18"/>
<text text-anchor="middle" x="1477" y="-1476.2" style="font-family:Times New Roman;font-size:12.00;">Johns Hopkins University</text>
</g>
<!-- ID=University_of_Oregon&#45;&gt;ID=Johns_Hopkins_University -->
<g id="edge64" class="edge"><title>ID=University_of_Oregon&#45;&gt;ID=Johns_Hopkins_University</title>
<path style="fill:none;stroke:black;" d="M1649,-1337C1610,-1369 1544,-1424 1506,-1455"/>
<polygon style="fill:black;stroke:black;" points="1503.22,-1452.78 1498,-1462 1507.83,-1458.05 1503.22,-1452.78"/>
</g>
<!-- ID=Oregon_Institute_of_Technology -->
<g id="node70" class="node"><title>ID=Oregon_Institute_of_Technology</title>
<ellipse style="fill:none;stroke:black;" cx="1306" cy="-1722" rx="134.047" ry="18"/>
<text text-anchor="middle" x="1306" y="-1718.2" style="font-family:Times New Roman;font-size:12.00;">Oregon Institute of Technology</text>
</g>
<!-- ID=University_of_Oregon&#45;&gt;ID=Oregon_Institute_of_Technology -->
<g id="edge70" class="edge"><title>ID=University_of_Oregon&#45;&gt;ID=Oregon_Institute_of_Technology</title>
<path style="fill:none;stroke:black;" d="M1656,-1337C1588,-1410 1396,-1622 1330,-1696"/>
<polygon style="fill:black;stroke:black;" points="1326.95,-1694.17 1323,-1704 1332.22,-1698.78 1326.95,-1694.17"/>
</g>
<!-- ID=Tennessee -->
<g id="node58" class="node"><title>ID=Tennessee</title>
<ellipse style="fill:none;stroke:black;" cx="1682" cy="-2186" rx="34.0637" ry="18"/>
<text text-anchor="middle" x="1682" y="-2183.8" style="font-family:Times New Roman;font-size:8.00;">Tennessee</text>
</g>
<!-- ID=June_1&#45;&gt;ID=Tennessee -->
<g id="edge58" class="edge"><title>ID=June_1&#45;&gt;ID=Tennessee</title>
<path style="fill:none;stroke:black;" d="M1677,-1561C1678,-1651 1681,-2047 1682,-2158"/>
<polygon style="fill:black;stroke:black;" points="1678.5,-2158 1682,-2168 1685.5,-2158 1678.5,-2158"/>
</g>
<!-- ID=Allegany_College_of_Maryland -->
<g id="node67" class="node"><title>ID=Allegany_College_of_Maryland</title>
<ellipse style="fill:none;stroke:black;" cx="1360" cy="-2233" rx="82.0607" ry="18"/>
<text text-anchor="middle" x="1360" y="-2230.8" style="font-family:Times New Roman;font-size:8.00;">Allegany College of Maryland</text>
</g>
<!-- ID=Johns_Hopkins_University&#45;&gt;ID=Allegany_College_of_Maryland -->
<g id="edge67" class="edge"><title>ID=Johns_Hopkins_University&#45;&gt;ID=Allegany_College_of_Maryland</title>
<path style="fill:none;stroke:black;" d="M1474,-1498C1458,-1598 1384,-2082 1365,-2205"/>
<polygon style="fill:black;stroke:black;" points="1361.53,-2204.51 1363,-2215 1368.39,-2205.88 1361.53,-2204.51"/>
</g>
<!-- ID=Klamath_Falls,_Oregon -->
<g id="node73" class="node"><title>ID=Klamath_Falls,_Oregon</title>
<ellipse style="fill:none;stroke:black;" cx="1103" cy="-2031" rx="65.8179" ry="18"/>
<text text-anchor="middle" x="1103" y="-2028.8" style="font-family:Times New Roman;font-size:8.00;">Klamath Falls, Oregon</text>
</g>
<!-- ID=Oregon_Institute_of_Technology&#45;&gt;ID=Klamath_Falls,_Oregon -->
<g id="edge73" class="edge"><title>ID=Oregon_Institute_of_Technology&#45;&gt;ID=Klamath_Falls,_Oregon</title>
<path style="fill:none;stroke:black;" d="M1294,-1740C1260,-1792 1161,-1943 1121,-2005"/>
<polygon style="fill:black;stroke:black;" points="1118.2,-2002.9 1115,-2013 1123.8,-2007.1 1118.2,-2002.9"/>
</g>
<!-- ID=Emerson_College -->
<g id="node79" class="node"><title>ID=Emerson_College</title>
<ellipse style="fill:none;stroke:black;" cx="1264" cy="-1385" rx="77.1949" ry="18"/>
<text text-anchor="middle" x="1264" y="-1381.2" style="font-family:Times New Roman;font-size:12.00;">Emerson College</text>
</g>
<!-- ID=Boston_University&#45;&gt;ID=Emerson_College -->
<g id="edge79" class="edge"><title>ID=Boston_University&#45;&gt;ID=Emerson_College</title>
<path style="fill:none;stroke:black;" d="M1447,-1250C1405,-1281 1335,-1332 1295,-1362"/>
<polygon style="fill:black;stroke:black;" points="1292.9,-1359.2 1287,-1368 1297.1,-1364.8 1292.9,-1359.2"/>
</g>
<!-- ID=Great_Boston_Fire_of_1872 -->
<g id="node85" class="node"><title>ID=Great_Boston_Fire_of_1872</title>
<ellipse style="fill:none;stroke:black;" cx="1032" cy="-1608" rx="113.07" ry="18"/>
<text text-anchor="middle" x="1032" y="-1604.2" style="font-family:Times New Roman;font-size:12.00;">Great Boston Fire of 1872</text>
</g>
<!-- ID=Boston_University&#45;&gt;ID=Great_Boston_Fire_of_1872 -->
<g id="edge85" class="edge"><title>ID=Boston_University&#45;&gt;ID=Great_Boston_Fire_of_1872</title>
<path style="fill:none;stroke:black;" d="M1451,-1250C1369,-1321 1141,-1515 1061,-1583"/>
<polygon style="fill:black;stroke:black;" points="1058.22,-1580.78 1053,-1590 1062.83,-1586.05 1058.22,-1580.78"/>
</g>
<!-- ID=Citgo -->
<g id="node91" class="node"><title>ID=Citgo</title>
<ellipse style="fill:none;stroke:black;" cx="714" cy="-1373" rx="31.0825" ry="18"/>
<text text-anchor="middle" x="714" y="-1369.2" style="font-family:Times New Roman;font-size:12.00;">Citgo</text>
</g>
<!-- ID=Boston_University&#45;&gt;ID=Citgo -->
<g id="edge91" class="edge"><title>ID=Boston_University&#45;&gt;ID=Citgo</title>
<path style="fill:none;stroke:black;" d="M1376,-1244C1203,-1278 868,-1343 754,-1365"/>
<polygon style="fill:black;stroke:black;" points="753.119,-1361.61 744,-1367 754.492,-1368.47 753.119,-1361.61"/>
</g>
<!-- ID=University_of_Wisconsin&#45;Madison -->
<g id="node97" class="node"><title>ID=University_of_Wisconsin&#45;Madison</title>
<ellipse style="fill:none;stroke:black;" cx="1023" cy="-1236" rx="140.232" ry="18"/>
<text text-anchor="middle" x="1023" y="-1232.2" style="font-family:Times New Roman;font-size:12.00;">University of Wisconsin&#45;Madison</text>
</g>
<!-- ID=Boston_University&#45;&gt;ID=University_of_Wisconsin&#45;Madison -->
<g id="edge97" class="edge"><title>ID=Boston_University&#45;&gt;ID=University_of_Wisconsin&#45;Madison</title>
<path style="fill:none;stroke:black;" d="M1313,-1228C1266,-1230 1216,-1231 1170,-1232"/>
<polygon style="fill:black;stroke:black;" points="1170,-1228.5 1160,-1232 1170,-1235.5 1170,-1228.5"/>
</g>
<!-- ID=Shakespearean -->
<g id="node82" class="node"><title>ID=Shakespearean</title>
<ellipse style="fill:none;stroke:black;" cx="757" cy="-2201" rx="46.8444" ry="18"/>
<text text-anchor="middle" x="757" y="-2198.8" style="font-family:Times New Roman;font-size:8.00;">Shakespearean</text>
</g>
<!-- ID=Emerson_College&#45;&gt;ID=Shakespearean -->
<g id="edge82" class="edge"><title>ID=Emerson_College&#45;&gt;ID=Shakespearean</title>
<path style="fill:none;stroke:black;" d="M1253,-1403C1187,-1509 851,-2050 773,-2174"/>
<polygon style="fill:black;stroke:black;" points="769.797,-2172.56 768,-2183 775.916,-2175.96 769.797,-2172.56"/>
</g>
<!-- ID=Building_code -->
<g id="node88" class="node"><title>ID=Building_code</title>
<ellipse style="fill:none;stroke:black;" cx="136" cy="-2151" rx="42.8036" ry="18"/>
<text text-anchor="middle" x="136" y="-2148.8" style="font-family:Times New Roman;font-size:8.00;">Building code</text>
</g>
<!-- ID=Great_Boston_Fire_of_1872&#45;&gt;ID=Building_code -->
<g id="edge88" class="edge"><title>ID=Great_Boston_Fire_of_1872&#45;&gt;ID=Building_code</title>
<path style="fill:none;stroke:black;" d="M1003,-1625C870,-1706 313,-2044 170,-2131"/>
<polygon style="fill:black;stroke:black;" points="168.042,-2128.08 161,-2136 171.441,-2134.2 168.042,-2128.08"/>
</g>
<!-- ID=Petrochemical -->
<g id="node94" class="node"><title>ID=Petrochemical</title>
<ellipse style="fill:none;stroke:black;" cx="659" cy="-1737" rx="43.9565" ry="18"/>
<text text-anchor="middle" x="659" y="-1734.8" style="font-family:Times New Roman;font-size:8.00;">Petrochemical</text>
</g>
<!-- ID=Citgo&#45;&gt;ID=Petrochemical -->
<g id="edge94" class="edge"><title>ID=Citgo&#45;&gt;ID=Petrochemical</title>
<path style="fill:none;stroke:black;" d="M711,-1391C702,-1450 674,-1637 663,-1709"/>
<polygon style="fill:black;stroke:black;" points="659.512,-1708.7 662,-1719 666.478,-1709.4 659.512,-1708.7"/>
</g>
<!-- ID=Business -->
<g id="node100" class="node"><title>ID=Business</title>
<ellipse style="fill:none;stroke:black;" cx="56" cy="-1624" rx="30.0222" ry="18"/>
<text text-anchor="middle" x="56" y="-1621.8" style="font-family:Times New Roman;font-size:8.00;">Business</text>
</g>
<!-- ID=University_of_Wisconsin&#45;Madison&#45;&gt;ID=Business -->
<g id="edge100" class="edge"><title>ID=University_of_Wisconsin&#45;Madison&#45;&gt;ID=Business</title>
<path style="fill:none;stroke:black;" d="M980,-1253C818,-1318 239,-1550 91,-1610"/>
<polygon style="fill:black;stroke:black;" points="88.9849,-1607.04 81,-1614 91.5847,-1613.54 88.9849,-1607.04"/>
</g>
<!-- ID=Domestic_sheep -->
<g id="node106" class="node"><title>ID=Domestic_sheep</title>
<ellipse style="fill:none;stroke:black;" cx="1016" cy="-909" rx="73.9061" ry="18"/>
<text text-anchor="middle" x="1016" y="-905.2" style="font-family:Times New Roman;font-size:12.00;">Domestic sheep</text>
</g>
<!-- ID=Mascot&#45;&gt;ID=Domestic_sheep -->
<g id="edge106" class="edge"><title>ID=Mascot&#45;&gt;ID=Domestic_sheep</title>
<path style="fill:none;stroke:black;" d="M1242,-1072C1193,-1036 1098,-968 1048,-932"/>
<polygon style="fill:black;stroke:black;" points="1050.1,-929.2 1040,-926 1045.9,-934.8 1050.1,-929.2"/>
</g>
<!-- ID=Mascot_(disambiguation) -->
<g id="node112" class="node"><title>ID=Mascot_(disambiguation)</title>
<ellipse style="fill:none;stroke:black;" cx="658" cy="-1017" rx="108.781" ry="18"/>
<text text-anchor="middle" x="658" y="-1013.2" style="font-family:Times New Roman;font-size:12.00;">Mascot (disambiguation)</text>
</g>
<!-- ID=Mascot&#45;&gt;ID=Mascot_(disambiguation) -->
<g id="edge112" class="edge"><title>ID=Mascot&#45;&gt;ID=Mascot_(disambiguation)</title>
<path style="fill:none;stroke:black;" d="M1204,-1087C1093,-1072 879,-1045 754,-1029"/>
<polygon style="fill:black;stroke:black;" points="754.299,-1025.51 744,-1028 753.602,-1032.48 754.299,-1025.51"/>
</g>
<!-- ID=Totem -->
<g id="node118" class="node"><title>ID=Totem</title>
<ellipse style="fill:none;stroke:black;" cx="673" cy="-646" rx="34.2387" ry="18"/>
<text text-anchor="middle" x="673" y="-642.2" style="font-family:Times New Roman;font-size:12.00;">Totem</text>
</g>
<!-- ID=Mascot&#45;&gt;ID=Totem -->
<g id="edge118" class="edge"><title>ID=Mascot&#45;&gt;ID=Totem</title>
<path style="fill:none;stroke:black;" d="M1243,-1072C1138,-993 800,-741 701,-667"/>
<polygon style="fill:black;stroke:black;" points="703.1,-664.2 693,-661 698.9,-669.8 703.1,-664.2"/>
</g>
<!-- ID=Emperor_Penguin -->
<g id="node124" class="node"><title>ID=Emperor_Penguin</title>
<ellipse style="fill:none;stroke:black;" cx="1028" cy="-542" rx="80.2229" ry="18"/>
<text text-anchor="middle" x="1028" y="-538.2" style="font-family:Times New Roman;font-size:12.00;">Emperor Penguin</text>
</g>
<!-- ID=Mascot&#45;&gt;ID=Emperor_Penguin -->
<g id="edge124" class="edge"><title>ID=Mascot&#45;&gt;ID=Emperor_Penguin</title>
<path style="fill:none;stroke:black;" d="M1263,-1070C1222,-977 1083,-664 1040,-569"/>
<polygon style="fill:black;stroke:black;" points="1043.26,-567.717 1036,-560 1036.86,-570.56 1043.26,-567.717"/>
</g>
<!-- ID=Anesthesia -->
<g id="node109" class="node"><title>ID=Anesthesia</title>
<ellipse style="fill:none;stroke:black;" cx="284" cy="-1287" rx="35.8748" ry="18"/>
<text text-anchor="middle" x="284" y="-1284.8" style="font-family:Times New Roman;font-size:8.00;">Anesthesia</text>
</g>
<!-- ID=Domestic_sheep&#45;&gt;ID=Anesthesia -->
<g id="edge109" class="edge"><title>ID=Domestic_sheep&#45;&gt;ID=Anesthesia</title>
<path style="fill:none;stroke:black;" d="M984,-925C864,-987 441,-1206 318,-1269"/>
<polygon style="fill:black;stroke:black;" points="316.042,-1266.08 309,-1274 319.441,-1272.2 316.042,-1266.08"/>
</g>
<!-- ID=Mascot_(car) -->
<g id="node115" class="node"><title>ID=Mascot_(car)</title>
<ellipse style="fill:none;stroke:black;" cx="41" cy="-977" rx="39.8372" ry="18"/>
<text text-anchor="middle" x="41" y="-974.8" style="font-family:Times New Roman;font-size:8.00;">Mascot (car)</text>
</g>
<!-- ID=Mascot_(disambiguation)&#45;&gt;ID=Mascot_(car) -->
<g id="edge115" class="edge"><title>ID=Mascot_(disambiguation)&#45;&gt;ID=Mascot_(car)</title>
<path style="fill:none;stroke:black;" d="M556,-1010C423,-1001 192,-987 91,-981"/>
<polygon style="fill:black;stroke:black;" points="91.2987,-977.512 81,-980 90.6021,-984.478 91.2987,-977.512"/>
</g>
<!-- ID=Articles_lacking_sources_from_November_2007 -->
<g id="node121" class="node"><title>ID=Articles_lacking_sources_from_November_2007</title>
<ellipse style="fill:none;stroke:black;" cx="140" cy="-570" rx="121.244" ry="18"/>
<text text-anchor="middle" x="140" y="-567.8" style="font-family:Times New Roman;font-size:8.00;">Articles lacking sources from November 2007</text>
</g>
<!-- ID=Totem&#45;&gt;ID=Articles_lacking_sources_from_November_2007 -->
<g id="edge121" class="edge"><title>ID=Totem&#45;&gt;ID=Articles_lacking_sources_from_November_2007</title>
<path style="fill:none;stroke:black;" d="M640,-641C561,-630 359,-602 237,-584"/>
<polygon style="fill:black;stroke:black;" points="237.492,-580.529 227,-582 236.119,-587.393 237.492,-580.529"/>
</g>
<!-- ID=Celsius -->
<g id="node127" class="node"><title>ID=Celsius</title>
<ellipse style="fill:none;stroke:black;" cx="118" cy="-98" rx="27" ry="18"/>
<text text-anchor="middle" x="118" y="-95.8" style="font-family:Times New Roman;font-size:8.00;">Celsius</text>
</g>
<!-- ID=Emperor_Penguin&#45;&gt;ID=Celsius -->
<g id="edge127" class="edge"><title>ID=Emperor_Penguin&#45;&gt;ID=Celsius</title>
<path style="fill:none;stroke:black;" d="M994,-526C850,-455 288,-181 149,-114"/>
<polygon style="fill:black;stroke:black;" points="150.441,-110.797 140,-109 147.042,-116.916 150.441,-110.797"/>
</g>
<!-- ID=April_12 -->
<g id="node136" class="node"><title>ID=April_12</title>
<ellipse style="fill:none;stroke:black;" cx="1317" cy="-508" rx="41.1883" ry="18"/>
<text text-anchor="middle" x="1317" y="-504.2" style="font-family:Times New Roman;font-size:12.00;">April 12</text>
</g>
<!-- ID=May_16&#45;&gt;ID=April_12 -->
<g id="edge136" class="edge"><title>ID=May_16&#45;&gt;ID=April_12</title>
<path style="fill:none;stroke:black;" d="M1491,-963C1459,-879 1360,-620 1328,-535"/>
<polygon style="fill:black;stroke:black;" points="1331.26,-533.717 1324,-526 1324.86,-536.56 1331.26,-533.717"/>
</g>
<!-- ID=Alex_Rizzo -->
<g id="node142" class="node"><title>ID=Alex_Rizzo</title>
<ellipse style="fill:none;stroke:black;" cx="1528" cy="-744" rx="49.9024" ry="18"/>
<text text-anchor="middle" x="1528" y="-740.2" style="font-family:Times New Roman;font-size:12.00;">Alex Rizzo</text>
</g>
<!-- ID=May_16&#45;&gt;ID=Alex_Rizzo -->
<g id="edge142" class="edge"><title>ID=May_16&#45;&gt;ID=Alex_Rizzo</title>
<path style="fill:none;stroke:black;" d="M1504,-963C1510,-917 1519,-820 1525,-772"/>
<polygon style="fill:black;stroke:black;" points="1528.49,-772.299 1526,-762 1521.52,-771.602 1528.49,-772.299"/>
</g>
<!-- ID=1591 -->
<g id="node148" class="node"><title>ID=1591</title>
<ellipse style="fill:none;stroke:black;" cx="1572" cy="-452" rx="29.0571" ry="18"/>
<text text-anchor="middle" x="1572" y="-448.2" style="font-family:Times New Roman;font-size:12.00;">1591</text>
</g>
<!-- ID=May_16&#45;&gt;ID=1591 -->
<g id="edge148" class="edge"><title>ID=May_16&#45;&gt;ID=1591</title>
<path style="fill:none;stroke:black;" d="M1504,-963C1517,-873 1556,-574 1569,-480"/>
<polygon style="fill:black;stroke:black;" points="1572.49,-480.299 1570,-470 1565.52,-479.602 1572.49,-480.299"/>
</g>
<!-- ID=National_Assembly_of_Kuwait -->
<g id="node154" class="node"><title>ID=National_Assembly_of_Kuwait</title>
<ellipse style="fill:none;stroke:black;" cx="1726" cy="-885" rx="123.809" ry="18"/>
<text text-anchor="middle" x="1726" y="-881.2" style="font-family:Times New Roman;font-size:12.00;">National Assembly of Kuwait</text>
</g>
<!-- ID=May_16&#45;&gt;ID=National_Assembly_of_Kuwait -->
<g id="edge154" class="edge"><title>ID=May_16&#45;&gt;ID=National_Assembly_of_Kuwait</title>
<path style="fill:none;stroke:black;" d="M1547,-968C1586,-950 1641,-924 1679,-906"/>
<polygon style="fill:black;stroke:black;" points="1681.02,-908.964 1689,-902 1678.42,-902.464 1681.02,-908.964"/>
</g>
<!-- ID=Fort_Pillow_massacre -->
<g id="node139" class="node"><title>ID=Fort_Pillow_massacre</title>
<ellipse style="fill:none;stroke:black;" cx="696" cy="-133" rx="60.1208" ry="18"/>
<text text-anchor="middle" x="696" y="-130.8" style="font-family:Times New Roman;font-size:8.00;">Fort Pillow massacre</text>
</g>
<!-- ID=April_12&#45;&gt;ID=Fort_Pillow_massacre -->
<g id="edge139" class="edge"><title>ID=April_12&#45;&gt;ID=Fort_Pillow_massacre</title>
<path style="fill:none;stroke:black;" d="M1293,-493C1197,-436 845,-223 732,-154"/>
<polygon style="fill:black;stroke:black;" points="733.441,-150.797 723,-149 730.042,-156.916 733.441,-150.797"/>
</g>
<!-- ID=Andre_the_Giant -->
<g id="node145" class="node"><title>ID=Andre_the_Giant</title>
<ellipse style="fill:none;stroke:black;" cx="1087" cy="-70" rx="50.2295" ry="18"/>
<text text-anchor="middle" x="1087" y="-67.8" style="font-family:Times New Roman;font-size:8.00;">Andre the Giant</text>
</g>
<!-- ID=Alex_Rizzo&#45;&gt;ID=Andre_the_Giant -->
<g id="edge145" class="edge"><title>ID=Alex_Rizzo&#45;&gt;ID=Andre_the_Giant</title>
<path style="fill:none;stroke:black;" d="M1516,-726C1456,-634 1177,-207 1105,-97"/>
<polygon style="fill:black;stroke:black;" points="1107.46,-94.3791 1099,-88 1101.63,-98.262 1107.46,-94.3791"/>
</g>
<!-- ID=Jacobus_Gallus -->
<g id="node151" class="node"><title>ID=Jacobus_Gallus</title>
<ellipse style="fill:none;stroke:black;" cx="1400" cy="-99" rx="43.9565" ry="18"/>
<text text-anchor="middle" x="1400" y="-96.8" style="font-family:Times New Roman;font-size:8.00;">Jacobus Gallus</text>
</g>
<!-- ID=1591&#45;&gt;ID=Jacobus_Gallus -->
<g id="edge151" class="edge"><title>ID=1591&#45;&gt;ID=Jacobus_Gallus</title>
<path style="fill:none;stroke:black;" d="M1563,-434C1535,-377 1447,-196 1414,-126"/>
<polygon style="fill:black;stroke:black;" points="1416.92,-124.042 1409,-117 1410.8,-127.441 1416.92,-124.042"/>
</g>
<!-- ID=1991 -->
<g id="node157" class="node"><title>ID=1991</title>
<ellipse style="fill:none;stroke:black;" cx="1691" cy="-19" rx="27" ry="18"/>
<text text-anchor="middle" x="1691" y="-16.8" style="font-family:Times New Roman;font-size:8.00;">1991</text>
</g>
<!-- ID=National_Assembly_of_Kuwait&#45;&gt;ID=1991 -->
<g id="edge157" class="edge"><title>ID=National_Assembly_of_Kuwait&#45;&gt;ID=1991</title>
<path style="fill:none;stroke:black;" d="M1725,-867C1720,-758 1697,-182 1692,-47"/>
<polygon style="fill:black;stroke:black;" points="1695.5,-47 1692,-37 1688.5,-47 1695.5,-47"/>
</g>
<!-- ID=Stellar_spectra -->
<g id="node163" class="node"><title>ID=Stellar_spectra</title>
<ellipse style="fill:none;stroke:black;" cx="1766" cy="-642" rx="68.8527" ry="18"/>
<text text-anchor="middle" x="1766" y="-638.2" style="font-family:Times New Roman;font-size:12.00;">Stellar spectra</text>
</g>
<!-- ID=University_of_Chicago&#45;&gt;ID=Stellar_spectra -->
<g id="edge163" class="edge"><title>ID=University_of_Chicago&#45;&gt;ID=Stellar_spectra</title>
<path style="fill:none;stroke:black;" d="M1893,-1001C1868,-931 1801,-741 1775,-670"/>
<polygon style="fill:black;stroke:black;" points="1778.23,-668.573 1772,-660 1771.52,-670.584 1778.23,-668.573"/>
</g>
<!-- ID=July_6 -->
<g id="node166" class="node"><title>ID=July_6</title>
<ellipse style="fill:none;stroke:black;" cx="1962" cy="-774" rx="32.2155" ry="18"/>
<text text-anchor="middle" x="1962" y="-770.2" style="font-family:Times New Roman;font-size:12.00;">July 6</text>
</g>
<!-- ID=University_of_Chicago&#45;&gt;ID=July_6 -->
<g id="edge166" class="edge"><title>ID=University_of_Chicago&#45;&gt;ID=July_6</title>
<path style="fill:none;stroke:black;" d="M1908,-1001C1920,-953 1944,-851 1956,-802"/>
<polygon style="fill:black;stroke:black;" points="1959.47,-802.492 1958,-792 1952.61,-801.119 1959.47,-802.492"/>
</g>
<!-- ID=Ernest_Burgess -->
<g id="node172" class="node"><title>ID=Ernest_Burgess</title>
<ellipse style="fill:none;stroke:black;" cx="2033" cy="-477" rx="72.1418" ry="18"/>
<text text-anchor="middle" x="2033" y="-473.2" style="font-family:Times New Roman;font-size:12.00;">Ernest Burgess</text>
</g>
<!-- ID=University_of_Chicago&#45;&gt;ID=Ernest_Burgess -->
<g id="edge172" class="edge"><title>ID=University_of_Chicago&#45;&gt;ID=Ernest_Burgess</title>
<path style="fill:none;stroke:black;" d="M1908,-1001C1930,-909 2003,-600 2027,-505"/>
<polygon style="fill:black;stroke:black;" points="2030.47,-505.492 2029,-495 2023.61,-504.119 2030.47,-505.492"/>
</g>
<!-- ID=Midway_Plaisance -->
<g id="node178" class="node"><title>ID=Midway_Plaisance</title>
<ellipse style="fill:none;stroke:black;" cx="2234" cy="-605" rx="80.9863" ry="18"/>
<text text-anchor="middle" x="2234" y="-601.2" style="font-family:Times New Roman;font-size:12.00;">Midway Plaisance</text>
</g>
<!-- ID=University_of_Chicago&#45;&gt;ID=Midway_Plaisance -->
<g id="edge178" class="edge"><title>ID=University_of_Chicago&#45;&gt;ID=Midway_Plaisance</title>
<path style="fill:none;stroke:black;" d="M1923,-1001C1982,-925 2155,-707 2214,-631"/>
<polygon style="fill:black;stroke:black;" points="2216.8,-633.1 2220,-623 2211.2,-628.9 2216.8,-633.1"/>
</g>
<!-- ID=1766 -->
<g id="node169" class="node"><title>ID=1766</title>
<ellipse style="fill:none;stroke:black;" cx="1824" cy="-347" rx="27" ry="18"/>
<text text-anchor="middle" x="1824" y="-344.8" style="font-family:Times New Roman;font-size:8.00;">1766</text>
</g>
<!-- ID=July_6&#45;&gt;ID=1766 -->
<g id="edge169" class="edge"><title>ID=July_6&#45;&gt;ID=1766</title>
<path style="fill:none;stroke:black;" d="M1956,-756C1935,-689 1859,-455 1833,-375"/>
<polygon style="fill:black;stroke:black;" points="1836.23,-373.573 1830,-365 1829.52,-375.584 1836.23,-373.573"/>
</g>
<!-- ID=1916 -->
<g id="node175" class="node"><title>ID=1916</title>
<ellipse style="fill:none;stroke:black;" cx="2061" cy="-25" rx="27" ry="18"/>
<text text-anchor="middle" x="2061" y="-22.8" style="font-family:Times New Roman;font-size:8.00;">1916</text>
</g>
<!-- ID=Ernest_Burgess&#45;&gt;ID=1916 -->
<g id="edge175" class="edge"><title>ID=Ernest_Burgess&#45;&gt;ID=1916</title>
<path style="fill:none;stroke:black;" d="M2034,-459C2038,-389 2054,-138 2059,-53"/>
<polygon style="fill:black;stroke:black;" points="2062.49,-53.2987 2060,-43 2055.52,-52.6021 2062.49,-53.2987"/>
</g>
<!-- ID=Central_Park -->
<g id="node181" class="node"><title>ID=Central_Park</title>
<ellipse style="fill:none;stroke:black;" cx="2348" cy="-163" rx="42.1466" ry="18"/>
<text text-anchor="middle" x="2348" y="-160.8" style="font-family:Times New Roman;font-size:8.00;">Central Park</text>
</g>
<!-- ID=Midway_Plaisance&#45;&gt;ID=Central_Park -->
<g id="edge181" class="edge"><title>ID=Midway_Plaisance&#45;&gt;ID=Central_Park</title>
<path style="fill:none;stroke:black;" d="M2239,-587C2256,-519 2320,-274 2341,-191"/>
<polygon style="fill:black;stroke:black;" points="2344.47,-191.492 2343,-181 2337.61,-190.119 2344.47,-191.492"/>
</g>
<!-- ID=December_6 -->
<g id="node187" class="node"><title>ID=December_6</title>
<ellipse style="fill:none;stroke:black;" cx="2375" cy="-854" rx="58.1142" ry="18"/>
<text text-anchor="middle" x="2375" y="-850.2" style="font-family:Times New Roman;font-size:12.00;">December 6</text>
</g>
<!-- ID=University_of_Michigan&#45;&gt;ID=December_6 -->
<g id="edge187" class="edge"><title>ID=University_of_Michigan&#45;&gt;ID=December_6</title>
<path style="fill:none;stroke:black;" d="M2199,-909C2240,-896 2289,-881 2324,-870"/>
<polygon style="fill:black;stroke:black;" points="2325.43,-873.226 2334,-867 2323.42,-866.521 2325.43,-873.226"/>
</g>
<!-- ID=Correlates_of_War -->
<g id="node193" class="node"><title>ID=Correlates_of_War</title>
<ellipse style="fill:none;stroke:black;" cx="2555" cy="-557" rx="80.2229" ry="18"/>
<text text-anchor="middle" x="2555" y="-553.2" style="font-family:Times New Roman;font-size:12.00;">Correlates of War</text>
</g>
<!-- ID=University_of_Michigan&#45;&gt;ID=Correlates_of_War -->
<g id="edge193" class="edge"><title>ID=University_of_Michigan&#45;&gt;ID=Correlates_of_War</title>
<path style="fill:none;stroke:black;" d="M2151,-907C2231,-838 2448,-649 2527,-582"/>
<polygon style="fill:black;stroke:black;" points="2529.78,-584.219 2535,-575 2525.17,-578.951 2529.78,-584.219"/>
</g>
<!-- ID=Ewigleben_Arena -->
<g id="node199" class="node"><title>ID=Ewigleben_Arena</title>
<ellipse style="fill:none;stroke:black;" cx="2705" cy="-942" rx="78.9595" ry="18"/>
<text text-anchor="middle" x="2705" y="-938.2" style="font-family:Times New Roman;font-size:12.00;">Ewigleben Arena</text>
</g>
<!-- ID=University_of_Michigan&#45;&gt;ID=Ewigleben_Arena -->
<g id="edge199" class="edge"><title>ID=University_of_Michigan&#45;&gt;ID=Ewigleben_Arena</title>
<path style="fill:none;stroke:black;" d="M2334,-936C2431,-938 2541,-940 2616,-941"/>
<polygon style="fill:black;stroke:black;" points="2616,-944.5 2626,-941 2616,-937.5 2616,-944.5"/>
</g>
<!-- ID=Big_Ten_Conference -->
<g id="node205" class="node"><title>ID=Big_Ten_Conference</title>
<ellipse style="fill:none;stroke:black;" cx="2353" cy="-1118" rx="89.0663" ry="18"/>
<text text-anchor="middle" x="2353" y="-1114.2" style="font-family:Times New Roman;font-size:12.00;">Big Ten Conference</text>
</g>
<!-- ID=University_of_Michigan&#45;&gt;ID=Big_Ten_Conference -->
<g id="edge205" class="edge"><title>ID=University_of_Michigan&#45;&gt;ID=Big_Ten_Conference</title>
<path style="fill:none;stroke:black;" d="M2153,-959C2198,-995 2279,-1060 2323,-1094"/>
<polygon style="fill:black;stroke:black;" points="2320.9,-1096.8 2331,-1100 2325.1,-1091.2 2320.9,-1096.8"/>
</g>
<!-- ID=1972 -->
<g id="node190" class="node"><title>ID=1972</title>
<ellipse style="fill:none;stroke:black;" cx="2742" cy="-82" rx="27" ry="18"/>
<text text-anchor="middle" x="2742" y="-79.8" style="font-family:Times New Roman;font-size:8.00;">1972</text>
</g>
<!-- ID=December_6&#45;&gt;ID=1972 -->
<g id="edge190" class="edge"><title>ID=December_6&#45;&gt;ID=1972</title>
<path style="fill:none;stroke:black;" d="M2384,-836C2433,-734 2671,-231 2730,-108"/>
<polygon style="fill:black;stroke:black;" points="2733.14,-109.56 2734,-99 2726.74,-106.717 2733.14,-109.56"/>
</g>
<!-- ID=University_of_Michigan_Men&#39;s_Glee_Club -->
<g id="node196" class="node"><title>ID=University_of_Michigan_Men&#39;s_Glee_Club</title>
<ellipse style="fill:none;stroke:black;" cx="3338" cy="-181" rx="106.888" ry="18"/>
<text text-anchor="middle" x="3338" y="-178.8" style="font-family:Times New Roman;font-size:8.00;">University of Michigan Men&#39;s Glee Club</text>
</g>
<!-- ID=Correlates_of_War&#45;&gt;ID=University_of_Michigan_Men&#39;s_Glee_Club -->
<g id="edge196" class="edge"><title>ID=Correlates_of_War&#45;&gt;ID=University_of_Michigan_Men&#39;s_Glee_Club</title>
<path style="fill:none;stroke:black;" d="M2589,-541C2715,-480 3151,-271 3293,-202"/>
<polygon style="fill:black;stroke:black;" points="3294.28,-205.26 3302,-198 3291.44,-198.863 3294.28,-205.26"/>
</g>
<!-- ID=Ferris_State_University -->
<g id="node202" class="node"><title>ID=Ferris_State_University</title>
<ellipse style="fill:none;stroke:black;" cx="2950" cy="-618" rx="65.8179" ry="18"/>
<text text-anchor="middle" x="2950" y="-615.8" style="font-family:Times New Roman;font-size:8.00;">Ferris State University</text>
</g>
<!-- ID=Ewigleben_Arena&#45;&gt;ID=Ferris_State_University -->
<g id="edge202" class="edge"><title>ID=Ewigleben_Arena&#45;&gt;ID=Ferris_State_University</title>
<path style="fill:none;stroke:black;" d="M2719,-924C2760,-870 2882,-707 2931,-644"/>
<polygon style="fill:black;stroke:black;" points="2933.8,-646.1 2937,-636 2928.2,-641.9 2933.8,-646.1"/>
</g>
<!-- ID=Virginia_Cavaliers_men&#39;s_basketball -->
<g id="node208" class="node"><title>ID=Virginia_Cavaliers_men&#39;s_basketball</title>
<ellipse style="fill:none;stroke:black;" cx="3388" cy="-905" rx="98.1495" ry="18"/>
<text text-anchor="middle" x="3388" y="-902.8" style="font-family:Times New Roman;font-size:8.00;">Virginia Cavaliers men&#39;s basketball</text>
</g>
<!-- ID=Big_Ten_Conference&#45;&gt;ID=Virginia_Cavaliers_men&#39;s_basketball -->
<g id="edge208" class="edge"><title>ID=Big_Ten_Conference&#45;&gt;ID=Virginia_Cavaliers_men&#39;s_basketball</title>
<path style="fill:none;stroke:black;" d="M2415,-1105C2596,-1068 3117,-961 3313,-920"/>
<polygon style="fill:black;stroke:black;" points="3313.88,-923.393 3323,-918 3312.51,-916.529 3313.88,-923.393"/>
</g>
</g>
</svg>
